M48
; DRILL file {KiCad 7.99.0-1.20230515git1adcb86.fc37} date Sun 21 May 2023 15:40:47 BST
; FORMAT={-:-/ absolute / metric / decimal}
; #@! TF.CreationDate,2023-05-21T15:40:47+01:00
; #@! TF.GenerationSoftware,Kicad,Pcbnew,7.99.0-1.20230515git1adcb86.fc37
; #@! TF.FileFunction,Plated,1,4,PTH
FMAT,2
METRIC
; #@! TA.AperFunction,Plated,PTH,ViaDrill
T1C0.300
; #@! TA.AperFunction,Plated,PTH,ComponentDrill
T2C0.350
; #@! TA.AperFunction,Plated,PTH,ComponentDrill
T3C0.380
; #@! TA.AperFunction,Plated,PTH,ComponentDrill
T4C0.600
%
G90
G05
T1
X100.55Y-62.258
X100.55Y-77.358
X100.55Y-79.807
X101.65Y-95.55
X101.75Y-82.507
X101.785Y-56.09
X101.85Y-49.8
X101.85Y-62.008
X101.85Y-62.557
X102.05Y-52.95
X102.3Y-101.507
X102.65Y-83.557
X103.15Y-48.65
X103.2Y-84.358
X103.65Y-62.857
X103.65Y-72.457
X103.75Y-86.907
X103.95Y-56.258
X104.25Y-97.108
X104.5Y-52.357
X104.75Y-64.858
X104.75Y-73.108
X105.15Y-64.007
X105.15Y-82.858
X105.7Y-63.307
X106.25Y-55.0
X106.7Y-117.358
X106.85Y-74.45
X106.85Y-80.407
X107.05Y-101.757
X107.35Y-84.007
X110.4Y-86.157
X110.8Y-84.557
X111.05Y-124.007
X111.15Y-127.157
X111.15Y-129.1
X111.9Y-62.807
X111.95Y-85.858
X112.05Y-48.357
X112.05Y-75.15
X112.2Y-70.858
X112.7Y-97.657
X112.7Y-99.657
X113.0Y-75.15
X113.05Y-57.258
X113.3Y-77.35
X113.35Y-56.157
X113.4Y-62.907
X113.4Y-71.457
X113.45Y-55.0
X114.55Y-90.108
X114.65Y-76.15
X114.85Y-93.057
X114.9Y-54.9
X115.05Y-62.957
X115.15Y-51.957
X115.75Y-81.757
X115.75Y-82.657
X115.8Y-136.607
X116.6Y-108.757
X116.9Y-148.457
X117.0Y-62.207
X117.0Y-69.907
X117.3Y-96.407
X117.35Y-95.082
X117.35Y-97.707
X117.35Y-99.657
X117.5Y-91.757
X117.65Y-148.907
X117.7Y-59.607
X117.7Y-92.507
X117.75Y-62.057
X117.75Y-94.432
X117.75Y-95.733
X118.3Y-81.507
X118.45Y-92.707
X118.95Y-59.557
X119.55Y-62.207
X119.55Y-71.9
X119.65Y-47.758
X119.8Y-144.507
X119.9Y-96.358
X120.1Y-152.607
X120.5Y-97.007
X120.6Y-98.358
X120.65Y-62.857
X120.65Y-81.957
X120.85Y-152.558
X121.3Y-47.707
X121.3Y-77.358
X122.661Y-151.536
X122.75Y-72.507
X122.8Y-90.257
X122.8Y-144.757
X123.4Y-102.757
X123.416Y-151.662
X123.479Y-146.498
X123.5Y-148.457
X123.542Y-152.416
X123.55Y-93.108
X124.1Y-94.307
X124.1Y-147.058
X124.109Y-145.171
X124.331Y-152.37
X124.35Y-75.758
X124.4Y-77.557
X124.532Y-143.259
X124.85Y-47.807
X124.85Y-93.707
X124.9Y-152.857
X124.95Y-97.207
X125.075Y-153.632
X125.278Y-142.729
X125.3Y-52.307
X125.3Y-74.05
X125.3Y-78.608
X125.682Y-142.325
X125.969Y-91.779
X126.0Y-90.957
X126.001Y-92.528
X126.05Y-97.207
X126.288Y-68.351
X126.35Y-120.907
X126.39Y-141.884
X126.521Y-152.657
X126.57Y-147.236
X126.8Y-140.957
X127.1Y-153.657
X127.15Y-64.807
X127.277Y-146.529
X127.277Y-147.943
X127.4Y-140.357
X127.984Y-145.822
X127.984Y-147.236
X127.984Y-148.65
X128.25Y-153.457
X128.3Y-140.357
X128.691Y-146.529
X128.691Y-147.943
X128.8Y-154.601
X129.0Y-158.05
X129.2Y-140.357
X129.216Y-67.247
X129.398Y-147.236
X129.65Y-69.307
X129.7Y-64.807
X129.747Y-153.179
X129.9Y-140.757
X130.0Y-157.85
X130.189Y-141.857
X130.25Y-155.757
X130.45Y-104.8
X131.0Y-156.7
X131.05Y-157.9
X131.103Y-153.44
X131.45Y-108.807
X131.55Y-158.7
X131.57Y-154.48
X131.686Y-142.544
X131.821Y-152.721
X131.9Y-156.6
X132.3Y-67.157
X132.65Y-61.407
X132.75Y-123.457
X132.87Y-155.78
X133.043Y-152.524
X133.071Y-143.428
X133.249Y-144.307
X133.25Y-43.607
X133.45Y-78.057
X133.45Y-82.8
X133.53Y-158.64
X133.75Y-58.607
X133.862Y-144.901
X134.4Y-59.957
X134.4Y-66.207
X134.45Y-91.157
X134.982Y-149.381
X135.3Y-91.157
X135.55Y-77.457
X135.55Y-82.8
X136.4Y-43.307
X136.45Y-141.607
X136.717Y-146.069
X137.2Y-66.307
X137.25Y-57.107
X137.25Y-64.757
X137.45Y-59.85
X137.45Y-76.858
X137.45Y-82.8
X137.7Y-143.058
X138.0Y-58.107
X138.25Y-65.407
X138.3Y-95.407
X138.375Y-146.95
X138.65Y-69.007
X138.7Y-56.7
X138.8Y-149.05
X139.05Y-43.107
X139.05Y-59.707
X139.1Y-60.508
X139.23Y-158.77
X139.25Y-58.707
X139.3Y-150.82
X139.45Y-69.007
X139.7Y-76.207
X139.7Y-82.8
X139.7Y-95.407
X140.45Y-64.757
X140.55Y-66.307
X140.75Y-158.77
X141.07Y-150.82
X141.1Y-62.807
X141.15Y-45.807
X141.35Y-58.758
X141.35Y-60.258
X141.35Y-75.593
X141.4Y-82.95
X141.6Y-102.757
X142.8Y-60.1
X142.9Y-76.858
X142.975Y-150.8
X143.0Y-62.957
X143.0Y-64.557
X143.15Y-47.657
X143.15Y-67.608
X143.15Y-80.057
X143.15Y-80.907
X143.24Y-158.75
X143.3Y-66.593
X143.55Y-43.008
X143.75Y-60.1
X143.757Y-154.388
X143.757Y-155.488
X144.05Y-142.257
X144.75Y-140.757
X144.888Y-43.195
X145.057Y-154.388
X145.107Y-155.588
X145.707Y-151.438
X145.707Y-152.438
X145.707Y-156.488
X145.707Y-158.438
X145.757Y-153.388
X146.2Y-45.207
X146.586Y-39.771
X146.95Y-141.457
X147.1Y-129.757
X147.15Y-46.457
X147.4Y-139.907
X147.85Y-42.457
X148.3Y-39.758
X148.425Y-103.4
X148.475Y-124.275
X149.482Y-39.525
X149.55Y-89.608
X149.55Y-95.007
X150.05Y-112.757
X150.3Y-90.057
X150.3Y-95.557
X150.5Y-41.407
X150.65Y-46.557
X150.85Y-100.957
X150.9Y-89.608
X150.9Y-95.057
X151.3Y-39.157
X151.9Y-43.907
X152.0Y-149.7
X152.55Y-53.907
X152.8Y-47.508
X153.65Y-55.107
X154.65Y-140.15
X155.7Y-141.2
X157.15Y-57.008
X157.5Y-43.907
X157.6Y-57.707
X158.3Y-55.657
X158.3Y-56.207
X158.85Y-55.657
X158.85Y-56.207
X158.85Y-60.25
X158.9Y-62.0
X159.4Y-55.657
X159.4Y-56.207
X161.15Y-95.858
X161.7Y-96.457
X163.3Y-45.557
X163.4Y-95.757
X164.025Y-91.833
X164.3Y-141.707
X164.45Y-91.157
X164.475Y-92.482
X164.6Y-95.757
X166.15Y-51.508
X166.15Y-52.057
X166.7Y-51.508
X166.7Y-52.057
X167.5Y-92.657
X167.9Y-52.207
X168.3Y-100.657
X168.45Y-52.207
X168.8Y-129.357
X169.0Y-52.207
X169.05Y-102.957
X169.1Y-59.607
X169.1Y-61.307
X169.55Y-52.207
X169.65Y-157.65
X169.75Y-156.75
X169.9Y-154.3
X170.1Y-91.157
X170.3Y-92.108
X170.7Y-99.157
X171.3Y-58.258
X172.0Y-53.758
X172.1Y-100.657
X173.0Y-52.758
X173.35Y-48.657
X173.5Y-146.75
X173.5Y-152.9
X173.6Y-56.457
X173.6Y-57.258
X173.6Y-58.157
X173.6Y-58.957
X173.8Y-112.457
X175.5Y-98.757
X175.65Y-143.85
X175.7Y-49.258
X175.7Y-53.258
X176.0Y-54.557
X176.3Y-92.707
X176.9Y-49.258
X177.6Y-48.0
X177.6Y-100.057
X178.2Y-61.307
X178.5Y-95.907
X178.7Y-55.357
X178.8Y-60.707
X178.85Y-54.107
X179.0Y-98.757
X179.0Y-100.057
X179.2Y-51.45
X179.35Y-60.107
X179.4Y-54.107
X180.0Y-139.558
X180.4Y-140.207
X181.2Y-134.957
X182.0Y-59.857
X182.05Y-58.857
X183.7Y-45.9
X184.7Y-130.257
X184.85Y-123.507
X185.0Y-54.557
X185.6Y-78.407
X185.649Y-79.157
X185.65Y-76.207
X185.7Y-58.457
X185.9Y-130.558
X185.95Y-129.308
X186.05Y-74.657
X186.75Y-91.157
X187.8Y-79.557
X187.8Y-82.807
X188.5Y-82.207
X188.622Y-80.557
X189.0Y-73.157
X189.75Y-115.108
X193.45Y-73.157
X194.4Y-97.358
X194.75Y-107.557
X194.8Y-48.232
X195.4Y-74.907
X196.625Y-52.332
X197.65Y-61.157
X198.9Y-66.707
X198.9Y-83.657
X198.95Y-90.657
X199.45Y-60.758
T2
X187.05Y-52.207
X187.05Y-52.807
X187.05Y-55.207
X187.05Y-55.807
X187.05Y-59.207
X187.05Y-59.807
X188.95Y-52.207
X188.95Y-52.807
X188.95Y-59.207
X188.95Y-59.807
X193.55Y-60.307
X193.55Y-60.907
X195.45Y-60.307
X195.45Y-60.907
T3
X138.202Y-170.857
X140.202Y-165.857
X140.202Y-170.857
X142.202Y-165.857
X142.202Y-170.857
X144.202Y-165.857
X144.202Y-170.857
X146.202Y-165.857
X146.202Y-170.857
X148.202Y-165.857
X148.202Y-170.857
X150.202Y-165.857
X150.202Y-170.857
X152.202Y-165.857
X152.202Y-170.857
X154.202Y-165.857
X154.202Y-170.857
X156.202Y-165.857
X156.202Y-170.857
T4
G00X172.48Y-45.307
M15
G01X172.48Y-46.107
M16
G05
G00X172.48Y-49.307
M15
G01X172.48Y-50.407
M16
G05
G00X181.12Y-45.307
M15
G01X181.12Y-46.107
M16
G05
G00X181.12Y-49.307
M15
G01X181.12Y-50.407
M16
G05
T0
M30
