M48
; DRILL file {KiCad 7.99.0-1.20230515git1adcb86.fc37} date Sun 21 May 2023 15:34:05 BST
; FORMAT={-:-/ absolute / metric / decimal}
; #@! TF.CreationDate,2023-05-21T15:34:05+01:00
; #@! TF.GenerationSoftware,Kicad,Pcbnew,7.99.0-1.20230515git1adcb86.fc37
; #@! TF.FileFunction,NonPlated,1,4,NPTH
FMAT,2
METRIC
; #@! TA.AperFunction,NonPlated,NPTH,ComponentDrill
T1C0.500
; #@! TA.AperFunction,NonPlated,NPTH,ComponentDrill
T2C0.800
; #@! TA.AperFunction,NonPlated,NPTH,ComponentDrill
T3C0.900
; #@! TA.AperFunction,NonPlated,NPTH,ComponentDrill
T4C1.000
; #@! TA.AperFunction,NonPlated,NPTH,ComponentDrill
T5C1.100
; #@! TA.AperFunction,NonPlated,NPTH,ComponentDrill
T6C1.300
; #@! TA.AperFunction,NonPlated,NPTH,ComponentDrill
T7C1.500
; #@! TA.AperFunction,NonPlated,NPTH,ComponentDrill
T8C3.700
%
G90
G05
T1
X173.91Y-49.357
X179.69Y-49.357
T2
X104.283Y-84.336
T3
X175.705Y-146.15
X175.705Y-149.15
X197.3Y-77.807
X197.3Y-85.807
X200.65Y-66.457
X200.65Y-69.457
T4
X117.7Y-51.607
X122.7Y-51.607
X145.967Y-145.606
X145.967Y-148.145
X148.507Y-145.606
X148.507Y-148.145
X151.047Y-145.606
X151.047Y-148.145
T5
X106.971Y-81.649
X114.377Y-48.322
X114.377Y-97.362
X182.627Y-48.322
X182.627Y-97.362
T6
X160.6Y-145.85
X160.6Y-147.85
X160.6Y-149.85
X160.6Y-151.85
X162.6Y-144.85
X162.6Y-146.85
X162.6Y-148.85
X162.6Y-150.85
X164.6Y-145.85
X164.6Y-147.85
X164.6Y-149.85
X164.6Y-151.85
X166.6Y-144.85
X166.6Y-146.85
X166.6Y-148.85
X166.6Y-150.85
X168.6Y-145.85
X168.6Y-147.85
X168.6Y-149.85
X168.6Y-151.85
X170.6Y-144.85
X170.6Y-146.85
X170.6Y-148.85
X170.6Y-150.85
T7
X191.25Y-50.907
X191.25Y-57.907
T8
X108.297Y-105.752
X112.827Y-116.172
X117.357Y-126.582
X117.359Y-105.752
X121.889Y-116.172
X121.957Y-136.993
X126.419Y-126.582
X126.421Y-105.752
X130.951Y-116.172
X131.019Y-136.993
X135.481Y-126.582
X135.483Y-105.752
X140.013Y-116.172
X140.081Y-136.993
X144.543Y-126.582
X144.545Y-105.752
X149.075Y-116.172
X149.143Y-136.993
X153.605Y-126.582
X153.607Y-105.752
X158.137Y-116.172
X158.205Y-136.993
X162.667Y-126.582
X162.669Y-105.752
X167.199Y-116.172
X167.267Y-136.993
X171.729Y-126.582
X171.731Y-105.752
X176.261Y-116.172
X176.329Y-136.993
X180.791Y-126.582
X180.793Y-105.752
X185.323Y-116.172
X189.855Y-105.752
T0
M30
