G04 #@! TF.GenerationSoftware,KiCad,Pcbnew,7.99.0-1.20230515git1adcb86.fc37*
G04 #@! TF.CreationDate,2023-05-21T15:40:41+01:00*
G04 #@! TF.ProjectId,tr23-badge-r2,74723233-2d62-4616-9467-652d72322e6b,r2*
G04 #@! TF.SameCoordinates,Original*
G04 #@! TF.FileFunction,Soldermask,Top*
G04 #@! TF.FilePolarity,Negative*
%FSLAX46Y46*%
G04 Gerber Fmt 4.6, Leading zero omitted, Abs format (unit mm)*
G04 Created by KiCad (PCBNEW 7.99.0-1.20230515git1adcb86.fc37) date 2023-05-21 15:40:41*
%MOMM*%
%LPD*%
G01*
G04 APERTURE LIST*
G04 Aperture macros list*
%AMRotRect*
0 Rectangle, with rotation*
0 The origin of the aperture is its center*
0 $1 length*
0 $2 width*
0 $3 Rotation angle, in degrees counterclockwise*
0 Add horizontal line*
21,1,$1,$2,0,0,$3*%
G04 Aperture macros list end*
%ADD10C,1.300000*%
%ADD11C,2.000000*%
%ADD12C,1.100000*%
%ADD13R,1.550000X1.300000*%
%ADD14C,0.800000*%
%ADD15RotRect,2.000000X1.000000X135.000000*%
%ADD16RotRect,2.000000X1.800000X135.000000*%
%ADD17C,0.500000*%
%ADD18O,1.000000X2.100000*%
%ADD19O,1.000000X1.800000*%
%ADD20C,0.900000*%
%ADD21C,1.000000*%
%ADD22C,1.500000*%
%ADD23C,0.550000*%
%ADD24C,3.700000*%
G04 APERTURE END LIST*
D10*
G04 #@! TO.C,SPEAKER1*
X168600000Y-151850000D03*
X164600000Y-151850000D03*
X160600000Y-151850000D03*
X170600000Y-150850000D03*
X166600000Y-150850000D03*
X162600000Y-150850000D03*
X168600000Y-149850000D03*
X164600000Y-149850000D03*
X160600000Y-149850000D03*
X170600000Y-148850000D03*
X166600000Y-148850000D03*
X162600000Y-148850000D03*
X168600000Y-147850000D03*
X164600000Y-147850000D03*
X160600000Y-147850000D03*
X170600000Y-146850000D03*
X166600000Y-146850000D03*
X162600000Y-146850000D03*
X168600000Y-145850000D03*
X164600000Y-145850000D03*
X160600000Y-145850000D03*
X170600000Y-144850000D03*
X166600000Y-144850000D03*
X162600000Y-144850000D03*
G04 #@! TD*
D11*
G04 #@! TO.C,FID1*
X107702000Y-121357500D03*
G04 #@! TD*
G04 #@! TO.C,FID2*
X162702000Y-44157500D03*
G04 #@! TD*
G04 #@! TO.C,FID3*
X175702000Y-141857500D03*
G04 #@! TD*
D12*
G04 #@! TO.C,DISP1*
X114377500Y-97362500D03*
X182627500Y-97362500D03*
X114377500Y-48322500D03*
X182627500Y-48322500D03*
G04 #@! TD*
D13*
G04 #@! TO.C,S4*
X101647000Y-67167500D03*
X109607000Y-67167500D03*
X109607000Y-71667500D03*
X101647000Y-71667500D03*
G04 #@! TD*
D14*
G04 #@! TO.C,S5*
X104283497Y-84336003D03*
D12*
X106970503Y-81648997D03*
D15*
X107447801Y-86828555D03*
X108455427Y-85820927D03*
X109463054Y-84813300D03*
X101790946Y-81171700D03*
X102798573Y-80164073D03*
X103806200Y-79156446D03*
D16*
X102763218Y-85856282D03*
X108490783Y-80128718D03*
G04 #@! TD*
D13*
G04 #@! TO.C,S6*
X187397000Y-67167500D03*
X195357000Y-67167500D03*
X195357000Y-71667500D03*
X187397000Y-71667500D03*
G04 #@! TD*
G04 #@! TO.C,S7*
X187397000Y-80742500D03*
X195357000Y-80742500D03*
X195357000Y-85242500D03*
X187397000Y-85242500D03*
G04 #@! TD*
D17*
G04 #@! TO.C,J2*
X173910001Y-49357500D03*
X179689999Y-49357500D03*
D18*
X172480000Y-49857500D03*
D19*
X172480000Y-45707500D03*
D18*
X181120000Y-49857500D03*
D19*
X181120000Y-45707500D03*
G04 #@! TD*
D20*
G04 #@! TO.C,S3*
X200650000Y-69457500D03*
X200650000Y-66457500D03*
G04 #@! TD*
G04 #@! TO.C,J7*
X197300000Y-77807500D03*
X197300000Y-85807500D03*
G04 #@! TD*
D21*
G04 #@! TO.C,J3*
X117700000Y-51607500D03*
X122700000Y-51607500D03*
G04 #@! TD*
D22*
G04 #@! TO.C,J5*
X191250000Y-50907500D03*
X191250000Y-57907500D03*
D23*
X187050000Y-55207500D03*
X187050000Y-55807500D03*
X187050000Y-52207500D03*
X188950000Y-52207500D03*
X187050000Y-52807500D03*
X188950000Y-52807500D03*
X193550000Y-60307500D03*
X195450000Y-60307500D03*
X193550000Y-60907500D03*
X195450000Y-60907500D03*
X187050000Y-59207500D03*
X188950000Y-59207500D03*
X187050000Y-59807500D03*
X188950000Y-59807500D03*
G04 #@! TD*
D24*
G04 #@! TO.C,SW5*
X180793000Y-105752500D03*
G04 #@! TD*
G04 #@! TO.C,SW14*
X153605000Y-126582500D03*
G04 #@! TD*
G04 #@! TO.C,SW12*
X162669000Y-105752500D03*
G04 #@! TD*
D21*
G04 #@! TO.C,J6*
X145967000Y-148145500D03*
X145967000Y-145605500D03*
X148507000Y-148145500D03*
X148507000Y-145605500D03*
X151047000Y-148145500D03*
X151047000Y-145605500D03*
G04 #@! TD*
D24*
G04 #@! TO.C,SW16*
X149075000Y-116172500D03*
G04 #@! TD*
G04 #@! TO.C,SW32*
X158205000Y-136992500D03*
G04 #@! TD*
G04 #@! TO.C,SW1*
X189855000Y-105752500D03*
G04 #@! TD*
G04 #@! TO.C,SW28*
X117357000Y-126582500D03*
G04 #@! TD*
G04 #@! TO.C,SW21*
X131019000Y-136992500D03*
G04 #@! TD*
G04 #@! TO.C,SW26*
X126421000Y-105752500D03*
G04 #@! TD*
G04 #@! TO.C,SW18*
X144545000Y-105752500D03*
G04 #@! TD*
G04 #@! TO.C,SW29*
X117359000Y-105752500D03*
G04 #@! TD*
G04 #@! TO.C,SW34*
X140081000Y-136992500D03*
G04 #@! TD*
G04 #@! TO.C,SW31*
X108297000Y-105752500D03*
G04 #@! TD*
G04 #@! TO.C,SW8*
X167267000Y-136992500D03*
G04 #@! TD*
G04 #@! TO.C,SW30*
X112827000Y-116172500D03*
G04 #@! TD*
G04 #@! TO.C,SW9*
X171731000Y-105752500D03*
G04 #@! TD*
G04 #@! TO.C,SW20*
X135481000Y-126582500D03*
G04 #@! TD*
G04 #@! TO.C,SW7*
X171729000Y-126582500D03*
G04 #@! TD*
G04 #@! TO.C,SW10*
X167199000Y-116172500D03*
G04 #@! TD*
G04 #@! TO.C,SW27*
X121889000Y-116172500D03*
G04 #@! TD*
G04 #@! TO.C,SW2*
X185323000Y-116172500D03*
G04 #@! TD*
G04 #@! TO.C,SW23*
X130951000Y-116172500D03*
G04 #@! TD*
G04 #@! TO.C,SW3*
X180791000Y-126582500D03*
G04 #@! TD*
G04 #@! TO.C,SW13*
X158137000Y-116172500D03*
G04 #@! TD*
G04 #@! TO.C,SW15*
X153607000Y-105752500D03*
G04 #@! TD*
D20*
G04 #@! TO.C,S8*
X175705000Y-149150000D03*
X175705000Y-146150000D03*
G04 #@! TD*
D24*
G04 #@! TO.C,SW11*
X162667000Y-126582500D03*
G04 #@! TD*
G04 #@! TO.C,SW17*
X144543000Y-126582500D03*
G04 #@! TD*
G04 #@! TO.C,SW4*
X176329000Y-136992500D03*
G04 #@! TD*
G04 #@! TO.C,SW6*
X176261000Y-116172500D03*
G04 #@! TD*
G04 #@! TO.C,SW33*
X149143000Y-136992500D03*
G04 #@! TD*
G04 #@! TO.C,SW24*
X126419000Y-126582500D03*
G04 #@! TD*
G04 #@! TO.C,SW25*
X121957000Y-136992500D03*
G04 #@! TD*
G04 #@! TO.C,SW19*
X140013000Y-116172500D03*
G04 #@! TD*
G04 #@! TO.C,SW22*
X135483000Y-105752500D03*
G04 #@! TD*
M02*
