G04 #@! TF.GenerationSoftware,KiCad,Pcbnew,7.99.0-1.20230515git1adcb86.fc37*
G04 #@! TF.CreationDate,2023-05-21T15:40:41+01:00*
G04 #@! TF.ProjectId,tr23-badge-r2,74723233-2d62-4616-9467-652d72322e6b,r2*
G04 #@! TF.SameCoordinates,Original*
G04 #@! TF.FileFunction,Profile,NP*
%FSLAX46Y46*%
G04 Gerber Fmt 4.6, Leading zero omitted, Abs format (unit mm)*
G04 Created by KiCad (PCBNEW 7.99.0-1.20230515git1adcb86.fc37) date 2023-05-21 15:40:41*
%MOMM*%
%LPD*%
G01*
G04 APERTURE LIST*
G04 #@! TA.AperFunction,Profile*
%ADD10C,0.100000*%
G04 #@! TD*
G04 APERTURE END LIST*
D10*
G04 #@! TO.C,GRAPHIC1*
X146775500Y-33847668D02*
X146681500Y-33856453D01*
X146681500Y-33856453D02*
X146593600Y-33882291D01*
X146593600Y-33882291D02*
X146512500Y-33922599D01*
X146512500Y-33922599D02*
X146441200Y-33975825D01*
X146441200Y-33975825D02*
X146380700Y-34041454D01*
X146380700Y-34041454D02*
X146332100Y-34116902D01*
X146332100Y-34116902D02*
X146298000Y-34200618D01*
X146298000Y-34200618D02*
X146278900Y-34291051D01*
X146278900Y-34291051D02*
X146278900Y-37808670D01*
X146278900Y-37808670D02*
X146266900Y-37905640D01*
X146266900Y-37905640D02*
X146237200Y-37995960D01*
X146237200Y-37995960D02*
X146191800Y-38077780D01*
X146191800Y-38077780D02*
X146132400Y-38149280D01*
X146132400Y-38149280D02*
X146060800Y-38208630D01*
X146060800Y-38208630D02*
X145978900Y-38254000D01*
X145978900Y-38254000D02*
X145888600Y-38283550D01*
X145888600Y-38283550D02*
X145791600Y-38295460D01*
X145791600Y-38295460D02*
X133432100Y-38295460D01*
X133432100Y-38295460D02*
X133331400Y-38305790D01*
X133331400Y-38305790D02*
X133237800Y-38334730D01*
X133237800Y-38334730D02*
X133152600Y-38380720D01*
X133152600Y-38380720D02*
X133078700Y-38442220D01*
X133078700Y-38442220D02*
X133017700Y-38516120D01*
X133017700Y-38516120D02*
X132971700Y-38600870D01*
X132971700Y-38600870D02*
X132942800Y-38694400D01*
X132942800Y-38694400D02*
X132932400Y-38795170D01*
X132932400Y-38795170D02*
X132932400Y-42256460D01*
X132932400Y-42256460D02*
X132920400Y-42353430D01*
X132920400Y-42353430D02*
X132890700Y-42443750D01*
X132890700Y-42443750D02*
X132845300Y-42525570D01*
X132845300Y-42525570D02*
X132785900Y-42597070D01*
X132785900Y-42597070D02*
X132714300Y-42656420D01*
X132714300Y-42656420D02*
X132632400Y-42701780D01*
X132632400Y-42701780D02*
X132542100Y-42731340D01*
X132542100Y-42731340D02*
X132445100Y-42743250D01*
X132445100Y-42743250D02*
X111192700Y-42743250D01*
X111192700Y-42743250D02*
X111091900Y-42753580D01*
X111091900Y-42753580D02*
X110998400Y-42782520D01*
X110998400Y-42782520D02*
X110913600Y-42828510D01*
X110913600Y-42828510D02*
X110839200Y-42890010D01*
X110839200Y-42890010D02*
X110778200Y-42963910D01*
X110778200Y-42963910D02*
X110732200Y-43048650D01*
X110732200Y-43048650D02*
X110703300Y-43142190D01*
X110703300Y-43142190D02*
X110692900Y-43242960D01*
X110692900Y-43242960D02*
X110692900Y-46714600D01*
X110692900Y-46714600D02*
X110680900Y-46811600D01*
X110680900Y-46811600D02*
X110651300Y-46901900D01*
X110651300Y-46901900D02*
X110605800Y-46983700D01*
X110605800Y-46983700D02*
X110546400Y-47055200D01*
X110546400Y-47055200D02*
X110474800Y-47114500D01*
X110474800Y-47114500D02*
X110393000Y-47159900D01*
X110393000Y-47159900D02*
X110302600Y-47189500D01*
X110302600Y-47189500D02*
X110205600Y-47201400D01*
X110205600Y-47201400D02*
X97748530Y-47201400D01*
X97748530Y-47201400D02*
X97655000Y-47230300D01*
X97655000Y-47230300D02*
X97570250Y-47276300D01*
X97570250Y-47276300D02*
X97495840Y-47337800D01*
X97495840Y-47337800D02*
X97434860Y-47411700D01*
X97434860Y-47411700D02*
X97388870Y-47496500D01*
X97388870Y-47496500D02*
X97359930Y-47590000D01*
X97359930Y-47590000D02*
X97359930Y-60037800D01*
X97359930Y-60037800D02*
X97347910Y-60134800D01*
X97347910Y-60134800D02*
X97318270Y-60225100D01*
X97318270Y-60225100D02*
X97272810Y-60306900D01*
X97272810Y-60306900D02*
X97213390Y-60378400D01*
X97213390Y-60378400D02*
X97141830Y-60437800D01*
X97141830Y-60437800D02*
X97059960Y-60483100D01*
X97059960Y-60483100D02*
X96969610Y-60512700D01*
X96969610Y-60512700D02*
X96872620Y-60524600D01*
X96872620Y-60524600D02*
X93401512Y-60524600D01*
X93401512Y-60524600D02*
X93300743Y-60534900D01*
X93300743Y-60534900D02*
X93207209Y-60563900D01*
X93207209Y-60563900D02*
X93122459Y-60610400D01*
X93122459Y-60610400D02*
X93048045Y-60671400D01*
X93048045Y-60671400D02*
X92987067Y-60745300D01*
X92987067Y-60745300D02*
X92941075Y-60830000D01*
X92941075Y-60830000D02*
X92912136Y-60923500D01*
X92912136Y-60923500D02*
X92901800Y-61024300D01*
X92901800Y-61024300D02*
X92901800Y-91162000D01*
X92901800Y-91162000D02*
X92913712Y-91259000D01*
X92913712Y-91259000D02*
X92943266Y-91349300D01*
X92943266Y-91349300D02*
X92988634Y-91431200D01*
X92988634Y-91431200D02*
X93047983Y-91502800D01*
X93047983Y-91502800D02*
X93119484Y-91562200D01*
X93119484Y-91562200D02*
X93201306Y-91607600D01*
X93201306Y-91607600D02*
X93291619Y-91637300D01*
X93291619Y-91637300D02*
X93388592Y-91649300D01*
X93388592Y-91649300D02*
X96862800Y-91649300D01*
X96862800Y-91649300D02*
X96959770Y-91661300D01*
X96959770Y-91661300D02*
X97050090Y-91691000D01*
X97050090Y-91691000D02*
X97131910Y-91736400D01*
X97131910Y-91736400D02*
X97203410Y-91795800D01*
X97203410Y-91795800D02*
X97262760Y-91867400D01*
X97262760Y-91867400D02*
X97308130Y-91949300D01*
X97308130Y-91949300D02*
X97337680Y-92039600D01*
X97337680Y-92039600D02*
X97349590Y-92136600D01*
X97349590Y-92136600D02*
X97349590Y-108953200D01*
X97349590Y-108953200D02*
X97361390Y-109049700D01*
X97361390Y-109049700D02*
X97390660Y-109139600D01*
X97390660Y-109139600D02*
X97435600Y-109221200D01*
X97435600Y-109221200D02*
X97494410Y-109292600D01*
X97494410Y-109292600D02*
X97565280Y-109352100D01*
X97565280Y-109352100D02*
X97646410Y-109397700D01*
X97646410Y-109397700D02*
X97736000Y-109427800D01*
X97736000Y-109427800D02*
X97832250Y-109440500D01*
X97832250Y-109440500D02*
X97836380Y-109440500D01*
X97836380Y-109440500D02*
X101310580Y-109438900D01*
X101310580Y-109438900D02*
X101315230Y-109438900D01*
X101315230Y-109438900D02*
X101411400Y-109451600D01*
X101411400Y-109451600D02*
X101500900Y-109481700D01*
X101500900Y-109481700D02*
X101581940Y-109527400D01*
X101581940Y-109527400D02*
X101652730Y-109586900D01*
X101652730Y-109586900D02*
X101711470Y-109658300D01*
X101711470Y-109658300D02*
X101756350Y-109739800D01*
X101756350Y-109739800D02*
X101785590Y-109829700D01*
X101785590Y-109829700D02*
X101797380Y-109926200D01*
X101797380Y-109926200D02*
X101797380Y-122297000D01*
X101797380Y-122297000D02*
X101809290Y-122394000D01*
X101809290Y-122394000D02*
X101838840Y-122484300D01*
X101838840Y-122484300D02*
X101884210Y-122566200D01*
X101884210Y-122566200D02*
X101943560Y-122637800D01*
X101943560Y-122637800D02*
X102015060Y-122697200D01*
X102015060Y-122697200D02*
X102096880Y-122742600D01*
X102096880Y-122742600D02*
X102187200Y-122772300D01*
X102187200Y-122772300D02*
X102284170Y-122784300D01*
X102284170Y-122784300D02*
X105758400Y-122784300D01*
X105758400Y-122784300D02*
X105855300Y-122796300D01*
X105855300Y-122796300D02*
X105945700Y-122826000D01*
X105945700Y-122826000D02*
X106027500Y-122871400D01*
X106027500Y-122871400D02*
X106099000Y-122930800D01*
X106099000Y-122930800D02*
X106158300Y-123002400D01*
X106158300Y-123002400D02*
X106203700Y-123084300D01*
X106203700Y-123084300D02*
X106233300Y-123174600D01*
X106233300Y-123174600D02*
X106245200Y-123271600D01*
X106245200Y-123271600D02*
X106245200Y-131193100D01*
X106245200Y-131193100D02*
X106257100Y-131290100D01*
X106257100Y-131290100D02*
X106286600Y-131380400D01*
X106286600Y-131380400D02*
X106332000Y-131462300D01*
X106332000Y-131462300D02*
X106391300Y-131533900D01*
X106391300Y-131533900D02*
X106462800Y-131593300D01*
X106462800Y-131593300D02*
X106544700Y-131638700D01*
X106544700Y-131638700D02*
X106635000Y-131668400D01*
X106635000Y-131668400D02*
X106732000Y-131680400D01*
X106732000Y-131680400D02*
X110206200Y-131680400D01*
X110206200Y-131680400D02*
X110303100Y-131692400D01*
X110303100Y-131692400D02*
X110393500Y-131722100D01*
X110393500Y-131722100D02*
X110475300Y-131767500D01*
X110475300Y-131767500D02*
X110546800Y-131827000D01*
X110546800Y-131827000D02*
X110606100Y-131898500D01*
X110606100Y-131898500D02*
X110651500Y-131980400D01*
X110651500Y-131980400D02*
X110681000Y-132070700D01*
X110681000Y-132070700D02*
X110693000Y-132167700D01*
X110693000Y-132167700D02*
X110693000Y-140088500D01*
X110693000Y-140088500D02*
X110704900Y-140185500D01*
X110704900Y-140185500D02*
X110734400Y-140275500D01*
X110734400Y-140275500D02*
X110779800Y-140357500D01*
X110779800Y-140357500D02*
X110839100Y-140428500D01*
X110839100Y-140428500D02*
X110910600Y-140488500D01*
X110910600Y-140488500D02*
X110992500Y-140533500D01*
X110992500Y-140533500D02*
X111082800Y-140563500D01*
X111082800Y-140563500D02*
X111179700Y-140575500D01*
X111179700Y-140575500D02*
X114654000Y-140575500D01*
X114654000Y-140575500D02*
X114750900Y-140587500D01*
X114750900Y-140587500D02*
X114841200Y-140617500D01*
X114841200Y-140617500D02*
X114923100Y-140662500D01*
X114923100Y-140662500D02*
X114994600Y-140722500D01*
X114994600Y-140722500D02*
X115053900Y-140793500D01*
X115053900Y-140793500D02*
X115099300Y-140875500D01*
X115099300Y-140875500D02*
X115128800Y-140965500D01*
X115128800Y-140965500D02*
X115140700Y-141062500D01*
X115140700Y-141062500D02*
X115140700Y-148983500D01*
X115140700Y-148983500D02*
X115152700Y-149080500D01*
X115152700Y-149080500D02*
X115182200Y-149171500D01*
X115182200Y-149171500D02*
X115227600Y-149252500D01*
X115227600Y-149252500D02*
X115286900Y-149324500D01*
X115286900Y-149324500D02*
X115358400Y-149383500D01*
X115358400Y-149383500D02*
X115440200Y-149429500D01*
X115440200Y-149429500D02*
X115530600Y-149459500D01*
X115530600Y-149459500D02*
X115627500Y-149471500D01*
X115627500Y-149471500D02*
X119101700Y-149471500D01*
X119101700Y-149471500D02*
X119198700Y-149483500D01*
X119198700Y-149483500D02*
X119289000Y-149512500D01*
X119289000Y-149512500D02*
X119370900Y-149558500D01*
X119370900Y-149558500D02*
X119442400Y-149617500D01*
X119442400Y-149617500D02*
X119501700Y-149689500D01*
X119501700Y-149689500D02*
X119547100Y-149771500D01*
X119547100Y-149771500D02*
X119576600Y-149861500D01*
X119576600Y-149861500D02*
X119588500Y-149958500D01*
X119588500Y-149958500D02*
X119588500Y-153432500D01*
X119588500Y-153432500D02*
X119600400Y-153529500D01*
X119600400Y-153529500D02*
X119630000Y-153619500D01*
X119630000Y-153619500D02*
X119675400Y-153701500D01*
X119675400Y-153701500D02*
X119734700Y-153772500D01*
X119734700Y-153772500D02*
X119806200Y-153832500D01*
X119806200Y-153832500D02*
X119888000Y-153877500D01*
X119888000Y-153877500D02*
X119978400Y-153907500D01*
X119978400Y-153907500D02*
X120075300Y-153919500D01*
X120075300Y-153919500D02*
X123549500Y-153919500D01*
X123549500Y-153919500D02*
X123646500Y-153931500D01*
X123646500Y-153931500D02*
X123736800Y-153961500D01*
X123736800Y-153961500D02*
X123818600Y-154006500D01*
X123818600Y-154006500D02*
X123890100Y-154065500D01*
X123890100Y-154065500D02*
X123949500Y-154137500D01*
X123949500Y-154137500D02*
X123994900Y-154219500D01*
X123994900Y-154219500D02*
X124024400Y-154309500D01*
X124024400Y-154309500D02*
X124036300Y-154406500D01*
X124036300Y-154406500D02*
X124036300Y-157879500D01*
X124036300Y-157879500D02*
X124048200Y-157976500D01*
X124048200Y-157976500D02*
X124077800Y-158066500D01*
X124077800Y-158066500D02*
X124123200Y-158148500D01*
X124123200Y-158148500D02*
X124182500Y-158220500D01*
X124182500Y-158220500D02*
X124254000Y-158279500D01*
X124254000Y-158279500D02*
X124335800Y-158324500D01*
X124335800Y-158324500D02*
X124426100Y-158354500D01*
X124426100Y-158354500D02*
X124523100Y-158366500D01*
X124523100Y-158366500D02*
X127997800Y-158366500D01*
X127997800Y-158366500D02*
X128094800Y-158378500D01*
X128094800Y-158378500D02*
X128185100Y-158408500D01*
X128185100Y-158408500D02*
X128267000Y-158453500D01*
X128267000Y-158453500D02*
X128338500Y-158513500D01*
X128338500Y-158513500D02*
X128397800Y-158584500D01*
X128397800Y-158584500D02*
X128443200Y-158666500D01*
X128443200Y-158666500D02*
X128472700Y-158756500D01*
X128472700Y-158756500D02*
X128484600Y-158853500D01*
X128484600Y-158853500D02*
X128484600Y-162327500D01*
X128484600Y-162327500D02*
X128496500Y-162424500D01*
X128496500Y-162424500D02*
X128526100Y-162514500D01*
X128526100Y-162514500D02*
X128571500Y-162596500D01*
X128571500Y-162596500D02*
X128630800Y-162668500D01*
X128630800Y-162668500D02*
X128702300Y-162727500D01*
X128702300Y-162727500D02*
X128784100Y-162773500D01*
X128784100Y-162773500D02*
X128874500Y-162802500D01*
X128874500Y-162802500D02*
X128971400Y-162814500D01*
X128971400Y-162814500D02*
X132445600Y-162814500D01*
X132445600Y-162814500D02*
X132542600Y-162826500D01*
X132542600Y-162826500D02*
X132632900Y-162856500D01*
X132632900Y-162856500D02*
X132714700Y-162902500D01*
X132714700Y-162902500D02*
X132786200Y-162961500D01*
X132786200Y-162961500D02*
X132845600Y-163033500D01*
X132845600Y-163033500D02*
X132891000Y-163114500D01*
X132891000Y-163114500D02*
X132920500Y-163205500D01*
X132920500Y-163205500D02*
X132932400Y-163302500D01*
X132932400Y-163302500D02*
X132932400Y-166775500D01*
X132932400Y-166775500D02*
X132944300Y-166872500D01*
X132944300Y-166872500D02*
X132973900Y-166962500D01*
X132973900Y-166962500D02*
X133019300Y-167044500D01*
X133019300Y-167044500D02*
X133078600Y-167116500D01*
X133078600Y-167116500D02*
X133150100Y-167175500D01*
X133150100Y-167175500D02*
X133231900Y-167221500D01*
X133231900Y-167221500D02*
X133322200Y-167250500D01*
X133322200Y-167250500D02*
X133419200Y-167262500D01*
X133419200Y-167262500D02*
X136893400Y-167262500D01*
X136893400Y-167262500D02*
X136990400Y-167274500D01*
X136990400Y-167274500D02*
X137080700Y-167304500D01*
X137080700Y-167304500D02*
X137162500Y-167349500D01*
X137162500Y-167349500D02*
X137234000Y-167409500D01*
X137234000Y-167409500D02*
X137293400Y-167480500D01*
X137293400Y-167480500D02*
X137338800Y-167562500D01*
X137338800Y-167562500D02*
X137368300Y-167653500D01*
X137368300Y-167653500D02*
X137380200Y-167750500D01*
X137380200Y-167750500D02*
X137380200Y-171222500D01*
X137380200Y-171222500D02*
X137392100Y-171319500D01*
X137392100Y-171319500D02*
X137421700Y-171410500D01*
X137421700Y-171410500D02*
X137467000Y-171491500D01*
X137467000Y-171491500D02*
X137526400Y-171563500D01*
X137526400Y-171563500D02*
X137597900Y-171622500D01*
X137597900Y-171622500D02*
X137679700Y-171668500D01*
X137679700Y-171668500D02*
X137770000Y-171697500D01*
X137770000Y-171697500D02*
X137867000Y-171710500D01*
X137867000Y-171710500D02*
X141341200Y-171710500D01*
X141341200Y-171710500D02*
X141438200Y-171722500D01*
X141438200Y-171722500D02*
X141528500Y-171751500D01*
X141528500Y-171751500D02*
X141610300Y-171797500D01*
X141610300Y-171797500D02*
X141681800Y-171856500D01*
X141681800Y-171856500D02*
X141741200Y-171928500D01*
X141741200Y-171928500D02*
X141786500Y-172009500D01*
X141786500Y-172009500D02*
X141816100Y-172100500D01*
X141816100Y-172100500D02*
X141828000Y-172197500D01*
X141828000Y-172197500D02*
X141828000Y-175670500D01*
X141828000Y-175670500D02*
X141839900Y-175767500D01*
X141839900Y-175767500D02*
X141869500Y-175857500D01*
X141869500Y-175857500D02*
X141914800Y-175939500D01*
X141914800Y-175939500D02*
X141974200Y-176011500D01*
X141974200Y-176011500D02*
X142045700Y-176070500D01*
X142045700Y-176070500D02*
X142127500Y-176116500D01*
X142127500Y-176116500D02*
X142217800Y-176145500D01*
X142217800Y-176145500D02*
X142314800Y-176157500D01*
X142314800Y-176157500D02*
X154684100Y-176157500D01*
X154684100Y-176157500D02*
X154781100Y-176145500D01*
X154781100Y-176145500D02*
X154871400Y-176116500D01*
X154871400Y-176116500D02*
X154953300Y-176070500D01*
X154953300Y-176070500D02*
X155024800Y-176011500D01*
X155024800Y-176011500D02*
X155084300Y-175940500D01*
X155084300Y-175940500D02*
X155129700Y-175858500D01*
X155129700Y-175858500D02*
X155159400Y-175767500D01*
X155159400Y-175767500D02*
X155171400Y-175671500D01*
X155171400Y-175671500D02*
X155171400Y-172196500D01*
X155171400Y-172196500D02*
X155183400Y-172099500D01*
X155183400Y-172099500D02*
X155213000Y-172009500D01*
X155213000Y-172009500D02*
X155258500Y-171927500D01*
X155258500Y-171927500D02*
X155317900Y-171856500D01*
X155317900Y-171856500D02*
X155389500Y-171796500D01*
X155389500Y-171796500D02*
X155471400Y-171751500D01*
X155471400Y-171751500D02*
X155561700Y-171721500D01*
X155561700Y-171721500D02*
X155658700Y-171710500D01*
X155658700Y-171710500D02*
X159131300Y-171710500D01*
X159131300Y-171710500D02*
X159228300Y-171697500D01*
X159228300Y-171697500D02*
X159318700Y-171668500D01*
X159318700Y-171668500D02*
X159400600Y-171623500D01*
X159400600Y-171623500D02*
X159472100Y-171563500D01*
X159472100Y-171563500D02*
X159531500Y-171492500D01*
X159531500Y-171492500D02*
X159577000Y-171410500D01*
X159577000Y-171410500D02*
X159606600Y-171320500D01*
X159606600Y-171320500D02*
X159618700Y-171223500D01*
X159618700Y-171223500D02*
X159618700Y-167749500D01*
X159618700Y-167749500D02*
X159630700Y-167652500D01*
X159630700Y-167652500D02*
X159660300Y-167562500D01*
X159660300Y-167562500D02*
X159705800Y-167480500D01*
X159705800Y-167480500D02*
X159765200Y-167408500D01*
X159765200Y-167408500D02*
X159836800Y-167349500D01*
X159836800Y-167349500D02*
X159918600Y-167304500D01*
X159918600Y-167304500D02*
X160009000Y-167274500D01*
X160009000Y-167274500D02*
X160106000Y-167262500D01*
X160106000Y-167262500D02*
X163580200Y-167262500D01*
X163580200Y-167262500D02*
X163677200Y-167250500D01*
X163677200Y-167250500D02*
X163767500Y-167221500D01*
X163767500Y-167221500D02*
X163849400Y-167175500D01*
X163849400Y-167175500D02*
X163920900Y-167116500D01*
X163920900Y-167116500D02*
X163980400Y-167044500D01*
X163980400Y-167044500D02*
X164025800Y-166963500D01*
X164025800Y-166963500D02*
X164055500Y-166872500D01*
X164055500Y-166872500D02*
X164067500Y-166775500D01*
X164067500Y-166775500D02*
X164079400Y-163301500D01*
X164079400Y-163301500D02*
X164091400Y-163204500D01*
X164091400Y-163204500D02*
X164121000Y-163114500D01*
X164121000Y-163114500D02*
X164166500Y-163032500D01*
X164166500Y-163032500D02*
X164225900Y-162961500D01*
X164225900Y-162961500D02*
X164297500Y-162901500D01*
X164297500Y-162901500D02*
X164379300Y-162856500D01*
X164379300Y-162856500D02*
X164469700Y-162826500D01*
X164469700Y-162826500D02*
X164566700Y-162814500D01*
X164566700Y-162814500D02*
X168028500Y-162814500D01*
X168028500Y-162814500D02*
X168125500Y-162802500D01*
X168125500Y-162802500D02*
X168215800Y-162773500D01*
X168215800Y-162773500D02*
X168297700Y-162727500D01*
X168297700Y-162727500D02*
X168369200Y-162668500D01*
X168369200Y-162668500D02*
X168428700Y-162597500D01*
X168428700Y-162597500D02*
X168474100Y-162515500D01*
X168474100Y-162515500D02*
X168503800Y-162425500D01*
X168503800Y-162425500D02*
X168515800Y-162328500D01*
X168515800Y-162328500D02*
X168515800Y-158852500D01*
X168515800Y-158852500D02*
X168527800Y-158755500D01*
X168527800Y-158755500D02*
X168557500Y-158665500D01*
X168557500Y-158665500D02*
X168602900Y-158583500D01*
X168602900Y-158583500D02*
X168662300Y-158511500D01*
X168662300Y-158511500D02*
X168733900Y-158452500D01*
X168733900Y-158452500D02*
X168815800Y-158407500D01*
X168815800Y-158407500D02*
X168906100Y-158377500D01*
X168906100Y-158377500D02*
X169003100Y-158365500D01*
X169003100Y-158365500D02*
X172475200Y-158365500D01*
X172475200Y-158365500D02*
X172572200Y-158353500D01*
X172572200Y-158353500D02*
X172662600Y-158323500D01*
X172662600Y-158323500D02*
X172744400Y-158278500D01*
X172744400Y-158278500D02*
X172816000Y-158219500D01*
X172816000Y-158219500D02*
X172875400Y-158147500D01*
X172875400Y-158147500D02*
X172920900Y-158066500D01*
X172920900Y-158066500D02*
X172950500Y-157975500D01*
X172950500Y-157975500D02*
X172962500Y-157878500D01*
X172962500Y-157878500D02*
X172962500Y-154405500D01*
X172962500Y-154405500D02*
X172974600Y-154308500D01*
X172974600Y-154308500D02*
X173004200Y-154217500D01*
X173004200Y-154217500D02*
X173049700Y-154136500D01*
X173049700Y-154136500D02*
X173109100Y-154064500D01*
X173109100Y-154064500D02*
X173180600Y-154005500D01*
X173180600Y-154005500D02*
X173262500Y-153959500D01*
X173262500Y-153959500D02*
X173352900Y-153930500D01*
X173352900Y-153930500D02*
X173449900Y-153918500D01*
X173449900Y-153918500D02*
X176910600Y-153918500D01*
X176910600Y-153918500D02*
X177011900Y-153907500D01*
X177011900Y-153907500D02*
X177105500Y-153878500D01*
X177105500Y-153878500D02*
X177190700Y-153832500D01*
X177190700Y-153832500D02*
X177264600Y-153771500D01*
X177264600Y-153771500D02*
X177325600Y-153697500D01*
X177325600Y-153697500D02*
X177371600Y-153612500D01*
X177371600Y-153612500D02*
X177400500Y-153519500D01*
X177400500Y-153519500D02*
X177410900Y-153418500D01*
X177410900Y-153418500D02*
X177410900Y-149957500D01*
X177410900Y-149957500D02*
X177422900Y-149860500D01*
X177422900Y-149860500D02*
X177452500Y-149770500D01*
X177452500Y-149770500D02*
X177498000Y-149688500D01*
X177498000Y-149688500D02*
X177557400Y-149616500D01*
X177557400Y-149616500D02*
X177629000Y-149557500D01*
X177629000Y-149557500D02*
X177710800Y-149512500D01*
X177710800Y-149512500D02*
X177801200Y-149482500D01*
X177801200Y-149482500D02*
X177898200Y-149470500D01*
X177898200Y-149470500D02*
X181358900Y-149470500D01*
X181358900Y-149470500D02*
X181459700Y-149460500D01*
X181459700Y-149460500D02*
X181553800Y-149431500D01*
X181553800Y-149431500D02*
X181638500Y-149384500D01*
X181638500Y-149384500D02*
X181711900Y-149323500D01*
X181711900Y-149323500D02*
X181773900Y-149249500D01*
X181773900Y-149249500D02*
X181819900Y-149165500D01*
X181819900Y-149165500D02*
X181848800Y-149071500D01*
X181848800Y-149071500D02*
X181858600Y-148970500D01*
X181858600Y-148970500D02*
X181858600Y-141061500D01*
X181858600Y-141061500D02*
X181870700Y-140964500D01*
X181870700Y-140964500D02*
X181900300Y-140873500D01*
X181900300Y-140873500D02*
X181945800Y-140792500D01*
X181945800Y-140792500D02*
X182005200Y-140720500D01*
X182005200Y-140720500D02*
X182076700Y-140661500D01*
X182076700Y-140661500D02*
X182158600Y-140615500D01*
X182158600Y-140615500D02*
X182249000Y-140586500D01*
X182249000Y-140586500D02*
X182345900Y-140574500D01*
X182345900Y-140574500D02*
X185806700Y-140574500D01*
X185806700Y-140574500D02*
X185907500Y-140564500D01*
X185907500Y-140564500D02*
X186000500Y-140535500D01*
X186000500Y-140535500D02*
X186085800Y-140489500D01*
X186085800Y-140489500D02*
X186159700Y-140428500D01*
X186159700Y-140428500D02*
X186220700Y-140354500D01*
X186220700Y-140354500D02*
X186266600Y-140269500D01*
X186266600Y-140269500D02*
X186296600Y-140175500D01*
X186296600Y-140175500D02*
X186306900Y-140075500D01*
X186306900Y-140075500D02*
X186306900Y-132166000D01*
X186306900Y-132166000D02*
X186319000Y-132069000D01*
X186319000Y-132069000D02*
X186348600Y-131978700D01*
X186348600Y-131978700D02*
X186394100Y-131896900D01*
X186394100Y-131896900D02*
X186453500Y-131825400D01*
X186453500Y-131825400D02*
X186525000Y-131766100D01*
X186525000Y-131766100D02*
X186606900Y-131720700D01*
X186606900Y-131720700D02*
X186697300Y-131691100D01*
X186697300Y-131691100D02*
X186794300Y-131679200D01*
X186794300Y-131679200D02*
X190254500Y-131679200D01*
X190254500Y-131679200D02*
X190354800Y-131668400D01*
X190354800Y-131668400D02*
X190448800Y-131639400D01*
X190448800Y-131639400D02*
X190533600Y-131593500D01*
X190533600Y-131593500D02*
X190607500Y-131532500D01*
X190607500Y-131532500D02*
X190668400Y-131458600D01*
X190668400Y-131458600D02*
X190715000Y-131373300D01*
X190715000Y-131373300D02*
X190743900Y-131280300D01*
X190743900Y-131280300D02*
X190754700Y-131179500D01*
X190754700Y-131179500D02*
X190754700Y-123269900D01*
X190754700Y-123269900D02*
X190766700Y-123173100D01*
X190766700Y-123173100D02*
X190796300Y-123083000D01*
X190796300Y-123083000D02*
X190841600Y-123001200D01*
X190841600Y-123001200D02*
X190900800Y-122929800D01*
X190900800Y-122929800D02*
X190972100Y-122870400D01*
X190972100Y-122870400D02*
X191053700Y-122825000D01*
X191053700Y-122825000D02*
X191143800Y-122795300D01*
X191143800Y-122795300D02*
X191240500Y-122783100D01*
X191240500Y-122783100D02*
X191242100Y-122783100D01*
X191242100Y-122783100D02*
X194716800Y-122783600D01*
X194716800Y-122783600D02*
X194813800Y-122771500D01*
X194813800Y-122771500D02*
X194903800Y-122741800D01*
X194903800Y-122741800D02*
X194984800Y-122696300D01*
X194984800Y-122696300D02*
X195056800Y-122637000D01*
X195056800Y-122637000D02*
X195115800Y-122565500D01*
X195115800Y-122565500D02*
X195160800Y-122483800D01*
X195160800Y-122483800D02*
X195190800Y-122393700D01*
X195190800Y-122393700D02*
X195202800Y-122296900D01*
X195202800Y-122296900D02*
X195202800Y-109926200D01*
X195202800Y-109926200D02*
X195214800Y-109829300D01*
X195214800Y-109829300D02*
X195243800Y-109738900D01*
X195243800Y-109738900D02*
X195289800Y-109657100D01*
X195289800Y-109657100D02*
X195348800Y-109585600D01*
X195348800Y-109585600D02*
X195420800Y-109526300D01*
X195420800Y-109526300D02*
X195502800Y-109480900D01*
X195502800Y-109480900D02*
X195592800Y-109451300D01*
X195592800Y-109451300D02*
X195689800Y-109439400D01*
X195689800Y-109439400D02*
X199163800Y-109439400D01*
X199163800Y-109439400D02*
X199260800Y-109427500D01*
X199260800Y-109427500D02*
X199350800Y-109398000D01*
X199350800Y-109398000D02*
X199432800Y-109352600D01*
X199432800Y-109352600D02*
X199504800Y-109293300D01*
X199504800Y-109293300D02*
X199563800Y-109221800D01*
X199563800Y-109221800D02*
X199608800Y-109139900D01*
X199608800Y-109139900D02*
X199638800Y-109049600D01*
X199638800Y-109049600D02*
X199650800Y-108952600D01*
X199650800Y-108952600D02*
X199650800Y-92135600D01*
X199650800Y-92135600D02*
X199662800Y-92038600D01*
X199662800Y-92038600D02*
X199692800Y-91948300D01*
X199692800Y-91948300D02*
X199737800Y-91866500D01*
X199737800Y-91866500D02*
X199797800Y-91795000D01*
X199797800Y-91795000D02*
X199868800Y-91735600D01*
X199868800Y-91735600D02*
X199950800Y-91690300D01*
X199950800Y-91690300D02*
X200040800Y-91660700D01*
X200040800Y-91660700D02*
X200137800Y-91648800D01*
X200137800Y-91648800D02*
X203610800Y-91648800D01*
X203610800Y-91648800D02*
X203707800Y-91636900D01*
X203707800Y-91636900D02*
X203797800Y-91607300D01*
X203797800Y-91607300D02*
X203879800Y-91562000D01*
X203879800Y-91562000D02*
X203951800Y-91502600D01*
X203951800Y-91502600D02*
X204010800Y-91431100D01*
X204010800Y-91431100D02*
X204056800Y-91349300D01*
X204056800Y-91349300D02*
X204085800Y-91259000D01*
X204085800Y-91259000D02*
X204097800Y-91162000D01*
X204097800Y-91162000D02*
X204097800Y-61011400D01*
X204097800Y-61011400D02*
X204085800Y-60914400D01*
X204085800Y-60914400D02*
X204056800Y-60824100D01*
X204056800Y-60824100D02*
X204010800Y-60742200D01*
X204010800Y-60742200D02*
X203951800Y-60670600D01*
X203951800Y-60670600D02*
X203880800Y-60611200D01*
X203880800Y-60611200D02*
X203798800Y-60565700D01*
X203798800Y-60565700D02*
X203708800Y-60536100D01*
X203708800Y-60536100D02*
X203611800Y-60524100D01*
X203611800Y-60524100D02*
X200161800Y-60524100D01*
X200161800Y-60524100D02*
X200064800Y-60512100D01*
X200064800Y-60512100D02*
X199974800Y-60482400D01*
X199974800Y-60482400D02*
X199892800Y-60437000D01*
X199892800Y-60437000D02*
X199821800Y-60377500D01*
X199821800Y-60377500D02*
X199761800Y-60306000D01*
X199761800Y-60306000D02*
X199716800Y-60224100D01*
X199716800Y-60224100D02*
X199686800Y-60133800D01*
X199686800Y-60133800D02*
X199674800Y-60036800D01*
X199674800Y-60036800D02*
X199674800Y-47678300D01*
X199674800Y-47678300D02*
X199662800Y-47581400D01*
X199662800Y-47581400D02*
X199633800Y-47491000D01*
X199633800Y-47491000D02*
X199587800Y-47409100D01*
X199587800Y-47409100D02*
X199528800Y-47337600D01*
X199528800Y-47337600D02*
X199457800Y-47278200D01*
X199457800Y-47278200D02*
X199375800Y-47232700D01*
X199375800Y-47232700D02*
X199285800Y-47203100D01*
X199285800Y-47203100D02*
X199188800Y-47191000D01*
X199188800Y-47191000D02*
X186824700Y-47191000D01*
X186824700Y-47191000D02*
X186727800Y-47179000D01*
X186727800Y-47179000D02*
X186637500Y-47149400D01*
X186637500Y-47149400D02*
X186555600Y-47103900D01*
X186555600Y-47103900D02*
X186484100Y-47044500D01*
X186484100Y-47044500D02*
X186424800Y-46972900D01*
X186424800Y-46972900D02*
X186379400Y-46891100D01*
X186379400Y-46891100D02*
X186349900Y-46800700D01*
X186349900Y-46800700D02*
X186338000Y-46703700D01*
X186338000Y-46703700D02*
X186338000Y-43230560D01*
X186338000Y-43230560D02*
X186326000Y-43133570D01*
X186326000Y-43133570D02*
X186296500Y-43043220D01*
X186296500Y-43043220D02*
X186251100Y-42961350D01*
X186251100Y-42961350D02*
X186191800Y-42889790D01*
X186191800Y-42889790D02*
X186120300Y-42830360D01*
X186120300Y-42830360D02*
X186038500Y-42784910D01*
X186038500Y-42784910D02*
X185948100Y-42755260D01*
X185948100Y-42755260D02*
X185851200Y-42743250D01*
X185851200Y-42743250D02*
X164552200Y-42743250D01*
X164552200Y-42743250D02*
X164455200Y-42731240D01*
X164455200Y-42731240D02*
X164364900Y-42701590D01*
X164364900Y-42701590D02*
X164283100Y-42656140D01*
X164283100Y-42656140D02*
X164211600Y-42596710D01*
X164211600Y-42596710D02*
X164152200Y-42525150D01*
X164152200Y-42525150D02*
X164106900Y-42443280D01*
X164106900Y-42443280D02*
X164077300Y-42352930D01*
X164077300Y-42352930D02*
X164065400Y-42255940D01*
X164065400Y-42255940D02*
X164065400Y-38782770D01*
X164065400Y-38782770D02*
X164053500Y-38685780D01*
X164053500Y-38685780D02*
X164024000Y-38595430D01*
X164024000Y-38595430D02*
X163978600Y-38513560D01*
X163978600Y-38513560D02*
X163919200Y-38442000D01*
X163919200Y-38442000D02*
X163847700Y-38382570D01*
X163847700Y-38382570D02*
X163765900Y-38337120D01*
X163765900Y-38337120D02*
X163675600Y-38307470D01*
X163675600Y-38307470D02*
X163578600Y-38295460D01*
X163578600Y-38295460D02*
X151185600Y-38295460D01*
X151185600Y-38295460D02*
X151088600Y-38283450D01*
X151088600Y-38283450D02*
X150998300Y-38253800D01*
X150998300Y-38253800D02*
X150916500Y-38208350D01*
X150916500Y-38208350D02*
X150845000Y-38148920D01*
X150845000Y-38148920D02*
X150785600Y-38077360D01*
X150785600Y-38077360D02*
X150740300Y-37995490D01*
X150740300Y-37995490D02*
X150710700Y-37905140D01*
X150710700Y-37905140D02*
X150698800Y-37808150D01*
X150698800Y-37808150D02*
X150698800Y-34334976D01*
X150698800Y-34334976D02*
X150686900Y-34237988D01*
X150686900Y-34237988D02*
X150657300Y-34147642D01*
X150657300Y-34147642D02*
X150612000Y-34065771D01*
X150612000Y-34065771D02*
X150552600Y-33994207D01*
X150552600Y-33994207D02*
X150481100Y-33934782D01*
X150481100Y-33934782D02*
X150399300Y-33889329D01*
X150399300Y-33889329D02*
X150309000Y-33859680D01*
X150309000Y-33859680D02*
X150212000Y-33847668D01*
X150212000Y-33847668D02*
X146775500Y-33847668D01*
X146775500Y-33847668D02*
X146775500Y-33847668D01*
G04 #@! TO.C,DISP1*
X182602500Y-92167500D02*
X182602500Y-51167500D01*
X184102500Y-51167500D02*
X184102500Y-92167500D01*
X182602500Y-92167500D02*
G75*
G03*
X184102500Y-92167500I750000J0D01*
G01*
X184102500Y-51167500D02*
G75*
G03*
X182602500Y-51167500I-750000J0D01*
G01*
G04 #@! TD*
M02*
