G04 #@! TF.GenerationSoftware,KiCad,Pcbnew,7.99.0-1.20230515git1adcb86.fc37*
G04 #@! TF.CreationDate,2023-05-21T15:40:42+01:00*
G04 #@! TF.ProjectId,tr23-badge-r2,74723233-2d62-4616-9467-652d72322e6b,r2*
G04 #@! TF.SameCoordinates,Original*
G04 #@! TF.FileFunction,AssemblyDrawing,Top*
%FSLAX46Y46*%
G04 Gerber Fmt 4.6, Leading zero omitted, Abs format (unit mm)*
G04 Created by KiCad (PCBNEW 7.99.0-1.20230515git1adcb86.fc37) date 2023-05-21 15:40:42*
%MOMM*%
%LPD*%
G01*
G04 APERTURE LIST*
%ADD10C,0.060000*%
%ADD11C,0.150000*%
%ADD12C,0.100000*%
%ADD13C,0.127000*%
G04 APERTURE END LIST*
D10*
G04 #@! TO.C,FID1*
X107312902Y-121329903D02*
X107179569Y-121329903D01*
X107179569Y-121539427D02*
X107179569Y-121139427D01*
X107179569Y-121139427D02*
X107370045Y-121139427D01*
X107522426Y-121539427D02*
X107522426Y-121139427D01*
X107712902Y-121539427D02*
X107712902Y-121139427D01*
X107712902Y-121139427D02*
X107808140Y-121139427D01*
X107808140Y-121139427D02*
X107865283Y-121158475D01*
X107865283Y-121158475D02*
X107903378Y-121196570D01*
X107903378Y-121196570D02*
X107922425Y-121234665D01*
X107922425Y-121234665D02*
X107941473Y-121310856D01*
X107941473Y-121310856D02*
X107941473Y-121367999D01*
X107941473Y-121367999D02*
X107922425Y-121444189D01*
X107922425Y-121444189D02*
X107903378Y-121482284D01*
X107903378Y-121482284D02*
X107865283Y-121520380D01*
X107865283Y-121520380D02*
X107808140Y-121539427D01*
X107808140Y-121539427D02*
X107712902Y-121539427D01*
X108322425Y-121539427D02*
X108093854Y-121539427D01*
X108208140Y-121539427D02*
X108208140Y-121139427D01*
X108208140Y-121139427D02*
X108170044Y-121196570D01*
X108170044Y-121196570D02*
X108131949Y-121234665D01*
X108131949Y-121234665D02*
X108093854Y-121253713D01*
G04 #@! TO.C,FID2*
X162312902Y-44129903D02*
X162179569Y-44129903D01*
X162179569Y-44339427D02*
X162179569Y-43939427D01*
X162179569Y-43939427D02*
X162370045Y-43939427D01*
X162522426Y-44339427D02*
X162522426Y-43939427D01*
X162712902Y-44339427D02*
X162712902Y-43939427D01*
X162712902Y-43939427D02*
X162808140Y-43939427D01*
X162808140Y-43939427D02*
X162865283Y-43958475D01*
X162865283Y-43958475D02*
X162903378Y-43996570D01*
X162903378Y-43996570D02*
X162922425Y-44034665D01*
X162922425Y-44034665D02*
X162941473Y-44110856D01*
X162941473Y-44110856D02*
X162941473Y-44167999D01*
X162941473Y-44167999D02*
X162922425Y-44244189D01*
X162922425Y-44244189D02*
X162903378Y-44282284D01*
X162903378Y-44282284D02*
X162865283Y-44320380D01*
X162865283Y-44320380D02*
X162808140Y-44339427D01*
X162808140Y-44339427D02*
X162712902Y-44339427D01*
X163093854Y-43977522D02*
X163112902Y-43958475D01*
X163112902Y-43958475D02*
X163150997Y-43939427D01*
X163150997Y-43939427D02*
X163246235Y-43939427D01*
X163246235Y-43939427D02*
X163284330Y-43958475D01*
X163284330Y-43958475D02*
X163303378Y-43977522D01*
X163303378Y-43977522D02*
X163322425Y-44015618D01*
X163322425Y-44015618D02*
X163322425Y-44053713D01*
X163322425Y-44053713D02*
X163303378Y-44110856D01*
X163303378Y-44110856D02*
X163074806Y-44339427D01*
X163074806Y-44339427D02*
X163322425Y-44339427D01*
G04 #@! TO.C,FID3*
X175312902Y-141829903D02*
X175179569Y-141829903D01*
X175179569Y-142039427D02*
X175179569Y-141639427D01*
X175179569Y-141639427D02*
X175370045Y-141639427D01*
X175522426Y-142039427D02*
X175522426Y-141639427D01*
X175712902Y-142039427D02*
X175712902Y-141639427D01*
X175712902Y-141639427D02*
X175808140Y-141639427D01*
X175808140Y-141639427D02*
X175865283Y-141658475D01*
X175865283Y-141658475D02*
X175903378Y-141696570D01*
X175903378Y-141696570D02*
X175922425Y-141734665D01*
X175922425Y-141734665D02*
X175941473Y-141810856D01*
X175941473Y-141810856D02*
X175941473Y-141867999D01*
X175941473Y-141867999D02*
X175922425Y-141944189D01*
X175922425Y-141944189D02*
X175903378Y-141982284D01*
X175903378Y-141982284D02*
X175865283Y-142020380D01*
X175865283Y-142020380D02*
X175808140Y-142039427D01*
X175808140Y-142039427D02*
X175712902Y-142039427D01*
X176074806Y-141639427D02*
X176322425Y-141639427D01*
X176322425Y-141639427D02*
X176189092Y-141791808D01*
X176189092Y-141791808D02*
X176246235Y-141791808D01*
X176246235Y-141791808D02*
X176284330Y-141810856D01*
X176284330Y-141810856D02*
X176303378Y-141829903D01*
X176303378Y-141829903D02*
X176322425Y-141867999D01*
X176322425Y-141867999D02*
X176322425Y-141963237D01*
X176322425Y-141963237D02*
X176303378Y-142001332D01*
X176303378Y-142001332D02*
X176284330Y-142020380D01*
X176284330Y-142020380D02*
X176246235Y-142039427D01*
X176246235Y-142039427D02*
X176131949Y-142039427D01*
X176131949Y-142039427D02*
X176093854Y-142020380D01*
X176093854Y-142020380D02*
X176074806Y-142001332D01*
D11*
G04 #@! TO.C,S4*
X104963779Y-65774700D02*
X105106636Y-65822319D01*
X105106636Y-65822319D02*
X105344731Y-65822319D01*
X105344731Y-65822319D02*
X105439969Y-65774700D01*
X105439969Y-65774700D02*
X105487588Y-65727080D01*
X105487588Y-65727080D02*
X105535207Y-65631842D01*
X105535207Y-65631842D02*
X105535207Y-65536604D01*
X105535207Y-65536604D02*
X105487588Y-65441366D01*
X105487588Y-65441366D02*
X105439969Y-65393747D01*
X105439969Y-65393747D02*
X105344731Y-65346128D01*
X105344731Y-65346128D02*
X105154255Y-65298509D01*
X105154255Y-65298509D02*
X105059017Y-65250890D01*
X105059017Y-65250890D02*
X105011398Y-65203271D01*
X105011398Y-65203271D02*
X104963779Y-65108033D01*
X104963779Y-65108033D02*
X104963779Y-65012795D01*
X104963779Y-65012795D02*
X105011398Y-64917557D01*
X105011398Y-64917557D02*
X105059017Y-64869938D01*
X105059017Y-64869938D02*
X105154255Y-64822319D01*
X105154255Y-64822319D02*
X105392350Y-64822319D01*
X105392350Y-64822319D02*
X105535207Y-64869938D01*
X106392350Y-65155652D02*
X106392350Y-65822319D01*
X106154255Y-64774700D02*
X105916160Y-65488985D01*
X105916160Y-65488985D02*
X106535207Y-65488985D01*
G04 #@! TO.C,S5*
X106232169Y-83653743D02*
X106279788Y-83510886D01*
X106279788Y-83510886D02*
X106279788Y-83272791D01*
X106279788Y-83272791D02*
X106232169Y-83177553D01*
X106232169Y-83177553D02*
X106184549Y-83129934D01*
X106184549Y-83129934D02*
X106089311Y-83082315D01*
X106089311Y-83082315D02*
X105994073Y-83082315D01*
X105994073Y-83082315D02*
X105898835Y-83129934D01*
X105898835Y-83129934D02*
X105851216Y-83177553D01*
X105851216Y-83177553D02*
X105803597Y-83272791D01*
X105803597Y-83272791D02*
X105755978Y-83463267D01*
X105755978Y-83463267D02*
X105708359Y-83558505D01*
X105708359Y-83558505D02*
X105660740Y-83606124D01*
X105660740Y-83606124D02*
X105565502Y-83653743D01*
X105565502Y-83653743D02*
X105470264Y-83653743D01*
X105470264Y-83653743D02*
X105375026Y-83606124D01*
X105375026Y-83606124D02*
X105327407Y-83558505D01*
X105327407Y-83558505D02*
X105279788Y-83463267D01*
X105279788Y-83463267D02*
X105279788Y-83225172D01*
X105279788Y-83225172D02*
X105327407Y-83082315D01*
X105279788Y-82177553D02*
X105279788Y-82653743D01*
X105279788Y-82653743D02*
X105755978Y-82701362D01*
X105755978Y-82701362D02*
X105708359Y-82653743D01*
X105708359Y-82653743D02*
X105660740Y-82558505D01*
X105660740Y-82558505D02*
X105660740Y-82320410D01*
X105660740Y-82320410D02*
X105708359Y-82225172D01*
X105708359Y-82225172D02*
X105755978Y-82177553D01*
X105755978Y-82177553D02*
X105851216Y-82129934D01*
X105851216Y-82129934D02*
X106089311Y-82129934D01*
X106089311Y-82129934D02*
X106184549Y-82177553D01*
X106184549Y-82177553D02*
X106232169Y-82225172D01*
X106232169Y-82225172D02*
X106279788Y-82320410D01*
X106279788Y-82320410D02*
X106279788Y-82558505D01*
X106279788Y-82558505D02*
X106232169Y-82653743D01*
X106232169Y-82653743D02*
X106184549Y-82701362D01*
G04 #@! TO.C,S6*
X190713779Y-65774700D02*
X190856636Y-65822319D01*
X190856636Y-65822319D02*
X191094731Y-65822319D01*
X191094731Y-65822319D02*
X191189969Y-65774700D01*
X191189969Y-65774700D02*
X191237588Y-65727080D01*
X191237588Y-65727080D02*
X191285207Y-65631842D01*
X191285207Y-65631842D02*
X191285207Y-65536604D01*
X191285207Y-65536604D02*
X191237588Y-65441366D01*
X191237588Y-65441366D02*
X191189969Y-65393747D01*
X191189969Y-65393747D02*
X191094731Y-65346128D01*
X191094731Y-65346128D02*
X190904255Y-65298509D01*
X190904255Y-65298509D02*
X190809017Y-65250890D01*
X190809017Y-65250890D02*
X190761398Y-65203271D01*
X190761398Y-65203271D02*
X190713779Y-65108033D01*
X190713779Y-65108033D02*
X190713779Y-65012795D01*
X190713779Y-65012795D02*
X190761398Y-64917557D01*
X190761398Y-64917557D02*
X190809017Y-64869938D01*
X190809017Y-64869938D02*
X190904255Y-64822319D01*
X190904255Y-64822319D02*
X191142350Y-64822319D01*
X191142350Y-64822319D02*
X191285207Y-64869938D01*
X192142350Y-64822319D02*
X191951874Y-64822319D01*
X191951874Y-64822319D02*
X191856636Y-64869938D01*
X191856636Y-64869938D02*
X191809017Y-64917557D01*
X191809017Y-64917557D02*
X191713779Y-65060414D01*
X191713779Y-65060414D02*
X191666160Y-65250890D01*
X191666160Y-65250890D02*
X191666160Y-65631842D01*
X191666160Y-65631842D02*
X191713779Y-65727080D01*
X191713779Y-65727080D02*
X191761398Y-65774700D01*
X191761398Y-65774700D02*
X191856636Y-65822319D01*
X191856636Y-65822319D02*
X192047112Y-65822319D01*
X192047112Y-65822319D02*
X192142350Y-65774700D01*
X192142350Y-65774700D02*
X192189969Y-65727080D01*
X192189969Y-65727080D02*
X192237588Y-65631842D01*
X192237588Y-65631842D02*
X192237588Y-65393747D01*
X192237588Y-65393747D02*
X192189969Y-65298509D01*
X192189969Y-65298509D02*
X192142350Y-65250890D01*
X192142350Y-65250890D02*
X192047112Y-65203271D01*
X192047112Y-65203271D02*
X191856636Y-65203271D01*
X191856636Y-65203271D02*
X191761398Y-65250890D01*
X191761398Y-65250890D02*
X191713779Y-65298509D01*
X191713779Y-65298509D02*
X191666160Y-65393747D01*
G04 #@! TO.C,S7*
X190713779Y-79349700D02*
X190856636Y-79397319D01*
X190856636Y-79397319D02*
X191094731Y-79397319D01*
X191094731Y-79397319D02*
X191189969Y-79349700D01*
X191189969Y-79349700D02*
X191237588Y-79302080D01*
X191237588Y-79302080D02*
X191285207Y-79206842D01*
X191285207Y-79206842D02*
X191285207Y-79111604D01*
X191285207Y-79111604D02*
X191237588Y-79016366D01*
X191237588Y-79016366D02*
X191189969Y-78968747D01*
X191189969Y-78968747D02*
X191094731Y-78921128D01*
X191094731Y-78921128D02*
X190904255Y-78873509D01*
X190904255Y-78873509D02*
X190809017Y-78825890D01*
X190809017Y-78825890D02*
X190761398Y-78778271D01*
X190761398Y-78778271D02*
X190713779Y-78683033D01*
X190713779Y-78683033D02*
X190713779Y-78587795D01*
X190713779Y-78587795D02*
X190761398Y-78492557D01*
X190761398Y-78492557D02*
X190809017Y-78444938D01*
X190809017Y-78444938D02*
X190904255Y-78397319D01*
X190904255Y-78397319D02*
X191142350Y-78397319D01*
X191142350Y-78397319D02*
X191285207Y-78444938D01*
X191618541Y-78397319D02*
X192285207Y-78397319D01*
X192285207Y-78397319D02*
X191856636Y-79397319D01*
G04 #@! TO.C,SPEAKER1*
D12*
X159300000Y-144050000D02*
X171900000Y-144050000D01*
X171900000Y-152650000D01*
X159300000Y-152650000D01*
X159300000Y-144050000D01*
G04 #@! TO.C,FID1*
X108702000Y-121357500D02*
G75*
G03*
X108702000Y-121357500I-1000000J0D01*
G01*
G04 #@! TO.C,FID2*
X163702000Y-44157500D02*
G75*
G03*
X163702000Y-44157500I-1000000J0D01*
G01*
G04 #@! TO.C,FID3*
X176702000Y-141857500D02*
G75*
G03*
X176702000Y-141857500I-1000000J0D01*
G01*
G04 #@! TO.C,DISP1*
X113902500Y-97842500D02*
X183102500Y-97842500D01*
X116502500Y-94442500D02*
X174102500Y-94442500D01*
X116502500Y-51242500D02*
X116502500Y-94442500D01*
X116502500Y-51242500D02*
X174102500Y-51242500D01*
X174102500Y-51242500D02*
X174102500Y-94442500D01*
X113902500Y-47842500D02*
X113902500Y-97842500D01*
X183102500Y-47842500D02*
X183102500Y-97842500D01*
X183102500Y-47842500D02*
X113902500Y-47842500D01*
G04 #@! TO.C,S4*
X102627000Y-66417500D02*
X102627000Y-72417500D01*
X102627000Y-72417500D02*
X108627000Y-72417500D01*
X108627000Y-66417500D02*
X102627000Y-66417500D01*
X108627000Y-72417500D02*
X108627000Y-66417500D01*
X107377714Y-69417500D02*
G75*
G03*
X107377714Y-69417500I-1750714J0D01*
G01*
D13*
G04 #@! TO.C,S5*
X101136872Y-83805673D02*
X101136872Y-82179327D01*
X104813827Y-87482628D02*
X101136872Y-83805673D01*
X101136872Y-82179327D02*
X104813827Y-78502372D01*
X106440173Y-87482628D02*
X104813827Y-87482628D01*
D12*
X104672406Y-82037906D02*
X104672406Y-83947094D01*
X104672406Y-82037906D02*
X106581594Y-82037906D01*
X106581594Y-83947094D02*
X104672406Y-83947094D01*
X106581594Y-82037906D02*
X106581594Y-83947094D01*
D13*
X104813827Y-78502372D02*
X106440173Y-78502372D01*
X110117128Y-83805673D02*
X106440173Y-87482628D01*
X106440173Y-78502372D02*
X110117128Y-82179327D01*
X110117128Y-82179327D02*
X110117128Y-83805673D01*
D12*
G04 #@! TO.C,S6*
X188377000Y-66417500D02*
X188377000Y-72417500D01*
X188377000Y-72417500D02*
X194377000Y-72417500D01*
X194377000Y-66417500D02*
X188377000Y-66417500D01*
X194377000Y-72417500D02*
X194377000Y-66417500D01*
X193127714Y-69417500D02*
G75*
G03*
X193127714Y-69417500I-1750714J0D01*
G01*
G04 #@! TO.C,S7*
X188377000Y-79992500D02*
X188377000Y-85992500D01*
X188377000Y-85992500D02*
X194377000Y-85992500D01*
X194377000Y-79992500D02*
X188377000Y-79992500D01*
X194377000Y-85992500D02*
X194377000Y-79992500D01*
X193127714Y-82992500D02*
G75*
G03*
X193127714Y-82992500I-1750714J0D01*
G01*
G04 #@! TD*
M02*
