%TF.GenerationSoftware,KiCad,Pcbnew,7.99.0-1.20230226git51d46c0.fc37*%
%TF.CreationDate,2023-03-13T11:31:16+00:00*%
%TF.ProjectId,tr23-outline-test-r1,74723233-2d6f-4757-946c-696e652d7465,rev?*%
%TF.SameCoordinates,Original*%
%TF.FileFunction,Copper,L1,Top*%
%TF.FilePolarity,Positive*%
%FSLAX46Y46*%
G04 Gerber Fmt 4.6, Leading zero omitted, Abs format (unit mm)*
G04 Created by KiCad (PCBNEW 7.99.0-1.20230226git51d46c0.fc37) date 2023-03-13 11:31:16*
%MOMM*%
%LPD*%
G01*
G04 APERTURE LIST*
G04 Aperture macros list*
%AMRotRect*
0 Rectangle, with rotation*
0 The origin of the aperture is its center*
0 $1 length*
0 $2 width*
0 $3 Rotation angle, in degrees counterclockwise*
0 Add horizontal line*
21,1,$1,$2,0,0,$3*%
G04 Aperture macros list end*
%TA.AperFunction,WasherPad*%
%ADD10C,1.000000*%
%TD*%
%TA.AperFunction,SMDPad,CuDef*%
%ADD11R,1.550000X1.300000*%
%TD*%
%TA.AperFunction,SMDPad,CuDef*%
%ADD12RotRect,2.000000X1.000000X135.000000*%
%TD*%
%TA.AperFunction,SMDPad,CuDef*%
%ADD13RotRect,2.000000X1.800000X135.000000*%
%TD*%
%TA.AperFunction,Conductor*%
%ADD14C,0.300000*%
%TD*%
G04 APERTURE END LIST*
D10*
%TO.P,DISP1,*%
%TO.N,*%
X-59487500Y31480000D03*
X8762500Y31480000D03*
X-59487500Y80520000D03*
X8762500Y80520000D03*
%TD*%
D11*
%TO.P,SW37,1,1*%
%TO.N,unconnected-(SW37-Pad1)*%
X-72479999Y61674999D03*
%TO.P,SW37,2,2*%
%TO.N,unconnected-(SW37-Pad2)*%
X-64519999Y61674999D03*
%TO.P,SW37,3,K*%
%TO.N,unconnected-(SW37-K-Pad3)*%
X-64519999Y57174999D03*
%TO.P,SW37,4,A*%
%TO.N,unconnected-(SW37-A-Pad4)*%
X-72479999Y57174999D03*
%TD*%
%TO.P,SW36,1,1*%
%TO.N,unconnected-(SW36-Pad1)*%
X13519999Y48099999D03*
%TO.P,SW36,2,2*%
%TO.N,unconnected-(SW36-Pad2)*%
X21479999Y48099999D03*
%TO.P,SW36,3,K*%
%TO.N,unconnected-(SW36-K-Pad3)*%
X21479999Y43599999D03*
%TO.P,SW36,4,A*%
%TO.N,unconnected-(SW36-A-Pad4)*%
X13519999Y43599999D03*
%TD*%
D12*
%TO.P,S1,1,A*%
%TO.N,unconnected-(S1-A-Pad1)*%
X-66679198Y42013944D03*
%TO.P,S1,2,Center*%
%TO.N,unconnected-(S1-Center-Pad2)*%
X-65671572Y43021572D03*
%TO.P,S1,3,C*%
%TO.N,unconnected-(S1-C-Pad3)*%
X-64663945Y44029199D03*
%TO.P,S1,4,B*%
%TO.N,unconnected-(S1-B-Pad4)*%
X-72336053Y47670799D03*
%TO.P,S1,5,COM*%
%TO.N,unconnected-(S1-COM-Pad5)*%
X-71328426Y48678426D03*
%TO.P,S1,6,D*%
%TO.N,unconnected-(S1-D-Pad6)*%
X-70320799Y49686053D03*
D13*
%TO.P,S1,SH1,SHIELD*%
%TO.N,unconnected-(S1-SHIELD-PadSH1)*%
X-71363781Y42986217D03*
%TO.P,S1,SH2,SHIELD*%
X-65636216Y48713781D03*
%TD*%
D11*
%TO.P,SW35,1,1*%
%TO.N,unconnected-(SW35-Pad1)*%
X13519999Y61674999D03*
%TO.P,SW35,2,2*%
%TO.N,unconnected-(SW35-Pad2)*%
X21479999Y61674999D03*
%TO.P,SW35,3,K*%
%TO.N,unconnected-(SW35-K-Pad3)*%
X21479999Y57174999D03*
%TO.P,SW35,4,A*%
%TO.N,unconnected-(SW35-A-Pad4)*%
X13519999Y57174999D03*
%TD*%
D14*
%TO.N,unconnected-(S1-SHIELD-PadSH1)*%
X-71363782Y42986218D02*
X-68688782Y42986218D01*
X-68688782Y42986218D02*
X-65636217Y46038783D01*
X-65636217Y46038783D02*
X-65636217Y48713782D01*
%TD*%
%TA.AperFunction,NonConductor*%
G36*
X-23240291Y94977627D02*
G01*
X-23194904Y94932240D01*
X-23178291Y94870240D01*
X-23178291Y90571700D01*
X-23178332Y90571494D01*
X-23178332Y90546939D01*
X-23178293Y90546844D01*
X-23178291Y90546841D01*
X-23178174Y90546557D01*
X-23178173Y90546556D01*
X-23178172Y90546555D01*
X-23177791Y90546399D01*
X-23153175Y90546416D01*
X-23153174Y90546411D01*
X-23153031Y90546440D01*
X-9935391Y90546440D01*
X-9873391Y90529827D01*
X-9828004Y90484440D01*
X-9811391Y90422440D01*
X-9811391Y86123900D01*
X-9811432Y86123694D01*
X-9811432Y86099139D01*
X-9811393Y86099044D01*
X-9811391Y86099041D01*
X-9811274Y86098757D01*
X-9811273Y86098756D01*
X-9811272Y86098755D01*
X-9810891Y86098599D01*
X-9786275Y86098616D01*
X-9786274Y86098611D01*
X-9786131Y86098640D01*
X12336807Y86098640D01*
X12398807Y86082027D01*
X12444194Y86036640D01*
X12460807Y85974640D01*
X12460807Y81676100D01*
X12460766Y81675894D01*
X12460766Y81651340D01*
X12460807Y81651241D01*
X12460912Y81650984D01*
X12460924Y81650956D01*
X12460925Y81650955D01*
X12461306Y81650799D01*
X12461307Y81650799D01*
X12485923Y81650816D01*
X12485923Y81650811D01*
X12486067Y81650840D01*
X25674260Y81650840D01*
X25736260Y81634227D01*
X25781647Y81588840D01*
X25798260Y81526840D01*
X25798260Y68343362D01*
X25798219Y68343156D01*
X25798219Y68318602D01*
X25798260Y68318503D01*
X25798365Y68318246D01*
X25798377Y68318218D01*
X25798378Y68318217D01*
X25798759Y68318061D01*
X25798760Y68318061D01*
X25823376Y68318078D01*
X25823376Y68318073D01*
X25823520Y68318102D01*
X28718030Y68318102D01*
X28724303Y68317943D01*
X28868889Y68310619D01*
X28881292Y68309363D01*
X29014799Y68289023D01*
X29032989Y68284831D01*
X29293391Y68203745D01*
X29315642Y68194353D01*
X29549338Y68067606D01*
X29569145Y68054245D01*
X29772630Y67886324D01*
X29789388Y67869557D01*
X29957116Y67666085D01*
X29970469Y67646265D01*
X30096972Y67412692D01*
X30106293Y67390625D01*
X30187909Y67129454D01*
X30192100Y67111397D01*
X30212651Y66978350D01*
X30213975Y66965075D01*
X30220541Y66821218D01*
X30220670Y66815564D01*
X30220670Y38696742D01*
X30220540Y38691074D01*
X30213976Y38547616D01*
X30212655Y38534367D01*
X30192097Y38401186D01*
X30187918Y38383165D01*
X30106289Y38121582D01*
X30096974Y38099503D01*
X29970472Y37865750D01*
X29957104Y37845903D01*
X29791465Y37644964D01*
X29789409Y37642470D01*
X29772603Y37625664D01*
X29772004Y37625170D01*
X29569170Y37457969D01*
X29549315Y37444597D01*
X29315503Y37318063D01*
X29293545Y37308784D01*
X29175103Y37271693D01*
X29033356Y37227303D01*
X29014410Y37222966D01*
X28880927Y37203257D01*
X28869248Y37202094D01*
X28727346Y37194723D01*
X28724376Y37194569D01*
X28717944Y37194402D01*
X25798930Y37194402D01*
X25798724Y37194443D01*
X25774170Y37194443D01*
X25773973Y37194362D01*
X25773885Y37194325D01*
X25773787Y37194285D01*
X25773786Y37194284D01*
X25773785Y37194283D01*
X25773629Y37193902D01*
X25773646Y37169286D01*
X25773641Y37169285D01*
X25773670Y37169142D01*
X25773670Y20409354D01*
X25773005Y20396532D01*
X25753945Y20213200D01*
X25749044Y20189288D01*
X25698302Y20025693D01*
X25688924Y20003413D01*
X25608472Y19854751D01*
X25595104Y19834904D01*
X25488409Y19705471D01*
X25471603Y19688665D01*
X25341949Y19581787D01*
X25322590Y19568684D01*
X25173955Y19487373D01*
X25151006Y19477673D01*
X25041430Y19443868D01*
X24986961Y19427064D01*
X24962683Y19422162D01*
X24957276Y19421624D01*
X24780261Y19404011D01*
X24767987Y19403403D01*
X21334447Y19403498D01*
X21334055Y19403500D01*
X21326172Y19403539D01*
X21326170Y19403541D01*
X21326101Y19403512D01*
X21325787Y19403384D01*
X21325786Y19403383D01*
X21325628Y19403001D01*
X21325646Y19378384D01*
X21325641Y19378383D01*
X21325670Y19378240D01*
X21325670Y7065091D01*
X21325061Y7052813D01*
X21306939Y6870694D01*
X21301859Y6845842D01*
X21250277Y6681481D01*
X21241022Y6659597D01*
X21160472Y6510754D01*
X21147104Y6490907D01*
X21040409Y6361474D01*
X21023603Y6344668D01*
X20894167Y6237970D01*
X20874315Y6224600D01*
X20725737Y6144192D01*
X20703289Y6134763D01*
X20538660Y6083974D01*
X20515000Y6079137D01*
X20332564Y6060076D01*
X20319683Y6059406D01*
X16887917Y6059498D01*
X16887779Y6059499D01*
X16878165Y6059539D01*
X16878163Y6059541D01*
X16878064Y6059500D01*
X16877780Y6059383D01*
X16877780Y6059382D01*
X16877778Y6059381D01*
X16877622Y6059000D01*
X16877639Y6034384D01*
X16877634Y6034383D01*
X16877663Y6034240D01*
X16877663Y-2330340D01*
X16876934Y-2343769D01*
X16867974Y-2426018D01*
X16863081Y-2449502D01*
X16841288Y-2519391D01*
X16831965Y-2541495D01*
X16797469Y-2605239D01*
X16784095Y-2625096D01*
X16738400Y-2680528D01*
X16721594Y-2697335D01*
X16666159Y-2743033D01*
X16646302Y-2756406D01*
X16582737Y-2790806D01*
X16560273Y-2800242D01*
X16489329Y-2822128D01*
X16466333Y-2826895D01*
X16384893Y-2835853D01*
X16371332Y-2836596D01*
X12454921Y-2836500D01*
X12454713Y-2836459D01*
X12430161Y-2836459D01*
X12429970Y-2836538D01*
X12429782Y-2836615D01*
X12429778Y-2836618D01*
X12429622Y-2836999D01*
X12429639Y-2861616D01*
X12429634Y-2861616D01*
X12429663Y-2861760D01*
X12429663Y-11226873D01*
X12429048Y-11239212D01*
X12420966Y-11320031D01*
X12415711Y-11345393D01*
X12393238Y-11415808D01*
X12384163Y-11437124D01*
X12349472Y-11501228D01*
X12336098Y-11521086D01*
X12290400Y-11576521D01*
X12273593Y-11593327D01*
X12218161Y-11639022D01*
X12198304Y-11652396D01*
X12134560Y-11686892D01*
X12112457Y-11696215D01*
X12043156Y-11717825D01*
X12018458Y-11722844D01*
X11936227Y-11730985D01*
X11924008Y-11731588D01*
X8006922Y-11731500D01*
X8006770Y-11731470D01*
X8006770Y-11731480D01*
X7982164Y-11731458D01*
X7981848Y-11731588D01*
X7981779Y-11731617D01*
X7981622Y-11731999D01*
X7981639Y-11756616D01*
X7981634Y-11756616D01*
X7981663Y-11756760D01*
X7981663Y-20121927D01*
X7981060Y-20134144D01*
X7972900Y-20216562D01*
X7967992Y-20240902D01*
X7946398Y-20310893D01*
X7936669Y-20333894D01*
X7902617Y-20396077D01*
X7888906Y-20416154D01*
X7841885Y-20472276D01*
X7826346Y-20487794D01*
X7770994Y-20534046D01*
X7751487Y-20547408D01*
X7688170Y-20582419D01*
X7664723Y-20592393D01*
X7594984Y-20613909D01*
X7570643Y-20618817D01*
X7488227Y-20626975D01*
X7476010Y-20627578D01*
X3558922Y-20627500D01*
X3558714Y-20627459D01*
X3534161Y-20627459D01*
X3533970Y-20627538D01*
X3533782Y-20627615D01*
X3533778Y-20627618D01*
X3533622Y-20627999D01*
X3533639Y-20652616D01*
X3533634Y-20652616D01*
X3533663Y-20652760D01*
X3533663Y-24569957D01*
X3533060Y-24582175D01*
X3524918Y-24664403D01*
X3519899Y-24689098D01*
X3498288Y-24758404D01*
X3488965Y-24780508D01*
X3454469Y-24844251D01*
X3441095Y-24864108D01*
X3395400Y-24919540D01*
X3378594Y-24936347D01*
X3323159Y-24982045D01*
X3303301Y-24995419D01*
X3239735Y-25029819D01*
X3217272Y-25039254D01*
X3146393Y-25061120D01*
X3123265Y-25065901D01*
X3040832Y-25074879D01*
X3027403Y-25075608D01*
X-889305Y-25075500D01*
X-889731Y-25075416D01*
X-913839Y-25075459D01*
X-914031Y-25075539D01*
X-914198Y-25075608D01*
X-914220Y-25075617D01*
X-914221Y-25075618D01*
X-914299Y-25075808D01*
X-914378Y-25076000D01*
X-914376Y-25076002D01*
X-914361Y-25100616D01*
X-914365Y-25100616D01*
X-914337Y-25100760D01*
X-914337Y-29398568D01*
X-930950Y-29460569D01*
X-976338Y-29505956D01*
X-1038339Y-29522568D01*
X-5336305Y-29522500D01*
X-5336729Y-29522416D01*
X-5360839Y-29522459D01*
X-5361031Y-29522539D01*
X-5361220Y-29522617D01*
X-5361221Y-29522618D01*
X-5361298Y-29522808D01*
X-5361378Y-29523000D01*
X-5361376Y-29523002D01*
X-5361361Y-29547616D01*
X-5361365Y-29547616D01*
X-5361337Y-29547760D01*
X-5361337Y-33848010D01*
X-5377950Y-33910010D01*
X-5423337Y-33955397D01*
X-5485337Y-33972010D01*
X-9774294Y-33972010D01*
X-9797166Y-33971968D01*
X-9797549Y-33972125D01*
X-9797550Y-33972126D01*
X-9797551Y-33972127D01*
X-9797709Y-33972510D01*
X-9797707Y-33972512D01*
X-9797689Y-33980158D01*
X-9797689Y-33980612D01*
X-9803376Y-36148544D01*
X-9809012Y-38296315D01*
X-9825733Y-38358178D01*
X-9871106Y-38403431D01*
X-9933012Y-38419990D01*
X-14233078Y-38419990D01*
X-14233284Y-38419949D01*
X-14257840Y-38419949D01*
X-14258032Y-38420028D01*
X-14258218Y-38420104D01*
X-14258222Y-38420108D01*
X-14258299Y-38420298D01*
X-14258379Y-38420490D01*
X-14258377Y-38420492D01*
X-14258362Y-38445106D01*
X-14258366Y-38445106D01*
X-14258338Y-38445250D01*
X-14258338Y-42743000D01*
X-14274951Y-42805000D01*
X-14320338Y-42850387D01*
X-14382336Y-42866999D01*
X-17972945Y-42866991D01*
X-18680440Y-42866990D01*
X-18680699Y-42866939D01*
X-18704974Y-42866949D01*
X-18705355Y-42867105D01*
X-18705356Y-42867106D01*
X-18705514Y-42867488D01*
X-18705497Y-42892106D01*
X-18705501Y-42892106D01*
X-18705473Y-42892250D01*
X-18705473Y-47190870D01*
X-18722086Y-47252870D01*
X-18767473Y-47298257D01*
X-18829473Y-47314870D01*
X-30045640Y-47314878D01*
X-30051680Y-47314731D01*
X-30247024Y-47305204D01*
X-30260164Y-47303859D01*
X-30445789Y-47274797D01*
X-30457272Y-47272438D01*
X-30637462Y-47226452D01*
X-30649431Y-47222744D01*
X-30820867Y-47159977D01*
X-30831894Y-47155325D01*
X-30996009Y-47076550D01*
X-31006619Y-47070806D01*
X-31161061Y-46977205D01*
X-31171398Y-46970205D01*
X-31315818Y-46861421D01*
X-31324591Y-46854158D01*
X-31457936Y-46733020D01*
X-31466339Y-46724617D01*
X-31587294Y-46591471D01*
X-31594866Y-46582286D01*
X-31702852Y-46437681D01*
X-31709257Y-46428224D01*
X-31803972Y-46273491D01*
X-31809957Y-46262507D01*
X-31888301Y-46099643D01*
X-31893012Y-46088484D01*
X-31956094Y-45916014D01*
X-31959743Y-45904259D01*
X-32005963Y-45724253D01*
X-32008432Y-45712172D01*
X-32036836Y-45526566D01*
X-32038107Y-45514031D01*
X-32047933Y-45318480D01*
X-32048089Y-45312257D01*
X-32048089Y-42892260D01*
X-32048060Y-42892116D01*
X-32048065Y-42892116D01*
X-32048048Y-42867499D01*
X-32048205Y-42867117D01*
X-32048589Y-42866959D01*
X-32073197Y-42866979D01*
X-32073197Y-42866969D01*
X-32073349Y-42867000D01*
X-34493384Y-42867000D01*
X-34499440Y-42866852D01*
X-34694615Y-42857308D01*
X-34707080Y-42856065D01*
X-34892963Y-42827986D01*
X-34905753Y-42825359D01*
X-35085326Y-42778497D01*
X-35096482Y-42775016D01*
X-35268998Y-42712130D01*
X-35280240Y-42707394D01*
X-35444068Y-42628666D01*
X-35454657Y-42622928D01*
X-35609234Y-42529187D01*
X-35619160Y-42522492D01*
X-35763457Y-42414668D01*
X-35772612Y-42407118D01*
X-35905790Y-42286132D01*
X-35914161Y-42277765D01*
X-36035239Y-42144589D01*
X-36042813Y-42135409D01*
X-36150750Y-41990992D01*
X-36157413Y-41981121D01*
X-36251358Y-41826423D01*
X-36257110Y-41815821D01*
X-36336026Y-41651802D01*
X-36340762Y-41640579D01*
X-36403778Y-41468035D01*
X-36407368Y-41456487D01*
X-36453569Y-41277496D01*
X-36456091Y-41265170D01*
X-36484497Y-41078611D01*
X-36485751Y-41066229D01*
X-36495675Y-40870628D01*
X-36495834Y-40864345D01*
X-36495834Y-38445610D01*
X-36495805Y-38445466D01*
X-36495810Y-38445466D01*
X-36495793Y-38420849D01*
X-36495949Y-38420468D01*
X-36495953Y-38420465D01*
X-36496141Y-38420388D01*
X-36496332Y-38420309D01*
X-36520888Y-38420309D01*
X-36521094Y-38420350D01*
X-38940886Y-38420350D01*
X-38947546Y-38420171D01*
X-38953269Y-38419863D01*
X-39142717Y-38409671D01*
X-39154585Y-38408458D01*
X-39340980Y-38380288D01*
X-39353158Y-38377818D01*
X-39532524Y-38331971D01*
X-39544863Y-38328121D01*
X-39717005Y-38264399D01*
X-39727642Y-38259888D01*
X-39891840Y-38181028D01*
X-39902483Y-38175261D01*
X-40056953Y-38081529D01*
X-40066819Y-38074874D01*
X-40211246Y-37967023D01*
X-40220432Y-37959450D01*
X-40353590Y-37838482D01*
X-40361961Y-37830115D01*
X-40483039Y-37696939D01*
X-40490613Y-37687759D01*
X-40598550Y-37543342D01*
X-40605213Y-37533471D01*
X-40699158Y-37378773D01*
X-40704910Y-37368171D01*
X-40783826Y-37204152D01*
X-40788562Y-37192929D01*
X-40851578Y-37020385D01*
X-40855168Y-37008837D01*
X-40901369Y-36829846D01*
X-40903891Y-36817521D01*
X-40932300Y-36630943D01*
X-40933552Y-36618591D01*
X-40943473Y-36424002D01*
X-40943634Y-36417688D01*
X-40943634Y-33997600D01*
X-40943605Y-33997456D01*
X-40943610Y-33997456D01*
X-40943593Y-33972839D01*
X-40943749Y-33972458D01*
X-40943753Y-33972455D01*
X-40943941Y-33972378D01*
X-40944132Y-33972299D01*
X-40968688Y-33972299D01*
X-40968894Y-33972340D01*
X-43841535Y-33972340D01*
X-43888488Y-33972340D01*
X-43894945Y-33972172D01*
X-43901165Y-33971847D01*
X-44038810Y-33964668D01*
X-44051280Y-33963383D01*
X-44184931Y-33942739D01*
X-44202604Y-33938667D01*
X-44463562Y-33858045D01*
X-44486343Y-33848426D01*
X-44719781Y-33721080D01*
X-44739271Y-33707906D01*
X-44942889Y-33540058D01*
X-44959656Y-33523300D01*
X-45127577Y-33319815D01*
X-45140938Y-33300008D01*
X-45267685Y-33066312D01*
X-45277077Y-33044061D01*
X-45358163Y-32783659D01*
X-45362354Y-32765477D01*
X-45382699Y-32631933D01*
X-45383952Y-32619580D01*
X-45391273Y-32475992D01*
X-45391434Y-32469678D01*
X-45391434Y-29548850D01*
X-45391405Y-29548706D01*
X-45391410Y-29548706D01*
X-45391393Y-29524090D01*
X-45391551Y-29523706D01*
X-45391656Y-29523663D01*
X-45391779Y-29523612D01*
X-45391930Y-29523549D01*
X-45391933Y-29523549D01*
X-45391934Y-29523549D01*
X-45416532Y-29523557D01*
X-45416693Y-29523590D01*
X-48337196Y-29523590D01*
X-48342847Y-29523461D01*
X-48361342Y-29522617D01*
X-48486707Y-29516895D01*
X-48499982Y-29515571D01*
X-48633029Y-29495020D01*
X-48651086Y-29490829D01*
X-48912257Y-29409213D01*
X-48934324Y-29399892D01*
X-49167897Y-29273389D01*
X-49187717Y-29260036D01*
X-49391189Y-29092308D01*
X-49407956Y-29075550D01*
X-49575877Y-28872065D01*
X-49589238Y-28852258D01*
X-49715985Y-28618562D01*
X-49725377Y-28596311D01*
X-49806463Y-28335909D01*
X-49810655Y-28317719D01*
X-49830995Y-28184212D01*
X-49832251Y-28171809D01*
X-49839575Y-28027223D01*
X-49839734Y-28020950D01*
X-49839734Y-25101900D01*
X-49839705Y-25101756D01*
X-49839710Y-25101756D01*
X-49839693Y-25077139D01*
X-49839849Y-25076758D01*
X-49839853Y-25076755D01*
X-49840041Y-25076678D01*
X-49840232Y-25076599D01*
X-49864788Y-25076599D01*
X-49864994Y-25076640D01*
X-52784588Y-25076640D01*
X-52791045Y-25076472D01*
X-52800115Y-25075999D01*
X-52934910Y-25068968D01*
X-52947380Y-25067683D01*
X-53081031Y-25047039D01*
X-53098704Y-25042967D01*
X-53359662Y-24962345D01*
X-53382443Y-24952726D01*
X-53615881Y-24825380D01*
X-53635371Y-24812206D01*
X-53838989Y-24644358D01*
X-53855756Y-24627600D01*
X-54023677Y-24424115D01*
X-54037038Y-24404308D01*
X-54163785Y-24170612D01*
X-54173177Y-24148361D01*
X-54254263Y-23887959D01*
X-54258455Y-23869769D01*
X-54278795Y-23736262D01*
X-54280051Y-23723859D01*
X-54287375Y-23579273D01*
X-54287534Y-23573000D01*
X-54287534Y-20653610D01*
X-54287505Y-20653466D01*
X-54287510Y-20653466D01*
X-54287493Y-20628849D01*
X-54287649Y-20628468D01*
X-54287653Y-20628465D01*
X-54287841Y-20628388D01*
X-54288032Y-20628309D01*
X-54312588Y-20628309D01*
X-54312794Y-20628350D01*
X-57232399Y-20628350D01*
X-57238862Y-20628181D01*
X-57382610Y-20620679D01*
X-57395064Y-20619396D01*
X-57528824Y-20598748D01*
X-57546509Y-20594675D01*
X-57807651Y-20513996D01*
X-57830103Y-20504556D01*
X-58063348Y-20378230D01*
X-58083423Y-20364666D01*
X-58286939Y-20195986D01*
X-58303450Y-20179439D01*
X-58471543Y-19975744D01*
X-58484806Y-19956117D01*
X-58611488Y-19723456D01*
X-58621015Y-19700906D01*
X-58702090Y-19439613D01*
X-58706245Y-19421542D01*
X-58717612Y-19346935D01*
X-28664331Y-19346935D01*
X-28633865Y-19519711D01*
X-28564377Y-19680804D01*
X-28459610Y-19821530D01*
X-28325214Y-19934302D01*
X-28168433Y-20013040D01*
X-28168429Y-20013040D01*
X-28168429Y-20013041D01*
X-27997723Y-20053500D01*
X-27997721Y-20053500D01*
X-27866296Y-20053500D01*
X-27866291Y-20053500D01*
X-27735745Y-20038241D01*
X-27666507Y-20013041D01*
X-27570883Y-19978237D01*
X-27537251Y-19956117D01*
X-27424304Y-19881830D01*
X-27424303Y-19881829D01*
X-27303908Y-19754219D01*
X-27216188Y-19602281D01*
X-27191468Y-19519711D01*
X-27165870Y-19434210D01*
X-27164352Y-19408156D01*
X-27160786Y-19346935D01*
X-26124331Y-19346935D01*
X-26093865Y-19519711D01*
X-26024377Y-19680804D01*
X-25919610Y-19821530D01*
X-25785214Y-19934302D01*
X-25628433Y-20013040D01*
X-25628429Y-20013040D01*
X-25628429Y-20013041D01*
X-25457723Y-20053500D01*
X-25457721Y-20053500D01*
X-25326296Y-20053500D01*
X-25326291Y-20053500D01*
X-25195745Y-20038241D01*
X-25126507Y-20013041D01*
X-25030883Y-19978237D01*
X-24997251Y-19956117D01*
X-24884304Y-19881830D01*
X-24884303Y-19881829D01*
X-24763908Y-19754219D01*
X-24676188Y-19602281D01*
X-24651468Y-19519711D01*
X-24625870Y-19434210D01*
X-24624352Y-19408156D01*
X-24620786Y-19346935D01*
X-23584331Y-19346935D01*
X-23553865Y-19519711D01*
X-23484377Y-19680804D01*
X-23379610Y-19821530D01*
X-23245214Y-19934302D01*
X-23088433Y-20013040D01*
X-23088429Y-20013040D01*
X-23088429Y-20013041D01*
X-22917723Y-20053500D01*
X-22917721Y-20053500D01*
X-22786296Y-20053500D01*
X-22786291Y-20053500D01*
X-22655745Y-20038241D01*
X-22586507Y-20013041D01*
X-22490883Y-19978237D01*
X-22457251Y-19956117D01*
X-22344304Y-19881830D01*
X-22344303Y-19881829D01*
X-22223908Y-19754219D01*
X-22136188Y-19602281D01*
X-22111468Y-19519711D01*
X-22085870Y-19434210D01*
X-22084352Y-19408156D01*
X-22075668Y-19259065D01*
X-22106135Y-19086290D01*
X-22175623Y-18925195D01*
X-22280390Y-18784469D01*
X-22414783Y-18671699D01*
X-22571570Y-18592958D01*
X-22742277Y-18552500D01*
X-22742279Y-18552500D01*
X-22873709Y-18552500D01*
X-22966956Y-18563399D01*
X-23004257Y-18567759D01*
X-23169116Y-18627762D01*
X-23315696Y-18724170D01*
X-23436091Y-18851780D01*
X-23436092Y-18851782D01*
X-23523812Y-19003719D01*
X-23574130Y-19171790D01*
X-23584331Y-19346935D01*
X-24620786Y-19346935D01*
X-24615668Y-19259065D01*
X-24646135Y-19086290D01*
X-24715623Y-18925195D01*
X-24820390Y-18784469D01*
X-24954783Y-18671699D01*
X-25111570Y-18592958D01*
X-25282277Y-18552500D01*
X-25282279Y-18552500D01*
X-25413709Y-18552500D01*
X-25506956Y-18563399D01*
X-25544257Y-18567759D01*
X-25709116Y-18627762D01*
X-25855696Y-18724170D01*
X-25976091Y-18851780D01*
X-25976092Y-18851782D01*
X-26063812Y-19003719D01*
X-26114130Y-19171790D01*
X-26124331Y-19346935D01*
X-27160786Y-19346935D01*
X-27155668Y-19259065D01*
X-27186135Y-19086290D01*
X-27255623Y-18925195D01*
X-27360390Y-18784469D01*
X-27494783Y-18671699D01*
X-27651570Y-18592958D01*
X-27822277Y-18552500D01*
X-27822279Y-18552500D01*
X-27953709Y-18552500D01*
X-28046956Y-18563399D01*
X-28084257Y-18567759D01*
X-28249116Y-18627762D01*
X-28395696Y-18724170D01*
X-28516091Y-18851780D01*
X-28516092Y-18851782D01*
X-28603812Y-19003719D01*
X-28654130Y-19171790D01*
X-28664331Y-19346935D01*
X-58717612Y-19346935D01*
X-58726598Y-19287952D01*
X-58727852Y-19275590D01*
X-58735173Y-19132002D01*
X-58735334Y-19125688D01*
X-58735334Y-16806935D01*
X-28664331Y-16806935D01*
X-28633865Y-16979711D01*
X-28564377Y-17140804D01*
X-28459610Y-17281530D01*
X-28325214Y-17394302D01*
X-28168433Y-17473040D01*
X-28168429Y-17473040D01*
X-28168429Y-17473041D01*
X-27997723Y-17513500D01*
X-27997721Y-17513500D01*
X-27866296Y-17513500D01*
X-27866291Y-17513500D01*
X-27735745Y-17498241D01*
X-27666507Y-17473041D01*
X-27570883Y-17438237D01*
X-27424304Y-17341830D01*
X-27424303Y-17341829D01*
X-27303908Y-17214219D01*
X-27216188Y-17062281D01*
X-27191468Y-16979711D01*
X-27165870Y-16894210D01*
X-27164352Y-16868156D01*
X-27160786Y-16806935D01*
X-26124331Y-16806935D01*
X-26093865Y-16979711D01*
X-26024377Y-17140804D01*
X-25919610Y-17281530D01*
X-25785214Y-17394302D01*
X-25628433Y-17473040D01*
X-25628429Y-17473040D01*
X-25628429Y-17473041D01*
X-25457723Y-17513500D01*
X-25457721Y-17513500D01*
X-25326296Y-17513500D01*
X-25326291Y-17513500D01*
X-25195745Y-17498241D01*
X-25126507Y-17473041D01*
X-25030883Y-17438237D01*
X-24884304Y-17341830D01*
X-24884303Y-17341829D01*
X-24763908Y-17214219D01*
X-24676188Y-17062281D01*
X-24651468Y-16979711D01*
X-24625870Y-16894210D01*
X-24624352Y-16868156D01*
X-24620786Y-16806935D01*
X-23584331Y-16806935D01*
X-23553865Y-16979711D01*
X-23484377Y-17140804D01*
X-23379610Y-17281530D01*
X-23245214Y-17394302D01*
X-23088433Y-17473040D01*
X-23088429Y-17473040D01*
X-23088429Y-17473041D01*
X-22917723Y-17513500D01*
X-22917721Y-17513500D01*
X-22786296Y-17513500D01*
X-22786291Y-17513500D01*
X-22655745Y-17498241D01*
X-22586507Y-17473041D01*
X-22490883Y-17438237D01*
X-22344304Y-17341830D01*
X-22344303Y-17341829D01*
X-22223908Y-17214219D01*
X-22136188Y-17062281D01*
X-22111468Y-16979711D01*
X-22085870Y-16894210D01*
X-22084352Y-16868156D01*
X-22075668Y-16719065D01*
X-22106135Y-16546290D01*
X-22175623Y-16385195D01*
X-22280390Y-16244469D01*
X-22414783Y-16131699D01*
X-22571570Y-16052958D01*
X-22742277Y-16012500D01*
X-22742279Y-16012500D01*
X-22873709Y-16012500D01*
X-22966956Y-16023399D01*
X-23004257Y-16027759D01*
X-23169116Y-16087762D01*
X-23315696Y-16184170D01*
X-23436091Y-16311780D01*
X-23436092Y-16311782D01*
X-23523812Y-16463719D01*
X-23574130Y-16631790D01*
X-23584331Y-16806935D01*
X-24620786Y-16806935D01*
X-24615668Y-16719065D01*
X-24646135Y-16546290D01*
X-24715623Y-16385195D01*
X-24820390Y-16244469D01*
X-24954783Y-16131699D01*
X-25111570Y-16052958D01*
X-25282277Y-16012500D01*
X-25282279Y-16012500D01*
X-25413709Y-16012500D01*
X-25506956Y-16023399D01*
X-25544257Y-16027759D01*
X-25709116Y-16087762D01*
X-25855696Y-16184170D01*
X-25976091Y-16311780D01*
X-25976092Y-16311782D01*
X-26063812Y-16463719D01*
X-26114130Y-16631790D01*
X-26124331Y-16806935D01*
X-27160786Y-16806935D01*
X-27155668Y-16719065D01*
X-27186135Y-16546290D01*
X-27255623Y-16385195D01*
X-27360390Y-16244469D01*
X-27494783Y-16131699D01*
X-27651570Y-16052958D01*
X-27822277Y-16012500D01*
X-27822279Y-16012500D01*
X-27953709Y-16012500D01*
X-28046956Y-16023399D01*
X-28084257Y-16027759D01*
X-28249116Y-16087762D01*
X-28395696Y-16184170D01*
X-28516091Y-16311780D01*
X-28516092Y-16311782D01*
X-28603812Y-16463719D01*
X-28654130Y-16631790D01*
X-28664331Y-16806935D01*
X-58735334Y-16806935D01*
X-58735334Y-11757620D01*
X-58735305Y-11757476D01*
X-58735310Y-11757476D01*
X-58735293Y-11732859D01*
X-58735449Y-11732478D01*
X-58735453Y-11732475D01*
X-58735641Y-11732398D01*
X-58735832Y-11732319D01*
X-58760388Y-11732319D01*
X-58760594Y-11732360D01*
X-62177464Y-11732360D01*
X-62189712Y-11731754D01*
X-62372607Y-11713600D01*
X-62396968Y-11708679D01*
X-62560684Y-11658090D01*
X-62583614Y-11648388D01*
X-62732166Y-11567074D01*
X-62751500Y-11553985D01*
X-62881182Y-11447084D01*
X-62897960Y-11430313D01*
X-63004866Y-11300728D01*
X-63018096Y-11281154D01*
X-63098567Y-11133494D01*
X-63108122Y-11110885D01*
X-63159045Y-10946675D01*
X-63163988Y-10922346D01*
X-63182413Y-10739010D01*
X-63183034Y-10726611D01*
X-63183034Y-8293678D01*
X-54020500Y-8293678D01*
X-53981371Y-8578358D01*
X-53903844Y-8855058D01*
X-53789361Y-9118625D01*
X-53640055Y-9364147D01*
X-53458708Y-9587053D01*
X-53248698Y-9783189D01*
X-53013936Y-9948901D01*
X-52758797Y-10081104D01*
X-52488032Y-10177334D01*
X-52206686Y-10235798D01*
X-51991752Y-10250500D01*
X-51848249Y-10250500D01*
X-51848248Y-10250500D01*
X-51633314Y-10235798D01*
X-51351968Y-10177334D01*
X-51081203Y-10081104D01*
X-50826064Y-9948901D01*
X-50826060Y-9948899D01*
X-50591307Y-9783193D01*
X-50591304Y-9783191D01*
X-50591302Y-9783189D01*
X-50381292Y-9587053D01*
X-50381291Y-9587051D01*
X-50381288Y-9587049D01*
X-50199946Y-9364148D01*
X-50050637Y-9118622D01*
X-49936157Y-8855060D01*
X-49858628Y-8578355D01*
X-49819500Y-8293678D01*
X-44958500Y-8293678D01*
X-44919371Y-8578358D01*
X-44841844Y-8855058D01*
X-44727361Y-9118625D01*
X-44578055Y-9364147D01*
X-44396708Y-9587053D01*
X-44186698Y-9783189D01*
X-43951936Y-9948901D01*
X-43696797Y-10081104D01*
X-43426032Y-10177334D01*
X-43144686Y-10235798D01*
X-42929752Y-10250500D01*
X-42786249Y-10250500D01*
X-42786248Y-10250500D01*
X-42571314Y-10235798D01*
X-42289968Y-10177334D01*
X-42019203Y-10081104D01*
X-41764064Y-9948901D01*
X-41764060Y-9948899D01*
X-41529307Y-9783193D01*
X-41529304Y-9783191D01*
X-41529302Y-9783189D01*
X-41319292Y-9587053D01*
X-41319291Y-9587051D01*
X-41319288Y-9587049D01*
X-41137946Y-9364148D01*
X-40988637Y-9118622D01*
X-40874157Y-8855060D01*
X-40796628Y-8578355D01*
X-40757500Y-8293678D01*
X-35896500Y-8293678D01*
X-35857371Y-8578358D01*
X-35779844Y-8855058D01*
X-35665361Y-9118625D01*
X-35516055Y-9364147D01*
X-35334708Y-9587053D01*
X-35124698Y-9783189D01*
X-34889936Y-9948901D01*
X-34634797Y-10081104D01*
X-34364032Y-10177334D01*
X-34082686Y-10235798D01*
X-33867752Y-10250500D01*
X-33724249Y-10250500D01*
X-33724248Y-10250500D01*
X-33509314Y-10235798D01*
X-33227968Y-10177334D01*
X-32957203Y-10081104D01*
X-32702064Y-9948901D01*
X-32702060Y-9948899D01*
X-32467307Y-9783193D01*
X-32467304Y-9783191D01*
X-32467302Y-9783189D01*
X-32257292Y-9587053D01*
X-32257291Y-9587051D01*
X-32257288Y-9587049D01*
X-32075946Y-9364148D01*
X-31926637Y-9118622D01*
X-31812157Y-8855060D01*
X-31734628Y-8578355D01*
X-31695500Y-8293678D01*
X-26834500Y-8293678D01*
X-26795371Y-8578358D01*
X-26717844Y-8855058D01*
X-26603361Y-9118625D01*
X-26454055Y-9364147D01*
X-26272708Y-9587053D01*
X-26062698Y-9783189D01*
X-25827936Y-9948901D01*
X-25572797Y-10081104D01*
X-25302032Y-10177334D01*
X-25020686Y-10235798D01*
X-24805752Y-10250500D01*
X-24662249Y-10250500D01*
X-24662248Y-10250500D01*
X-24447314Y-10235798D01*
X-24165968Y-10177334D01*
X-23895203Y-10081104D01*
X-23640064Y-9948901D01*
X-23640060Y-9948899D01*
X-23405307Y-9783193D01*
X-23405304Y-9783191D01*
X-23405302Y-9783189D01*
X-23195292Y-9587053D01*
X-23195291Y-9587051D01*
X-23195288Y-9587049D01*
X-23013946Y-9364148D01*
X-22864637Y-9118622D01*
X-22750157Y-8855060D01*
X-22672628Y-8578355D01*
X-22633500Y-8293678D01*
X-17772500Y-8293678D01*
X-17733371Y-8578358D01*
X-17655844Y-8855058D01*
X-17541361Y-9118625D01*
X-17392055Y-9364147D01*
X-17210708Y-9587053D01*
X-17000698Y-9783189D01*
X-16765936Y-9948901D01*
X-16510797Y-10081104D01*
X-16240032Y-10177334D01*
X-15958686Y-10235798D01*
X-15743752Y-10250500D01*
X-15600249Y-10250500D01*
X-15600248Y-10250500D01*
X-15385314Y-10235798D01*
X-15103968Y-10177334D01*
X-14833203Y-10081104D01*
X-14578064Y-9948901D01*
X-14578060Y-9948899D01*
X-14343307Y-9783193D01*
X-14343304Y-9783191D01*
X-14343302Y-9783189D01*
X-14133292Y-9587053D01*
X-14133291Y-9587051D01*
X-14133288Y-9587049D01*
X-13951946Y-9364148D01*
X-13802637Y-9118622D01*
X-13688157Y-8855060D01*
X-13610628Y-8578355D01*
X-13571500Y-8293678D01*
X-8710500Y-8293678D01*
X-8671371Y-8578358D01*
X-8593844Y-8855058D01*
X-8479361Y-9118625D01*
X-8330055Y-9364147D01*
X-8148708Y-9587053D01*
X-7938698Y-9783189D01*
X-7703936Y-9948901D01*
X-7448797Y-10081104D01*
X-7178032Y-10177334D01*
X-6896686Y-10235798D01*
X-6681752Y-10250500D01*
X-6538249Y-10250500D01*
X-6538248Y-10250500D01*
X-6323314Y-10235798D01*
X-6041968Y-10177334D01*
X-5771203Y-10081104D01*
X-5516064Y-9948901D01*
X-5516060Y-9948899D01*
X-5281307Y-9783193D01*
X-5281304Y-9783191D01*
X-5281302Y-9783189D01*
X-5071292Y-9587053D01*
X-5071291Y-9587051D01*
X-5071288Y-9587049D01*
X-4889946Y-9364148D01*
X-4740637Y-9118622D01*
X-4626157Y-8855060D01*
X-4548628Y-8578355D01*
X-4509500Y-8293678D01*
X351500Y-8293678D01*
X390628Y-8578355D01*
X468157Y-8855060D01*
X582637Y-9118622D01*
X731946Y-9364148D01*
X913288Y-9587049D01*
X913291Y-9587051D01*
X913292Y-9587053D01*
X1123302Y-9783189D01*
X1123304Y-9783191D01*
X1123307Y-9783193D01*
X1358060Y-9948899D01*
X1358064Y-9948901D01*
X1613203Y-10081104D01*
X1883968Y-10177334D01*
X2165314Y-10235798D01*
X2380248Y-10250500D01*
X2523751Y-10250500D01*
X2523752Y-10250500D01*
X2738686Y-10235798D01*
X3020032Y-10177334D01*
X3290797Y-10081104D01*
X3545936Y-9948901D01*
X3780698Y-9783189D01*
X3990708Y-9587053D01*
X4172055Y-9364147D01*
X4321361Y-9118625D01*
X4435844Y-8855058D01*
X4513371Y-8578358D01*
X4552500Y-8293678D01*
X4552500Y-8006322D01*
X4513371Y-7721642D01*
X4435844Y-7444942D01*
X4321361Y-7181375D01*
X4172055Y-6935853D01*
X4099516Y-6846690D01*
X3990711Y-6712950D01*
X3990708Y-6712947D01*
X3780698Y-6516811D01*
X3780695Y-6516809D01*
X3780692Y-6516806D01*
X3545939Y-6351100D01*
X3290793Y-6218894D01*
X3020031Y-6122665D01*
X2738690Y-6064202D01*
X2566738Y-6052440D01*
X2523752Y-6049500D01*
X2380248Y-6049500D01*
X2344425Y-6051950D01*
X2165309Y-6064202D01*
X1883968Y-6122665D01*
X1613206Y-6218894D01*
X1358060Y-6351100D01*
X1123307Y-6516806D01*
X913288Y-6712950D01*
X731946Y-6935851D01*
X582637Y-7181377D01*
X468157Y-7444939D01*
X390628Y-7721644D01*
X351500Y-8006322D01*
X351500Y-8293678D01*
X-4509500Y-8293678D01*
X-4509500Y-8006322D01*
X-4548628Y-7721644D01*
X-4626157Y-7444939D01*
X-4740637Y-7181377D01*
X-4889946Y-6935851D01*
X-5071288Y-6712950D01*
X-5281307Y-6516806D01*
X-5516060Y-6351100D01*
X-5771206Y-6218894D01*
X-6041968Y-6122665D01*
X-6323309Y-6064202D01*
X-6502425Y-6051950D01*
X-6538248Y-6049500D01*
X-6681752Y-6049500D01*
X-6724738Y-6052440D01*
X-6896690Y-6064202D01*
X-7178031Y-6122665D01*
X-7448793Y-6218894D01*
X-7703939Y-6351100D01*
X-7938692Y-6516806D01*
X-7938695Y-6516809D01*
X-7938698Y-6516811D01*
X-8148708Y-6712947D01*
X-8148711Y-6712950D01*
X-8257516Y-6846690D01*
X-8330055Y-6935853D01*
X-8479361Y-7181375D01*
X-8593844Y-7444942D01*
X-8671371Y-7721642D01*
X-8710500Y-8006322D01*
X-8710500Y-8293678D01*
X-13571500Y-8293678D01*
X-13571500Y-8006322D01*
X-13610628Y-7721644D01*
X-13688157Y-7444939D01*
X-13802637Y-7181377D01*
X-13951946Y-6935851D01*
X-14133288Y-6712950D01*
X-14343307Y-6516806D01*
X-14578060Y-6351100D01*
X-14833206Y-6218894D01*
X-15103968Y-6122665D01*
X-15385309Y-6064202D01*
X-15564425Y-6051950D01*
X-15600248Y-6049500D01*
X-15743752Y-6049500D01*
X-15786738Y-6052440D01*
X-15958690Y-6064202D01*
X-16240031Y-6122665D01*
X-16510793Y-6218894D01*
X-16765939Y-6351100D01*
X-17000692Y-6516806D01*
X-17000695Y-6516809D01*
X-17000698Y-6516811D01*
X-17210708Y-6712947D01*
X-17210711Y-6712950D01*
X-17319516Y-6846690D01*
X-17392055Y-6935853D01*
X-17541361Y-7181375D01*
X-17655844Y-7444942D01*
X-17733371Y-7721642D01*
X-17772500Y-8006322D01*
X-17772500Y-8293678D01*
X-22633500Y-8293678D01*
X-22633500Y-8006322D01*
X-22672628Y-7721644D01*
X-22750157Y-7444939D01*
X-22864637Y-7181377D01*
X-23013946Y-6935851D01*
X-23195288Y-6712950D01*
X-23405307Y-6516806D01*
X-23640060Y-6351100D01*
X-23895206Y-6218894D01*
X-24165968Y-6122665D01*
X-24447309Y-6064202D01*
X-24626425Y-6051950D01*
X-24662248Y-6049500D01*
X-24805752Y-6049500D01*
X-24848738Y-6052440D01*
X-25020690Y-6064202D01*
X-25302031Y-6122665D01*
X-25572793Y-6218894D01*
X-25827939Y-6351100D01*
X-26062692Y-6516806D01*
X-26062695Y-6516809D01*
X-26062698Y-6516811D01*
X-26272708Y-6712947D01*
X-26272711Y-6712950D01*
X-26381516Y-6846690D01*
X-26454055Y-6935853D01*
X-26603361Y-7181375D01*
X-26717844Y-7444942D01*
X-26795371Y-7721642D01*
X-26834500Y-8006322D01*
X-26834500Y-8293678D01*
X-31695500Y-8293678D01*
X-31695500Y-8006322D01*
X-31734628Y-7721644D01*
X-31812157Y-7444939D01*
X-31926637Y-7181377D01*
X-32075946Y-6935851D01*
X-32257288Y-6712950D01*
X-32467307Y-6516806D01*
X-32702060Y-6351100D01*
X-32957206Y-6218894D01*
X-33227968Y-6122665D01*
X-33509309Y-6064202D01*
X-33688425Y-6051950D01*
X-33724248Y-6049500D01*
X-33867752Y-6049500D01*
X-33910738Y-6052440D01*
X-34082690Y-6064202D01*
X-34364031Y-6122665D01*
X-34634793Y-6218894D01*
X-34889939Y-6351100D01*
X-35124692Y-6516806D01*
X-35124695Y-6516809D01*
X-35124698Y-6516811D01*
X-35334708Y-6712947D01*
X-35334711Y-6712950D01*
X-35443516Y-6846690D01*
X-35516055Y-6935853D01*
X-35665361Y-7181375D01*
X-35779844Y-7444942D01*
X-35857371Y-7721642D01*
X-35896500Y-8006322D01*
X-35896500Y-8293678D01*
X-40757500Y-8293678D01*
X-40757500Y-8006322D01*
X-40796628Y-7721644D01*
X-40874157Y-7444939D01*
X-40988637Y-7181377D01*
X-41137946Y-6935851D01*
X-41319288Y-6712950D01*
X-41529307Y-6516806D01*
X-41764060Y-6351100D01*
X-42019206Y-6218894D01*
X-42289968Y-6122665D01*
X-42571309Y-6064202D01*
X-42750425Y-6051950D01*
X-42786248Y-6049500D01*
X-42929752Y-6049500D01*
X-42972738Y-6052440D01*
X-43144690Y-6064202D01*
X-43426031Y-6122665D01*
X-43696793Y-6218894D01*
X-43951939Y-6351100D01*
X-44186692Y-6516806D01*
X-44186695Y-6516809D01*
X-44186698Y-6516811D01*
X-44396708Y-6712947D01*
X-44396711Y-6712950D01*
X-44505516Y-6846690D01*
X-44578055Y-6935853D01*
X-44727361Y-7181375D01*
X-44841844Y-7444942D01*
X-44919371Y-7721642D01*
X-44958500Y-8006322D01*
X-44958500Y-8293678D01*
X-49819500Y-8293678D01*
X-49819500Y-8006322D01*
X-49858628Y-7721644D01*
X-49936157Y-7444939D01*
X-50050637Y-7181377D01*
X-50199946Y-6935851D01*
X-50381288Y-6712950D01*
X-50591307Y-6516806D01*
X-50826060Y-6351100D01*
X-51081206Y-6218894D01*
X-51351968Y-6122665D01*
X-51633309Y-6064202D01*
X-51812425Y-6051950D01*
X-51848248Y-6049500D01*
X-51991752Y-6049500D01*
X-52034738Y-6052440D01*
X-52206690Y-6064202D01*
X-52488031Y-6122665D01*
X-52758793Y-6218894D01*
X-53013939Y-6351100D01*
X-53248692Y-6516806D01*
X-53248695Y-6516809D01*
X-53248698Y-6516811D01*
X-53458708Y-6712947D01*
X-53458711Y-6712950D01*
X-53567516Y-6846690D01*
X-53640055Y-6935853D01*
X-53789361Y-7181375D01*
X-53903844Y-7444942D01*
X-53981371Y-7721642D01*
X-54020500Y-8006322D01*
X-54020500Y-8293678D01*
X-63183034Y-8293678D01*
X-63183034Y-2862587D01*
X-63183005Y-2862443D01*
X-63183010Y-2862443D01*
X-63182993Y-2837826D01*
X-63183149Y-2837445D01*
X-63183153Y-2837442D01*
X-63183341Y-2837365D01*
X-63183532Y-2837286D01*
X-63208088Y-2837286D01*
X-63208294Y-2837327D01*
X-66624964Y-2837327D01*
X-66637817Y-2836659D01*
X-66653963Y-2834976D01*
X-66820720Y-2817595D01*
X-66844474Y-2812736D01*
X-67008759Y-2761971D01*
X-67031195Y-2752538D01*
X-67179671Y-2672139D01*
X-67199531Y-2658755D01*
X-67328902Y-2552039D01*
X-67345647Y-2535295D01*
X-67452484Y-2405796D01*
X-67465835Y-2386001D01*
X-67546449Y-2237364D01*
X-67555884Y-2214975D01*
X-67606856Y-2050608D01*
X-67611792Y-2026340D01*
X-67630206Y-1844015D01*
X-67630834Y-1831555D01*
X-67630834Y2116322D01*
X-58620500Y2116322D01*
X-58581371Y1831642D01*
X-58503844Y1554942D01*
X-58389361Y1291375D01*
X-58240055Y1045853D01*
X-58240053Y1045851D01*
X-58058711Y822950D01*
X-58058708Y822947D01*
X-57848698Y626811D01*
X-57848695Y626809D01*
X-57848692Y626806D01*
X-57613939Y461100D01*
X-57358793Y328894D01*
X-57088031Y232665D01*
X-56806690Y174202D01*
X-56634738Y162440D01*
X-56591752Y159500D01*
X-56448249Y159500D01*
X-56448248Y159500D01*
X-56412425Y161950D01*
X-56233309Y174202D01*
X-55951968Y232665D01*
X-55681206Y328894D01*
X-55426060Y461100D01*
X-55191307Y626806D01*
X-54981288Y822950D01*
X-54799946Y1045851D01*
X-54650637Y1291377D01*
X-54536157Y1554939D01*
X-54458628Y1831644D01*
X-54419500Y2116322D01*
X-49558500Y2116322D01*
X-49519371Y1831642D01*
X-49441844Y1554942D01*
X-49327361Y1291375D01*
X-49178055Y1045853D01*
X-49178053Y1045851D01*
X-48996711Y822950D01*
X-48996708Y822947D01*
X-48786698Y626811D01*
X-48786695Y626809D01*
X-48786692Y626806D01*
X-48551939Y461100D01*
X-48296793Y328894D01*
X-48026031Y232665D01*
X-47744690Y174202D01*
X-47572738Y162440D01*
X-47529752Y159500D01*
X-47386249Y159500D01*
X-47386248Y159500D01*
X-47350425Y161950D01*
X-47171309Y174202D01*
X-46889968Y232665D01*
X-46619206Y328894D01*
X-46364060Y461100D01*
X-46129307Y626806D01*
X-45919288Y822950D01*
X-45737946Y1045851D01*
X-45588637Y1291377D01*
X-45474157Y1554939D01*
X-45396628Y1831644D01*
X-45357500Y2116322D01*
X-40496500Y2116322D01*
X-40457371Y1831642D01*
X-40379844Y1554942D01*
X-40265361Y1291375D01*
X-40116055Y1045853D01*
X-40116053Y1045851D01*
X-39934711Y822950D01*
X-39934708Y822947D01*
X-39724698Y626811D01*
X-39724695Y626809D01*
X-39724692Y626806D01*
X-39489939Y461100D01*
X-39234793Y328894D01*
X-38964031Y232665D01*
X-38682690Y174202D01*
X-38510738Y162440D01*
X-38467752Y159500D01*
X-38324249Y159500D01*
X-38324248Y159500D01*
X-38288425Y161950D01*
X-38109309Y174202D01*
X-37827968Y232665D01*
X-37557206Y328894D01*
X-37302060Y461100D01*
X-37067307Y626806D01*
X-36857288Y822950D01*
X-36675946Y1045851D01*
X-36526637Y1291377D01*
X-36412157Y1554939D01*
X-36334628Y1831644D01*
X-36295500Y2116322D01*
X-31434500Y2116322D01*
X-31395371Y1831642D01*
X-31317844Y1554942D01*
X-31203361Y1291375D01*
X-31054055Y1045853D01*
X-31054053Y1045851D01*
X-30872711Y822950D01*
X-30872708Y822947D01*
X-30662698Y626811D01*
X-30662695Y626809D01*
X-30662692Y626806D01*
X-30427939Y461100D01*
X-30172793Y328894D01*
X-29902031Y232665D01*
X-29620690Y174202D01*
X-29448738Y162440D01*
X-29405752Y159500D01*
X-29262249Y159500D01*
X-29262248Y159500D01*
X-29226425Y161950D01*
X-29047309Y174202D01*
X-28765968Y232665D01*
X-28495206Y328894D01*
X-28240060Y461100D01*
X-28005307Y626806D01*
X-27795288Y822950D01*
X-27613946Y1045851D01*
X-27464637Y1291377D01*
X-27350157Y1554939D01*
X-27272628Y1831644D01*
X-27233500Y2116322D01*
X-22372500Y2116322D01*
X-22333371Y1831642D01*
X-22255844Y1554942D01*
X-22141361Y1291375D01*
X-21992055Y1045853D01*
X-21992053Y1045851D01*
X-21810711Y822950D01*
X-21810708Y822947D01*
X-21600698Y626811D01*
X-21600695Y626809D01*
X-21600692Y626806D01*
X-21365939Y461100D01*
X-21110793Y328894D01*
X-20840031Y232665D01*
X-20558690Y174202D01*
X-20386738Y162440D01*
X-20343752Y159500D01*
X-20200249Y159500D01*
X-20200248Y159500D01*
X-20164425Y161950D01*
X-19985309Y174202D01*
X-19703968Y232665D01*
X-19433206Y328894D01*
X-19178060Y461100D01*
X-18943307Y626806D01*
X-18733288Y822950D01*
X-18551946Y1045851D01*
X-18402637Y1291377D01*
X-18288157Y1554939D01*
X-18210628Y1831644D01*
X-18171500Y2116322D01*
X-13310500Y2116322D01*
X-13271371Y1831642D01*
X-13193844Y1554942D01*
X-13079361Y1291375D01*
X-12930055Y1045853D01*
X-12930053Y1045851D01*
X-12748711Y822950D01*
X-12748708Y822947D01*
X-12538698Y626811D01*
X-12538695Y626809D01*
X-12538692Y626806D01*
X-12303939Y461100D01*
X-12048793Y328894D01*
X-11778031Y232665D01*
X-11496690Y174202D01*
X-11324738Y162440D01*
X-11281752Y159500D01*
X-11138249Y159500D01*
X-11138248Y159500D01*
X-11102425Y161950D01*
X-10923309Y174202D01*
X-10641968Y232665D01*
X-10371206Y328894D01*
X-10116060Y461100D01*
X-9881307Y626806D01*
X-9671288Y822950D01*
X-9489946Y1045851D01*
X-9340637Y1291377D01*
X-9226157Y1554939D01*
X-9148628Y1831644D01*
X-9109500Y2116322D01*
X-4248500Y2116322D01*
X-4209371Y1831642D01*
X-4131844Y1554942D01*
X-4017361Y1291375D01*
X-3868055Y1045853D01*
X-3868053Y1045851D01*
X-3686711Y822950D01*
X-3686708Y822947D01*
X-3476698Y626811D01*
X-3476695Y626809D01*
X-3476692Y626806D01*
X-3241939Y461100D01*
X-2986793Y328894D01*
X-2716031Y232665D01*
X-2434690Y174202D01*
X-2262738Y162440D01*
X-2219752Y159500D01*
X-2076249Y159500D01*
X-2076248Y159500D01*
X-2040425Y161950D01*
X-1861309Y174202D01*
X-1579968Y232665D01*
X-1309206Y328894D01*
X-1054060Y461100D01*
X-819307Y626806D01*
X-609288Y822950D01*
X-427946Y1045851D01*
X-278637Y1291377D01*
X-164157Y1554939D01*
X-86628Y1831644D01*
X-47500Y2116322D01*
X4813500Y2116322D01*
X4852628Y1831644D01*
X4930157Y1554939D01*
X5044637Y1291377D01*
X5193946Y1045851D01*
X5375288Y822950D01*
X5585307Y626806D01*
X5820060Y461100D01*
X6075206Y328894D01*
X6345968Y232665D01*
X6627309Y174202D01*
X6806425Y161950D01*
X6842248Y159500D01*
X6985751Y159500D01*
X6985752Y159500D01*
X7028738Y162440D01*
X7200690Y174202D01*
X7482031Y232665D01*
X7752793Y328894D01*
X8007939Y461100D01*
X8242692Y626806D01*
X8242695Y626809D01*
X8242698Y626811D01*
X8452708Y822947D01*
X8452711Y822950D01*
X8634053Y1045851D01*
X8634055Y1045853D01*
X8783361Y1291375D01*
X8897844Y1554942D01*
X8975371Y1831642D01*
X9014500Y2116322D01*
X9014500Y2403678D01*
X8975371Y2688358D01*
X8897844Y2965058D01*
X8783361Y3228625D01*
X8634055Y3474147D01*
X8452708Y3697053D01*
X8242698Y3893189D01*
X8007936Y4058901D01*
X7752797Y4191104D01*
X7482032Y4287334D01*
X7200686Y4345798D01*
X6985752Y4360500D01*
X6842248Y4360500D01*
X6627314Y4345798D01*
X6345968Y4287334D01*
X6075203Y4191104D01*
X5849614Y4074213D01*
X5820060Y4058899D01*
X5585307Y3893193D01*
X5585304Y3893191D01*
X5585302Y3893189D01*
X5375292Y3697053D01*
X5375288Y3697049D01*
X5193946Y3474148D01*
X5044637Y3228622D01*
X4930157Y2965060D01*
X4852628Y2688355D01*
X4813500Y2403678D01*
X4813500Y2116322D01*
X-47500Y2116322D01*
X-47500Y2403678D01*
X-86628Y2688355D01*
X-164157Y2965060D01*
X-278637Y3228622D01*
X-427946Y3474148D01*
X-609288Y3697049D01*
X-609292Y3697053D01*
X-819302Y3893189D01*
X-819304Y3893191D01*
X-819307Y3893193D01*
X-1054060Y4058899D01*
X-1083614Y4074213D01*
X-1309203Y4191104D01*
X-1579968Y4287334D01*
X-1861314Y4345798D01*
X-2076248Y4360500D01*
X-2219752Y4360500D01*
X-2434686Y4345798D01*
X-2716032Y4287334D01*
X-2986797Y4191104D01*
X-3241936Y4058901D01*
X-3476698Y3893189D01*
X-3686708Y3697053D01*
X-3868055Y3474147D01*
X-4017361Y3228625D01*
X-4131844Y2965058D01*
X-4209371Y2688358D01*
X-4248500Y2403678D01*
X-4248500Y2116322D01*
X-9109500Y2116322D01*
X-9109500Y2403678D01*
X-9148628Y2688355D01*
X-9226157Y2965060D01*
X-9340637Y3228622D01*
X-9489946Y3474148D01*
X-9671288Y3697049D01*
X-9671292Y3697053D01*
X-9881302Y3893189D01*
X-9881304Y3893191D01*
X-9881307Y3893193D01*
X-10116060Y4058899D01*
X-10145614Y4074213D01*
X-10371203Y4191104D01*
X-10641968Y4287334D01*
X-10923314Y4345798D01*
X-11138248Y4360500D01*
X-11281752Y4360500D01*
X-11496686Y4345798D01*
X-11778032Y4287334D01*
X-12048797Y4191104D01*
X-12303936Y4058901D01*
X-12538698Y3893189D01*
X-12748708Y3697053D01*
X-12930055Y3474147D01*
X-13079361Y3228625D01*
X-13193844Y2965058D01*
X-13271371Y2688358D01*
X-13310500Y2403678D01*
X-13310500Y2116322D01*
X-18171500Y2116322D01*
X-18171500Y2403678D01*
X-18210628Y2688355D01*
X-18288157Y2965060D01*
X-18402637Y3228622D01*
X-18551946Y3474148D01*
X-18733288Y3697049D01*
X-18733292Y3697053D01*
X-18943302Y3893189D01*
X-18943304Y3893191D01*
X-18943307Y3893193D01*
X-19178060Y4058899D01*
X-19207614Y4074213D01*
X-19433203Y4191104D01*
X-19703968Y4287334D01*
X-19985314Y4345798D01*
X-20200248Y4360500D01*
X-20343752Y4360500D01*
X-20558686Y4345798D01*
X-20840032Y4287334D01*
X-21110797Y4191104D01*
X-21365936Y4058901D01*
X-21600698Y3893189D01*
X-21810708Y3697053D01*
X-21992055Y3474147D01*
X-22141361Y3228625D01*
X-22255844Y2965058D01*
X-22333371Y2688358D01*
X-22372500Y2403678D01*
X-22372500Y2116322D01*
X-27233500Y2116322D01*
X-27233500Y2403678D01*
X-27272628Y2688355D01*
X-27350157Y2965060D01*
X-27464637Y3228622D01*
X-27613946Y3474148D01*
X-27795288Y3697049D01*
X-27795292Y3697053D01*
X-28005302Y3893189D01*
X-28005304Y3893191D01*
X-28005307Y3893193D01*
X-28240060Y4058899D01*
X-28269614Y4074213D01*
X-28495203Y4191104D01*
X-28765968Y4287334D01*
X-29047314Y4345798D01*
X-29262248Y4360500D01*
X-29405752Y4360500D01*
X-29620686Y4345798D01*
X-29902032Y4287334D01*
X-30172797Y4191104D01*
X-30427936Y4058901D01*
X-30662698Y3893189D01*
X-30872708Y3697053D01*
X-31054055Y3474147D01*
X-31203361Y3228625D01*
X-31317844Y2965058D01*
X-31395371Y2688358D01*
X-31434500Y2403678D01*
X-31434500Y2116322D01*
X-36295500Y2116322D01*
X-36295500Y2403678D01*
X-36334628Y2688355D01*
X-36412157Y2965060D01*
X-36526637Y3228622D01*
X-36675946Y3474148D01*
X-36857288Y3697049D01*
X-36857292Y3697053D01*
X-37067302Y3893189D01*
X-37067304Y3893191D01*
X-37067307Y3893193D01*
X-37302060Y4058899D01*
X-37331614Y4074213D01*
X-37557203Y4191104D01*
X-37827968Y4287334D01*
X-38109314Y4345798D01*
X-38324248Y4360500D01*
X-38467752Y4360500D01*
X-38682686Y4345798D01*
X-38964032Y4287334D01*
X-39234797Y4191104D01*
X-39489936Y4058901D01*
X-39724698Y3893189D01*
X-39934708Y3697053D01*
X-40116055Y3474147D01*
X-40265361Y3228625D01*
X-40379844Y2965058D01*
X-40457371Y2688358D01*
X-40496500Y2403678D01*
X-40496500Y2116322D01*
X-45357500Y2116322D01*
X-45357500Y2403678D01*
X-45396628Y2688355D01*
X-45474157Y2965060D01*
X-45588637Y3228622D01*
X-45737946Y3474148D01*
X-45919288Y3697049D01*
X-45919292Y3697053D01*
X-46129302Y3893189D01*
X-46129304Y3893191D01*
X-46129307Y3893193D01*
X-46364060Y4058899D01*
X-46393614Y4074213D01*
X-46619203Y4191104D01*
X-46889968Y4287334D01*
X-47171314Y4345798D01*
X-47386248Y4360500D01*
X-47529752Y4360500D01*
X-47744686Y4345798D01*
X-48026032Y4287334D01*
X-48296797Y4191104D01*
X-48551936Y4058901D01*
X-48786698Y3893189D01*
X-48996708Y3697053D01*
X-49178055Y3474147D01*
X-49327361Y3228625D01*
X-49441844Y2965058D01*
X-49519371Y2688358D01*
X-49558500Y2403678D01*
X-49558500Y2116322D01*
X-54419500Y2116322D01*
X-54419500Y2403678D01*
X-54458628Y2688355D01*
X-54536157Y2965060D01*
X-54650637Y3228622D01*
X-54799946Y3474148D01*
X-54981288Y3697049D01*
X-54981292Y3697053D01*
X-55191302Y3893189D01*
X-55191304Y3893191D01*
X-55191307Y3893193D01*
X-55426060Y4058899D01*
X-55455614Y4074213D01*
X-55681203Y4191104D01*
X-55951968Y4287334D01*
X-56233314Y4345798D01*
X-56448248Y4360500D01*
X-56591752Y4360500D01*
X-56806686Y4345798D01*
X-57088032Y4287334D01*
X-57358797Y4191104D01*
X-57613936Y4058901D01*
X-57848698Y3893189D01*
X-58058708Y3697053D01*
X-58240055Y3474147D01*
X-58389361Y3228625D01*
X-58503844Y2965058D01*
X-58581371Y2688358D01*
X-58620500Y2403678D01*
X-58620500Y2116322D01*
X-67630834Y2116322D01*
X-67630834Y6033413D01*
X-67630805Y6033556D01*
X-67630810Y6033557D01*
X-67630793Y6058173D01*
X-67630949Y6058554D01*
X-67630950Y6058555D01*
X-67630951Y6058556D01*
X-67631049Y6058596D01*
X-67631137Y6058633D01*
X-67631334Y6058714D01*
X-67655888Y6058714D01*
X-67656094Y6058673D01*
X-71072764Y6058673D01*
X-71085618Y6059341D01*
X-71268519Y6078403D01*
X-71292274Y6083262D01*
X-71456545Y6134023D01*
X-71479007Y6143470D01*
X-71480343Y6144194D01*
X-71627413Y6223878D01*
X-71647208Y6237218D01*
X-71776683Y6343948D01*
X-71793460Y6360719D01*
X-71900284Y6490203D01*
X-71913635Y6509997D01*
X-71994249Y6658634D01*
X-72003684Y6681023D01*
X-72054656Y6845390D01*
X-72059592Y6869658D01*
X-72078006Y7051984D01*
X-72078634Y7064444D01*
X-72078634Y12526322D01*
X-63150500Y12526322D01*
X-63111371Y12241642D01*
X-63033844Y11964942D01*
X-62919361Y11701375D01*
X-62770055Y11455853D01*
X-62770053Y11455851D01*
X-62588711Y11232950D01*
X-62588708Y11232947D01*
X-62378698Y11036811D01*
X-62378695Y11036809D01*
X-62378692Y11036806D01*
X-62143939Y10871100D01*
X-61888793Y10738894D01*
X-61618031Y10642665D01*
X-61336690Y10584202D01*
X-61164738Y10572440D01*
X-61121752Y10569500D01*
X-60978249Y10569500D01*
X-60978248Y10569500D01*
X-60942425Y10571950D01*
X-60763309Y10584202D01*
X-60481968Y10642665D01*
X-60211206Y10738894D01*
X-59956060Y10871100D01*
X-59721307Y11036806D01*
X-59511288Y11232950D01*
X-59329946Y11455851D01*
X-59180637Y11701377D01*
X-59066157Y11964939D01*
X-58988628Y12241644D01*
X-58949500Y12526322D01*
X-54088500Y12526322D01*
X-54049371Y12241642D01*
X-53971844Y11964942D01*
X-53857361Y11701375D01*
X-53708055Y11455853D01*
X-53708053Y11455851D01*
X-53526711Y11232950D01*
X-53526708Y11232947D01*
X-53316698Y11036811D01*
X-53316695Y11036809D01*
X-53316692Y11036806D01*
X-53081939Y10871100D01*
X-52826793Y10738894D01*
X-52556031Y10642665D01*
X-52274690Y10584202D01*
X-52102738Y10572440D01*
X-52059752Y10569500D01*
X-51916249Y10569500D01*
X-51916248Y10569500D01*
X-51880425Y10571950D01*
X-51701309Y10584202D01*
X-51419968Y10642665D01*
X-51149206Y10738894D01*
X-50894060Y10871100D01*
X-50659307Y11036806D01*
X-50449288Y11232950D01*
X-50267946Y11455851D01*
X-50118637Y11701377D01*
X-50004157Y11964939D01*
X-49926628Y12241644D01*
X-49887500Y12526322D01*
X-45026500Y12526322D01*
X-44987371Y12241642D01*
X-44909844Y11964942D01*
X-44795361Y11701375D01*
X-44646055Y11455853D01*
X-44646053Y11455851D01*
X-44464711Y11232950D01*
X-44464708Y11232947D01*
X-44254698Y11036811D01*
X-44254695Y11036809D01*
X-44254692Y11036806D01*
X-44019939Y10871100D01*
X-43764793Y10738894D01*
X-43494031Y10642665D01*
X-43212690Y10584202D01*
X-43040738Y10572440D01*
X-42997752Y10569500D01*
X-42854249Y10569500D01*
X-42854248Y10569500D01*
X-42818425Y10571950D01*
X-42639309Y10584202D01*
X-42357968Y10642665D01*
X-42087206Y10738894D01*
X-41832060Y10871100D01*
X-41597307Y11036806D01*
X-41387288Y11232950D01*
X-41205946Y11455851D01*
X-41056637Y11701377D01*
X-40942157Y11964939D01*
X-40864628Y12241644D01*
X-40825500Y12526322D01*
X-35964500Y12526322D01*
X-35925371Y12241642D01*
X-35847844Y11964942D01*
X-35733361Y11701375D01*
X-35584055Y11455853D01*
X-35584053Y11455851D01*
X-35402711Y11232950D01*
X-35402708Y11232947D01*
X-35192698Y11036811D01*
X-35192695Y11036809D01*
X-35192692Y11036806D01*
X-34957939Y10871100D01*
X-34702793Y10738894D01*
X-34432031Y10642665D01*
X-34150690Y10584202D01*
X-33978738Y10572440D01*
X-33935752Y10569500D01*
X-33792249Y10569500D01*
X-33792248Y10569500D01*
X-33756425Y10571950D01*
X-33577309Y10584202D01*
X-33295968Y10642665D01*
X-33025206Y10738894D01*
X-32770060Y10871100D01*
X-32535307Y11036806D01*
X-32325288Y11232950D01*
X-32143946Y11455851D01*
X-31994637Y11701377D01*
X-31880157Y11964939D01*
X-31802628Y12241644D01*
X-31763500Y12526322D01*
X-26902500Y12526322D01*
X-26863371Y12241642D01*
X-26785844Y11964942D01*
X-26671361Y11701375D01*
X-26522055Y11455853D01*
X-26522053Y11455851D01*
X-26340711Y11232950D01*
X-26340708Y11232947D01*
X-26130698Y11036811D01*
X-26130695Y11036809D01*
X-26130692Y11036806D01*
X-25895939Y10871100D01*
X-25640793Y10738894D01*
X-25370031Y10642665D01*
X-25088690Y10584202D01*
X-24916738Y10572440D01*
X-24873752Y10569500D01*
X-24730249Y10569500D01*
X-24730248Y10569500D01*
X-24694425Y10571950D01*
X-24515309Y10584202D01*
X-24233968Y10642665D01*
X-23963206Y10738894D01*
X-23708060Y10871100D01*
X-23473307Y11036806D01*
X-23263288Y11232950D01*
X-23081946Y11455851D01*
X-22932637Y11701377D01*
X-22818157Y11964939D01*
X-22740628Y12241644D01*
X-22701500Y12526322D01*
X-17840500Y12526322D01*
X-17801371Y12241642D01*
X-17723844Y11964942D01*
X-17609361Y11701375D01*
X-17460055Y11455853D01*
X-17460053Y11455851D01*
X-17278711Y11232950D01*
X-17278708Y11232947D01*
X-17068698Y11036811D01*
X-17068695Y11036809D01*
X-17068692Y11036806D01*
X-16833939Y10871100D01*
X-16578793Y10738894D01*
X-16308031Y10642665D01*
X-16026690Y10584202D01*
X-15854738Y10572440D01*
X-15811752Y10569500D01*
X-15668249Y10569500D01*
X-15668248Y10569500D01*
X-15632425Y10571950D01*
X-15453309Y10584202D01*
X-15171968Y10642665D01*
X-14901206Y10738894D01*
X-14646060Y10871100D01*
X-14411307Y11036806D01*
X-14201288Y11232950D01*
X-14019946Y11455851D01*
X-13870637Y11701377D01*
X-13756157Y11964939D01*
X-13678628Y12241644D01*
X-13639500Y12526322D01*
X-8778500Y12526322D01*
X-8739371Y12241642D01*
X-8661844Y11964942D01*
X-8547361Y11701375D01*
X-8398055Y11455853D01*
X-8398053Y11455851D01*
X-8216711Y11232950D01*
X-8216708Y11232947D01*
X-8006698Y11036811D01*
X-8006695Y11036809D01*
X-8006692Y11036806D01*
X-7771939Y10871100D01*
X-7516793Y10738894D01*
X-7246031Y10642665D01*
X-6964690Y10584202D01*
X-6792738Y10572440D01*
X-6749752Y10569500D01*
X-6606249Y10569500D01*
X-6606248Y10569500D01*
X-6570425Y10571950D01*
X-6391309Y10584202D01*
X-6109968Y10642665D01*
X-5839206Y10738894D01*
X-5584060Y10871100D01*
X-5349307Y11036806D01*
X-5139288Y11232950D01*
X-4957946Y11455851D01*
X-4808637Y11701377D01*
X-4694157Y11964939D01*
X-4616628Y12241644D01*
X-4577500Y12526322D01*
X283500Y12526322D01*
X322628Y12241644D01*
X400157Y11964939D01*
X514637Y11701377D01*
X663946Y11455851D01*
X845288Y11232950D01*
X1055307Y11036806D01*
X1290060Y10871100D01*
X1545206Y10738894D01*
X1815968Y10642665D01*
X2097309Y10584202D01*
X2276425Y10571950D01*
X2312248Y10569500D01*
X2455751Y10569500D01*
X2455752Y10569500D01*
X2498738Y10572440D01*
X2670690Y10584202D01*
X2952031Y10642665D01*
X3222793Y10738894D01*
X3477939Y10871100D01*
X3712692Y11036806D01*
X3712695Y11036809D01*
X3712698Y11036811D01*
X3922708Y11232947D01*
X3922711Y11232950D01*
X4104053Y11455851D01*
X4104055Y11455853D01*
X4253361Y11701375D01*
X4367844Y11964942D01*
X4445371Y12241642D01*
X4484500Y12526322D01*
X9345500Y12526322D01*
X9384628Y12241644D01*
X9462157Y11964939D01*
X9576637Y11701377D01*
X9725946Y11455851D01*
X9907288Y11232950D01*
X10117307Y11036806D01*
X10352060Y10871100D01*
X10607206Y10738894D01*
X10877968Y10642665D01*
X11159309Y10584202D01*
X11338425Y10571950D01*
X11374248Y10569500D01*
X11517751Y10569500D01*
X11517752Y10569500D01*
X11560738Y10572440D01*
X11732690Y10584202D01*
X12014031Y10642665D01*
X12284793Y10738894D01*
X12539939Y10871100D01*
X12774692Y11036806D01*
X12774695Y11036809D01*
X12774698Y11036811D01*
X12984708Y11232947D01*
X12984711Y11232950D01*
X13166053Y11455851D01*
X13166055Y11455853D01*
X13315361Y11701375D01*
X13429844Y11964942D01*
X13507371Y12241642D01*
X13546500Y12526322D01*
X13546500Y12813678D01*
X13507371Y13098358D01*
X13429844Y13375058D01*
X13315361Y13638625D01*
X13166055Y13884147D01*
X12984708Y14107053D01*
X12774698Y14303189D01*
X12539936Y14468901D01*
X12284797Y14601104D01*
X12014032Y14697334D01*
X11732686Y14755798D01*
X11517752Y14770500D01*
X11374248Y14770500D01*
X11159314Y14755798D01*
X10877968Y14697334D01*
X10607203Y14601104D01*
X10381614Y14484213D01*
X10352060Y14468899D01*
X10117307Y14303193D01*
X10117304Y14303191D01*
X10117302Y14303189D01*
X9907292Y14107053D01*
X9907288Y14107049D01*
X9725946Y13884148D01*
X9576637Y13638622D01*
X9462157Y13375060D01*
X9384628Y13098355D01*
X9345500Y12813678D01*
X9345500Y12526322D01*
X4484500Y12526322D01*
X4484500Y12813678D01*
X4445371Y13098358D01*
X4367844Y13375058D01*
X4253361Y13638625D01*
X4104055Y13884147D01*
X3922708Y14107053D01*
X3712698Y14303189D01*
X3477936Y14468901D01*
X3222797Y14601104D01*
X2952032Y14697334D01*
X2670686Y14755798D01*
X2455752Y14770500D01*
X2312248Y14770500D01*
X2097314Y14755798D01*
X1815968Y14697334D01*
X1545203Y14601104D01*
X1319614Y14484213D01*
X1290060Y14468899D01*
X1055307Y14303193D01*
X1055304Y14303191D01*
X1055302Y14303189D01*
X845292Y14107053D01*
X845288Y14107049D01*
X663946Y13884148D01*
X514637Y13638622D01*
X400157Y13375060D01*
X322628Y13098355D01*
X283500Y12813678D01*
X283500Y12526322D01*
X-4577500Y12526322D01*
X-4577500Y12813678D01*
X-4616628Y13098355D01*
X-4694157Y13375060D01*
X-4808637Y13638622D01*
X-4957946Y13884148D01*
X-5139288Y14107049D01*
X-5139292Y14107053D01*
X-5349302Y14303189D01*
X-5349304Y14303191D01*
X-5349307Y14303193D01*
X-5584060Y14468899D01*
X-5613614Y14484213D01*
X-5839203Y14601104D01*
X-6109968Y14697334D01*
X-6391314Y14755798D01*
X-6606248Y14770500D01*
X-6749752Y14770500D01*
X-6964686Y14755798D01*
X-7246032Y14697334D01*
X-7516797Y14601104D01*
X-7771936Y14468901D01*
X-8006698Y14303189D01*
X-8216708Y14107053D01*
X-8398055Y13884147D01*
X-8547361Y13638625D01*
X-8661844Y13375058D01*
X-8739371Y13098358D01*
X-8778500Y12813678D01*
X-8778500Y12526322D01*
X-13639500Y12526322D01*
X-13639500Y12813678D01*
X-13678628Y13098355D01*
X-13756157Y13375060D01*
X-13870637Y13638622D01*
X-14019946Y13884148D01*
X-14201288Y14107049D01*
X-14201292Y14107053D01*
X-14411302Y14303189D01*
X-14411304Y14303191D01*
X-14411307Y14303193D01*
X-14646060Y14468899D01*
X-14675614Y14484213D01*
X-14901203Y14601104D01*
X-15171968Y14697334D01*
X-15453314Y14755798D01*
X-15668248Y14770500D01*
X-15811752Y14770500D01*
X-16026686Y14755798D01*
X-16308032Y14697334D01*
X-16578797Y14601104D01*
X-16833936Y14468901D01*
X-17068698Y14303189D01*
X-17278708Y14107053D01*
X-17460055Y13884147D01*
X-17609361Y13638625D01*
X-17723844Y13375058D01*
X-17801371Y13098358D01*
X-17840500Y12813678D01*
X-17840500Y12526322D01*
X-22701500Y12526322D01*
X-22701500Y12813678D01*
X-22740628Y13098355D01*
X-22818157Y13375060D01*
X-22932637Y13638622D01*
X-23081946Y13884148D01*
X-23263288Y14107049D01*
X-23263292Y14107053D01*
X-23473302Y14303189D01*
X-23473304Y14303191D01*
X-23473307Y14303193D01*
X-23708060Y14468899D01*
X-23737614Y14484213D01*
X-23963203Y14601104D01*
X-24233968Y14697334D01*
X-24515314Y14755798D01*
X-24730248Y14770500D01*
X-24873752Y14770500D01*
X-25088686Y14755798D01*
X-25370032Y14697334D01*
X-25640797Y14601104D01*
X-25895936Y14468901D01*
X-26130698Y14303189D01*
X-26340708Y14107053D01*
X-26522055Y13884147D01*
X-26671361Y13638625D01*
X-26785844Y13375058D01*
X-26863371Y13098358D01*
X-26902500Y12813678D01*
X-26902500Y12526322D01*
X-31763500Y12526322D01*
X-31763500Y12813678D01*
X-31802628Y13098355D01*
X-31880157Y13375060D01*
X-31994637Y13638622D01*
X-32143946Y13884148D01*
X-32325288Y14107049D01*
X-32325292Y14107053D01*
X-32535302Y14303189D01*
X-32535304Y14303191D01*
X-32535307Y14303193D01*
X-32770060Y14468899D01*
X-32799614Y14484213D01*
X-33025203Y14601104D01*
X-33295968Y14697334D01*
X-33577314Y14755798D01*
X-33792248Y14770500D01*
X-33935752Y14770500D01*
X-34150686Y14755798D01*
X-34432032Y14697334D01*
X-34702797Y14601104D01*
X-34957936Y14468901D01*
X-35192698Y14303189D01*
X-35402708Y14107053D01*
X-35584055Y13884147D01*
X-35733361Y13638625D01*
X-35847844Y13375058D01*
X-35925371Y13098358D01*
X-35964500Y12813678D01*
X-35964500Y12526322D01*
X-40825500Y12526322D01*
X-40825500Y12813678D01*
X-40864628Y13098355D01*
X-40942157Y13375060D01*
X-41056637Y13638622D01*
X-41205946Y13884148D01*
X-41387288Y14107049D01*
X-41387292Y14107053D01*
X-41597302Y14303189D01*
X-41597304Y14303191D01*
X-41597307Y14303193D01*
X-41832060Y14468899D01*
X-41861614Y14484213D01*
X-42087203Y14601104D01*
X-42357968Y14697334D01*
X-42639314Y14755798D01*
X-42854248Y14770500D01*
X-42997752Y14770500D01*
X-43212686Y14755798D01*
X-43494032Y14697334D01*
X-43764797Y14601104D01*
X-44019936Y14468901D01*
X-44254698Y14303189D01*
X-44464708Y14107053D01*
X-44646055Y13884147D01*
X-44795361Y13638625D01*
X-44909844Y13375058D01*
X-44987371Y13098358D01*
X-45026500Y12813678D01*
X-45026500Y12526322D01*
X-49887500Y12526322D01*
X-49887500Y12813678D01*
X-49926628Y13098355D01*
X-50004157Y13375060D01*
X-50118637Y13638622D01*
X-50267946Y13884148D01*
X-50449288Y14107049D01*
X-50449292Y14107053D01*
X-50659302Y14303189D01*
X-50659304Y14303191D01*
X-50659307Y14303193D01*
X-50894060Y14468899D01*
X-50923614Y14484213D01*
X-51149203Y14601104D01*
X-51419968Y14697334D01*
X-51701314Y14755798D01*
X-51916248Y14770500D01*
X-52059752Y14770500D01*
X-52274686Y14755798D01*
X-52556032Y14697334D01*
X-52826797Y14601104D01*
X-53081936Y14468901D01*
X-53316698Y14303189D01*
X-53526708Y14107053D01*
X-53708055Y13884147D01*
X-53857361Y13638625D01*
X-53971844Y13375058D01*
X-54049371Y13098358D01*
X-54088500Y12813678D01*
X-54088500Y12526322D01*
X-58949500Y12526322D01*
X-58949500Y12813678D01*
X-58988628Y13098355D01*
X-59066157Y13375060D01*
X-59180637Y13638622D01*
X-59329946Y13884148D01*
X-59511288Y14107049D01*
X-59511292Y14107053D01*
X-59721302Y14303189D01*
X-59721304Y14303191D01*
X-59721307Y14303193D01*
X-59956060Y14468899D01*
X-59985614Y14484213D01*
X-60211203Y14601104D01*
X-60481968Y14697334D01*
X-60763314Y14755798D01*
X-60978248Y14770500D01*
X-61121752Y14770500D01*
X-61336686Y14755798D01*
X-61618032Y14697334D01*
X-61888797Y14601104D01*
X-62143936Y14468901D01*
X-62378698Y14303189D01*
X-62588708Y14107053D01*
X-62770055Y13884147D01*
X-62919361Y13638625D01*
X-63033844Y13375058D01*
X-63111371Y13098358D01*
X-63150500Y12813678D01*
X-63150500Y12526322D01*
X-72078634Y12526322D01*
X-72078634Y19378867D01*
X-72078605Y19379010D01*
X-72078610Y19379011D01*
X-72078592Y19403628D01*
X-72078750Y19404009D01*
X-72078751Y19404010D01*
X-72079134Y19404168D01*
X-72079136Y19404166D01*
X-72087972Y19404123D01*
X-72088230Y19404122D01*
X-75520851Y19402629D01*
X-75533126Y19403234D01*
X-75716009Y19421385D01*
X-75740364Y19426305D01*
X-75852804Y19461049D01*
X-75904070Y19476891D01*
X-75927027Y19486608D01*
X-76075480Y19567916D01*
X-76094783Y19580986D01*
X-76224484Y19687903D01*
X-76241259Y19704672D01*
X-76348084Y19834156D01*
X-76361435Y19853951D01*
X-76442095Y20002672D01*
X-76451474Y20024882D01*
X-76502399Y20188225D01*
X-76507398Y20212733D01*
X-76525813Y20395976D01*
X-76526434Y20408375D01*
X-76526434Y22946322D01*
X-67680500Y22946322D01*
X-67641371Y22661642D01*
X-67563844Y22384942D01*
X-67449361Y22121375D01*
X-67300055Y21875853D01*
X-67300053Y21875851D01*
X-67118711Y21652950D01*
X-67118708Y21652947D01*
X-66908698Y21456811D01*
X-66908695Y21456809D01*
X-66908692Y21456806D01*
X-66673939Y21291100D01*
X-66418793Y21158894D01*
X-66148031Y21062665D01*
X-65866690Y21004202D01*
X-65694738Y20992440D01*
X-65651752Y20989500D01*
X-65508249Y20989500D01*
X-65508248Y20989500D01*
X-65472425Y20991950D01*
X-65293309Y21004202D01*
X-65011968Y21062665D01*
X-64741206Y21158894D01*
X-64486060Y21291100D01*
X-64251307Y21456806D01*
X-64041288Y21652950D01*
X-63859946Y21875851D01*
X-63710637Y22121377D01*
X-63596157Y22384939D01*
X-63518628Y22661644D01*
X-63479500Y22946322D01*
X-58618500Y22946322D01*
X-58579371Y22661642D01*
X-58501844Y22384942D01*
X-58387361Y22121375D01*
X-58238055Y21875853D01*
X-58238053Y21875851D01*
X-58056711Y21652950D01*
X-58056708Y21652947D01*
X-57846698Y21456811D01*
X-57846695Y21456809D01*
X-57846692Y21456806D01*
X-57611939Y21291100D01*
X-57356793Y21158894D01*
X-57086031Y21062665D01*
X-56804690Y21004202D01*
X-56632738Y20992440D01*
X-56589752Y20989500D01*
X-56446249Y20989500D01*
X-56446248Y20989500D01*
X-56410425Y20991950D01*
X-56231309Y21004202D01*
X-55949968Y21062665D01*
X-55679206Y21158894D01*
X-55424060Y21291100D01*
X-55189307Y21456806D01*
X-54979288Y21652950D01*
X-54797946Y21875851D01*
X-54648637Y22121377D01*
X-54534157Y22384939D01*
X-54456628Y22661644D01*
X-54417500Y22946322D01*
X-49556500Y22946322D01*
X-49517371Y22661642D01*
X-49439844Y22384942D01*
X-49325361Y22121375D01*
X-49176055Y21875853D01*
X-49176053Y21875851D01*
X-48994711Y21652950D01*
X-48994708Y21652947D01*
X-48784698Y21456811D01*
X-48784695Y21456809D01*
X-48784692Y21456806D01*
X-48549939Y21291100D01*
X-48294793Y21158894D01*
X-48024031Y21062665D01*
X-47742690Y21004202D01*
X-47570738Y20992440D01*
X-47527752Y20989500D01*
X-47384249Y20989500D01*
X-47384248Y20989500D01*
X-47348425Y20991950D01*
X-47169309Y21004202D01*
X-46887968Y21062665D01*
X-46617206Y21158894D01*
X-46362060Y21291100D01*
X-46127307Y21456806D01*
X-45917288Y21652950D01*
X-45735946Y21875851D01*
X-45586637Y22121377D01*
X-45472157Y22384939D01*
X-45394628Y22661644D01*
X-45355500Y22946322D01*
X-40494500Y22946322D01*
X-40455371Y22661642D01*
X-40377844Y22384942D01*
X-40263361Y22121375D01*
X-40114055Y21875853D01*
X-40114053Y21875851D01*
X-39932711Y21652950D01*
X-39932708Y21652947D01*
X-39722698Y21456811D01*
X-39722695Y21456809D01*
X-39722692Y21456806D01*
X-39487939Y21291100D01*
X-39232793Y21158894D01*
X-38962031Y21062665D01*
X-38680690Y21004202D01*
X-38508738Y20992440D01*
X-38465752Y20989500D01*
X-38322249Y20989500D01*
X-38322248Y20989500D01*
X-38286425Y20991950D01*
X-38107309Y21004202D01*
X-37825968Y21062665D01*
X-37555206Y21158894D01*
X-37300060Y21291100D01*
X-37065307Y21456806D01*
X-36855288Y21652950D01*
X-36673946Y21875851D01*
X-36524637Y22121377D01*
X-36410157Y22384939D01*
X-36332628Y22661644D01*
X-36293500Y22946322D01*
X-31432500Y22946322D01*
X-31393371Y22661642D01*
X-31315844Y22384942D01*
X-31201361Y22121375D01*
X-31052055Y21875853D01*
X-31052053Y21875851D01*
X-30870711Y21652950D01*
X-30870708Y21652947D01*
X-30660698Y21456811D01*
X-30660695Y21456809D01*
X-30660692Y21456806D01*
X-30425939Y21291100D01*
X-30170793Y21158894D01*
X-29900031Y21062665D01*
X-29618690Y21004202D01*
X-29446738Y20992440D01*
X-29403752Y20989500D01*
X-29260249Y20989500D01*
X-29260248Y20989500D01*
X-29224425Y20991950D01*
X-29045309Y21004202D01*
X-28763968Y21062665D01*
X-28493206Y21158894D01*
X-28238060Y21291100D01*
X-28003307Y21456806D01*
X-27793288Y21652950D01*
X-27611946Y21875851D01*
X-27462637Y22121377D01*
X-27348157Y22384939D01*
X-27270628Y22661644D01*
X-27231500Y22946322D01*
X-22370500Y22946322D01*
X-22331371Y22661642D01*
X-22253844Y22384942D01*
X-22139361Y22121375D01*
X-21990055Y21875853D01*
X-21990053Y21875851D01*
X-21808711Y21652950D01*
X-21808708Y21652947D01*
X-21598698Y21456811D01*
X-21598695Y21456809D01*
X-21598692Y21456806D01*
X-21363939Y21291100D01*
X-21108793Y21158894D01*
X-20838031Y21062665D01*
X-20556690Y21004202D01*
X-20384738Y20992440D01*
X-20341752Y20989500D01*
X-20198249Y20989500D01*
X-20198248Y20989500D01*
X-20162425Y20991950D01*
X-19983309Y21004202D01*
X-19701968Y21062665D01*
X-19431206Y21158894D01*
X-19176060Y21291100D01*
X-18941307Y21456806D01*
X-18731288Y21652950D01*
X-18549946Y21875851D01*
X-18400637Y22121377D01*
X-18286157Y22384939D01*
X-18208628Y22661644D01*
X-18169500Y22946322D01*
X-13308500Y22946322D01*
X-13269371Y22661642D01*
X-13191844Y22384942D01*
X-13077361Y22121375D01*
X-12928055Y21875853D01*
X-12928053Y21875851D01*
X-12746711Y21652950D01*
X-12746708Y21652947D01*
X-12536698Y21456811D01*
X-12536695Y21456809D01*
X-12536692Y21456806D01*
X-12301939Y21291100D01*
X-12046793Y21158894D01*
X-11776031Y21062665D01*
X-11494690Y21004202D01*
X-11322738Y20992440D01*
X-11279752Y20989500D01*
X-11136249Y20989500D01*
X-11136248Y20989500D01*
X-11100425Y20991950D01*
X-10921309Y21004202D01*
X-10639968Y21062665D01*
X-10369206Y21158894D01*
X-10114060Y21291100D01*
X-9879307Y21456806D01*
X-9669288Y21652950D01*
X-9487946Y21875851D01*
X-9338637Y22121377D01*
X-9224157Y22384939D01*
X-9146628Y22661644D01*
X-9107500Y22946322D01*
X-4246500Y22946322D01*
X-4207371Y22661642D01*
X-4129844Y22384942D01*
X-4015361Y22121375D01*
X-3866055Y21875853D01*
X-3866053Y21875851D01*
X-3684711Y21652950D01*
X-3684708Y21652947D01*
X-3474698Y21456811D01*
X-3474695Y21456809D01*
X-3474692Y21456806D01*
X-3239939Y21291100D01*
X-2984793Y21158894D01*
X-2714031Y21062665D01*
X-2432690Y21004202D01*
X-2260738Y20992440D01*
X-2217752Y20989500D01*
X-2074249Y20989500D01*
X-2074248Y20989500D01*
X-2038425Y20991950D01*
X-1859309Y21004202D01*
X-1577968Y21062665D01*
X-1307206Y21158894D01*
X-1052060Y21291100D01*
X-817307Y21456806D01*
X-607288Y21652950D01*
X-425946Y21875851D01*
X-276637Y22121377D01*
X-162157Y22384939D01*
X-84628Y22661644D01*
X-45500Y22946322D01*
X4815500Y22946322D01*
X4854628Y22661644D01*
X4932157Y22384939D01*
X5046637Y22121377D01*
X5195946Y21875851D01*
X5377288Y21652950D01*
X5587307Y21456806D01*
X5822060Y21291100D01*
X6077206Y21158894D01*
X6347968Y21062665D01*
X6629309Y21004202D01*
X6808425Y20991950D01*
X6844248Y20989500D01*
X6987751Y20989500D01*
X6987752Y20989500D01*
X7030738Y20992440D01*
X7202690Y21004202D01*
X7484031Y21062665D01*
X7754793Y21158894D01*
X8009939Y21291100D01*
X8244692Y21456806D01*
X8244695Y21456809D01*
X8244698Y21456811D01*
X8454708Y21652947D01*
X8454711Y21652950D01*
X8636053Y21875851D01*
X8636055Y21875853D01*
X8785361Y22121375D01*
X8899844Y22384942D01*
X8977371Y22661642D01*
X9016500Y22946322D01*
X13877500Y22946322D01*
X13916628Y22661644D01*
X13994157Y22384939D01*
X14108637Y22121377D01*
X14257946Y21875851D01*
X14439288Y21652950D01*
X14649307Y21456806D01*
X14884060Y21291100D01*
X15139206Y21158894D01*
X15409968Y21062665D01*
X15691309Y21004202D01*
X15870425Y20991950D01*
X15906248Y20989500D01*
X16049751Y20989500D01*
X16049752Y20989500D01*
X16092738Y20992440D01*
X16264690Y21004202D01*
X16546031Y21062665D01*
X16816793Y21158894D01*
X17071939Y21291100D01*
X17306692Y21456806D01*
X17306695Y21456809D01*
X17306698Y21456811D01*
X17516708Y21652947D01*
X17516711Y21652950D01*
X17698053Y21875851D01*
X17698055Y21875853D01*
X17847361Y22121375D01*
X17961844Y22384942D01*
X18039371Y22661642D01*
X18078500Y22946322D01*
X18078500Y23233678D01*
X18039371Y23518358D01*
X17961844Y23795058D01*
X17847361Y24058625D01*
X17698055Y24304147D01*
X17516708Y24527053D01*
X17306698Y24723189D01*
X17071936Y24888901D01*
X16816797Y25021104D01*
X16546032Y25117334D01*
X16264686Y25175798D01*
X16049752Y25190500D01*
X15906248Y25190500D01*
X15691314Y25175798D01*
X15409968Y25117334D01*
X15139203Y25021104D01*
X14913614Y24904213D01*
X14884060Y24888899D01*
X14649307Y24723193D01*
X14649304Y24723191D01*
X14649302Y24723189D01*
X14439292Y24527053D01*
X14439288Y24527049D01*
X14257946Y24304148D01*
X14108637Y24058622D01*
X13994157Y23795060D01*
X13916628Y23518355D01*
X13877500Y23233678D01*
X13877500Y22946322D01*
X9016500Y22946322D01*
X9016500Y23233678D01*
X8977371Y23518358D01*
X8899844Y23795058D01*
X8785361Y24058625D01*
X8636055Y24304147D01*
X8454708Y24527053D01*
X8244698Y24723189D01*
X8009936Y24888901D01*
X7754797Y25021104D01*
X7484032Y25117334D01*
X7202686Y25175798D01*
X6987752Y25190500D01*
X6844248Y25190500D01*
X6629314Y25175798D01*
X6347968Y25117334D01*
X6077203Y25021104D01*
X5851614Y24904213D01*
X5822060Y24888899D01*
X5587307Y24723193D01*
X5587304Y24723191D01*
X5587302Y24723189D01*
X5377292Y24527053D01*
X5377288Y24527049D01*
X5195946Y24304148D01*
X5046637Y24058622D01*
X4932157Y23795060D01*
X4854628Y23518355D01*
X4815500Y23233678D01*
X4815500Y22946322D01*
X-45500Y22946322D01*
X-45500Y23233678D01*
X-84628Y23518355D01*
X-162157Y23795060D01*
X-276637Y24058622D01*
X-425946Y24304148D01*
X-607288Y24527049D01*
X-607292Y24527053D01*
X-817302Y24723189D01*
X-817304Y24723191D01*
X-817307Y24723193D01*
X-1052060Y24888899D01*
X-1081614Y24904213D01*
X-1307203Y25021104D01*
X-1577968Y25117334D01*
X-1859314Y25175798D01*
X-2074248Y25190500D01*
X-2217752Y25190500D01*
X-2432686Y25175798D01*
X-2714032Y25117334D01*
X-2984797Y25021104D01*
X-3239936Y24888901D01*
X-3474698Y24723189D01*
X-3684708Y24527053D01*
X-3866055Y24304147D01*
X-4015361Y24058625D01*
X-4129844Y23795058D01*
X-4207371Y23518358D01*
X-4246500Y23233678D01*
X-4246500Y22946322D01*
X-9107500Y22946322D01*
X-9107500Y23233678D01*
X-9146628Y23518355D01*
X-9224157Y23795060D01*
X-9338637Y24058622D01*
X-9487946Y24304148D01*
X-9669288Y24527049D01*
X-9669292Y24527053D01*
X-9879302Y24723189D01*
X-9879304Y24723191D01*
X-9879307Y24723193D01*
X-10114060Y24888899D01*
X-10143614Y24904213D01*
X-10369203Y25021104D01*
X-10639968Y25117334D01*
X-10921314Y25175798D01*
X-11136248Y25190500D01*
X-11279752Y25190500D01*
X-11494686Y25175798D01*
X-11776032Y25117334D01*
X-12046797Y25021104D01*
X-12301936Y24888901D01*
X-12536698Y24723189D01*
X-12746708Y24527053D01*
X-12928055Y24304147D01*
X-13077361Y24058625D01*
X-13191844Y23795058D01*
X-13269371Y23518358D01*
X-13308500Y23233678D01*
X-13308500Y22946322D01*
X-18169500Y22946322D01*
X-18169500Y23233678D01*
X-18208628Y23518355D01*
X-18286157Y23795060D01*
X-18400637Y24058622D01*
X-18549946Y24304148D01*
X-18731288Y24527049D01*
X-18731292Y24527053D01*
X-18941302Y24723189D01*
X-18941304Y24723191D01*
X-18941307Y24723193D01*
X-19176060Y24888899D01*
X-19205614Y24904213D01*
X-19431203Y25021104D01*
X-19701968Y25117334D01*
X-19983314Y25175798D01*
X-20198248Y25190500D01*
X-20341752Y25190500D01*
X-20556686Y25175798D01*
X-20838032Y25117334D01*
X-21108797Y25021104D01*
X-21363936Y24888901D01*
X-21598698Y24723189D01*
X-21808708Y24527053D01*
X-21990055Y24304147D01*
X-22139361Y24058625D01*
X-22253844Y23795058D01*
X-22331371Y23518358D01*
X-22370500Y23233678D01*
X-22370500Y22946322D01*
X-27231500Y22946322D01*
X-27231500Y23233678D01*
X-27270628Y23518355D01*
X-27348157Y23795060D01*
X-27462637Y24058622D01*
X-27611946Y24304148D01*
X-27793288Y24527049D01*
X-27793292Y24527053D01*
X-28003302Y24723189D01*
X-28003304Y24723191D01*
X-28003307Y24723193D01*
X-28238060Y24888899D01*
X-28267614Y24904213D01*
X-28493203Y25021104D01*
X-28763968Y25117334D01*
X-29045314Y25175798D01*
X-29260248Y25190500D01*
X-29403752Y25190500D01*
X-29618686Y25175798D01*
X-29900032Y25117334D01*
X-30170797Y25021104D01*
X-30425936Y24888901D01*
X-30660698Y24723189D01*
X-30870708Y24527053D01*
X-31052055Y24304147D01*
X-31201361Y24058625D01*
X-31315844Y23795058D01*
X-31393371Y23518358D01*
X-31432500Y23233678D01*
X-31432500Y22946322D01*
X-36293500Y22946322D01*
X-36293500Y23233678D01*
X-36332628Y23518355D01*
X-36410157Y23795060D01*
X-36524637Y24058622D01*
X-36673946Y24304148D01*
X-36855288Y24527049D01*
X-36855292Y24527053D01*
X-37065302Y24723189D01*
X-37065304Y24723191D01*
X-37065307Y24723193D01*
X-37300060Y24888899D01*
X-37329614Y24904213D01*
X-37555203Y25021104D01*
X-37825968Y25117334D01*
X-38107314Y25175798D01*
X-38322248Y25190500D01*
X-38465752Y25190500D01*
X-38680686Y25175798D01*
X-38962032Y25117334D01*
X-39232797Y25021104D01*
X-39487936Y24888901D01*
X-39722698Y24723189D01*
X-39932708Y24527053D01*
X-40114055Y24304147D01*
X-40263361Y24058625D01*
X-40377844Y23795058D01*
X-40455371Y23518358D01*
X-40494500Y23233678D01*
X-40494500Y22946322D01*
X-45355500Y22946322D01*
X-45355500Y23233678D01*
X-45394628Y23518355D01*
X-45472157Y23795060D01*
X-45586637Y24058622D01*
X-45735946Y24304148D01*
X-45917288Y24527049D01*
X-45917292Y24527053D01*
X-46127302Y24723189D01*
X-46127304Y24723191D01*
X-46127307Y24723193D01*
X-46362060Y24888899D01*
X-46391614Y24904213D01*
X-46617203Y25021104D01*
X-46887968Y25117334D01*
X-47169314Y25175798D01*
X-47384248Y25190500D01*
X-47527752Y25190500D01*
X-47742686Y25175798D01*
X-48024032Y25117334D01*
X-48294797Y25021104D01*
X-48549936Y24888901D01*
X-48784698Y24723189D01*
X-48994708Y24527053D01*
X-49176055Y24304147D01*
X-49325361Y24058625D01*
X-49439844Y23795058D01*
X-49517371Y23518358D01*
X-49556500Y23233678D01*
X-49556500Y22946322D01*
X-54417500Y22946322D01*
X-54417500Y23233678D01*
X-54456628Y23518355D01*
X-54534157Y23795060D01*
X-54648637Y24058622D01*
X-54797946Y24304148D01*
X-54979288Y24527049D01*
X-54979292Y24527053D01*
X-55189302Y24723189D01*
X-55189304Y24723191D01*
X-55189307Y24723193D01*
X-55424060Y24888899D01*
X-55453614Y24904213D01*
X-55679203Y25021104D01*
X-55949968Y25117334D01*
X-56231314Y25175798D01*
X-56446248Y25190500D01*
X-56589752Y25190500D01*
X-56804686Y25175798D01*
X-57086032Y25117334D01*
X-57356797Y25021104D01*
X-57611936Y24888901D01*
X-57846698Y24723189D01*
X-58056708Y24527053D01*
X-58238055Y24304147D01*
X-58387361Y24058625D01*
X-58501844Y23795058D01*
X-58579371Y23518358D01*
X-58618500Y23233678D01*
X-58618500Y22946322D01*
X-63479500Y22946322D01*
X-63479500Y23233678D01*
X-63518628Y23518355D01*
X-63596157Y23795060D01*
X-63710637Y24058622D01*
X-63859946Y24304148D01*
X-64041288Y24527049D01*
X-64041292Y24527053D01*
X-64251302Y24723189D01*
X-64251304Y24723191D01*
X-64251307Y24723193D01*
X-64486060Y24888899D01*
X-64515614Y24904213D01*
X-64741203Y25021104D01*
X-65011968Y25117334D01*
X-65293314Y25175798D01*
X-65508248Y25190500D01*
X-65651752Y25190500D01*
X-65866686Y25175798D01*
X-66148032Y25117334D01*
X-66418797Y25021104D01*
X-66673936Y24888901D01*
X-66908698Y24723189D01*
X-67118708Y24527053D01*
X-67300055Y24304147D01*
X-67449361Y24058625D01*
X-67563844Y23795058D01*
X-67641371Y23518358D01*
X-67680500Y23233678D01*
X-67680500Y22946322D01*
X-76526434Y22946322D01*
X-76526434Y31480000D01*
X-60242750Y31480000D01*
X-60227295Y31342849D01*
X-60223813Y31311941D01*
X-60167956Y31152310D01*
X-60077977Y31009110D01*
X-59958390Y30889523D01*
X-59815190Y30799544D01*
X-59655559Y30743687D01*
X-59655556Y30743686D01*
X-59487500Y30724750D01*
X-59319443Y30743686D01*
X-59159810Y30799544D01*
X-59016608Y30889524D01*
X-58897024Y31009108D01*
X-58807044Y31152310D01*
X-58751186Y31311943D01*
X-58732250Y31480000D01*
X8007250Y31480000D01*
X8026186Y31311943D01*
X8082044Y31152310D01*
X8172024Y31009108D01*
X8291608Y30889524D01*
X8434810Y30799544D01*
X8594443Y30743686D01*
X8762500Y30724750D01*
X8930556Y30743686D01*
X8930559Y30743687D01*
X9090190Y30799544D01*
X9233390Y30889523D01*
X9352977Y31009110D01*
X9442956Y31152310D01*
X9498813Y31311941D01*
X9502295Y31342849D01*
X9517750Y31480000D01*
X9498813Y31648056D01*
X9498813Y31648059D01*
X9442956Y31807690D01*
X9352977Y31950890D01*
X9233390Y32070477D01*
X9090190Y32160456D01*
X8930559Y32216313D01*
X8762500Y32235249D01*
X8594441Y32216313D01*
X8434810Y32160456D01*
X8291610Y32070477D01*
X8172023Y31950890D01*
X8082044Y31807690D01*
X8082044Y31807689D01*
X8026186Y31648056D01*
X8007250Y31480000D01*
X-58732250Y31480000D01*
X-58751186Y31648056D01*
X-58807044Y31807689D01*
X-58807044Y31807690D01*
X-58897023Y31950890D01*
X-59016610Y32070477D01*
X-59159810Y32160456D01*
X-59319441Y32216313D01*
X-59487500Y32235249D01*
X-59655559Y32216313D01*
X-59815190Y32160456D01*
X-59958390Y32070477D01*
X-60077977Y31950890D01*
X-60167956Y31807690D01*
X-60223813Y31648059D01*
X-60223813Y31648056D01*
X-60242750Y31480000D01*
X-76526434Y31480000D01*
X-76526434Y36596117D01*
X9237000Y36596117D01*
X9269798Y36441809D01*
X9333968Y36297681D01*
X9426698Y36170049D01*
X9543938Y36064486D01*
X9680559Y35985608D01*
X9830601Y35936857D01*
X9987500Y35920366D01*
X10144398Y35936857D01*
X10294440Y35985608D01*
X10431061Y36064486D01*
X10548301Y36170049D01*
X10641031Y36297681D01*
X10673297Y36370151D01*
X10705200Y36441805D01*
X10738000Y36596119D01*
X10738000Y36675000D01*
X10738000Y36675500D01*
X10738000Y42925325D01*
X12494500Y42925325D01*
X12509033Y42852261D01*
X12564399Y42769399D01*
X12647261Y42714033D01*
X12720325Y42699500D01*
X12720326Y42699500D01*
X14319674Y42699500D01*
X14319675Y42699500D01*
X14392738Y42714033D01*
X14392739Y42714033D01*
X14392740Y42714034D01*
X14475601Y42769399D01*
X14530966Y42852260D01*
X14545500Y42925325D01*
X20454500Y42925325D01*
X20469033Y42852261D01*
X20524399Y42769399D01*
X20607261Y42714033D01*
X20680325Y42699500D01*
X20680326Y42699500D01*
X22279674Y42699500D01*
X22279675Y42699500D01*
X22352738Y42714033D01*
X22352739Y42714033D01*
X22352740Y42714034D01*
X22435601Y42769399D01*
X22490966Y42852260D01*
X22505500Y42925326D01*
X22505500Y44274674D01*
X22490966Y44347740D01*
X22435601Y44430601D01*
X22352740Y44485966D01*
X22304029Y44495655D01*
X22279675Y44500500D01*
X22279674Y44500500D01*
X20680326Y44500500D01*
X20680325Y44500500D01*
X20643793Y44493233D01*
X20607260Y44485966D01*
X20524399Y44430601D01*
X20492429Y44382753D01*
X20469033Y44347738D01*
X20454500Y44274675D01*
X20454500Y42925325D01*
X14545500Y42925325D01*
X14545500Y42925326D01*
X14545500Y44274674D01*
X14530966Y44347740D01*
X14475601Y44430601D01*
X14392740Y44485966D01*
X14344029Y44495655D01*
X14319675Y44500500D01*
X14319674Y44500500D01*
X12720326Y44500500D01*
X12720325Y44500500D01*
X12683793Y44493233D01*
X12647260Y44485966D01*
X12564399Y44430601D01*
X12532429Y44382753D01*
X12509033Y44347738D01*
X12494500Y44274675D01*
X12494500Y42925325D01*
X10738000Y42925325D01*
X10738000Y47425325D01*
X12494500Y47425325D01*
X12509033Y47352261D01*
X12564399Y47269399D01*
X12647261Y47214033D01*
X12720325Y47199500D01*
X12720326Y47199500D01*
X14319674Y47199500D01*
X14319675Y47199500D01*
X14392738Y47214033D01*
X14392739Y47214033D01*
X14392740Y47214034D01*
X14475601Y47269399D01*
X14530966Y47352260D01*
X14545500Y47425325D01*
X20454500Y47425325D01*
X20469033Y47352261D01*
X20524399Y47269399D01*
X20607261Y47214033D01*
X20680325Y47199500D01*
X20680326Y47199500D01*
X22279674Y47199500D01*
X22279675Y47199500D01*
X22352738Y47214033D01*
X22352739Y47214033D01*
X22352740Y47214034D01*
X22435601Y47269399D01*
X22490966Y47352260D01*
X22505500Y47425326D01*
X22505500Y48774674D01*
X22490966Y48847740D01*
X22435601Y48930601D01*
X22352740Y48985966D01*
X22304029Y48995655D01*
X22279675Y49000500D01*
X22279674Y49000500D01*
X20680326Y49000500D01*
X20680325Y49000500D01*
X20643793Y48993233D01*
X20607260Y48985966D01*
X20524399Y48930601D01*
X20469034Y48847740D01*
X20469033Y48847738D01*
X20454500Y48774675D01*
X20454500Y47425325D01*
X14545500Y47425325D01*
X14545500Y47425326D01*
X14545500Y48774674D01*
X14530966Y48847740D01*
X14475601Y48930601D01*
X14392740Y48985966D01*
X14344029Y48995655D01*
X14319675Y49000500D01*
X14319674Y49000500D01*
X12720326Y49000500D01*
X12720325Y49000500D01*
X12683793Y48993233D01*
X12647260Y48985966D01*
X12564399Y48930601D01*
X12509034Y48847740D01*
X12509033Y48847738D01*
X12494500Y48774675D01*
X12494500Y47425325D01*
X10738000Y47425325D01*
X10738000Y56500325D01*
X12494500Y56500325D01*
X12509033Y56427261D01*
X12564399Y56344399D01*
X12647261Y56289033D01*
X12720325Y56274500D01*
X12720326Y56274500D01*
X14319674Y56274500D01*
X14319675Y56274500D01*
X14392738Y56289033D01*
X14392739Y56289033D01*
X14392740Y56289034D01*
X14475601Y56344399D01*
X14530966Y56427260D01*
X14545500Y56500325D01*
X20454500Y56500325D01*
X20469033Y56427261D01*
X20524399Y56344399D01*
X20607261Y56289033D01*
X20680325Y56274500D01*
X20680326Y56274500D01*
X22279674Y56274500D01*
X22279675Y56274500D01*
X22352738Y56289033D01*
X22352739Y56289033D01*
X22352740Y56289034D01*
X22435601Y56344399D01*
X22490966Y56427260D01*
X22505500Y56500326D01*
X22505500Y57849674D01*
X22490966Y57922740D01*
X22435601Y58005601D01*
X22352740Y58060966D01*
X22304029Y58070655D01*
X22279675Y58075500D01*
X22279674Y58075500D01*
X20680326Y58075500D01*
X20680325Y58075500D01*
X20643792Y58068232D01*
X20607260Y58060966D01*
X20524399Y58005601D01*
X20469034Y57922740D01*
X20469033Y57922738D01*
X20454500Y57849675D01*
X20454500Y56500325D01*
X14545500Y56500325D01*
X14545500Y56500326D01*
X14545500Y57849674D01*
X14530966Y57922740D01*
X14475601Y58005601D01*
X14392740Y58060966D01*
X14344029Y58070655D01*
X14319675Y58075500D01*
X14319674Y58075500D01*
X12720326Y58075500D01*
X12720325Y58075500D01*
X12683792Y58068232D01*
X12647260Y58060966D01*
X12564399Y58005601D01*
X12509034Y57922740D01*
X12509033Y57922738D01*
X12494500Y57849675D01*
X12494500Y56500325D01*
X10738000Y56500325D01*
X10738000Y61000325D01*
X12494500Y61000325D01*
X12509033Y60927261D01*
X12564399Y60844399D01*
X12647261Y60789033D01*
X12720325Y60774500D01*
X12720326Y60774500D01*
X14319674Y60774500D01*
X14319675Y60774500D01*
X14392738Y60789033D01*
X14392739Y60789033D01*
X14392740Y60789034D01*
X14475601Y60844399D01*
X14530966Y60927260D01*
X14545500Y61000325D01*
X20454500Y61000325D01*
X20469033Y60927261D01*
X20524399Y60844399D01*
X20607261Y60789033D01*
X20680325Y60774500D01*
X20680326Y60774500D01*
X22279674Y60774500D01*
X22279675Y60774500D01*
X22352738Y60789033D01*
X22352739Y60789033D01*
X22352740Y60789034D01*
X22435601Y60844399D01*
X22490966Y60927260D01*
X22505500Y61000326D01*
X22505500Y62349674D01*
X22490966Y62422740D01*
X22435601Y62505601D01*
X22352740Y62560966D01*
X22304029Y62570655D01*
X22279675Y62575500D01*
X22279674Y62575500D01*
X20680326Y62575500D01*
X20680325Y62575500D01*
X20643792Y62568232D01*
X20607260Y62560966D01*
X20524399Y62505601D01*
X20469034Y62422740D01*
X20469033Y62422738D01*
X20454500Y62349675D01*
X20454500Y61000325D01*
X14545500Y61000325D01*
X14545500Y61000326D01*
X14545500Y62349674D01*
X14530966Y62422740D01*
X14475601Y62505601D01*
X14392740Y62560966D01*
X14344029Y62570655D01*
X14319675Y62575500D01*
X14319674Y62575500D01*
X12720326Y62575500D01*
X12720325Y62575500D01*
X12683792Y62568232D01*
X12647260Y62560966D01*
X12564399Y62505601D01*
X12509034Y62422740D01*
X12509033Y62422738D01*
X12494500Y62349675D01*
X12494500Y61000325D01*
X10738000Y61000325D01*
X10738000Y77675099D01*
X10738000Y77753881D01*
X10705200Y77908195D01*
X10641032Y78052317D01*
X10548302Y78179949D01*
X10431063Y78285512D01*
X10364250Y78324086D01*
X10294440Y78364391D01*
X10294437Y78364392D01*
X10144397Y78413143D01*
X9987500Y78429634D01*
X9830603Y78413143D01*
X9752658Y78387817D01*
X9680559Y78364391D01*
X9543938Y78285513D01*
X9426698Y78179950D01*
X9333968Y78052318D01*
X9269798Y77908190D01*
X9237000Y77753883D01*
X9237000Y36596117D01*
X-76526434Y36596117D01*
X-76526434Y37168380D01*
X-76526405Y37168523D01*
X-76526410Y37168524D01*
X-76526393Y37193140D01*
X-76526549Y37193521D01*
X-76526550Y37193522D01*
X-76526551Y37193523D01*
X-76526649Y37193563D01*
X-76526737Y37193600D01*
X-76526934Y37193681D01*
X-76551488Y37193681D01*
X-76551694Y37193640D01*
X-79968666Y37193640D01*
X-79980913Y37194246D01*
X-80163505Y37212368D01*
X-80188432Y37217466D01*
X-80352452Y37269023D01*
X-80374340Y37278292D01*
X-80449324Y37318919D01*
X-80523010Y37358844D01*
X-80542808Y37372185D01*
X-80630652Y37444597D01*
X-80672284Y37478916D01*
X-80689060Y37495686D01*
X-80795884Y37625170D01*
X-80809235Y37644964D01*
X-80889895Y37793685D01*
X-80899274Y37815895D01*
X-80950199Y37979238D01*
X-80955198Y38003746D01*
X-80973613Y38186989D01*
X-80974234Y38199388D01*
X-80974234Y43056929D01*
X-72962693Y43056929D01*
X-72943251Y42959188D01*
X-72901861Y42897244D01*
X-71452755Y41448138D01*
X-71390811Y41406748D01*
X-71293071Y41387306D01*
X-71195331Y41406748D01*
X-71133387Y41448138D01*
X-70214028Y42367498D01*
X-67995268Y42367498D01*
X-67975825Y42269758D01*
X-67975824Y42269757D01*
X-67934437Y42207814D01*
X-66485329Y40758706D01*
X-66423386Y40717319D01*
X-66325645Y40697875D01*
X-66227905Y40717318D01*
X-66165962Y40758707D01*
X-65423961Y41500708D01*
X-65382572Y41562651D01*
X-65371809Y41616760D01*
X-65353294Y41661458D01*
X-65319083Y41695669D01*
X-65274385Y41714184D01*
X-65220278Y41724947D01*
X-65158336Y41766335D01*
X-64416335Y42508336D01*
X-64374946Y42570279D01*
X-64364183Y42624387D01*
X-64345668Y42669084D01*
X-64311457Y42703295D01*
X-64266760Y42721810D01*
X-64212652Y42732573D01*
X-64150709Y42773962D01*
X-63408708Y43515963D01*
X-63367319Y43577906D01*
X-63347877Y43675647D01*
X-63367320Y43773387D01*
X-63408707Y43835330D01*
X-64857815Y45284438D01*
X-64919758Y45325825D01*
X-64919759Y45325826D01*
X-65017499Y45345269D01*
X-65115240Y45325826D01*
X-65177182Y45284438D01*
X-65919184Y44542436D01*
X-65960572Y44480494D01*
X-65960572Y44480493D01*
X-65971335Y44426387D01*
X-65989850Y44381688D01*
X-66024061Y44347477D01*
X-66068759Y44328962D01*
X-66122867Y44318199D01*
X-66184809Y44276811D01*
X-66926811Y43534809D01*
X-66968199Y43472867D01*
X-66968199Y43472866D01*
X-66978962Y43418759D01*
X-66997477Y43374060D01*
X-67031688Y43339849D01*
X-67076387Y43321334D01*
X-67130493Y43310571D01*
X-67192435Y43269183D01*
X-67934437Y42527181D01*
X-67975825Y42465239D01*
X-67995268Y42367498D01*
X-70214028Y42367498D01*
X-70032127Y42549399D01*
X-69991899Y42576279D01*
X-69944446Y42585718D01*
X-68625349Y42585718D01*
X-68604273Y42592565D01*
X-68585364Y42597104D01*
X-68563479Y42600571D01*
X-68543736Y42610630D01*
X-68525769Y42618072D01*
X-68504695Y42624920D01*
X-68486761Y42637949D01*
X-68470178Y42648110D01*
X-68450439Y42658167D01*
X-68427878Y42680729D01*
X-65330729Y45777878D01*
X-65308165Y45800441D01*
X-65298105Y45820185D01*
X-65287945Y45836765D01*
X-65274920Y45854693D01*
X-65268071Y45875770D01*
X-65260629Y45893735D01*
X-65250571Y45913476D01*
X-65247104Y45935363D01*
X-65242564Y45954274D01*
X-65235717Y45975350D01*
X-65235717Y47294446D01*
X-65226278Y47341899D01*
X-65199398Y47382127D01*
X-64098137Y48483387D01*
X-64056747Y48545331D01*
X-64037305Y48643071D01*
X-64056747Y48740811D01*
X-64098137Y48802755D01*
X-65547243Y50251861D01*
X-65609187Y50293251D01*
X-65706927Y50312693D01*
X-65706927Y50312692D01*
X-65706928Y50312693D01*
X-65804668Y50293251D01*
X-65866611Y50251862D01*
X-67174297Y48944176D01*
X-67215686Y48882233D01*
X-67231495Y48802755D01*
X-67235128Y48784493D01*
X-67215686Y48686752D01*
X-67174296Y48624808D01*
X-66670898Y48121410D01*
X-66638337Y48064027D01*
X-66639818Y47998067D01*
X-66674920Y47942202D01*
X-66733706Y47912249D01*
X-66799534Y47916688D01*
X-66806974Y47919291D01*
X-66806975Y47919292D01*
X-66878758Y47944410D01*
X-66977241Y47978871D01*
X-67111540Y47994003D01*
X-67111543Y47994003D01*
X-67201451Y47994003D01*
X-67201454Y47994003D01*
X-67259008Y47987517D01*
X-67335752Y47978871D01*
X-67506019Y47919292D01*
X-67658759Y47823319D01*
X-67786313Y47695765D01*
X-67882286Y47543025D01*
X-67941865Y47372758D01*
X-67962062Y47193503D01*
X-67941865Y47014248D01*
X-67882286Y46843981D01*
X-67786313Y46691241D01*
X-67786311Y46691238D01*
X-67658761Y46563688D01*
X-67658759Y46563687D01*
X-67506019Y46467714D01*
X-67335752Y46408135D01*
X-67335750Y46408134D01*
X-67335748Y46408134D01*
X-67201454Y46393003D01*
X-67201451Y46393003D01*
X-67111543Y46393003D01*
X-67111540Y46393003D01*
X-66977245Y46408134D01*
X-66956017Y46415562D01*
X-66806975Y46467714D01*
X-66806973Y46467715D01*
X-66654232Y46563688D01*
X-66526682Y46691238D01*
X-66430709Y46843979D01*
X-66371128Y47014251D01*
X-66350931Y47193503D01*
X-66371128Y47372755D01*
X-66433312Y47550467D01*
X-66437750Y47616294D01*
X-66407797Y47675080D01*
X-66351932Y47710182D01*
X-66285972Y47711662D01*
X-66228589Y47679102D01*
X-66073036Y47523549D01*
X-66046156Y47483321D01*
X-66036717Y47435868D01*
X-66036717Y46256038D01*
X-66046156Y46208585D01*
X-66073036Y46168357D01*
X-68818356Y43423037D01*
X-68858584Y43396157D01*
X-68906037Y43386718D01*
X-70085868Y43386718D01*
X-70133321Y43396157D01*
X-70173549Y43423037D01*
X-71274808Y44524297D01*
X-71309777Y44547663D01*
X-70497879Y44547663D01*
X-70493997Y44485966D01*
X-70487559Y44383637D01*
X-70436771Y44227326D01*
X-70390980Y44155172D01*
X-70348705Y44088556D01*
X-70228896Y43976049D01*
X-70084868Y43896868D01*
X-69925682Y43855997D01*
X-69925680Y43855997D01*
X-69802578Y43855997D01*
X-69802576Y43855997D01*
X-69680443Y43871425D01*
X-69527632Y43931928D01*
X-69394668Y44028531D01*
X-69289902Y44155172D01*
X-69219925Y44303882D01*
X-69219924Y44303884D01*
X-69196555Y44426387D01*
X-69189126Y44465330D01*
X-69199446Y44629355D01*
X-69250235Y44785667D01*
X-69250235Y44785668D01*
X-69296026Y44857823D01*
X-69338300Y44924437D01*
X-69458109Y45036944D01*
X-69458110Y45036945D01*
X-69602135Y45116124D01*
X-69602137Y45116125D01*
X-69761324Y45156997D01*
X-69761326Y45156997D01*
X-69884428Y45156997D01*
X-69884430Y45156997D01*
X-70006562Y45141568D01*
X-70070823Y45116125D01*
X-70159374Y45081065D01*
X-70292340Y44984460D01*
X-70397103Y44857823D01*
X-70467082Y44709110D01*
X-70497879Y44547667D01*
X-70497878Y44547663D01*
X-70497879Y44547663D01*
X-71309777Y44547663D01*
X-71336752Y44565687D01*
X-71434492Y44585129D01*
X-71434492Y44585128D01*
X-71434493Y44585129D01*
X-71532233Y44565687D01*
X-71594176Y44524298D01*
X-72901862Y43216612D01*
X-72943251Y43154669D01*
X-72943251Y43154668D01*
X-72962693Y43056929D01*
X-80974234Y43056929D01*
X-80974234Y48024353D01*
X-73652123Y48024353D01*
X-73632680Y47926613D01*
X-73618945Y47906056D01*
X-73591292Y47864669D01*
X-72142184Y46415561D01*
X-72080241Y46374174D01*
X-71982500Y46354730D01*
X-71884760Y46374173D01*
X-71822817Y46415562D01*
X-71080816Y47157563D01*
X-71039427Y47219506D01*
X-71028664Y47273614D01*
X-71010149Y47318311D01*
X-70975938Y47352522D01*
X-70931241Y47371037D01*
X-70877133Y47381800D01*
X-70815190Y47423189D01*
X-70073189Y48165190D01*
X-70031800Y48227133D01*
X-70021037Y48281241D01*
X-70002522Y48325938D01*
X-69968311Y48360149D01*
X-69923614Y48378664D01*
X-69869506Y48389427D01*
X-69807563Y48430816D01*
X-69065562Y49172817D01*
X-69024173Y49234760D01*
X-69004731Y49332501D01*
X-69024174Y49430241D01*
X-69065561Y49492184D01*
X-70514669Y50941292D01*
X-70576612Y50982679D01*
X-70576613Y50982680D01*
X-70674353Y51002123D01*
X-70772094Y50982680D01*
X-70834036Y50941292D01*
X-71576038Y50199290D01*
X-71617426Y50137348D01*
X-71617426Y50137347D01*
X-71628189Y50083241D01*
X-71646704Y50038542D01*
X-71680915Y50004331D01*
X-71725613Y49985816D01*
X-71779721Y49975053D01*
X-71841663Y49933665D01*
X-72583665Y49191663D01*
X-72625053Y49129721D01*
X-72625053Y49129720D01*
X-72635816Y49075614D01*
X-72654331Y49030915D01*
X-72688542Y48996704D01*
X-72733240Y48978189D01*
X-72787348Y48967426D01*
X-72849290Y48926038D01*
X-73591292Y48184036D01*
X-73632680Y48122094D01*
X-73652123Y48024353D01*
X-80974234Y48024353D01*
X-80974234Y56500326D01*
X-73505500Y56500326D01*
X-73490966Y56427260D01*
X-73435601Y56344399D01*
X-73352740Y56289034D01*
X-73352739Y56289033D01*
X-73352738Y56289033D01*
X-73279675Y56274500D01*
X-73279674Y56274500D01*
X-71680326Y56274500D01*
X-71680325Y56274500D01*
X-71607261Y56289033D01*
X-71524399Y56344399D01*
X-71469033Y56427261D01*
X-71454500Y56500325D01*
X-71454500Y56500326D01*
X-65545500Y56500326D01*
X-65530966Y56427260D01*
X-65475601Y56344399D01*
X-65392740Y56289034D01*
X-65392739Y56289033D01*
X-65392738Y56289033D01*
X-65319675Y56274500D01*
X-65319674Y56274500D01*
X-63720326Y56274500D01*
X-63720325Y56274500D01*
X-63647261Y56289033D01*
X-63564399Y56344399D01*
X-63509033Y56427261D01*
X-63494500Y56500325D01*
X-63494500Y57849675D01*
X-63509033Y57922738D01*
X-63509034Y57922740D01*
X-63564399Y58005601D01*
X-63647260Y58060966D01*
X-63683792Y58068232D01*
X-63720325Y58075500D01*
X-63720326Y58075500D01*
X-65319674Y58075500D01*
X-65319675Y58075500D01*
X-65344029Y58070655D01*
X-65392740Y58060966D01*
X-65475601Y58005601D01*
X-65530966Y57922740D01*
X-65545500Y57849674D01*
X-65545500Y56500326D01*
X-71454500Y56500326D01*
X-71454500Y57849675D01*
X-71469033Y57922738D01*
X-71469034Y57922740D01*
X-71524399Y58005601D01*
X-71607260Y58060966D01*
X-71643792Y58068232D01*
X-71680325Y58075500D01*
X-71680326Y58075500D01*
X-73279674Y58075500D01*
X-73279675Y58075500D01*
X-73304029Y58070655D01*
X-73352740Y58060966D01*
X-73435601Y58005601D01*
X-73490966Y57922740D01*
X-73505500Y57849674D01*
X-73505500Y56500326D01*
X-80974234Y56500326D01*
X-80974234Y61000326D01*
X-73505500Y61000326D01*
X-73490966Y60927260D01*
X-73435601Y60844399D01*
X-73352740Y60789034D01*
X-73352739Y60789033D01*
X-73352738Y60789033D01*
X-73279675Y60774500D01*
X-73279674Y60774500D01*
X-71680326Y60774500D01*
X-71680325Y60774500D01*
X-71607261Y60789033D01*
X-71524399Y60844399D01*
X-71469033Y60927261D01*
X-71454500Y61000325D01*
X-71454500Y61000326D01*
X-65545500Y61000326D01*
X-65530966Y60927260D01*
X-65475601Y60844399D01*
X-65392740Y60789034D01*
X-65392739Y60789033D01*
X-65392738Y60789033D01*
X-65319675Y60774500D01*
X-65319674Y60774500D01*
X-63720326Y60774500D01*
X-63720325Y60774500D01*
X-63647261Y60789033D01*
X-63564399Y60844399D01*
X-63509033Y60927261D01*
X-63494500Y61000325D01*
X-63494500Y62349675D01*
X-63509033Y62422738D01*
X-63509034Y62422740D01*
X-63564399Y62505601D01*
X-63647260Y62560966D01*
X-63683792Y62568232D01*
X-63720325Y62575500D01*
X-63720326Y62575500D01*
X-65319674Y62575500D01*
X-65319675Y62575500D01*
X-65344029Y62570655D01*
X-65392740Y62560966D01*
X-65475601Y62505601D01*
X-65530966Y62422740D01*
X-65545500Y62349674D01*
X-65545500Y61000326D01*
X-71454500Y61000326D01*
X-71454500Y62349675D01*
X-71469033Y62422738D01*
X-71469034Y62422740D01*
X-71524399Y62505601D01*
X-71607260Y62560966D01*
X-71643792Y62568232D01*
X-71680325Y62575500D01*
X-71680326Y62575500D01*
X-73279674Y62575500D01*
X-73279675Y62575500D01*
X-73304029Y62570655D01*
X-73352740Y62560966D01*
X-73435601Y62505601D01*
X-73490966Y62422740D01*
X-73505500Y62349674D01*
X-73505500Y61000326D01*
X-80974234Y61000326D01*
X-80974234Y67811752D01*
X-80973603Y67824250D01*
X-80965294Y67906271D01*
X-80960357Y67930515D01*
X-80938594Y68000665D01*
X-80929133Y68023095D01*
X-80894634Y68086628D01*
X-80881293Y68106392D01*
X-80835552Y68161807D01*
X-80818795Y68178553D01*
X-80763243Y68224346D01*
X-80743596Y68237606D01*
X-80680057Y68272149D01*
X-80657688Y68281603D01*
X-80587561Y68303434D01*
X-80563200Y68308407D01*
X-80532305Y68311536D01*
X-80481232Y68316709D01*
X-80468738Y68317340D01*
X-76541494Y68317340D01*
X-76541350Y68317311D01*
X-76541350Y68317316D01*
X-76516734Y68317299D01*
X-76516733Y68317299D01*
X-76516352Y68317455D01*
X-76516351Y68317456D01*
X-76516339Y68317484D01*
X-76516234Y68317741D01*
X-76516193Y68317840D01*
X-76516193Y68342394D01*
X-76516234Y68342600D01*
X-76516234Y80520000D01*
X-60242749Y80520000D01*
X-60223813Y80351941D01*
X-60167956Y80192310D01*
X-60077977Y80049110D01*
X-59958390Y79929523D01*
X-59815190Y79839544D01*
X-59655559Y79783687D01*
X-59655556Y79783686D01*
X-59487500Y79764750D01*
X-59319443Y79783686D01*
X-59159810Y79839544D01*
X-59016608Y79929524D01*
X-58897024Y80049108D01*
X-58807044Y80192310D01*
X-58751186Y80351943D01*
X-58732250Y80520000D01*
X8007250Y80520000D01*
X8026186Y80351943D01*
X8082044Y80192310D01*
X8172024Y80049108D01*
X8291608Y79929524D01*
X8434810Y79839544D01*
X8594443Y79783686D01*
X8762500Y79764750D01*
X8930556Y79783686D01*
X8930559Y79783687D01*
X9090190Y79839544D01*
X9233390Y79929523D01*
X9352977Y80049110D01*
X9442956Y80192310D01*
X9498813Y80351941D01*
X9502295Y80382849D01*
X9517750Y80520000D01*
X9498813Y80688056D01*
X9498813Y80688059D01*
X9442956Y80847690D01*
X9352977Y80990890D01*
X9233390Y81110477D01*
X9090190Y81200456D01*
X8930559Y81256313D01*
X8762500Y81275249D01*
X8594441Y81256313D01*
X8434810Y81200456D01*
X8291610Y81110477D01*
X8172023Y80990890D01*
X8082044Y80847690D01*
X8082044Y80847689D01*
X8026186Y80688056D01*
X8007250Y80520000D01*
X-58732250Y80520000D01*
X-58751186Y80688056D01*
X-58807044Y80847689D01*
X-58807044Y80847690D01*
X-58897023Y80990890D01*
X-59016610Y81110477D01*
X-59159810Y81200456D01*
X-59319441Y81256313D01*
X-59487500Y81275249D01*
X-59655559Y81256313D01*
X-59815190Y81200456D01*
X-59958390Y81110477D01*
X-60077977Y80990890D01*
X-60167956Y80847690D01*
X-60223813Y80688059D01*
X-60242749Y80520000D01*
X-76516234Y80520000D01*
X-76516234Y81233472D01*
X-76510665Y81270215D01*
X-76490803Y81334234D01*
X-76481314Y81356716D01*
X-76446802Y81420199D01*
X-76433542Y81439847D01*
X-76387773Y81495370D01*
X-76370964Y81512179D01*
X-76315441Y81557948D01*
X-76295793Y81571208D01*
X-76232310Y81605720D01*
X-76209829Y81615209D01*
X-76202812Y81617385D01*
X-76145809Y81635071D01*
X-76109067Y81640640D01*
X-63208330Y81640640D01*
X-63208186Y81640611D01*
X-63208186Y81640616D01*
X-63183570Y81640599D01*
X-63183569Y81640599D01*
X-63183188Y81640755D01*
X-63183187Y81640756D01*
X-63183175Y81640784D01*
X-63183070Y81641041D01*
X-63183029Y81641140D01*
X-63183029Y81665694D01*
X-63183070Y81665900D01*
X-63183070Y85593155D01*
X-63182439Y85605652D01*
X-63174139Y85687590D01*
X-63169154Y85711987D01*
X-63147318Y85782054D01*
X-63137906Y85804331D01*
X-63103351Y85867969D01*
X-63090061Y85887671D01*
X-63044309Y85943173D01*
X-63027501Y85959981D01*
X-62971978Y86005751D01*
X-62952327Y86019013D01*
X-62888843Y86053524D01*
X-62866363Y86063012D01*
X-62796247Y86084765D01*
X-62772000Y86089703D01*
X-62698492Y86097148D01*
X-62689968Y86098012D01*
X-62677474Y86098643D01*
X-40968894Y86098643D01*
X-40968750Y86098614D01*
X-40968750Y86098619D01*
X-40944134Y86098602D01*
X-40944133Y86098602D01*
X-40943752Y86098758D01*
X-40943751Y86098759D01*
X-40943723Y86098829D01*
X-40943667Y86098962D01*
X-40943634Y86099043D01*
X-40943593Y86099142D01*
X-40943593Y86123697D01*
X-40943634Y86123903D01*
X-40943634Y90040954D01*
X-40943003Y90053451D01*
X-40934703Y90135390D01*
X-40929719Y90159786D01*
X-40907867Y90229906D01*
X-40898506Y90252087D01*
X-40864072Y90315637D01*
X-40850614Y90335576D01*
X-40804767Y90391028D01*
X-40788214Y90407581D01*
X-40732766Y90453425D01*
X-40712824Y90466885D01*
X-40649268Y90501320D01*
X-40627094Y90510677D01*
X-40556978Y90532528D01*
X-40532583Y90537512D01*
X-40463565Y90544503D01*
X-40450641Y90545812D01*
X-40438147Y90546443D01*
X-27622394Y90546443D01*
X-27622250Y90546414D01*
X-27622250Y90546419D01*
X-27597634Y90546402D01*
X-27597633Y90546402D01*
X-27597252Y90546558D01*
X-27597251Y90546559D01*
X-27597223Y90546629D01*
X-27597167Y90546762D01*
X-27597134Y90546843D01*
X-27597093Y90546942D01*
X-27597093Y90571497D01*
X-27597134Y90571703D01*
X-27597134Y94538500D01*
X-27594520Y94563825D01*
X-27580582Y94630632D01*
X-27573926Y94652349D01*
X-27548184Y94715131D01*
X-27537765Y94735136D01*
X-27501509Y94791543D01*
X-27488016Y94808924D01*
X-27442298Y94858102D01*
X-27425990Y94872791D01*
X-27372660Y94912881D01*
X-27353385Y94924783D01*
X-27292705Y94954973D01*
X-27271858Y94963090D01*
X-27205890Y94982131D01*
X-27183192Y94986443D01*
X-27112365Y94993150D01*
X-27089394Y94993178D01*
X-27082263Y94994240D01*
X-23302291Y94994240D01*
X-23240291Y94977627D01*
G37*
%TD.AperFunction*%
M02*
