%TF.GenerationSoftware,KiCad,Pcbnew,7.99.0-1.20230226git51d46c0.fc37*%
%TF.CreationDate,2023-03-11T16:05:46+00:00*%
%TF.ProjectId,tr23-outline-test-r1,74723233-2d6f-4757-946c-696e652d7465,rev?*%
%TF.SameCoordinates,Original*%
%TF.FileFunction,Profile,NP*%
%FSLAX46Y46*%
G04 Gerber Fmt 4.6, Leading zero omitted, Abs format (unit mm)*
G04 Created by KiCad (PCBNEW 7.99.0-1.20230226git51d46c0.fc37) date 2023-03-11 16:05:46*
%MOMM*%
%LPD*%
G01*
G04 APERTURE LIST*
%TA.AperFunction,Profile*%
%ADD10C,0.100000*%
%TD*%
G04 APERTURE END LIST*
D10*
%TO.C,DISP1*%
X9237500Y36675000D02*
X9237500Y77675000D01*
X10737500Y77675000D02*
X10737500Y36675000D01*
X9237500Y36675000D02*
G75*
G03*
X10737500Y36675000I750000J0D01*
G01*
X10737500Y77675000D02*
G75*
G03*
X9237500Y77675000I-750000J0D01*
G01*
%TO.C,GRAPHIC1*%
X-27100834Y94994744D02*
X-27194834Y94985844D01*
X-27194834Y94985844D02*
X-27282834Y94960444D01*
X-27282834Y94960444D02*
X-27363834Y94920144D01*
X-27363834Y94920144D02*
X-27435134Y94866544D01*
X-27435134Y94866544D02*
X-27495934Y94801144D01*
X-27495934Y94801144D02*
X-27544334Y94725844D01*
X-27544334Y94725844D02*
X-27578734Y94641944D01*
X-27578734Y94641944D02*
X-27597634Y94551344D01*
X-27597634Y94551344D02*
X-27597634Y90546943D01*
X-27597634Y90546943D02*
X-40444434Y90546943D01*
X-40444434Y90546943D02*
X-40545134Y90536744D01*
X-40545134Y90536744D02*
X-40638834Y90507543D01*
X-40638834Y90507543D02*
X-40723734Y90461544D01*
X-40723734Y90461544D02*
X-40797634Y90400443D01*
X-40797634Y90400443D02*
X-40858734Y90326543D01*
X-40858734Y90326543D02*
X-40904734Y90241643D01*
X-40904734Y90241643D02*
X-40933934Y90147943D01*
X-40933934Y90147943D02*
X-40944134Y90047243D01*
X-40944134Y90047243D02*
X-40944134Y86099143D01*
X-40944134Y86099143D02*
X-62683770Y86099143D01*
X-62683770Y86099143D02*
X-62784470Y86088943D01*
X-62784470Y86088943D02*
X-62878270Y86059843D01*
X-62878270Y86059843D02*
X-62963070Y86013744D01*
X-62963070Y86013744D02*
X-63037070Y85952743D01*
X-63037070Y85952743D02*
X-63098070Y85878743D01*
X-63098070Y85878743D02*
X-63144170Y85793844D01*
X-63144170Y85793844D02*
X-63173370Y85700143D01*
X-63173370Y85700143D02*
X-63183570Y85599444D01*
X-63183570Y85599444D02*
X-63183570Y81641140D01*
X-63183570Y81641140D02*
X-76127934Y81641140D01*
X-76127934Y81641140D02*
X-76221734Y81612040D01*
X-76221734Y81612040D02*
X-76306534Y81565940D01*
X-76306534Y81565940D02*
X-76380534Y81504940D01*
X-76380534Y81504940D02*
X-76441534Y81430940D01*
X-76441534Y81430940D02*
X-76487634Y81346140D01*
X-76487634Y81346140D02*
X-76516734Y81252340D01*
X-76516734Y81252340D02*
X-76516734Y68317840D01*
X-76516734Y68317840D02*
X-80475034Y68317840D01*
X-80475034Y68317840D02*
X-80575734Y68307640D01*
X-80575734Y68307640D02*
X-80669534Y68278440D01*
X-80669534Y68278440D02*
X-80754334Y68232340D01*
X-80754334Y68232340D02*
X-80828334Y68171340D01*
X-80828334Y68171340D02*
X-80889334Y68097440D01*
X-80889334Y68097440D02*
X-80935434Y68012540D01*
X-80935434Y68012540D02*
X-80964534Y67918740D01*
X-80964534Y67918740D02*
X-80974734Y67818040D01*
X-80974734Y67818040D02*
X-80974734Y38193140D01*
X-80974734Y38193140D02*
X-80954434Y37991140D01*
X-80954434Y37991140D02*
X-80896134Y37804140D01*
X-80896134Y37804140D02*
X-80803934Y37634140D01*
X-80803934Y37634140D02*
X-80681834Y37486140D01*
X-80681834Y37486140D02*
X-80533834Y37364140D01*
X-80533834Y37364140D02*
X-80364034Y37272140D01*
X-80364034Y37272140D02*
X-80176334Y37213140D01*
X-80176334Y37213140D02*
X-79974834Y37193140D01*
X-79974834Y37193140D02*
X-76526934Y37193140D01*
X-76526934Y37193140D02*
X-76526934Y20402127D01*
X-76526934Y20402127D02*
X-76506634Y20200127D01*
X-76506634Y20200127D02*
X-76448334Y20013127D01*
X-76448334Y20013127D02*
X-76356134Y19843127D01*
X-76356134Y19843127D02*
X-76234034Y19695127D01*
X-76234034Y19695127D02*
X-76086034Y19573127D01*
X-76086034Y19573127D02*
X-75916234Y19480127D01*
X-75916234Y19480127D02*
X-75728534Y19422127D01*
X-75728534Y19422127D02*
X-75527034Y19402127D01*
X-75527034Y19402127D02*
X-72079134Y19403627D01*
X-72079134Y19403627D02*
X-72079134Y7058173D01*
X-72079134Y7058173D02*
X-72058834Y6857173D01*
X-72058834Y6857173D02*
X-72000534Y6669173D01*
X-72000534Y6669173D02*
X-71908334Y6499173D01*
X-71908334Y6499173D02*
X-71786234Y6351173D01*
X-71786234Y6351173D02*
X-71638234Y6229173D01*
X-71638234Y6229173D02*
X-71468434Y6137173D01*
X-71468434Y6137173D02*
X-71280734Y6079173D01*
X-71280734Y6079173D02*
X-71079234Y6058173D01*
X-71079234Y6058173D02*
X-67631334Y6058173D01*
X-67631334Y6058173D02*
X-67631334Y-1837827D01*
X-67631334Y-1837827D02*
X-67611034Y-2038827D01*
X-67611034Y-2038827D02*
X-67552734Y-2226827D01*
X-67552734Y-2226827D02*
X-67460534Y-2396827D01*
X-67460534Y-2396827D02*
X-67338434Y-2544827D01*
X-67338434Y-2544827D02*
X-67190534Y-2666827D01*
X-67190534Y-2666827D02*
X-67020634Y-2758827D01*
X-67020634Y-2758827D02*
X-66832934Y-2816827D01*
X-66832934Y-2816827D02*
X-66631434Y-2837827D01*
X-66631434Y-2837827D02*
X-63183534Y-2837827D01*
X-63183534Y-2837827D02*
X-63183534Y-10732860D01*
X-63183534Y-10732860D02*
X-63163234Y-10934860D01*
X-63163234Y-10934860D02*
X-63104934Y-11122860D01*
X-63104934Y-11122860D02*
X-63012834Y-11291860D01*
X-63012834Y-11291860D02*
X-62890734Y-11439860D01*
X-62890734Y-11439860D02*
X-62742734Y-11561860D01*
X-62742734Y-11561860D02*
X-62572834Y-11654860D01*
X-62572834Y-11654860D02*
X-62385134Y-11712860D01*
X-62385134Y-11712860D02*
X-62183634Y-11732860D01*
X-62183634Y-11732860D02*
X-58735834Y-11732860D01*
X-58735834Y-11732860D02*
X-58735834Y-19128850D01*
X-58735834Y-19128850D02*
X-58728034Y-19281850D01*
X-58728034Y-19281850D02*
X-58705334Y-19430850D01*
X-58705334Y-19430850D02*
X-58617834Y-19712850D01*
X-58617834Y-19712850D02*
X-58479534Y-19966850D01*
X-58479534Y-19966850D02*
X-58296334Y-20188850D01*
X-58296334Y-20188850D02*
X-58074334Y-20372850D01*
X-58074334Y-20372850D02*
X-57819534Y-20510850D01*
X-57819534Y-20510850D02*
X-57537934Y-20597850D01*
X-57537934Y-20597850D02*
X-57388934Y-20620850D01*
X-57388934Y-20620850D02*
X-57235634Y-20628850D01*
X-57235634Y-20628850D02*
X-54288034Y-20628850D01*
X-54288034Y-20628850D02*
X-54288034Y-23576140D01*
X-54288034Y-23576140D02*
X-54280234Y-23730140D01*
X-54280234Y-23730140D02*
X-54257534Y-23879140D01*
X-54257534Y-23879140D02*
X-54170034Y-24160140D01*
X-54170034Y-24160140D02*
X-54031734Y-24415140D01*
X-54031734Y-24415140D02*
X-53848534Y-24637140D01*
X-53848534Y-24637140D02*
X-53626534Y-24820140D01*
X-53626534Y-24820140D02*
X-53371734Y-24959140D01*
X-53371734Y-24959140D02*
X-53090134Y-25046140D01*
X-53090134Y-25046140D02*
X-52941234Y-25069140D01*
X-52941234Y-25069140D02*
X-52787834Y-25077140D01*
X-52787834Y-25077140D02*
X-49840234Y-25077140D01*
X-49840234Y-25077140D02*
X-49840234Y-28024090D01*
X-49840234Y-28024090D02*
X-49832434Y-28178090D01*
X-49832434Y-28178090D02*
X-49809734Y-28327090D01*
X-49809734Y-28327090D02*
X-49722234Y-28608090D01*
X-49722234Y-28608090D02*
X-49583934Y-28863090D01*
X-49583934Y-28863090D02*
X-49400734Y-29085090D01*
X-49400734Y-29085090D02*
X-49178734Y-29268090D01*
X-49178734Y-29268090D02*
X-48923934Y-29406090D01*
X-48923934Y-29406090D02*
X-48642334Y-29494090D01*
X-48642334Y-29494090D02*
X-48493434Y-29517090D01*
X-48493434Y-29517090D02*
X-48340034Y-29524090D01*
X-48340034Y-29524090D02*
X-45391934Y-29524090D01*
X-45391934Y-29524090D02*
X-45391934Y-32472840D01*
X-45391934Y-32472840D02*
X-45384134Y-32625840D01*
X-45384134Y-32625840D02*
X-45361434Y-32774840D01*
X-45361434Y-32774840D02*
X-45273934Y-33055840D01*
X-45273934Y-33055840D02*
X-45135634Y-33310840D01*
X-45135634Y-33310840D02*
X-44952434Y-33532840D01*
X-44952434Y-33532840D02*
X-44730434Y-33715840D01*
X-44730434Y-33715840D02*
X-44475634Y-33854840D01*
X-44475634Y-33854840D02*
X-44194034Y-33941840D01*
X-44194034Y-33941840D02*
X-44045134Y-33964840D01*
X-44045134Y-33964840D02*
X-43891734Y-33972840D01*
X-43891734Y-33972840D02*
X-43841634Y-33972840D01*
X-43841634Y-33972840D02*
X-40944134Y-33972840D01*
X-40944134Y-33972840D02*
X-40944134Y-36420850D01*
X-40944134Y-36420850D02*
X-40933734Y-36624850D01*
X-40933734Y-36624850D02*
X-40903434Y-36823850D01*
X-40903434Y-36823850D02*
X-40854134Y-37014850D01*
X-40854134Y-37014850D02*
X-40786934Y-37198850D01*
X-40786934Y-37198850D02*
X-40702734Y-37373850D01*
X-40702734Y-37373850D02*
X-40602534Y-37538850D01*
X-40602534Y-37538850D02*
X-40487434Y-37692850D01*
X-40487434Y-37692850D02*
X-40358334Y-37834850D01*
X-40358334Y-37834850D02*
X-40216334Y-37963850D01*
X-40216334Y-37963850D02*
X-40062334Y-38078850D01*
X-40062334Y-38078850D02*
X-39897534Y-38178850D01*
X-39897534Y-38178850D02*
X-39722634Y-38262850D01*
X-39722634Y-38262850D02*
X-39538934Y-38330850D01*
X-39538934Y-38330850D02*
X-39347234Y-38379850D01*
X-39347234Y-38379850D02*
X-39148734Y-38409850D01*
X-39148734Y-38409850D02*
X-38944234Y-38420850D01*
X-38944234Y-38420850D02*
X-36496334Y-38420850D01*
X-36496334Y-38420850D02*
X-36496334Y-40867500D01*
X-36496334Y-40867500D02*
X-36485934Y-41072500D01*
X-36485934Y-41072500D02*
X-36455634Y-41271500D01*
X-36455634Y-41271500D02*
X-36406334Y-41462500D01*
X-36406334Y-41462500D02*
X-36339134Y-41646500D01*
X-36339134Y-41646500D02*
X-36254934Y-41821500D01*
X-36254934Y-41821500D02*
X-36154734Y-41986500D01*
X-36154734Y-41986500D02*
X-36039634Y-42140500D01*
X-36039634Y-42140500D02*
X-35910534Y-42282500D01*
X-35910534Y-42282500D02*
X-35768534Y-42411500D01*
X-35768534Y-42411500D02*
X-35614634Y-42526500D01*
X-35614634Y-42526500D02*
X-35449734Y-42626500D01*
X-35449734Y-42626500D02*
X-35274934Y-42710500D01*
X-35274934Y-42710500D02*
X-35091134Y-42777500D01*
X-35091134Y-42777500D02*
X-34899534Y-42827500D01*
X-34899534Y-42827500D02*
X-34700934Y-42857500D01*
X-34700934Y-42857500D02*
X-34496434Y-42867500D01*
X-34496434Y-42867500D02*
X-27600734Y-42867500D01*
X-27600734Y-42867500D02*
X-27600734Y-45315380D01*
X-27600734Y-45315380D02*
X-27590434Y-45520380D01*
X-27590434Y-45520380D02*
X-27560134Y-45718380D01*
X-27560134Y-45718380D02*
X-27510834Y-45910380D01*
X-27510834Y-45910380D02*
X-27443534Y-46094380D01*
X-27443534Y-46094380D02*
X-27359834Y-46268380D01*
X-27359834Y-46268380D02*
X-27258834Y-46433380D01*
X-27258834Y-46433380D02*
X-27143834Y-46587380D01*
X-27143834Y-46587380D02*
X-27014834Y-46729380D01*
X-27014834Y-46729380D02*
X-26872834Y-46858380D01*
X-26872834Y-46858380D02*
X-26718834Y-46974380D01*
X-26718834Y-46974380D02*
X-26553834Y-47074380D01*
X-26553834Y-47074380D02*
X-26378834Y-47158380D01*
X-26378834Y-47158380D02*
X-26195834Y-47225380D01*
X-26195834Y-47225380D02*
X-26003834Y-47274380D01*
X-26003834Y-47274380D02*
X-25805834Y-47305380D01*
X-25805834Y-47305380D02*
X-25600834Y-47315380D01*
X-25600834Y-47315380D02*
X-23152834Y-47315380D01*
X-23152834Y-47315380D02*
X-23152834Y-42867500D01*
X-23152834Y-42867500D02*
X-14257838Y-42867500D01*
X-14257838Y-42867500D02*
X-14257838Y-38420490D01*
X-14257838Y-38420490D02*
X-9808838Y-38420490D01*
X-9808838Y-38420490D02*
X-9797168Y-33972510D01*
X-9797168Y-33972510D02*
X-5360837Y-33972510D01*
X-5360837Y-33972510D02*
X-5360837Y-29523000D01*
X-5360837Y-29523000D02*
X-913837Y-29523070D01*
X-913837Y-29523070D02*
X-913837Y-25076000D01*
X-913837Y-25076000D02*
X3034163Y-25076110D01*
X3034163Y-25076110D02*
X3135163Y-25065110D01*
X3135163Y-25065110D02*
X3229163Y-25036110D01*
X3229163Y-25036110D02*
X3314163Y-24990110D01*
X3314163Y-24990110D02*
X3388163Y-24929110D01*
X3388163Y-24929110D02*
X3449163Y-24855110D01*
X3449163Y-24855110D02*
X3495163Y-24770110D01*
X3495163Y-24770110D02*
X3524163Y-24677110D01*
X3524163Y-24677110D02*
X3534163Y-24576110D01*
X3534163Y-24576110D02*
X3534163Y-20628000D01*
X3534163Y-20628000D02*
X7482163Y-20628080D01*
X7482163Y-20628080D02*
X7583163Y-20618080D01*
X7583163Y-20618080D02*
X7677163Y-20589080D01*
X7677163Y-20589080D02*
X7762163Y-20542080D01*
X7762163Y-20542080D02*
X7835163Y-20481080D01*
X7835163Y-20481080D02*
X7897163Y-20407080D01*
X7897163Y-20407080D02*
X7943163Y-20323080D01*
X7943163Y-20323080D02*
X7972163Y-20229080D01*
X7972163Y-20229080D02*
X7982163Y-20128080D01*
X7982163Y-20128080D02*
X7982163Y-11732000D01*
X7982163Y-11732000D02*
X11930163Y-11732090D01*
X11930163Y-11732090D02*
X12031163Y-11722090D01*
X12031163Y-11722090D02*
X12124163Y-11693090D01*
X12124163Y-11693090D02*
X12209163Y-11647090D01*
X12209163Y-11647090D02*
X12283163Y-11586090D01*
X12283163Y-11586090D02*
X12344163Y-11512090D01*
X12344163Y-11512090D02*
X12390163Y-11427090D01*
X12390163Y-11427090D02*
X12420163Y-11333090D01*
X12420163Y-11333090D02*
X12430163Y-11233090D01*
X12430163Y-11233090D02*
X12430163Y-2837000D01*
X12430163Y-2837000D02*
X16378163Y-2837098D01*
X16378163Y-2837098D02*
X16478163Y-2826098D01*
X16478163Y-2826098D02*
X16572163Y-2797098D01*
X16572163Y-2797098D02*
X16657163Y-2751098D01*
X16657163Y-2751098D02*
X16731163Y-2690098D01*
X16731163Y-2690098D02*
X16792163Y-2616098D01*
X16792163Y-2616098D02*
X16838163Y-2531098D01*
X16838163Y-2531098D02*
X16867163Y-2438098D01*
X16867163Y-2438098D02*
X16878163Y-2337098D01*
X16878163Y-2337098D02*
X16878163Y6059000D01*
X16878163Y6059000D02*
X20326170Y6058906D01*
X20326170Y6058906D02*
X20527170Y6079906D01*
X20527170Y6079906D02*
X20715170Y6137906D01*
X20715170Y6137906D02*
X20885170Y6229906D01*
X20885170Y6229906D02*
X21033170Y6351906D01*
X21033170Y6351906D02*
X21155170Y6499906D01*
X21155170Y6499906D02*
X21247170Y6669906D01*
X21247170Y6669906D02*
X21306170Y6857906D01*
X21306170Y6857906D02*
X21326170Y7058906D01*
X21326170Y7058906D02*
X21326170Y19403000D01*
X21326170Y19403000D02*
X24774170Y19402903D01*
X24774170Y19402903D02*
X24975170Y19422903D01*
X24975170Y19422903D02*
X25163170Y19480903D01*
X25163170Y19480903D02*
X25333170Y19573903D01*
X25333170Y19573903D02*
X25481170Y19695903D01*
X25481170Y19695903D02*
X25603170Y19843903D01*
X25603170Y19843903D02*
X25695170Y20013903D01*
X25695170Y20013903D02*
X25753170Y20200903D01*
X25753170Y20200903D02*
X25774170Y20402903D01*
X25774170Y20402903D02*
X25774170Y37193902D01*
X25774170Y37193902D02*
X28721170Y37193902D01*
X28721170Y37193902D02*
X28875170Y37201902D01*
X28875170Y37201902D02*
X29024170Y37223902D01*
X29024170Y37223902D02*
X29305170Y37311902D01*
X29305170Y37311902D02*
X29560170Y37449902D01*
X29560170Y37449902D02*
X29782170Y37632902D01*
X29782170Y37632902D02*
X29965170Y37854902D01*
X29965170Y37854902D02*
X30103170Y38109902D01*
X30103170Y38109902D02*
X30191170Y38391902D01*
X30191170Y38391902D02*
X30214170Y38540902D01*
X30214170Y38540902D02*
X30221170Y38693902D01*
X30221170Y38693902D02*
X30221170Y66818402D01*
X30221170Y66818402D02*
X30214170Y66971802D01*
X30214170Y66971802D02*
X30191170Y67120702D01*
X30191170Y67120702D02*
X30103170Y67402302D01*
X30103170Y67402302D02*
X29965170Y67657102D01*
X29965170Y67657102D02*
X29782170Y67879102D01*
X29782170Y67879102D02*
X29560170Y68062302D01*
X29560170Y68062302D02*
X29305170Y68200602D01*
X29305170Y68200602D02*
X29024170Y68288102D01*
X29024170Y68288102D02*
X28875170Y68310802D01*
X28875170Y68310802D02*
X28721170Y68318602D01*
X28721170Y68318602D02*
X25798760Y68318602D01*
X25798760Y68318602D02*
X25798760Y81651340D01*
X25798760Y81651340D02*
X12461307Y81651340D01*
X12461307Y81651340D02*
X12461307Y86099140D01*
X12461307Y86099140D02*
X-9810891Y86099140D01*
X-9810891Y86099140D02*
X-9810891Y90546940D01*
X-9810891Y90546940D02*
X-23177791Y90546940D01*
X-23177791Y90546940D02*
X-23177791Y94994740D01*
X-23177791Y94994740D02*
X-27100791Y94994740D01*
X-27100791Y94994740D02*
X-27100834Y94994744D01*
%TD*%
M02*
