M48
; DRILL file {KiCad 7.99.0-1.20230226git51d46c0.fc37} date Sat 11 Mar 2023 16:08:25 GMT
; FORMAT={-:-/ absolute / metric / decimal}
; #@! TF.CreationDate,2023-03-11T16:08:25+00:00
; #@! TF.GenerationSoftware,Kicad,Pcbnew,7.99.0-1.20230226git51d46c0.fc37
; #@! TF.FileFunction,NonPlated,1,2,NPTH
FMAT,2
METRIC
; #@! TA.AperFunction,NonPlated,NPTH,ComponentDrill
T1C0.762
; #@! TA.AperFunction,NonPlated,NPTH,ComponentDrill
T2C0.800
; #@! TA.AperFunction,NonPlated,NPTH,ComponentDrill
T3C1.000
; #@! TA.AperFunction,NonPlated,NPTH,ComponentDrill
T4C1.100
; #@! TA.AperFunction,NonPlated,NPTH,ComponentDrill
T5C3.700
%
G90
G05
T1
X-59.487Y80.52
X-59.487Y31.48
X8.762Y80.52
X8.762Y31.48
T2
X-69.844Y44.506
T3
X-27.91Y-16.763
X-27.91Y-19.303
X-25.37Y-16.763
X-25.37Y-19.303
X-22.83Y-16.763
X-22.83Y-19.303
T4
X-67.156Y47.194
T5
X-65.58Y23.09
X-61.05Y12.67
X-56.52Y2.26
X-56.518Y23.09
X-51.988Y12.67
X-51.92Y-8.15
X-47.458Y2.26
X-47.456Y23.09
X-42.926Y12.67
X-42.858Y-8.15
X-38.396Y2.26
X-38.394Y23.09
X-33.864Y12.67
X-33.796Y-8.15
X-29.334Y2.26
X-29.332Y23.09
X-24.802Y12.67
X-24.734Y-8.15
X-20.272Y2.26
X-20.27Y23.09
X-15.74Y12.67
X-15.672Y-8.15
X-11.21Y2.26
X-11.208Y23.09
X-6.678Y12.67
X-6.61Y-8.15
X-2.148Y2.26
X-2.146Y23.09
X2.384Y12.67
X2.452Y-8.15
X6.914Y2.26
X6.916Y23.09
X11.446Y12.67
X15.978Y23.09
T0
M30
