M48
; DRILL file {KiCad 7.99.0-1.20230226git51d46c0.fc37} date Wed 29 Mar 2023 21:25:55 BST
; FORMAT={-:-/ absolute / metric / decimal}
; #@! TF.CreationDate,2023-03-29T21:25:55+01:00
; #@! TF.GenerationSoftware,Kicad,Pcbnew,7.99.0-1.20230226git51d46c0.fc37
; #@! TF.FileFunction,Plated,1,4,PTH
FMAT,2
METRIC
; #@! TA.AperFunction,Plated,PTH,ViaDrill
T1C0.300
; #@! TA.AperFunction,Plated,PTH,ComponentDrill
T2C0.350
; #@! TA.AperFunction,Plated,PTH,ComponentDrill
T3C0.380
; #@! TA.AperFunction,Plated,PTH,ComponentDrill
T4C0.600
%
G90
G05
T1
X-47.95Y113.9
X-47.95Y98.8
X-47.95Y96.35
X-46.75Y93.65
X-46.65Y114.15
X-46.65Y113.6
X-46.3Y122.8
X-46.2Y74.65
X-45.9Y120.9
X-45.85Y92.6
X-45.3Y91.8
X-44.95Y123.95
X-44.85Y119.9
X-44.85Y113.3
X-44.85Y103.7
X-44.75Y89.25
X-44.25Y79.05
X-44.0Y123.8
X-43.75Y111.3
X-43.75Y103.05
X-43.35Y112.15
X-43.35Y93.3
X-42.8Y112.85
X-41.8Y58.8
X-41.65Y95.75
X-41.45Y74.4
X-41.15Y92.15
X-38.1Y90.0
X-37.7Y91.6
X-37.6Y45.55
X-37.45Y52.15
X-37.35Y49.0
X-36.6Y113.35
X-36.55Y90.3
X-36.45Y127.8
X-36.45Y100.9
X-36.3Y105.3
X-35.8Y78.5
X-35.8Y76.5
X-35.5Y100.3
X-35.45Y118.9
X-35.15Y120.0
X-35.1Y113.25
X-35.1Y104.7
X-33.95Y86.05
X-33.8Y99.9
X-33.65Y83.1
X-33.45Y113.2
X-33.35Y124.2
X-32.75Y94.4
X-32.75Y93.5
X-32.7Y39.55
X-31.9Y67.4
X-31.6Y27.7
X-31.5Y113.95
X-31.5Y106.25
X-31.2Y79.75
X-31.15Y81.075
X-31.15Y78.45
X-31.15Y76.5
X-31.0Y84.4
X-30.85Y27.25
X-30.8Y116.55
X-30.8Y83.65
X-30.75Y114.1
X-30.75Y81.725
X-30.75Y80.425
X-30.2Y94.65
X-30.05Y83.45
X-29.55Y116.6
X-28.95Y113.95
X-28.9Y106.4
X-28.85Y128.4
X-28.7Y31.65
X-28.6Y79.8
X-28.4Y23.55
X-28.0Y79.15
X-27.9Y77.8
X-27.85Y113.3
X-27.85Y94.2
X-27.65Y23.6
X-27.2Y128.45
X-27.2Y101.55
X-27.2Y98.8
X-25.839Y24.622
X-25.75Y103.65
X-25.7Y85.9
X-25.7Y31.4
X-25.1Y73.4
X-25.084Y24.496
X-25.021Y29.659
X-25.0Y27.7
X-24.958Y23.741
X-24.95Y83.05
X-24.4Y81.85
X-24.4Y29.1
X-24.391Y30.987
X-24.169Y23.788
X-24.15Y100.399
X-24.1Y98.6
X-23.968Y32.898
X-23.65Y128.35
X-23.65Y82.45
X-23.6Y23.3
X-23.55Y78.951
X-23.425Y22.525
X-23.222Y33.428
X-23.2Y123.85
X-23.2Y106.4
X-23.2Y97.55
X-22.818Y33.832
X-22.531Y84.378
X-22.5Y85.2
X-22.499Y83.629
X-22.45Y78.951
X-22.212Y107.806
X-22.15Y55.25
X-22.11Y34.274
X-21.979Y23.5
X-21.93Y28.921
X-21.7Y35.2
X-21.4Y22.5
X-21.35Y111.35
X-21.223Y29.629
X-21.223Y28.214
X-21.1Y35.8
X-20.516Y30.336
X-20.516Y28.921
X-20.516Y27.507
X-20.25Y22.7
X-20.2Y35.8
X-19.809Y29.629
X-19.809Y28.214
X-19.7Y21.556
X-19.5Y19.1
X-19.5Y18.25
X-19.3Y35.8
X-19.284Y108.91
X-19.102Y28.921
X-18.85Y106.85
X-18.8Y111.35
X-18.753Y22.978
X-18.6Y35.4
X-18.45Y18.25
X-18.311Y34.3
X-18.25Y20.4
X-17.95Y71.5
X-17.95Y19.049
X-17.397Y22.718
X-17.145Y21.556
X-17.05Y67.35
X-16.814Y33.614
X-16.679Y23.436
X-16.2Y109.0
X-15.85Y114.75
X-15.75Y52.7
X-15.457Y23.634
X-15.429Y32.729
X-15.251Y31.851
X-15.25Y132.55
X-15.05Y101.15
X-15.05Y98.1
X-14.75Y117.55
X-14.638Y31.256
X-14.25Y22.8
X-14.1Y116.2
X-14.1Y109.95
X-14.05Y85.0
X-13.518Y26.777
X-13.45Y23.7
X-13.3Y20.15
X-13.2Y85.0
X-12.95Y101.15
X-12.95Y98.7
X-12.4Y24.95
X-12.1Y132.85
X-12.1Y19.7
X-12.05Y34.55
X-11.783Y30.089
X-11.3Y109.85
X-11.25Y119.05
X-11.25Y111.4
X-11.05Y101.15
X-11.05Y99.3
X-10.9Y116.2
X-10.8Y33.1
X-10.5Y118.05
X-10.5Y29.55
X-10.25Y110.75
X-10.2Y80.75
X-10.2Y27.75
X-9.85Y107.15
X-9.75Y119.25
X-9.45Y133.05
X-9.45Y116.45
X-9.4Y115.65
X-9.25Y117.45
X-9.05Y107.15
X-8.8Y101.15
X-8.8Y99.95
X-8.8Y80.75
X-8.745Y26.0
X-8.05Y111.4
X-7.95Y109.85
X-7.95Y24.55
X-7.95Y23.0
X-7.4Y113.35
X-7.35Y130.35
X-7.15Y117.4
X-7.15Y115.9
X-7.0Y24.55
X-7.0Y23.0
X-7.0Y19.5
X-6.9Y73.4
X-6.8Y17.75
X-5.35Y128.5
X-5.1Y99.3
X-5.0Y113.2
X-5.0Y111.6
X-4.95Y133.15
X-4.85Y108.55
X-4.85Y96.1
X-4.85Y95.25
X-4.7Y109.565
X-4.45Y33.9
X-3.75Y35.4
X-3.612Y132.962
X-2.3Y130.95
X-1.914Y136.386
X-1.55Y34.7
X-1.4Y46.4
X-1.35Y129.7
X-1.1Y36.25
X-0.65Y133.7
X-0.2Y136.4
X0.0Y21.75
X0.0Y20.65
X0.25Y51.6
X0.5Y71.5
X0.982Y136.632
X1.05Y86.55
X1.05Y81.15
X1.3Y21.75
X1.35Y20.55
X1.55Y63.4
X1.8Y86.1
X1.8Y80.6
X1.95Y24.7
X1.95Y23.7
X1.95Y19.65
X1.95Y17.7
X2.0Y134.75
X2.0Y22.75
X2.15Y129.6
X2.35Y75.2
X2.4Y86.55
X2.4Y81.1
X2.8Y137.0
X3.4Y132.25
X4.05Y122.25
X4.3Y128.65
X5.15Y121.05
X6.4Y35.7
X7.4Y34.65
X8.65Y119.15
X9.0Y132.25
X9.1Y118.45
X9.8Y120.5
X9.8Y119.95
X10.35Y120.5
X10.35Y119.95
X10.9Y120.5
X10.9Y119.95
X12.65Y80.3
X13.2Y79.7
X14.8Y130.6
X14.9Y80.4
X15.525Y84.325
X15.8Y34.45
X15.95Y85.0
X15.975Y83.675
X16.1Y80.4
X17.65Y124.65
X17.65Y124.1
X18.2Y124.65
X18.2Y124.1
X19.0Y83.5
X19.125Y19.925
X19.4Y123.95
X19.6Y18.15
X19.7Y20.6
X19.8Y75.5
X19.95Y123.95
X20.3Y46.8
X20.5Y123.95
X20.55Y73.2
X20.6Y116.55
X20.6Y114.85
X21.05Y123.95
X21.6Y85.0
X21.8Y84.05
X22.2Y77.0
X22.8Y117.9
X23.5Y122.4
X23.6Y75.5
X24.5Y123.4
X24.85Y127.5
X25.1Y119.7
X25.1Y118.9
X25.1Y118.0
X25.1Y117.2
X25.3Y63.7
X25.6Y34.45
X27.0Y77.4
X27.2Y126.9
X27.2Y122.9
X27.5Y121.6
X27.7Y33.05
X27.8Y83.45
X28.25Y27.05
X28.275Y27.925
X28.4Y126.9
X29.1Y76.1
X29.7Y114.85
X30.0Y80.25
X30.2Y120.8
X30.3Y115.45
X30.35Y122.05
X30.5Y77.4
X30.5Y76.1
X30.85Y116.05
X30.9Y122.05
X31.2Y127.6
X31.2Y124.2
X31.5Y36.6
X31.9Y35.95
X32.7Y41.2
X33.5Y116.3
X33.55Y117.3
X35.6Y128.55
X36.2Y45.9
X36.35Y52.65
X36.5Y121.6
X37.1Y97.75
X37.149Y97.0
X37.15Y99.95
X37.2Y117.7
X37.4Y45.6
X37.45Y46.85
X37.55Y101.5
X38.25Y85.0
X39.3Y96.6
X39.3Y93.35
X40.0Y93.95
X40.122Y95.6
X40.5Y103.0
X41.25Y61.05
X44.95Y103.0
X45.9Y78.8
X46.25Y68.6
X46.9Y101.25
X49.15Y115.0
X50.4Y109.45
X50.4Y92.5
X50.45Y85.5
X50.95Y115.4
T2
X38.55Y123.95
X38.55Y123.35
X38.55Y120.95
X38.55Y120.35
X38.55Y116.95
X38.55Y116.35
X40.45Y123.95
X40.45Y123.35
X40.45Y116.95
X40.45Y116.35
X45.05Y115.85
X45.05Y115.25
X46.95Y115.85
X46.95Y115.25
T3
X-8.8Y5.15
X-6.8Y10.15
X-6.8Y5.15
X-4.8Y10.15
X-4.8Y5.15
X-2.8Y10.15
X-2.8Y5.15
X-0.8Y10.15
X-0.8Y5.15
X1.2Y10.15
X1.2Y5.15
X3.2Y10.15
X3.2Y5.15
X5.2Y10.15
X5.2Y5.15
X7.2Y10.15
X7.2Y5.15
X9.2Y10.15
X9.2Y5.15
T4
G00X23.98Y130.85
M15
G01X23.98Y130.05
M16
G05
G00X23.98Y126.85
M15
G01X23.98Y125.75
M16
G05
G00X32.62Y130.85
M15
G01X32.62Y130.05
M16
G05
G00X32.62Y126.85
M15
G01X32.62Y125.75
M16
G05
T0
M30
