G04 #@! TF.GenerationSoftware,KiCad,Pcbnew,7.99.0-1.20230226git51d46c0.fc37*
G04 #@! TF.CreationDate,2023-03-29T22:07:47+01:00*
G04 #@! TF.ProjectId,tr23-badge-r1,74723233-2d62-4616-9467-652d72312e6b,rev?*
G04 #@! TF.SameCoordinates,Original*
G04 #@! TF.FileFunction,Legend,Top*
G04 #@! TF.FilePolarity,Positive*
%FSLAX46Y46*%
G04 Gerber Fmt 4.6, Leading zero omitted, Abs format (unit mm)*
G04 Created by KiCad (PCBNEW 7.99.0-1.20230226git51d46c0.fc37) date 2023-03-29 22:07:47*
%MOMM*%
%LPD*%
G01*
G04 APERTURE LIST*
%ADD10C,0.010000*%
G04 APERTURE END LIST*
G04 #@! TO.C,GRAPHIC1*
D10*
X-55591700Y115638500D02*
X-51146700Y115638500D01*
X-51146700Y128973500D01*
X-37801117Y128973500D01*
X-37801117Y133418500D01*
X-15565534Y133418500D01*
X-15565534Y137863500D01*
X-2219950Y137863500D01*
X-2219950Y142308500D01*
X2235633Y142308500D01*
X2235633Y137863500D01*
X15581216Y137863500D01*
X15581216Y133418500D01*
X37816800Y133418500D01*
X37816800Y128973500D01*
X51162383Y128973500D01*
X51162383Y115638500D01*
X55607383Y115638500D01*
X55607383Y84502334D01*
X51162383Y84502334D01*
X51162383Y66711750D01*
X46717400Y66711750D01*
X46714745Y60041605D01*
X46712091Y53371459D01*
X44486945Y53368788D01*
X42261800Y53366118D01*
X42261800Y44476167D01*
X37816800Y44476167D01*
X37816800Y35575584D01*
X33371800Y35575584D01*
X33371800Y26685584D01*
X28916216Y26685584D01*
X28916216Y22230000D01*
X24471216Y22230000D01*
X24471216Y17785000D01*
X20026216Y17785000D01*
X20026216Y13340000D01*
X15581216Y13340000D01*
X15581216Y8895000D01*
X11125633Y8895000D01*
X11125633Y4439417D01*
X6680633Y4439417D01*
X6680633Y-5583D01*
X9605Y-5583D01*
X-365337Y-5572D01*
X-735031Y-5539D01*
X-1098913Y-5485D01*
X-1456416Y-5410D01*
X-1806977Y-5315D01*
X-2150029Y-5201D01*
X-2485008Y-5068D01*
X-2811349Y-4917D01*
X-3128486Y-4749D01*
X-3435854Y-4563D01*
X-3732888Y-4361D01*
X-4019023Y-4143D01*
X-4293694Y-3909D01*
X-4556335Y-3661D01*
X-4806382Y-3400D01*
X-5043268Y-3124D01*
X-5266430Y-2836D01*
X-5475302Y-2536D01*
X-5669319Y-2224D01*
X-5847915Y-1901D01*
X-6010526Y-1567D01*
X-6156586Y-1224D01*
X-6285530Y-871D01*
X-6396794Y-510D01*
X-6489811Y-140D01*
X-6564017Y237D01*
X-6618846Y620D01*
X-6653734Y1010D01*
X-6668114Y1406D01*
X-6668478Y1473D01*
X-6669163Y12585D01*
X-6669830Y43880D01*
X-6670475Y94375D01*
X-6671096Y163087D01*
X-6671690Y249031D01*
X-6672253Y351224D01*
X-6672782Y468683D01*
X-6673274Y600425D01*
X-6673727Y745465D01*
X-6674136Y902821D01*
X-6674499Y1071508D01*
X-6674813Y1250544D01*
X-6675074Y1438945D01*
X-6675280Y1635728D01*
X-6675427Y1839908D01*
X-6675512Y2050503D01*
X-6675534Y2223973D01*
X-6675534Y4439417D01*
X-11120534Y4439417D01*
X-11120534Y8895000D01*
X-15565534Y8895000D01*
X-15565534Y13340000D01*
X-20010534Y13340000D01*
X-20010534Y17785000D01*
X-24466117Y17785000D01*
X-24466117Y22230000D01*
X-28911117Y22230000D01*
X-28911117Y26685584D01*
X-33356117Y26685584D01*
X-33356117Y35575584D01*
X-37801117Y35575584D01*
X-37801117Y44476167D01*
X-42256700Y44476167D01*
X-42256700Y53366167D01*
X-46701700Y53366167D01*
X-46701700Y66711750D01*
X-51146700Y66711750D01*
X-51146700Y84502334D01*
X-55591700Y84502334D01*
X-55591700Y84512917D01*
X-51136117Y84512917D01*
X-46691117Y84512917D01*
X-46691117Y66722334D01*
X-42246117Y66722334D01*
X-42246117Y53376800D01*
X-40020971Y53374129D01*
X-37795825Y53371459D01*
X-37793167Y48929129D01*
X-37790509Y44486800D01*
X-35570667Y44484129D01*
X-33350825Y44481459D01*
X-33345509Y35586167D01*
X-28900534Y35586167D01*
X-28900534Y26696167D01*
X-24455534Y26696167D01*
X-24455534Y22240584D01*
X-19999950Y22240584D01*
X-19999950Y17795584D01*
X-15554950Y17795584D01*
X-15554950Y13350584D01*
X-11109950Y13350584D01*
X-11109950Y8905633D01*
X-8890096Y8902963D01*
X-6670242Y8900292D01*
X-6667572Y6675146D01*
X-6664901Y4450000D01*
X6670000Y4450000D01*
X6672671Y6675146D01*
X6675341Y8900292D01*
X8895171Y8902963D01*
X11115000Y8905633D01*
X11117671Y11125463D01*
X11120341Y13345292D01*
X13345487Y13347963D01*
X15570633Y13350633D01*
X15570633Y17795584D01*
X20015633Y17795584D01*
X20015633Y22240584D01*
X24460583Y22240584D01*
X24463254Y24465730D01*
X24465925Y26690875D01*
X26691070Y26693546D01*
X28916216Y26696217D01*
X28916216Y35586167D01*
X33361216Y35586167D01*
X33361216Y44486750D01*
X37806216Y44486750D01*
X37806216Y53376750D01*
X42251216Y53376750D01*
X42251216Y66722334D01*
X46706800Y66722334D01*
X46706800Y84512917D01*
X51151800Y84512917D01*
X51151800Y115627917D01*
X46706800Y115627917D01*
X46706800Y124507309D01*
X37811508Y124512625D01*
X37808837Y126737771D01*
X37806167Y128962917D01*
X15570633Y128962917D01*
X15570633Y133407917D01*
X2225050Y133407917D01*
X2225050Y137852917D01*
X-2209367Y137852917D01*
X-2209367Y133407917D01*
X-15554950Y133407917D01*
X-15554950Y128962917D01*
X-37790484Y128962917D01*
X-37793155Y126737771D01*
X-37795825Y124512625D01*
X-46691117Y124507309D01*
X-46691117Y115627917D01*
X-51136117Y115627917D01*
X-51136117Y84512917D01*
X-55591700Y84512917D01*
X-55591700Y115627917D01*
X-55591700Y115638500D01*
G36*
X-55591700Y115638500D02*
G01*
X-51146700Y115638500D01*
X-51146700Y128973500D01*
X-37801117Y128973500D01*
X-37801117Y133418500D01*
X-15565534Y133418500D01*
X-15565534Y137863500D01*
X-2219950Y137863500D01*
X-2219950Y142308500D01*
X2235633Y142308500D01*
X2235633Y137863500D01*
X15581216Y137863500D01*
X15581216Y133418500D01*
X37816800Y133418500D01*
X37816800Y128973500D01*
X51162383Y128973500D01*
X51162383Y115638500D01*
X55607383Y115638500D01*
X55607383Y84502334D01*
X51162383Y84502334D01*
X51162383Y66711750D01*
X46717400Y66711750D01*
X46714745Y60041605D01*
X46712091Y53371459D01*
X44486945Y53368788D01*
X42261800Y53366118D01*
X42261800Y44476167D01*
X37816800Y44476167D01*
X37816800Y35575584D01*
X33371800Y35575584D01*
X33371800Y26685584D01*
X28916216Y26685584D01*
X28916216Y22230000D01*
X24471216Y22230000D01*
X24471216Y17785000D01*
X20026216Y17785000D01*
X20026216Y13340000D01*
X15581216Y13340000D01*
X15581216Y8895000D01*
X11125633Y8895000D01*
X11125633Y4439417D01*
X6680633Y4439417D01*
X6680633Y-5583D01*
X9605Y-5583D01*
X-365337Y-5572D01*
X-735031Y-5539D01*
X-1098913Y-5485D01*
X-1456416Y-5410D01*
X-1806977Y-5315D01*
X-2150029Y-5201D01*
X-2485008Y-5068D01*
X-2811349Y-4917D01*
X-3128486Y-4749D01*
X-3435854Y-4563D01*
X-3732888Y-4361D01*
X-4019023Y-4143D01*
X-4293694Y-3909D01*
X-4556335Y-3661D01*
X-4806382Y-3400D01*
X-5043268Y-3124D01*
X-5266430Y-2836D01*
X-5475302Y-2536D01*
X-5669319Y-2224D01*
X-5847915Y-1901D01*
X-6010526Y-1567D01*
X-6156586Y-1224D01*
X-6285530Y-871D01*
X-6396794Y-510D01*
X-6489811Y-140D01*
X-6564017Y237D01*
X-6618846Y620D01*
X-6653734Y1010D01*
X-6668114Y1406D01*
X-6668478Y1473D01*
X-6669163Y12585D01*
X-6669830Y43880D01*
X-6670475Y94375D01*
X-6671096Y163087D01*
X-6671690Y249031D01*
X-6672253Y351224D01*
X-6672782Y468683D01*
X-6673274Y600425D01*
X-6673727Y745465D01*
X-6674136Y902821D01*
X-6674499Y1071508D01*
X-6674813Y1250544D01*
X-6675074Y1438945D01*
X-6675280Y1635728D01*
X-6675427Y1839908D01*
X-6675512Y2050503D01*
X-6675534Y2223973D01*
X-6675534Y4439417D01*
X-11120534Y4439417D01*
X-11120534Y8895000D01*
X-15565534Y8895000D01*
X-15565534Y13340000D01*
X-20010534Y13340000D01*
X-20010534Y17785000D01*
X-24466117Y17785000D01*
X-24466117Y22230000D01*
X-28911117Y22230000D01*
X-28911117Y26685584D01*
X-33356117Y26685584D01*
X-33356117Y35575584D01*
X-37801117Y35575584D01*
X-37801117Y44476167D01*
X-42256700Y44476167D01*
X-42256700Y53366167D01*
X-46701700Y53366167D01*
X-46701700Y66711750D01*
X-51146700Y66711750D01*
X-51146700Y84502334D01*
X-55591700Y84502334D01*
X-55591700Y84512917D01*
X-51136117Y84512917D01*
X-46691117Y84512917D01*
X-46691117Y66722334D01*
X-42246117Y66722334D01*
X-42246117Y53376800D01*
X-40020971Y53374129D01*
X-37795825Y53371459D01*
X-37793167Y48929129D01*
X-37790509Y44486800D01*
X-35570667Y44484129D01*
X-33350825Y44481459D01*
X-33345509Y35586167D01*
X-28900534Y35586167D01*
X-28900534Y26696167D01*
X-24455534Y26696167D01*
X-24455534Y22240584D01*
X-19999950Y22240584D01*
X-19999950Y17795584D01*
X-15554950Y17795584D01*
X-15554950Y13350584D01*
X-11109950Y13350584D01*
X-11109950Y8905633D01*
X-8890096Y8902963D01*
X-6670242Y8900292D01*
X-6667572Y6675146D01*
X-6664901Y4450000D01*
X6670000Y4450000D01*
X6672671Y6675146D01*
X6675341Y8900292D01*
X8895171Y8902963D01*
X11115000Y8905633D01*
X11117671Y11125463D01*
X11120341Y13345292D01*
X13345487Y13347963D01*
X15570633Y13350633D01*
X15570633Y17795584D01*
X20015633Y17795584D01*
X20015633Y22240584D01*
X24460583Y22240584D01*
X24463254Y24465730D01*
X24465925Y26690875D01*
X26691070Y26693546D01*
X28916216Y26696217D01*
X28916216Y35586167D01*
X33361216Y35586167D01*
X33361216Y44486750D01*
X37806216Y44486750D01*
X37806216Y53376750D01*
X42251216Y53376750D01*
X42251216Y66722334D01*
X46706800Y66722334D01*
X46706800Y84512917D01*
X51151800Y84512917D01*
X51151800Y115627917D01*
X46706800Y115627917D01*
X46706800Y124507309D01*
X37811508Y124512625D01*
X37808837Y126737771D01*
X37806167Y128962917D01*
X15570633Y128962917D01*
X15570633Y133407917D01*
X2225050Y133407917D01*
X2225050Y137852917D01*
X-2209367Y137852917D01*
X-2209367Y133407917D01*
X-15554950Y133407917D01*
X-15554950Y128962917D01*
X-37790484Y128962917D01*
X-37793155Y126737771D01*
X-37795825Y124512625D01*
X-46691117Y124507309D01*
X-46691117Y115627917D01*
X-51136117Y115627917D01*
X-51136117Y84512917D01*
X-55591700Y84512917D01*
X-55591700Y115627917D01*
X-55591700Y115638500D01*
G37*
X-473700Y8016584D02*
X-166784Y8016584D01*
X-166784Y7392167D01*
X-473700Y7392167D01*
X-473700Y7085250D01*
X-1098117Y7085250D01*
X-1098117Y6767750D01*
X-1405034Y6767750D01*
X-1405034Y6471417D01*
X-166784Y6471417D01*
X-166784Y6153917D01*
X-2040034Y6153917D01*
X-2040034Y6778334D01*
X-1722534Y6778334D01*
X-1722534Y7095834D01*
X-1108700Y7095834D01*
X-1108700Y7402750D01*
X-801784Y7402750D01*
X-801784Y8016584D01*
X-1405034Y8016584D01*
X-1405034Y7699084D01*
X-2040034Y7699084D01*
X-2040034Y8016584D01*
X-1722534Y8016584D01*
X-1722534Y8334084D01*
X-473700Y8334084D01*
X-473700Y8016584D01*
G36*
X-473700Y8016584D02*
G01*
X-166784Y8016584D01*
X-166784Y7392167D01*
X-473700Y7392167D01*
X-473700Y7085250D01*
X-1098117Y7085250D01*
X-1098117Y6767750D01*
X-1405034Y6767750D01*
X-1405034Y6471417D01*
X-166784Y6471417D01*
X-166784Y6153917D01*
X-2040034Y6153917D01*
X-2040034Y6778334D01*
X-1722534Y6778334D01*
X-1722534Y7095834D01*
X-1108700Y7095834D01*
X-1108700Y7402750D01*
X-801784Y7402750D01*
X-801784Y8016584D01*
X-1405034Y8016584D01*
X-1405034Y7699084D01*
X-2040034Y7699084D01*
X-2040034Y8016584D01*
X-1722534Y8016584D01*
X-1722534Y8334084D01*
X-473700Y8334084D01*
X-473700Y8016584D01*
G37*
X1738216Y8016584D02*
X2045133Y8016584D01*
X2045133Y7392167D01*
X1738216Y7392167D01*
X1738216Y7095834D01*
X2045133Y7095834D01*
X2045133Y6460834D01*
X1738216Y6460834D01*
X1738216Y6153917D01*
X489383Y6153917D01*
X489383Y6460834D01*
X182466Y6460834D01*
X182466Y6778334D01*
X806883Y6778334D01*
X806883Y6471417D01*
X1420716Y6471417D01*
X1420716Y7085250D01*
X796300Y7085250D01*
X796300Y7402750D01*
X1420716Y7402750D01*
X1420716Y8016584D01*
X806883Y8016584D01*
X806883Y7699084D01*
X182466Y7699084D01*
X182466Y8016584D01*
X489383Y8016584D01*
X489383Y8334084D01*
X1738216Y8334084D01*
X1738216Y8016584D01*
G36*
X1738216Y8016584D02*
G01*
X2045133Y8016584D01*
X2045133Y7392167D01*
X1738216Y7392167D01*
X1738216Y7095834D01*
X2045133Y7095834D01*
X2045133Y6460834D01*
X1738216Y6460834D01*
X1738216Y6153917D01*
X489383Y6153917D01*
X489383Y6460834D01*
X182466Y6460834D01*
X182466Y6778334D01*
X806883Y6778334D01*
X806883Y6471417D01*
X1420716Y6471417D01*
X1420716Y7085250D01*
X796300Y7085250D01*
X796300Y7402750D01*
X1420716Y7402750D01*
X1420716Y8016584D01*
X806883Y8016584D01*
X806883Y7699084D01*
X182466Y7699084D01*
X182466Y8016584D01*
X489383Y8016584D01*
X489383Y8334084D01*
X1738216Y8334084D01*
X1738216Y8016584D01*
G37*
X-7744450Y12292250D02*
X-8358284Y12292250D01*
X-8358284Y10429584D01*
X-8993284Y10429584D01*
X-8993284Y12292250D01*
X-9607117Y12292250D01*
X-9607117Y12609750D01*
X-7744450Y12609750D01*
X-7744450Y12292250D01*
G36*
X-7744450Y12292250D02*
G01*
X-8358284Y12292250D01*
X-8358284Y10429584D01*
X-8993284Y10429584D01*
X-8993284Y12292250D01*
X-9607117Y12292250D01*
X-9607117Y12609750D01*
X-7744450Y12609750D01*
X-7744450Y12292250D01*
G37*
X-5574867Y12302834D02*
X-5257367Y12302834D01*
X-5257367Y11667834D01*
X-5574867Y11667834D01*
X-5574867Y11360917D01*
X-5881784Y11360917D01*
X-5881784Y11054000D01*
X-5574867Y11054000D01*
X-5574867Y10747084D01*
X-5257367Y10747084D01*
X-5257367Y10429584D01*
X-5892367Y10429584D01*
X-5892367Y10736500D01*
X-6199284Y10736500D01*
X-6199284Y11054000D01*
X-6495297Y11054000D01*
X-6498103Y10744438D01*
X-6500909Y10434875D01*
X-7130617Y10429269D01*
X-7130617Y12292250D01*
X-6495617Y12292250D01*
X-6495617Y11678417D01*
X-5892367Y11678417D01*
X-5892367Y12292250D01*
X-6495617Y12292250D01*
X-7130617Y12292250D01*
X-7130617Y12609750D01*
X-5574867Y12609750D01*
X-5574867Y12302834D01*
G36*
X-5574867Y12302834D02*
G01*
X-5257367Y12302834D01*
X-5257367Y11667834D01*
X-5574867Y11667834D01*
X-5574867Y11360917D01*
X-5881784Y11360917D01*
X-5881784Y11054000D01*
X-5574867Y11054000D01*
X-5574867Y10747084D01*
X-5257367Y10747084D01*
X-5257367Y10429584D01*
X-5892367Y10429584D01*
X-5892367Y10736500D01*
X-6199284Y10736500D01*
X-6199284Y11054000D01*
X-6495297Y11054000D01*
X-6498103Y10744438D01*
X-6500909Y10434875D01*
X-7130617Y10429269D01*
X-7130617Y12292250D01*
X-6495617Y12292250D01*
X-6495617Y11678417D01*
X-5892367Y11678417D01*
X-5892367Y12292250D01*
X-6495617Y12292250D01*
X-7130617Y12292250D01*
X-7130617Y12609750D01*
X-5574867Y12609750D01*
X-5574867Y12302834D01*
G37*
X-3087784Y12302834D02*
X-2780867Y12302834D01*
X-2780867Y10736500D01*
X-3087784Y10736500D01*
X-3087784Y10429584D01*
X-4336617Y10429584D01*
X-4336617Y10735935D01*
X-4492721Y10738863D01*
X-4648825Y10741792D01*
X-4648825Y12292250D01*
X-4019117Y12292250D01*
X-4019117Y10747084D01*
X-3405284Y10747084D01*
X-3405284Y12292250D01*
X-4019117Y12292250D01*
X-4648825Y12292250D01*
X-4648825Y12297542D01*
X-4336617Y12303400D01*
X-4336617Y12609750D01*
X-3087784Y12609750D01*
X-3087784Y12302834D01*
G36*
X-3087784Y12302834D02*
G01*
X-2780867Y12302834D01*
X-2780867Y10736500D01*
X-3087784Y10736500D01*
X-3087784Y10429584D01*
X-4336617Y10429584D01*
X-4336617Y10735935D01*
X-4492721Y10738863D01*
X-4648825Y10741792D01*
X-4648825Y12292250D01*
X-4019117Y12292250D01*
X-4019117Y10747084D01*
X-3405284Y10747084D01*
X-3405284Y12292250D01*
X-4019117Y12292250D01*
X-4648825Y12292250D01*
X-4648825Y12297542D01*
X-4336617Y12303400D01*
X-4336617Y12609750D01*
X-3087784Y12609750D01*
X-3087784Y12302834D01*
G37*
X-611284Y12302834D02*
X-304367Y12302834D01*
X-304367Y10736500D01*
X-611284Y10736500D01*
X-611284Y10429584D01*
X-1860117Y10429584D01*
X-1860117Y10736500D01*
X-2167034Y10736500D01*
X-2167034Y12292250D01*
X-1542617Y12292250D01*
X-1542617Y10747084D01*
X-928784Y10747084D01*
X-928784Y12292250D01*
X-1542617Y12292250D01*
X-2167034Y12292250D01*
X-2167034Y12302834D01*
X-1860117Y12302834D01*
X-1860117Y12609750D01*
X-611284Y12609750D01*
X-611284Y12302834D01*
G36*
X-611284Y12302834D02*
G01*
X-304367Y12302834D01*
X-304367Y10736500D01*
X-611284Y10736500D01*
X-611284Y10429584D01*
X-1860117Y10429584D01*
X-1860117Y10736500D01*
X-2167034Y10736500D01*
X-2167034Y12292250D01*
X-1542617Y12292250D01*
X-1542617Y10747084D01*
X-928784Y10747084D01*
X-928784Y12292250D01*
X-1542617Y12292250D01*
X-2167034Y12292250D01*
X-2167034Y12302834D01*
X-1860117Y12302834D01*
X-1860117Y12609750D01*
X-611284Y12609750D01*
X-611284Y12302834D01*
G37*
X1870508Y12604459D02*
X1873444Y12453646D01*
X1876381Y12302834D01*
X2182716Y12302834D01*
X2182716Y11667834D01*
X1876381Y11667834D01*
X1873444Y11517021D01*
X1870508Y11366209D01*
X944466Y11360695D01*
X944466Y10429584D01*
X309466Y10429584D01*
X309466Y12292250D01*
X944466Y12292250D01*
X944466Y11678417D01*
X1547716Y11678417D01*
X1547716Y12292250D01*
X944466Y12292250D01*
X309466Y12292250D01*
X309466Y12609887D01*
X1870508Y12604459D01*
G36*
X1870508Y12604459D02*
G01*
X1873444Y12453646D01*
X1876381Y12302834D01*
X2182716Y12302834D01*
X2182716Y11667834D01*
X1876381Y11667834D01*
X1873444Y11517021D01*
X1870508Y11366209D01*
X944466Y11360695D01*
X944466Y10429584D01*
X309466Y10429584D01*
X309466Y12292250D01*
X944466Y12292250D01*
X944466Y11678417D01*
X1547716Y11678417D01*
X1547716Y12292250D01*
X944466Y12292250D01*
X309466Y12292250D01*
X309466Y12609887D01*
X1870508Y12604459D01*
G37*
X4659216Y12292250D02*
X3420966Y12292250D01*
X3420966Y11678417D01*
X4045383Y11678417D01*
X4045383Y11360917D01*
X3420966Y11360917D01*
X3420966Y10747084D01*
X4659216Y10747084D01*
X4659216Y10429584D01*
X2796550Y10429584D01*
X2796550Y12609750D01*
X4659216Y12609750D01*
X4659216Y12292250D01*
G36*
X4659216Y12292250D02*
G01*
X3420966Y12292250D01*
X3420966Y11678417D01*
X4045383Y11678417D01*
X4045383Y11360917D01*
X3420966Y11360917D01*
X3420966Y10747084D01*
X4659216Y10747084D01*
X4659216Y10429584D01*
X2796550Y10429584D01*
X2796550Y12609750D01*
X4659216Y12609750D01*
X4659216Y12292250D01*
G37*
X6828800Y12303400D02*
X7141008Y12297542D01*
X7141008Y11673125D01*
X6984904Y11670197D01*
X6828800Y11667268D01*
X6828800Y11360917D01*
X6521883Y11360917D01*
X6521883Y11054000D01*
X6828800Y11054000D01*
X6828800Y10747084D01*
X7146300Y10747084D01*
X7146300Y10429584D01*
X6511300Y10429584D01*
X6511300Y10736500D01*
X6204383Y10736500D01*
X6204383Y11054000D01*
X5897466Y11054000D01*
X5897466Y10429584D01*
X5273050Y10429584D01*
X5273050Y12292250D01*
X5897466Y12292250D01*
X5897466Y11678417D01*
X6511300Y11678417D01*
X6511300Y12292250D01*
X5897466Y12292250D01*
X5273050Y12292250D01*
X5273050Y12609750D01*
X6828800Y12609750D01*
X6828800Y12303400D01*
G36*
X6828800Y12303400D02*
G01*
X7141008Y12297542D01*
X7141008Y11673125D01*
X6984904Y11670197D01*
X6828800Y11667268D01*
X6828800Y11360917D01*
X6521883Y11360917D01*
X6521883Y11054000D01*
X6828800Y11054000D01*
X6828800Y10747084D01*
X7146300Y10747084D01*
X7146300Y10429584D01*
X6511300Y10429584D01*
X6511300Y10736500D01*
X6204383Y10736500D01*
X6204383Y11054000D01*
X5897466Y11054000D01*
X5897466Y10429584D01*
X5273050Y10429584D01*
X5273050Y12292250D01*
X5897466Y12292250D01*
X5897466Y11678417D01*
X6511300Y11678417D01*
X6511300Y12292250D01*
X5897466Y12292250D01*
X5273050Y12292250D01*
X5273050Y12609750D01*
X6828800Y12609750D01*
X6828800Y12303400D01*
G37*
X9315883Y12302834D02*
X9623351Y12302834D01*
X9620429Y12141438D01*
X9617508Y11980042D01*
X8993091Y11980042D01*
X8990162Y12136146D01*
X8987234Y12292250D01*
X8384550Y12292250D01*
X8384550Y11678417D01*
X9315883Y11678417D01*
X9315883Y11371500D01*
X9622800Y11371500D01*
X9622800Y10736500D01*
X9315883Y10736500D01*
X9315883Y10429584D01*
X8067050Y10429584D01*
X8067050Y10736500D01*
X7749550Y10736500D01*
X7749550Y11054000D01*
X8384550Y11054000D01*
X8384550Y10747084D01*
X8987800Y10747084D01*
X8987800Y11360917D01*
X8067050Y11360917D01*
X8067050Y11667834D01*
X7749550Y11667834D01*
X7749550Y12302834D01*
X8067050Y12302834D01*
X8067050Y12609750D01*
X9315883Y12609750D01*
X9315883Y12302834D01*
G36*
X9315883Y12302834D02*
G01*
X9623351Y12302834D01*
X9620429Y12141438D01*
X9617508Y11980042D01*
X8993091Y11980042D01*
X8990162Y12136146D01*
X8987234Y12292250D01*
X8384550Y12292250D01*
X8384550Y11678417D01*
X9315883Y11678417D01*
X9315883Y11371500D01*
X9622800Y11371500D01*
X9622800Y10736500D01*
X9315883Y10736500D01*
X9315883Y10429584D01*
X8067050Y10429584D01*
X8067050Y10736500D01*
X7749550Y10736500D01*
X7749550Y11054000D01*
X8384550Y11054000D01*
X8384550Y10747084D01*
X8987800Y10747084D01*
X8987800Y11360917D01*
X8067050Y11360917D01*
X8067050Y11667834D01*
X7749550Y11667834D01*
X7749550Y12302834D01*
X8067050Y12302834D01*
X8067050Y12609750D01*
X9315883Y12609750D01*
X9315883Y12302834D01*
G37*
X-10644284Y17075917D02*
X-11184034Y17075917D01*
X-11184034Y16536167D01*
X-11713200Y16536167D01*
X-11713200Y14938084D01*
X-13321867Y14938084D01*
X-13321867Y16007000D01*
X-12782117Y16007000D01*
X-12782117Y15488417D01*
X-12263534Y15488417D01*
X-12263534Y16007000D01*
X-12782117Y16007000D01*
X-13321867Y16007000D01*
X-13321867Y16546750D01*
X-11723784Y16546750D01*
X-11723784Y17086500D01*
X-11194617Y17086500D01*
X-11194617Y17615667D01*
X-10644284Y17615667D01*
X-10644284Y17075917D01*
G36*
X-10644284Y17075917D02*
G01*
X-11184034Y17075917D01*
X-11184034Y16536167D01*
X-11713200Y16536167D01*
X-11713200Y14938084D01*
X-13321867Y14938084D01*
X-13321867Y16007000D01*
X-12782117Y16007000D01*
X-12782117Y15488417D01*
X-12263534Y15488417D01*
X-12263534Y16007000D01*
X-12782117Y16007000D01*
X-13321867Y16007000D01*
X-13321867Y16546750D01*
X-11723784Y16546750D01*
X-11723784Y17086500D01*
X-11194617Y17086500D01*
X-11194617Y17615667D01*
X-10644284Y17615667D01*
X-10644284Y17075917D01*
G37*
X-11194617Y21891334D02*
X-10654867Y21891334D01*
X-10654867Y22960250D01*
X-10125700Y22960250D01*
X-10125700Y24018584D01*
X-9056784Y24018584D01*
X-9056784Y24558334D01*
X-7987867Y24558334D01*
X-7987867Y25087500D01*
X-6379200Y25087500D01*
X-6379200Y24558334D01*
X-5310284Y24558334D01*
X-5310284Y24018584D01*
X-4241367Y24018584D01*
X-4241367Y22960250D01*
X-3712200Y22960250D01*
X-3712200Y21891334D01*
X-3172450Y21891334D01*
X-3172450Y20282667D01*
X-3712200Y20282667D01*
X-3712200Y19213750D01*
X-4241367Y19213750D01*
X-4241367Y18144834D01*
X-5310284Y18144834D01*
X-5310284Y17605084D01*
X-6379200Y17605084D01*
X-6379200Y17075917D01*
X-7987867Y17075917D01*
X-7987867Y17605084D01*
X-9056784Y17605084D01*
X-9056784Y18144834D01*
X-10125700Y18144834D01*
X-10125700Y19213750D01*
X-10654867Y19213750D01*
X-10654867Y20282667D01*
X-10644284Y20282667D01*
X-10115117Y20282667D01*
X-10115117Y19224697D01*
X-9847888Y19221870D01*
X-9580659Y19219042D01*
X-9577831Y18951813D01*
X-9575004Y18684584D01*
X-9046200Y18684584D01*
X-9046200Y18155417D01*
X-7977284Y18155417D01*
X-7977284Y17615667D01*
X-6389784Y17615667D01*
X-6389784Y18155417D01*
X-5320867Y18155417D01*
X-5320867Y18684584D01*
X-4781117Y18684584D01*
X-4781117Y19224334D01*
X-4251950Y19224334D01*
X-4251950Y20282667D01*
X-3722784Y20282667D01*
X-3722784Y21880750D01*
X-4251950Y21880750D01*
X-4251950Y22949667D01*
X-4781117Y22949667D01*
X-4781117Y23478834D01*
X-5320867Y23478834D01*
X-5320867Y24018584D01*
X-6389784Y24018584D01*
X-6389784Y24547750D01*
X-7977284Y24547750D01*
X-7977284Y24018584D01*
X-9046200Y24018584D01*
X-9046200Y23478834D01*
X-9575367Y23478834D01*
X-9575367Y22949667D01*
X-10115117Y22949667D01*
X-10115117Y21880750D01*
X-10644284Y21880750D01*
X-10644284Y20282667D01*
X-10654867Y20282667D01*
X-11194617Y20282667D01*
X-11194617Y21880750D01*
X-11194617Y21891334D01*
G36*
X-11194617Y21891334D02*
G01*
X-10654867Y21891334D01*
X-10654867Y22960250D01*
X-10125700Y22960250D01*
X-10125700Y24018584D01*
X-9056784Y24018584D01*
X-9056784Y24558334D01*
X-7987867Y24558334D01*
X-7987867Y25087500D01*
X-6379200Y25087500D01*
X-6379200Y24558334D01*
X-5310284Y24558334D01*
X-5310284Y24018584D01*
X-4241367Y24018584D01*
X-4241367Y22960250D01*
X-3712200Y22960250D01*
X-3712200Y21891334D01*
X-3172450Y21891334D01*
X-3172450Y20282667D01*
X-3712200Y20282667D01*
X-3712200Y19213750D01*
X-4241367Y19213750D01*
X-4241367Y18144834D01*
X-5310284Y18144834D01*
X-5310284Y17605084D01*
X-6379200Y17605084D01*
X-6379200Y17075917D01*
X-7987867Y17075917D01*
X-7987867Y17605084D01*
X-9056784Y17605084D01*
X-9056784Y18144834D01*
X-10125700Y18144834D01*
X-10125700Y19213750D01*
X-10654867Y19213750D01*
X-10654867Y20282667D01*
X-10644284Y20282667D01*
X-10115117Y20282667D01*
X-10115117Y19224697D01*
X-9847888Y19221870D01*
X-9580659Y19219042D01*
X-9577831Y18951813D01*
X-9575004Y18684584D01*
X-9046200Y18684584D01*
X-9046200Y18155417D01*
X-7977284Y18155417D01*
X-7977284Y17615667D01*
X-6389784Y17615667D01*
X-6389784Y18155417D01*
X-5320867Y18155417D01*
X-5320867Y18684584D01*
X-4781117Y18684584D01*
X-4781117Y19224334D01*
X-4251950Y19224334D01*
X-4251950Y20282667D01*
X-3722784Y20282667D01*
X-3722784Y21880750D01*
X-4251950Y21880750D01*
X-4251950Y22949667D01*
X-4781117Y22949667D01*
X-4781117Y23478834D01*
X-5320867Y23478834D01*
X-5320867Y24018584D01*
X-6389784Y24018584D01*
X-6389784Y24547750D01*
X-7977284Y24547750D01*
X-7977284Y24018584D01*
X-9046200Y24018584D01*
X-9046200Y23478834D01*
X-9575367Y23478834D01*
X-9575367Y22949667D01*
X-10115117Y22949667D01*
X-10115117Y21880750D01*
X-10644284Y21880750D01*
X-10644284Y20282667D01*
X-10654867Y20282667D01*
X-11194617Y20282667D01*
X-11194617Y21880750D01*
X-11194617Y21891334D01*
G37*
X1664133Y22431084D02*
X-494867Y22431084D01*
X-494867Y21362361D01*
X579341Y21356875D01*
X582166Y21084355D01*
X584990Y20811834D01*
X-494867Y20811834D01*
X-494867Y19742917D01*
X1664133Y19742917D01*
X1664133Y19192584D01*
X-1584950Y19192584D01*
X-1584950Y22970834D01*
X1664133Y22970834D01*
X1664133Y22431084D01*
G36*
X1664133Y22431084D02*
G01*
X-494867Y22431084D01*
X-494867Y21362361D01*
X579341Y21356875D01*
X582166Y21084355D01*
X584990Y20811834D01*
X-494867Y20811834D01*
X-494867Y19742917D01*
X1664133Y19742917D01*
X1664133Y19192584D01*
X-1584950Y19192584D01*
X-1584950Y22970834D01*
X1664133Y22970834D01*
X1664133Y22431084D01*
G37*
X5442383Y22431084D02*
X5971550Y22431084D01*
X5971550Y21351584D01*
X5442383Y21351584D01*
X5442383Y20811834D01*
X4902633Y20811834D01*
X4902633Y20283031D01*
X5437091Y20277375D01*
X5439919Y20010146D01*
X5442746Y19742917D01*
X5971550Y19742917D01*
X5971550Y19192584D01*
X4892050Y19192584D01*
X4892050Y19732334D01*
X4352300Y19732334D01*
X4352300Y20272084D01*
X3823133Y20272084D01*
X3823133Y19192584D01*
X2733050Y19192584D01*
X2733050Y22431084D01*
X3823133Y22431084D01*
X3823133Y21362167D01*
X4892050Y21362167D01*
X4892050Y22431084D01*
X3823133Y22431084D01*
X2733050Y22431084D01*
X2733050Y22970834D01*
X5442383Y22970834D01*
X5442383Y22431084D01*
G36*
X5442383Y22431084D02*
G01*
X5971550Y22431084D01*
X5971550Y21351584D01*
X5442383Y21351584D01*
X5442383Y20811834D01*
X4902633Y20811834D01*
X4902633Y20283031D01*
X5437091Y20277375D01*
X5439919Y20010146D01*
X5442746Y19742917D01*
X5971550Y19742917D01*
X5971550Y19192584D01*
X4892050Y19192584D01*
X4892050Y19732334D01*
X4352300Y19732334D01*
X4352300Y20272084D01*
X3823133Y20272084D01*
X3823133Y19192584D01*
X2733050Y19192584D01*
X2733050Y22431084D01*
X3823133Y22431084D01*
X3823133Y21362167D01*
X4892050Y21362167D01*
X4892050Y22431084D01*
X3823133Y22431084D01*
X2733050Y22431084D01*
X2733050Y22970834D01*
X5442383Y22970834D01*
X5442383Y22431084D01*
G37*
X8130550Y22431084D02*
X8670300Y22431084D01*
X8670300Y21891334D01*
X9199466Y21891334D01*
X9199466Y22970834D01*
X10289550Y22970834D01*
X10289550Y19192584D01*
X9199466Y19192584D01*
X9199466Y20272084D01*
X8659716Y20272084D01*
X8659716Y20811834D01*
X8130550Y20811834D01*
X8130550Y19192584D01*
X7051050Y19192584D01*
X7051050Y22970834D01*
X8130550Y22970834D01*
X8130550Y22431084D01*
G36*
X8130550Y22431084D02*
G01*
X8670300Y22431084D01*
X8670300Y21891334D01*
X9199466Y21891334D01*
X9199466Y22970834D01*
X10289550Y22970834D01*
X10289550Y19192584D01*
X9199466Y19192584D01*
X9199466Y20272084D01*
X8659716Y20272084D01*
X8659716Y20811834D01*
X8130550Y20811834D01*
X8130550Y19192584D01*
X7051050Y19192584D01*
X7051050Y22970834D01*
X8130550Y22970834D01*
X8130550Y22431084D01*
G37*
X12448550Y20822417D02*
X12977353Y20822417D01*
X12980180Y21089646D01*
X12983008Y21356875D01*
X13522758Y21356875D01*
X13525585Y21089646D01*
X13528413Y20822417D01*
X14057216Y20822417D01*
X14057216Y22970834D01*
X15147300Y22970834D01*
X15147300Y19192584D01*
X14057216Y19192584D01*
X14057216Y19732334D01*
X13517466Y19732334D01*
X13517466Y20272084D01*
X12988300Y20272084D01*
X12988300Y19732334D01*
X12448550Y19732334D01*
X12448550Y19192584D01*
X11358466Y19192584D01*
X11358466Y22970834D01*
X12448550Y22970834D01*
X12448550Y20822417D01*
G36*
X12448550Y20822417D02*
G01*
X12977353Y20822417D01*
X12980180Y21089646D01*
X12983008Y21356875D01*
X13522758Y21356875D01*
X13525585Y21089646D01*
X13528413Y20822417D01*
X14057216Y20822417D01*
X14057216Y22970834D01*
X15147300Y22970834D01*
X15147300Y19192584D01*
X14057216Y19192584D01*
X14057216Y19732334D01*
X13517466Y19732334D01*
X13517466Y20272084D01*
X12988300Y20272084D01*
X12988300Y19732334D01*
X12448550Y19732334D01*
X12448550Y19192584D01*
X11358466Y19192584D01*
X11358466Y22970834D01*
X12448550Y22970834D01*
X12448550Y20822417D01*
G37*
X-15166013Y22428505D02*
X-14364325Y22425792D01*
X-14361498Y22158563D01*
X-14358670Y21891334D01*
X-13829867Y21891334D01*
X-13829867Y21362167D01*
X-11692034Y21362167D01*
X-11692034Y20811834D01*
X-13829867Y20811834D01*
X-13829867Y20282667D01*
X-14359034Y20282667D01*
X-14359034Y19753500D01*
X-15967700Y19753500D01*
X-15967700Y20282667D01*
X-16507450Y20282667D01*
X-16507450Y21880750D01*
X-15967700Y21880750D01*
X-15967700Y20293250D01*
X-14369617Y20293250D01*
X-14369617Y21880750D01*
X-15967700Y21880750D01*
X-16507450Y21880750D01*
X-16507450Y21891334D01*
X-15967700Y21891334D01*
X-15967700Y22431217D01*
X-15166013Y22428505D01*
G36*
X-15166013Y22428505D02*
G01*
X-14364325Y22425792D01*
X-14361498Y22158563D01*
X-14358670Y21891334D01*
X-13829867Y21891334D01*
X-13829867Y21362167D01*
X-11692034Y21362167D01*
X-11692034Y20811834D01*
X-13829867Y20811834D01*
X-13829867Y20282667D01*
X-14359034Y20282667D01*
X-14359034Y19753500D01*
X-15967700Y19753500D01*
X-15967700Y20282667D01*
X-16507450Y20282667D01*
X-16507450Y21880750D01*
X-15967700Y21880750D01*
X-15967700Y20293250D01*
X-14369617Y20293250D01*
X-14369617Y21880750D01*
X-15967700Y21880750D01*
X-16507450Y21880750D01*
X-16507450Y21891334D01*
X-15967700Y21891334D01*
X-15967700Y22431217D01*
X-15166013Y22428505D01*
G37*
X-4072034Y31077667D02*
X-3542867Y31077667D01*
X-3542867Y31606834D01*
X-3003117Y31606834D01*
X-3003117Y32146621D01*
X5195Y32143956D01*
X3013508Y32141292D01*
X3016335Y31874063D01*
X3019163Y31606834D01*
X3547966Y31606834D01*
X3547966Y31077667D01*
X4087716Y31077667D01*
X4087716Y27511084D01*
X3547966Y27511084D01*
X3547966Y26981917D01*
X3019163Y26981917D01*
X3016335Y26714688D01*
X3013508Y26447459D01*
X5195Y26444795D01*
X-3003117Y26442130D01*
X-3003117Y26981917D01*
X-3542867Y26981917D01*
X-3542867Y27511084D01*
X-4072034Y27511084D01*
X-4072034Y27521667D01*
X-3532284Y27521667D01*
X-2992534Y27521667D01*
X-2992534Y26992500D01*
X3008216Y26992500D01*
X3008216Y27521667D01*
X3537383Y27521667D01*
X3537383Y31067084D01*
X3008216Y31067084D01*
X3008216Y31596250D01*
X-2992534Y31596250D01*
X-2992534Y31067084D01*
X-3532284Y31067084D01*
X-3532284Y27521667D01*
X-4072034Y27521667D01*
X-4072034Y31067084D01*
X-4072034Y31077667D01*
G36*
X-4072034Y31077667D02*
G01*
X-3542867Y31077667D01*
X-3542867Y31606834D01*
X-3003117Y31606834D01*
X-3003117Y32146621D01*
X5195Y32143956D01*
X3013508Y32141292D01*
X3016335Y31874063D01*
X3019163Y31606834D01*
X3547966Y31606834D01*
X3547966Y31077667D01*
X4087716Y31077667D01*
X4087716Y27511084D01*
X3547966Y27511084D01*
X3547966Y26981917D01*
X3019163Y26981917D01*
X3016335Y26714688D01*
X3013508Y26447459D01*
X5195Y26444795D01*
X-3003117Y26442130D01*
X-3003117Y26981917D01*
X-3542867Y26981917D01*
X-3542867Y27511084D01*
X-4072034Y27511084D01*
X-4072034Y27521667D01*
X-3532284Y27521667D01*
X-2992534Y27521667D01*
X-2992534Y26992500D01*
X3008216Y26992500D01*
X3008216Y27521667D01*
X3537383Y27521667D01*
X3537383Y31067084D01*
X3008216Y31067084D01*
X3008216Y31596250D01*
X-2992534Y31596250D01*
X-2992534Y31067084D01*
X-3532284Y31067084D01*
X-3532284Y27521667D01*
X-4072034Y27521667D01*
X-4072034Y31067084D01*
X-4072034Y31077667D01*
G37*
X-1606117Y34316167D02*
X-1341534Y34316167D01*
X-1341534Y34030060D01*
X-1614055Y34032884D01*
X-1886575Y34035709D01*
X-1889538Y34170646D01*
X-1892500Y34305584D01*
X-2421034Y34305584D01*
X-2421034Y33776417D01*
X-1606117Y33776417D01*
X-1606117Y33501250D01*
X-1341534Y33501250D01*
X-1341534Y32961500D01*
X-1606117Y32961500D01*
X-1606117Y32686334D01*
X-2696200Y32686334D01*
X-2696200Y32961500D01*
X-2960784Y32961500D01*
X-2960784Y33236667D01*
X-2421034Y33236667D01*
X-2421034Y32961500D01*
X-1891867Y32961500D01*
X-1891867Y33490413D01*
X-2690909Y33495959D01*
X-2693871Y33630896D01*
X-2696833Y33765834D01*
X-2960784Y33765834D01*
X-2960784Y34316167D01*
X-2696200Y34316167D01*
X-2696200Y34580750D01*
X-1606117Y34580750D01*
X-1606117Y34316167D01*
G36*
X-1606117Y34316167D02*
G01*
X-1341534Y34316167D01*
X-1341534Y34030060D01*
X-1614055Y34032884D01*
X-1886575Y34035709D01*
X-1889538Y34170646D01*
X-1892500Y34305584D01*
X-2421034Y34305584D01*
X-2421034Y33776417D01*
X-1606117Y33776417D01*
X-1606117Y33501250D01*
X-1341534Y33501250D01*
X-1341534Y32961500D01*
X-1606117Y32961500D01*
X-1606117Y32686334D01*
X-2696200Y32686334D01*
X-2696200Y32961500D01*
X-2960784Y32961500D01*
X-2960784Y33236667D01*
X-2421034Y33236667D01*
X-2421034Y32961500D01*
X-1891867Y32961500D01*
X-1891867Y33490413D01*
X-2690909Y33495959D01*
X-2693871Y33630896D01*
X-2696833Y33765834D01*
X-2960784Y33765834D01*
X-2960784Y34316167D01*
X-2696200Y34316167D01*
X-2696200Y34580750D01*
X-1606117Y34580750D01*
X-1606117Y34316167D01*
G37*
X277716Y34316167D02*
X552883Y34316167D01*
X552883Y34041000D01*
X817466Y34041000D01*
X817466Y32686334D01*
X267133Y32686334D01*
X267133Y33490667D01*
X-262034Y33490667D01*
X-262034Y32686334D01*
X-812367Y32686334D01*
X-812367Y34030417D01*
X-262034Y34030417D01*
X-262034Y33776417D01*
X267133Y33776417D01*
X267133Y34030417D01*
X-262034Y34030417D01*
X-812367Y34030417D01*
X-812367Y34041000D01*
X-537200Y34041000D01*
X-537200Y34316167D01*
X-272617Y34316167D01*
X-272617Y34580750D01*
X277716Y34580750D01*
X277716Y34316167D01*
G36*
X277716Y34316167D02*
G01*
X552883Y34316167D01*
X552883Y34041000D01*
X817466Y34041000D01*
X817466Y32686334D01*
X267133Y32686334D01*
X267133Y33490667D01*
X-262034Y33490667D01*
X-262034Y32686334D01*
X-812367Y32686334D01*
X-812367Y34030417D01*
X-262034Y34030417D01*
X-262034Y33776417D01*
X267133Y33776417D01*
X267133Y34030417D01*
X-262034Y34030417D01*
X-812367Y34030417D01*
X-812367Y34041000D01*
X-537200Y34041000D01*
X-537200Y34316167D01*
X-272617Y34316167D01*
X-272617Y34580750D01*
X277716Y34580750D01*
X277716Y34316167D01*
G37*
X2711883Y34316167D02*
X2976466Y34316167D01*
X2976466Y32961500D01*
X2711883Y32961500D01*
X2711883Y32686334D01*
X1621800Y32686334D01*
X1621800Y32961500D01*
X1346633Y32961500D01*
X1346633Y34305584D01*
X1896966Y34305584D01*
X1896966Y32961500D01*
X2426133Y32961500D01*
X2426133Y34305584D01*
X1896966Y34305584D01*
X1346633Y34305584D01*
X1346633Y34316167D01*
X1621800Y34316167D01*
X1621800Y34580750D01*
X2711883Y34580750D01*
X2711883Y34316167D01*
G36*
X2711883Y34316167D02*
G01*
X2976466Y34316167D01*
X2976466Y32961500D01*
X2711883Y32961500D01*
X2711883Y32686334D01*
X1621800Y32686334D01*
X1621800Y32961500D01*
X1346633Y32961500D01*
X1346633Y34305584D01*
X1896966Y34305584D01*
X1896966Y32961500D01*
X2426133Y32961500D01*
X2426133Y34305584D01*
X1896966Y34305584D01*
X1346633Y34305584D01*
X1346633Y34316167D01*
X1621800Y34316167D01*
X1621800Y34580750D01*
X2711883Y34580750D01*
X2711883Y34316167D01*
G37*
X-31451117Y45195834D02*
X-30911367Y45195834D01*
X-30911367Y45725000D01*
X-30382200Y45725000D01*
X-30382200Y46264750D01*
X-23968700Y46264750D01*
X-23968700Y45725000D01*
X-23439534Y45725000D01*
X-23439534Y45195834D01*
X-22910367Y45195834D01*
X-22910367Y37713417D01*
X-23439170Y37713417D01*
X-23441998Y37446188D01*
X-23444825Y37178959D01*
X-23706763Y37176128D01*
X-23968700Y37173297D01*
X-23968700Y36644500D01*
X-30382200Y36644500D01*
X-30382200Y37173667D01*
X-30911367Y37173667D01*
X-30911367Y37713417D01*
X-31451117Y37713417D01*
X-31451117Y37724000D01*
X-30900784Y37724000D01*
X-30371617Y37724000D01*
X-30371617Y37184250D01*
X-23989867Y37184250D01*
X-23989867Y37724000D01*
X-23450117Y37724000D01*
X-23450117Y45185250D01*
X-23989867Y45185250D01*
X-23989867Y45714417D01*
X-30371617Y45714417D01*
X-30371617Y45185250D01*
X-30900784Y45185250D01*
X-30900784Y37724000D01*
X-31451117Y37724000D01*
X-31451117Y45185250D01*
X-31451117Y45195834D01*
G36*
X-31451117Y45195834D02*
G01*
X-30911367Y45195834D01*
X-30911367Y45725000D01*
X-30382200Y45725000D01*
X-30382200Y46264750D01*
X-23968700Y46264750D01*
X-23968700Y45725000D01*
X-23439534Y45725000D01*
X-23439534Y45195834D01*
X-22910367Y45195834D01*
X-22910367Y37713417D01*
X-23439170Y37713417D01*
X-23441998Y37446188D01*
X-23444825Y37178959D01*
X-23706763Y37176128D01*
X-23968700Y37173297D01*
X-23968700Y36644500D01*
X-30382200Y36644500D01*
X-30382200Y37173667D01*
X-30911367Y37173667D01*
X-30911367Y37713417D01*
X-31451117Y37713417D01*
X-31451117Y37724000D01*
X-30900784Y37724000D01*
X-30371617Y37724000D01*
X-30371617Y37184250D01*
X-23989867Y37184250D01*
X-23989867Y37724000D01*
X-23450117Y37724000D01*
X-23450117Y45185250D01*
X-23989867Y45185250D01*
X-23989867Y45714417D01*
X-30371617Y45714417D01*
X-30371617Y45185250D01*
X-30900784Y45185250D01*
X-30900784Y37724000D01*
X-31451117Y37724000D01*
X-31451117Y45185250D01*
X-31451117Y45195834D01*
G37*
X-22381200Y45195834D02*
X-21852034Y45195834D01*
X-21852034Y45725000D01*
X-21323231Y45725000D01*
X-21320403Y45992230D01*
X-21317575Y46259459D01*
X-14909367Y46264785D01*
X-14909367Y45725000D01*
X-14380200Y45725000D01*
X-14380200Y45195834D01*
X-13851034Y45195834D01*
X-13851034Y37713417D01*
X-14379837Y37713417D01*
X-14382665Y37446188D01*
X-14385492Y37178959D01*
X-14647430Y37176128D01*
X-14909367Y37173297D01*
X-14909367Y36644500D01*
X-21322867Y36644500D01*
X-21322867Y37173297D01*
X-21584805Y37176128D01*
X-21846742Y37178959D01*
X-21849570Y37446188D01*
X-21852397Y37713417D01*
X-22381200Y37713417D01*
X-22381200Y37724000D01*
X-21841450Y37724000D01*
X-21312284Y37724000D01*
X-21312284Y37184250D01*
X-14930897Y37184250D01*
X-14928070Y37451480D01*
X-14925242Y37718709D01*
X-14658013Y37721536D01*
X-14390784Y37724364D01*
X-14390784Y45184887D01*
X-14658013Y45187715D01*
X-14925242Y45190542D01*
X-14928073Y45452480D01*
X-14930904Y45714417D01*
X-21312284Y45714417D01*
X-21312284Y45185250D01*
X-21841450Y45185250D01*
X-21841450Y37724000D01*
X-22381200Y37724000D01*
X-22381200Y45185250D01*
X-22381200Y45195834D01*
G36*
X-22381200Y45195834D02*
G01*
X-21852034Y45195834D01*
X-21852034Y45725000D01*
X-21323231Y45725000D01*
X-21320403Y45992230D01*
X-21317575Y46259459D01*
X-14909367Y46264785D01*
X-14909367Y45725000D01*
X-14380200Y45725000D01*
X-14380200Y45195834D01*
X-13851034Y45195834D01*
X-13851034Y37713417D01*
X-14379837Y37713417D01*
X-14382665Y37446188D01*
X-14385492Y37178959D01*
X-14647430Y37176128D01*
X-14909367Y37173297D01*
X-14909367Y36644500D01*
X-21322867Y36644500D01*
X-21322867Y37173297D01*
X-21584805Y37176128D01*
X-21846742Y37178959D01*
X-21849570Y37446188D01*
X-21852397Y37713417D01*
X-22381200Y37713417D01*
X-22381200Y37724000D01*
X-21841450Y37724000D01*
X-21312284Y37724000D01*
X-21312284Y37184250D01*
X-14930897Y37184250D01*
X-14928070Y37451480D01*
X-14925242Y37718709D01*
X-14658013Y37721536D01*
X-14390784Y37724364D01*
X-14390784Y45184887D01*
X-14658013Y45187715D01*
X-14925242Y45190542D01*
X-14928073Y45452480D01*
X-14930904Y45714417D01*
X-21312284Y45714417D01*
X-21312284Y45185250D01*
X-21841450Y45185250D01*
X-21841450Y37724000D01*
X-22381200Y37724000D01*
X-22381200Y45185250D01*
X-22381200Y45195834D01*
G37*
X-13321867Y45195834D02*
X-12792700Y45195834D01*
X-12792700Y45725000D01*
X-12252950Y45725000D01*
X-12252950Y46264750D01*
X12279216Y46264750D01*
X12279216Y45725000D01*
X12797800Y45725000D01*
X12797800Y45195834D01*
X13337550Y45195834D01*
X13337550Y37713417D01*
X12797800Y37713417D01*
X12797800Y37173667D01*
X12279586Y37173667D01*
X12276755Y36911730D01*
X12273925Y36649792D01*
X5195Y36647142D01*
X-12263534Y36644491D01*
X-12263534Y37173297D01*
X-12525471Y37176128D01*
X-12787409Y37178959D01*
X-12790236Y37446188D01*
X-12793064Y37713417D01*
X-13321867Y37713417D01*
X-13321867Y37724000D01*
X-12782117Y37724000D01*
X-12252950Y37724000D01*
X-12252950Y37184250D01*
X12258050Y37184250D01*
X12258050Y37724000D01*
X12797800Y37724000D01*
X12797800Y45185250D01*
X12258050Y45185250D01*
X12258050Y45714417D01*
X-12252950Y45714417D01*
X-12252950Y45185250D01*
X-12782117Y45185250D01*
X-12782117Y37724000D01*
X-13321867Y37724000D01*
X-13321867Y45185250D01*
X-13321867Y45195834D01*
G36*
X-13321867Y45195834D02*
G01*
X-12792700Y45195834D01*
X-12792700Y45725000D01*
X-12252950Y45725000D01*
X-12252950Y46264750D01*
X12279216Y46264750D01*
X12279216Y45725000D01*
X12797800Y45725000D01*
X12797800Y45195834D01*
X13337550Y45195834D01*
X13337550Y37713417D01*
X12797800Y37713417D01*
X12797800Y37173667D01*
X12279586Y37173667D01*
X12276755Y36911730D01*
X12273925Y36649792D01*
X5195Y36647142D01*
X-12263534Y36644491D01*
X-12263534Y37173297D01*
X-12525471Y37176128D01*
X-12787409Y37178959D01*
X-12790236Y37446188D01*
X-12793064Y37713417D01*
X-13321867Y37713417D01*
X-13321867Y37724000D01*
X-12782117Y37724000D01*
X-12252950Y37724000D01*
X-12252950Y37184250D01*
X12258050Y37184250D01*
X12258050Y37724000D01*
X12797800Y37724000D01*
X12797800Y45185250D01*
X12258050Y45185250D01*
X12258050Y45714417D01*
X-12252950Y45714417D01*
X-12252950Y45185250D01*
X-12782117Y45185250D01*
X-12782117Y37724000D01*
X-13321867Y37724000D01*
X-13321867Y45185250D01*
X-13321867Y45195834D01*
G37*
X13856133Y45195834D02*
X14395883Y45195834D01*
X14395883Y45725000D01*
X14925050Y45725000D01*
X14925050Y46264750D01*
X21338550Y46264750D01*
X21338550Y45725000D01*
X21867716Y45725000D01*
X21867716Y45195834D01*
X22396883Y45195834D01*
X22396883Y37713417D01*
X21868080Y37713417D01*
X21865252Y37446188D01*
X21862425Y37178959D01*
X21600487Y37176128D01*
X21338550Y37173297D01*
X21338550Y36644500D01*
X14925050Y36644500D01*
X14925050Y37173667D01*
X14395883Y37173667D01*
X14395883Y37713417D01*
X13856133Y37713417D01*
X13856133Y37724000D01*
X14406466Y37724000D01*
X14935633Y37724000D01*
X14935633Y37184250D01*
X21317383Y37184250D01*
X21317383Y37724000D01*
X21857133Y37724000D01*
X21857133Y45185250D01*
X21327966Y45185250D01*
X21327966Y41449334D01*
X16523133Y41449334D01*
X16523133Y41989084D01*
X15983383Y41989084D01*
X15983383Y42518250D01*
X15454216Y42518250D01*
X15454216Y43047054D01*
X15186987Y43049881D01*
X14919758Y43052709D01*
X14919758Y43058000D01*
X15464800Y43058000D01*
X15993966Y43058000D01*
X15993966Y42528834D01*
X16533716Y42528834D01*
X16533716Y41989084D01*
X17581466Y41989084D01*
X18121216Y41989084D01*
X19719300Y41989084D01*
X19719300Y42528834D01*
X20259050Y42528834D01*
X20259050Y41989084D01*
X20788216Y41989084D01*
X20788216Y44656084D01*
X20259050Y44656084D01*
X20259050Y44116334D01*
X19719300Y44116334D01*
X19719300Y44656084D01*
X18131800Y44656084D01*
X18131800Y44126917D01*
X18650383Y44126917D01*
X18650383Y43597750D01*
X19168966Y43597750D01*
X19168966Y44126917D01*
X19708716Y44126917D01*
X19708716Y43587167D01*
X19179550Y43587167D01*
X19179550Y43058000D01*
X19708716Y43058000D01*
X19708716Y42518250D01*
X19168966Y42518250D01*
X19168966Y43047417D01*
X18650383Y43047417D01*
X18650383Y42518250D01*
X18121216Y42518250D01*
X18121216Y41989084D01*
X17581466Y41989084D01*
X17581466Y42518250D01*
X17581466Y42528834D01*
X18110633Y42528834D01*
X18110633Y43058000D01*
X18639800Y43058000D01*
X18639800Y43587167D01*
X18110633Y43587167D01*
X18110633Y44116334D01*
X17592050Y44116334D01*
X17592050Y44656084D01*
X16523133Y44656084D01*
X16523133Y44116334D01*
X15993966Y44116334D01*
X15993966Y43587167D01*
X15464800Y43587167D01*
X15464800Y43058000D01*
X14919758Y43058000D01*
X14919758Y43587167D01*
X14919758Y43592459D01*
X15186987Y43595286D01*
X15454216Y43598114D01*
X15454216Y44126917D01*
X15983383Y44126917D01*
X15983383Y44656084D01*
X16523133Y44656084D01*
X16523133Y45195834D01*
X21317383Y45195834D01*
X21317383Y45714417D01*
X14935633Y45714417D01*
X14935633Y45185250D01*
X14406466Y45185250D01*
X14406466Y37724000D01*
X13856133Y37724000D01*
X13856133Y45185250D01*
X13856133Y45195834D01*
G36*
X13856133Y45195834D02*
G01*
X14395883Y45195834D01*
X14395883Y45725000D01*
X14925050Y45725000D01*
X14925050Y46264750D01*
X21338550Y46264750D01*
X21338550Y45725000D01*
X21867716Y45725000D01*
X21867716Y45195834D01*
X22396883Y45195834D01*
X22396883Y37713417D01*
X21868080Y37713417D01*
X21865252Y37446188D01*
X21862425Y37178959D01*
X21600487Y37176128D01*
X21338550Y37173297D01*
X21338550Y36644500D01*
X14925050Y36644500D01*
X14925050Y37173667D01*
X14395883Y37173667D01*
X14395883Y37713417D01*
X13856133Y37713417D01*
X13856133Y37724000D01*
X14406466Y37724000D01*
X14935633Y37724000D01*
X14935633Y37184250D01*
X21317383Y37184250D01*
X21317383Y37724000D01*
X21857133Y37724000D01*
X21857133Y45185250D01*
X21327966Y45185250D01*
X21327966Y41449334D01*
X16523133Y41449334D01*
X16523133Y41989084D01*
X15983383Y41989084D01*
X15983383Y42518250D01*
X15454216Y42518250D01*
X15454216Y43047054D01*
X15186987Y43049881D01*
X14919758Y43052709D01*
X14919758Y43058000D01*
X15464800Y43058000D01*
X15993966Y43058000D01*
X15993966Y42528834D01*
X16533716Y42528834D01*
X16533716Y41989084D01*
X17581466Y41989084D01*
X18121216Y41989084D01*
X19719300Y41989084D01*
X19719300Y42528834D01*
X20259050Y42528834D01*
X20259050Y41989084D01*
X20788216Y41989084D01*
X20788216Y44656084D01*
X20259050Y44656084D01*
X20259050Y44116334D01*
X19719300Y44116334D01*
X19719300Y44656084D01*
X18131800Y44656084D01*
X18131800Y44126917D01*
X18650383Y44126917D01*
X18650383Y43597750D01*
X19168966Y43597750D01*
X19168966Y44126917D01*
X19708716Y44126917D01*
X19708716Y43587167D01*
X19179550Y43587167D01*
X19179550Y43058000D01*
X19708716Y43058000D01*
X19708716Y42518250D01*
X19168966Y42518250D01*
X19168966Y43047417D01*
X18650383Y43047417D01*
X18650383Y42518250D01*
X18121216Y42518250D01*
X18121216Y41989084D01*
X17581466Y41989084D01*
X17581466Y42518250D01*
X17581466Y42528834D01*
X18110633Y42528834D01*
X18110633Y43058000D01*
X18639800Y43058000D01*
X18639800Y43587167D01*
X18110633Y43587167D01*
X18110633Y44116334D01*
X17592050Y44116334D01*
X17592050Y44656084D01*
X16523133Y44656084D01*
X16523133Y44116334D01*
X15993966Y44116334D01*
X15993966Y43587167D01*
X15464800Y43587167D01*
X15464800Y43058000D01*
X14919758Y43058000D01*
X14919758Y43587167D01*
X14919758Y43592459D01*
X15186987Y43595286D01*
X15454216Y43598114D01*
X15454216Y44126917D01*
X15983383Y44126917D01*
X15983383Y44656084D01*
X16523133Y44656084D01*
X16523133Y45195834D01*
X21317383Y45195834D01*
X21317383Y45714417D01*
X14935633Y45714417D01*
X14935633Y45185250D01*
X14406466Y45185250D01*
X14406466Y37724000D01*
X13856133Y37724000D01*
X13856133Y45185250D01*
X13856133Y45195834D01*
G37*
X22926050Y45195834D02*
X23455216Y45195834D01*
X23455216Y45725000D01*
X23984019Y45725000D01*
X23986847Y45992230D01*
X23989675Y46259459D01*
X30397883Y46264785D01*
X30397883Y45725000D01*
X30927050Y45725000D01*
X30927050Y45195834D01*
X31456216Y45195834D01*
X31456216Y37713417D01*
X30927413Y37713417D01*
X30924585Y37446188D01*
X30921758Y37178959D01*
X30659820Y37176128D01*
X30397883Y37173297D01*
X30397883Y36644500D01*
X23984383Y36644500D01*
X23984383Y37173297D01*
X23722445Y37176128D01*
X23460508Y37178959D01*
X23457680Y37446188D01*
X23454853Y37713417D01*
X22926050Y37713417D01*
X22926050Y37724000D01*
X23465800Y37724000D01*
X23994966Y37724000D01*
X23994966Y37184250D01*
X30387300Y37184250D01*
X30387300Y37724000D01*
X30916466Y37724000D01*
X30916466Y45185250D01*
X30387300Y45185250D01*
X30387300Y45714417D01*
X23994966Y45714417D01*
X23994966Y45185250D01*
X23465800Y45185250D01*
X23465800Y37724000D01*
X22926050Y37724000D01*
X22926050Y45185250D01*
X22926050Y45195834D01*
G36*
X22926050Y45195834D02*
G01*
X23455216Y45195834D01*
X23455216Y45725000D01*
X23984019Y45725000D01*
X23986847Y45992230D01*
X23989675Y46259459D01*
X30397883Y46264785D01*
X30397883Y45725000D01*
X30927050Y45725000D01*
X30927050Y45195834D01*
X31456216Y45195834D01*
X31456216Y37713417D01*
X30927413Y37713417D01*
X30924585Y37446188D01*
X30921758Y37178959D01*
X30659820Y37176128D01*
X30397883Y37173297D01*
X30397883Y36644500D01*
X23984383Y36644500D01*
X23984383Y37173297D01*
X23722445Y37176128D01*
X23460508Y37178959D01*
X23457680Y37446188D01*
X23454853Y37713417D01*
X22926050Y37713417D01*
X22926050Y37724000D01*
X23465800Y37724000D01*
X23994966Y37724000D01*
X23994966Y37184250D01*
X30387300Y37184250D01*
X30387300Y37724000D01*
X30916466Y37724000D01*
X30916466Y45185250D01*
X30387300Y45185250D01*
X30387300Y45714417D01*
X23994966Y45714417D01*
X23994966Y45185250D01*
X23465800Y45185250D01*
X23465800Y37724000D01*
X22926050Y37724000D01*
X22926050Y45185250D01*
X22926050Y45195834D01*
G37*
X-35980784Y55609834D02*
X-35441034Y55609834D01*
X-35441034Y56139000D01*
X-34911867Y56139000D01*
X-34911867Y56678750D01*
X-28498367Y56678750D01*
X-28498367Y56139370D01*
X-28236430Y56136540D01*
X-27974492Y56133709D01*
X-27971661Y55871771D01*
X-27968831Y55609834D01*
X-27440034Y55609834D01*
X-27440034Y48127417D01*
X-27968837Y48127417D01*
X-27971665Y47860188D01*
X-27974492Y47592959D01*
X-28236430Y47590128D01*
X-28498367Y47587297D01*
X-28498367Y47058500D01*
X-34911867Y47058500D01*
X-34911867Y47587667D01*
X-35441034Y47587667D01*
X-35441034Y48127417D01*
X-35980784Y48127417D01*
X-35980784Y48138000D01*
X-35430450Y48138000D01*
X-34901284Y48138000D01*
X-34901284Y47598250D01*
X-28519534Y47598250D01*
X-28519534Y48138000D01*
X-27979784Y48138000D01*
X-27979784Y55599250D01*
X-28519534Y55599250D01*
X-28519534Y56128417D01*
X-34901284Y56128417D01*
X-34901284Y55599250D01*
X-35430450Y55599250D01*
X-35430450Y48138000D01*
X-35980784Y48138000D01*
X-35980784Y55599250D01*
X-35980784Y55609834D01*
G36*
X-35980784Y55609834D02*
G01*
X-35441034Y55609834D01*
X-35441034Y56139000D01*
X-34911867Y56139000D01*
X-34911867Y56678750D01*
X-28498367Y56678750D01*
X-28498367Y56139370D01*
X-28236430Y56136540D01*
X-27974492Y56133709D01*
X-27971661Y55871771D01*
X-27968831Y55609834D01*
X-27440034Y55609834D01*
X-27440034Y48127417D01*
X-27968837Y48127417D01*
X-27971665Y47860188D01*
X-27974492Y47592959D01*
X-28236430Y47590128D01*
X-28498367Y47587297D01*
X-28498367Y47058500D01*
X-34911867Y47058500D01*
X-34911867Y47587667D01*
X-35441034Y47587667D01*
X-35441034Y48127417D01*
X-35980784Y48127417D01*
X-35980784Y48138000D01*
X-35430450Y48138000D01*
X-34901284Y48138000D01*
X-34901284Y47598250D01*
X-28519534Y47598250D01*
X-28519534Y48138000D01*
X-27979784Y48138000D01*
X-27979784Y55599250D01*
X-28519534Y55599250D01*
X-28519534Y56128417D01*
X-34901284Y56128417D01*
X-34901284Y55599250D01*
X-35430450Y55599250D01*
X-35430450Y48138000D01*
X-35980784Y48138000D01*
X-35980784Y55599250D01*
X-35980784Y55609834D01*
G37*
X-26916159Y55604542D02*
X-26648930Y55607370D01*
X-26381700Y55610197D01*
X-26381700Y56139000D01*
X-25852534Y56139000D01*
X-25852534Y56678750D01*
X-19439034Y56678750D01*
X-19439034Y56139000D01*
X-18909867Y56139000D01*
X-18909867Y55609834D01*
X-18380700Y55609834D01*
X-18380700Y48127417D01*
X-18909504Y48127417D01*
X-18912331Y47860188D01*
X-18915159Y47592959D01*
X-19177096Y47590128D01*
X-19439034Y47587297D01*
X-19439034Y47058500D01*
X-25852534Y47058500D01*
X-25852534Y47587667D01*
X-26381700Y47587667D01*
X-26381700Y48127417D01*
X-26921480Y48127417D01*
X-26921472Y48138000D01*
X-26371117Y48138000D01*
X-25841950Y48138000D01*
X-25841950Y47598250D01*
X-19460564Y47598250D01*
X-19457736Y47865480D01*
X-19454909Y48132709D01*
X-19187680Y48135536D01*
X-18920450Y48138364D01*
X-18920450Y55599250D01*
X-19460200Y55599250D01*
X-19460200Y56128417D01*
X-25841950Y56128417D01*
X-25841950Y55599250D01*
X-26371117Y55599250D01*
X-26371117Y48138000D01*
X-26921472Y48138000D01*
X-26918819Y51865980D01*
X-26916163Y55599250D01*
X-26916159Y55604542D01*
G36*
X-26916159Y55604542D02*
G01*
X-26648930Y55607370D01*
X-26381700Y55610197D01*
X-26381700Y56139000D01*
X-25852534Y56139000D01*
X-25852534Y56678750D01*
X-19439034Y56678750D01*
X-19439034Y56139000D01*
X-18909867Y56139000D01*
X-18909867Y55609834D01*
X-18380700Y55609834D01*
X-18380700Y48127417D01*
X-18909504Y48127417D01*
X-18912331Y47860188D01*
X-18915159Y47592959D01*
X-19177096Y47590128D01*
X-19439034Y47587297D01*
X-19439034Y47058500D01*
X-25852534Y47058500D01*
X-25852534Y47587667D01*
X-26381700Y47587667D01*
X-26381700Y48127417D01*
X-26921480Y48127417D01*
X-26921472Y48138000D01*
X-26371117Y48138000D01*
X-25841950Y48138000D01*
X-25841950Y47598250D01*
X-19460564Y47598250D01*
X-19457736Y47865480D01*
X-19454909Y48132709D01*
X-19187680Y48135536D01*
X-18920450Y48138364D01*
X-18920450Y55599250D01*
X-19460200Y55599250D01*
X-19460200Y56128417D01*
X-25841950Y56128417D01*
X-25841950Y55599250D01*
X-26371117Y55599250D01*
X-26371117Y48138000D01*
X-26921472Y48138000D01*
X-26918819Y51865980D01*
X-26916163Y55599250D01*
X-26916159Y55604542D01*
G37*
X-17851534Y55609834D02*
X-17322367Y55609834D01*
X-17322367Y56139000D01*
X-16793564Y56139000D01*
X-16790736Y56406230D01*
X-16787909Y56673459D01*
X-10374409Y56673459D01*
X-10371581Y56406230D01*
X-10368754Y56139000D01*
X-9850534Y56139000D01*
X-9850534Y55609834D01*
X-9321367Y55609834D01*
X-9321367Y48127417D01*
X-9850534Y48127417D01*
X-9850534Y47587667D01*
X-10369117Y47587667D01*
X-10369117Y47058500D01*
X-13574103Y47058500D01*
X-13833243Y47058524D01*
X-14086908Y47058591D01*
X-14334279Y47058702D01*
X-14574541Y47058854D01*
X-14806878Y47059046D01*
X-15030472Y47059275D01*
X-15244507Y47059540D01*
X-15448167Y47059839D01*
X-15640634Y47060171D01*
X-15821092Y47060533D01*
X-15988725Y47060923D01*
X-16142716Y47061341D01*
X-16282248Y47061783D01*
X-16406505Y47062249D01*
X-16514670Y47062736D01*
X-16605927Y47063243D01*
X-16679458Y47063768D01*
X-16734448Y47064309D01*
X-16770079Y47064865D01*
X-16785536Y47065433D01*
X-16786145Y47065556D01*
X-16788104Y47077680D01*
X-16789854Y47107992D01*
X-16791316Y47153515D01*
X-16792410Y47211269D01*
X-16793057Y47278277D01*
X-16793200Y47330139D01*
X-16793200Y47587667D01*
X-17322367Y47587667D01*
X-17322367Y48127417D01*
X-17851534Y48127417D01*
X-17851534Y48138000D01*
X-17311784Y48138000D01*
X-16782617Y48138000D01*
X-16782617Y47598250D01*
X-10390284Y47598250D01*
X-10390284Y48138000D01*
X-9861117Y48138000D01*
X-9861117Y55599250D01*
X-10390284Y55599250D01*
X-10390284Y56128417D01*
X-16782617Y56128417D01*
X-16782617Y55599250D01*
X-17311784Y55599250D01*
X-17311784Y48138000D01*
X-17851534Y48138000D01*
X-17851534Y55599250D01*
X-17851534Y55609834D01*
G36*
X-17851534Y55609834D02*
G01*
X-17322367Y55609834D01*
X-17322367Y56139000D01*
X-16793564Y56139000D01*
X-16790736Y56406230D01*
X-16787909Y56673459D01*
X-10374409Y56673459D01*
X-10371581Y56406230D01*
X-10368754Y56139000D01*
X-9850534Y56139000D01*
X-9850534Y55609834D01*
X-9321367Y55609834D01*
X-9321367Y48127417D01*
X-9850534Y48127417D01*
X-9850534Y47587667D01*
X-10369117Y47587667D01*
X-10369117Y47058500D01*
X-13574103Y47058500D01*
X-13833243Y47058524D01*
X-14086908Y47058591D01*
X-14334279Y47058702D01*
X-14574541Y47058854D01*
X-14806878Y47059046D01*
X-15030472Y47059275D01*
X-15244507Y47059540D01*
X-15448167Y47059839D01*
X-15640634Y47060171D01*
X-15821092Y47060533D01*
X-15988725Y47060923D01*
X-16142716Y47061341D01*
X-16282248Y47061783D01*
X-16406505Y47062249D01*
X-16514670Y47062736D01*
X-16605927Y47063243D01*
X-16679458Y47063768D01*
X-16734448Y47064309D01*
X-16770079Y47064865D01*
X-16785536Y47065433D01*
X-16786145Y47065556D01*
X-16788104Y47077680D01*
X-16789854Y47107992D01*
X-16791316Y47153515D01*
X-16792410Y47211269D01*
X-16793057Y47278277D01*
X-16793200Y47330139D01*
X-16793200Y47587667D01*
X-17322367Y47587667D01*
X-17322367Y48127417D01*
X-17851534Y48127417D01*
X-17851534Y48138000D01*
X-17311784Y48138000D01*
X-16782617Y48138000D01*
X-16782617Y47598250D01*
X-10390284Y47598250D01*
X-10390284Y48138000D01*
X-9861117Y48138000D01*
X-9861117Y55599250D01*
X-10390284Y55599250D01*
X-10390284Y56128417D01*
X-16782617Y56128417D01*
X-16782617Y55599250D01*
X-17311784Y55599250D01*
X-17311784Y48138000D01*
X-17851534Y48138000D01*
X-17851534Y55599250D01*
X-17851534Y55609834D01*
G37*
X-8792200Y55609834D02*
X-8263034Y55609834D01*
X-8263034Y56139000D01*
X-7723284Y56139000D01*
X-7723284Y56678750D01*
X-1309784Y56678750D01*
X-1309784Y56139000D01*
X-791200Y56139000D01*
X-791200Y55610197D01*
X-523971Y55607370D01*
X-256742Y55604542D01*
X-254082Y51865980D01*
X-251421Y48127417D01*
X-791200Y48127417D01*
X-791200Y47587667D01*
X-1309784Y47587667D01*
X-1309784Y47058500D01*
X-7723284Y47058500D01*
X-7723284Y47587304D01*
X-7990513Y47590131D01*
X-8257742Y47592959D01*
X-8260570Y47860188D01*
X-8263397Y48127417D01*
X-8792200Y48127417D01*
X-8792200Y48138364D01*
X-8252450Y48138364D01*
X-7985221Y48135536D01*
X-7717992Y48132709D01*
X-7715165Y47865480D01*
X-7712337Y47598250D01*
X-1330950Y47598250D01*
X-1330950Y48138000D01*
X-801784Y48138000D01*
X-801784Y55599250D01*
X-1330950Y55599250D01*
X-1330950Y56128417D01*
X-7712700Y56128417D01*
X-7712700Y55599250D01*
X-8252450Y55599250D01*
X-8252450Y48138364D01*
X-8792200Y48138364D01*
X-8792200Y55599250D01*
X-8792200Y55609834D01*
G36*
X-8792200Y55609834D02*
G01*
X-8263034Y55609834D01*
X-8263034Y56139000D01*
X-7723284Y56139000D01*
X-7723284Y56678750D01*
X-1309784Y56678750D01*
X-1309784Y56139000D01*
X-791200Y56139000D01*
X-791200Y55610197D01*
X-523971Y55607370D01*
X-256742Y55604542D01*
X-254082Y51865980D01*
X-251421Y48127417D01*
X-791200Y48127417D01*
X-791200Y47587667D01*
X-1309784Y47587667D01*
X-1309784Y47058500D01*
X-7723284Y47058500D01*
X-7723284Y47587304D01*
X-7990513Y47590131D01*
X-8257742Y47592959D01*
X-8260570Y47860188D01*
X-8263397Y48127417D01*
X-8792200Y48127417D01*
X-8792200Y48138364D01*
X-8252450Y48138364D01*
X-7985221Y48135536D01*
X-7717992Y48132709D01*
X-7715165Y47865480D01*
X-7712337Y47598250D01*
X-1330950Y47598250D01*
X-1330950Y48138000D01*
X-801784Y48138000D01*
X-801784Y55599250D01*
X-1330950Y55599250D01*
X-1330950Y56128417D01*
X-7712700Y56128417D01*
X-7712700Y55599250D01*
X-8252450Y55599250D01*
X-8252450Y48138364D01*
X-8792200Y48138364D01*
X-8792200Y55599250D01*
X-8792200Y55609834D01*
G37*
X267133Y55609834D02*
X796300Y55609834D01*
X796300Y56139000D01*
X1336050Y56139000D01*
X1336050Y56678750D01*
X7749550Y56678750D01*
X7749550Y56139000D01*
X8268133Y56139000D01*
X8268133Y55609834D01*
X8807883Y55609834D01*
X8807883Y48127417D01*
X8268133Y48127417D01*
X8268133Y47587667D01*
X7749550Y47587667D01*
X7749550Y47058500D01*
X1336050Y47058500D01*
X1336050Y47587304D01*
X1068820Y47590131D01*
X801591Y47592959D01*
X798764Y47860188D01*
X795936Y48127417D01*
X267133Y48127417D01*
X267133Y48138000D01*
X806883Y48138000D01*
X1346633Y48138000D01*
X1346633Y47598250D01*
X7728383Y47598250D01*
X7728383Y48138000D01*
X8257550Y48138000D01*
X8257550Y55599250D01*
X7728383Y55599250D01*
X7728383Y56128417D01*
X1346633Y56128417D01*
X1346633Y55599250D01*
X806883Y55599250D01*
X806883Y48138000D01*
X267133Y48138000D01*
X267133Y55599250D01*
X267133Y55609834D01*
G36*
X267133Y55609834D02*
G01*
X796300Y55609834D01*
X796300Y56139000D01*
X1336050Y56139000D01*
X1336050Y56678750D01*
X7749550Y56678750D01*
X7749550Y56139000D01*
X8268133Y56139000D01*
X8268133Y55609834D01*
X8807883Y55609834D01*
X8807883Y48127417D01*
X8268133Y48127417D01*
X8268133Y47587667D01*
X7749550Y47587667D01*
X7749550Y47058500D01*
X1336050Y47058500D01*
X1336050Y47587304D01*
X1068820Y47590131D01*
X801591Y47592959D01*
X798764Y47860188D01*
X795936Y48127417D01*
X267133Y48127417D01*
X267133Y48138000D01*
X806883Y48138000D01*
X1346633Y48138000D01*
X1346633Y47598250D01*
X7728383Y47598250D01*
X7728383Y48138000D01*
X8257550Y48138000D01*
X8257550Y55599250D01*
X7728383Y55599250D01*
X7728383Y56128417D01*
X1346633Y56128417D01*
X1346633Y55599250D01*
X806883Y55599250D01*
X806883Y48138000D01*
X267133Y48138000D01*
X267133Y55599250D01*
X267133Y55609834D01*
G37*
X9326466Y55609834D02*
X9866216Y55609834D01*
X9866216Y56139000D01*
X10395383Y56139000D01*
X10395383Y56678750D01*
X16808883Y56678750D01*
X16808883Y56139000D01*
X17338050Y56139000D01*
X17338050Y55609834D01*
X17867216Y55609834D01*
X17867216Y48127417D01*
X17338413Y48127417D01*
X17335585Y47860188D01*
X17332758Y47592959D01*
X17070820Y47590128D01*
X16808883Y47587297D01*
X16808883Y47058500D01*
X10395383Y47058500D01*
X10395383Y47587667D01*
X9866216Y47587667D01*
X9866216Y48127417D01*
X9326466Y48127417D01*
X9326466Y48138000D01*
X9876800Y48138000D01*
X10405966Y48138000D01*
X10405966Y47598250D01*
X16787716Y47598250D01*
X16787716Y48138000D01*
X17327466Y48138000D01*
X17327466Y55599250D01*
X16787716Y55599250D01*
X16787716Y56128417D01*
X10405966Y56128417D01*
X10405966Y55599250D01*
X9876800Y55599250D01*
X9876800Y48138000D01*
X9326466Y48138000D01*
X9326466Y55599250D01*
X9326466Y55609834D01*
G36*
X9326466Y55609834D02*
G01*
X9866216Y55609834D01*
X9866216Y56139000D01*
X10395383Y56139000D01*
X10395383Y56678750D01*
X16808883Y56678750D01*
X16808883Y56139000D01*
X17338050Y56139000D01*
X17338050Y55609834D01*
X17867216Y55609834D01*
X17867216Y48127417D01*
X17338413Y48127417D01*
X17335585Y47860188D01*
X17332758Y47592959D01*
X17070820Y47590128D01*
X16808883Y47587297D01*
X16808883Y47058500D01*
X10395383Y47058500D01*
X10395383Y47587667D01*
X9866216Y47587667D01*
X9866216Y48127417D01*
X9326466Y48127417D01*
X9326466Y48138000D01*
X9876800Y48138000D01*
X10405966Y48138000D01*
X10405966Y47598250D01*
X16787716Y47598250D01*
X16787716Y48138000D01*
X17327466Y48138000D01*
X17327466Y55599250D01*
X16787716Y55599250D01*
X16787716Y56128417D01*
X10405966Y56128417D01*
X10405966Y55599250D01*
X9876800Y55599250D01*
X9876800Y48138000D01*
X9326466Y48138000D01*
X9326466Y55599250D01*
X9326466Y55609834D01*
G37*
X18391091Y55604542D02*
X18658320Y55607370D01*
X18925550Y55610197D01*
X18925550Y56139000D01*
X19454353Y56139000D01*
X19457180Y56406230D01*
X19460008Y56673459D01*
X25868216Y56678785D01*
X25868216Y56139000D01*
X26397383Y56139000D01*
X26397383Y55609834D01*
X26926550Y55609834D01*
X26926550Y48127417D01*
X26397746Y48127417D01*
X26394919Y47860188D01*
X26392091Y47592959D01*
X26130154Y47590128D01*
X25868216Y47587297D01*
X25868216Y47058500D01*
X19454716Y47058500D01*
X19454716Y47587667D01*
X18925550Y47587667D01*
X18925550Y48127417D01*
X18385770Y48127417D01*
X18385778Y48138000D01*
X18936133Y48138000D01*
X19465300Y48138000D01*
X19465300Y47598250D01*
X25846686Y47598250D01*
X25849514Y47865480D01*
X25852341Y48132709D01*
X26119570Y48135536D01*
X26386800Y48138364D01*
X26386800Y55599250D01*
X25847050Y55599250D01*
X25847050Y56128417D01*
X19465300Y56128417D01*
X19465300Y55599250D01*
X18936133Y55599250D01*
X18936133Y48138000D01*
X18385778Y48138000D01*
X18388431Y51865980D01*
X18391087Y55599250D01*
X18391091Y55604542D01*
G36*
X18391091Y55604542D02*
G01*
X18658320Y55607370D01*
X18925550Y55610197D01*
X18925550Y56139000D01*
X19454353Y56139000D01*
X19457180Y56406230D01*
X19460008Y56673459D01*
X25868216Y56678785D01*
X25868216Y56139000D01*
X26397383Y56139000D01*
X26397383Y55609834D01*
X26926550Y55609834D01*
X26926550Y48127417D01*
X26397746Y48127417D01*
X26394919Y47860188D01*
X26392091Y47592959D01*
X26130154Y47590128D01*
X25868216Y47587297D01*
X25868216Y47058500D01*
X19454716Y47058500D01*
X19454716Y47587667D01*
X18925550Y47587667D01*
X18925550Y48127417D01*
X18385770Y48127417D01*
X18385778Y48138000D01*
X18936133Y48138000D01*
X19465300Y48138000D01*
X19465300Y47598250D01*
X25846686Y47598250D01*
X25849514Y47865480D01*
X25852341Y48132709D01*
X26119570Y48135536D01*
X26386800Y48138364D01*
X26386800Y55599250D01*
X25847050Y55599250D01*
X25847050Y56128417D01*
X19465300Y56128417D01*
X19465300Y55599250D01*
X18936133Y55599250D01*
X18936133Y48138000D01*
X18385778Y48138000D01*
X18388431Y51865980D01*
X18391087Y55599250D01*
X18391091Y55604542D01*
G37*
X27455716Y55609834D02*
X27984883Y55609834D01*
X27984883Y56139000D01*
X28524633Y56139000D01*
X28524633Y56678785D01*
X34932841Y56673459D01*
X34935669Y56406230D01*
X34938496Y56139000D01*
X35456716Y56139000D01*
X35456716Y55609834D01*
X35985883Y55609834D01*
X35985883Y48127417D01*
X35456716Y48127417D01*
X35456716Y47587667D01*
X34938133Y47587667D01*
X34938133Y47058500D01*
X28524633Y47058500D01*
X28524633Y47587667D01*
X27984883Y47587667D01*
X27984883Y48127417D01*
X27455716Y48127417D01*
X27455716Y48138000D01*
X27995466Y48138000D01*
X28524633Y48138000D01*
X28524633Y47598250D01*
X34916966Y47598250D01*
X34916966Y48138000D01*
X35446133Y48138000D01*
X35446133Y55599250D01*
X34916966Y55599250D01*
X34916966Y56128417D01*
X28524633Y56128417D01*
X28524633Y55599250D01*
X27995466Y55599250D01*
X27995466Y48138000D01*
X27455716Y48138000D01*
X27455716Y55599250D01*
X27455716Y55609834D01*
G36*
X27455716Y55609834D02*
G01*
X27984883Y55609834D01*
X27984883Y56139000D01*
X28524633Y56139000D01*
X28524633Y56678785D01*
X34932841Y56673459D01*
X34935669Y56406230D01*
X34938496Y56139000D01*
X35456716Y56139000D01*
X35456716Y55609834D01*
X35985883Y55609834D01*
X35985883Y48127417D01*
X35456716Y48127417D01*
X35456716Y47587667D01*
X34938133Y47587667D01*
X34938133Y47058500D01*
X28524633Y47058500D01*
X28524633Y47587667D01*
X27984883Y47587667D01*
X27984883Y48127417D01*
X27455716Y48127417D01*
X27455716Y48138000D01*
X27995466Y48138000D01*
X28524633Y48138000D01*
X28524633Y47598250D01*
X34916966Y47598250D01*
X34916966Y48138000D01*
X35446133Y48138000D01*
X35446133Y55599250D01*
X34916966Y55599250D01*
X34916966Y56128417D01*
X28524633Y56128417D01*
X28524633Y55599250D01*
X27995466Y55599250D01*
X27995466Y48138000D01*
X27455716Y48138000D01*
X27455716Y55599250D01*
X27455716Y55609834D01*
G37*
X-40510450Y66023834D02*
X-39970700Y66023834D01*
X-39970700Y66553000D01*
X-39441534Y66553000D01*
X-39441534Y67092750D01*
X-33028034Y67092750D01*
X-33028034Y66553000D01*
X-32509450Y66553000D01*
X-32509450Y66023834D01*
X-31969700Y66023834D01*
X-31969700Y58541417D01*
X-32509450Y58541417D01*
X-32509450Y58001667D01*
X-33028034Y58001667D01*
X-33028034Y57472500D01*
X-39441534Y57472500D01*
X-39441534Y58001667D01*
X-39970700Y58001667D01*
X-39970700Y58541417D01*
X-40510450Y58541417D01*
X-40510450Y58552000D01*
X-39970700Y58552000D01*
X-39430950Y58552000D01*
X-39430950Y58012250D01*
X-33049200Y58012250D01*
X-33049200Y58552000D01*
X-32520034Y58552000D01*
X-32520034Y66013250D01*
X-33049200Y66013250D01*
X-33049200Y66542417D01*
X-39430950Y66542417D01*
X-39430950Y66013250D01*
X-39970700Y66013250D01*
X-39970700Y58552000D01*
X-40510450Y58552000D01*
X-40510450Y66013250D01*
X-40510450Y66023834D01*
G36*
X-40510450Y66023834D02*
G01*
X-39970700Y66023834D01*
X-39970700Y66553000D01*
X-39441534Y66553000D01*
X-39441534Y67092750D01*
X-33028034Y67092750D01*
X-33028034Y66553000D01*
X-32509450Y66553000D01*
X-32509450Y66023834D01*
X-31969700Y66023834D01*
X-31969700Y58541417D01*
X-32509450Y58541417D01*
X-32509450Y58001667D01*
X-33028034Y58001667D01*
X-33028034Y57472500D01*
X-39441534Y57472500D01*
X-39441534Y58001667D01*
X-39970700Y58001667D01*
X-39970700Y58541417D01*
X-40510450Y58541417D01*
X-40510450Y58552000D01*
X-39970700Y58552000D01*
X-39430950Y58552000D01*
X-39430950Y58012250D01*
X-33049200Y58012250D01*
X-33049200Y58552000D01*
X-32520034Y58552000D01*
X-32520034Y66013250D01*
X-33049200Y66013250D01*
X-33049200Y66542417D01*
X-39430950Y66542417D01*
X-39430950Y66013250D01*
X-39970700Y66013250D01*
X-39970700Y58552000D01*
X-40510450Y58552000D01*
X-40510450Y66013250D01*
X-40510450Y66023834D01*
G37*
X-31451117Y66023834D02*
X-30911367Y66023834D01*
X-30911367Y66553000D01*
X-30382564Y66553000D01*
X-30379736Y66820230D01*
X-30376909Y67087459D01*
X-27172805Y67090122D01*
X-23968700Y67092785D01*
X-23968700Y66553000D01*
X-23439534Y66553000D01*
X-23439534Y66023834D01*
X-22910367Y66023834D01*
X-22910367Y58541417D01*
X-23439170Y58541417D01*
X-23441998Y58274188D01*
X-23444825Y58006959D01*
X-23706763Y58004128D01*
X-23968700Y58001297D01*
X-23968700Y57472500D01*
X-30382200Y57472500D01*
X-30382200Y58001667D01*
X-30911367Y58001667D01*
X-30911367Y58541417D01*
X-31451117Y58541417D01*
X-31451117Y58552000D01*
X-30900784Y58552000D01*
X-30371617Y58552000D01*
X-30371617Y58012250D01*
X-23989867Y58012250D01*
X-23989867Y58552000D01*
X-23450117Y58552000D01*
X-23450117Y66013250D01*
X-23989867Y66013250D01*
X-23989867Y66542417D01*
X-30371617Y66542417D01*
X-30371617Y66013250D01*
X-30900784Y66013250D01*
X-30900784Y58552000D01*
X-31451117Y58552000D01*
X-31451117Y66013250D01*
X-31451117Y66023834D01*
G36*
X-31451117Y66023834D02*
G01*
X-30911367Y66023834D01*
X-30911367Y66553000D01*
X-30382564Y66553000D01*
X-30379736Y66820230D01*
X-30376909Y67087459D01*
X-27172805Y67090122D01*
X-23968700Y67092785D01*
X-23968700Y66553000D01*
X-23439534Y66553000D01*
X-23439534Y66023834D01*
X-22910367Y66023834D01*
X-22910367Y58541417D01*
X-23439170Y58541417D01*
X-23441998Y58274188D01*
X-23444825Y58006959D01*
X-23706763Y58004128D01*
X-23968700Y58001297D01*
X-23968700Y57472500D01*
X-30382200Y57472500D01*
X-30382200Y58001667D01*
X-30911367Y58001667D01*
X-30911367Y58541417D01*
X-31451117Y58541417D01*
X-31451117Y58552000D01*
X-30900784Y58552000D01*
X-30371617Y58552000D01*
X-30371617Y58012250D01*
X-23989867Y58012250D01*
X-23989867Y58552000D01*
X-23450117Y58552000D01*
X-23450117Y66013250D01*
X-23989867Y66013250D01*
X-23989867Y66542417D01*
X-30371617Y66542417D01*
X-30371617Y66013250D01*
X-30900784Y66013250D01*
X-30900784Y58552000D01*
X-31451117Y58552000D01*
X-31451117Y66013250D01*
X-31451117Y66023834D01*
G37*
X-22381200Y66023834D02*
X-21852034Y66023834D01*
X-21852034Y66553000D01*
X-21323231Y66553000D01*
X-21320403Y66820230D01*
X-21317575Y67087459D01*
X-14909367Y67092785D01*
X-14909367Y66553000D01*
X-14380200Y66553000D01*
X-14380200Y66023834D01*
X-13851034Y66023834D01*
X-13851034Y58541417D01*
X-14380200Y58541417D01*
X-14380200Y58001667D01*
X-14909367Y58001667D01*
X-14909367Y57472500D01*
X-21322867Y57472500D01*
X-21322867Y58001667D01*
X-21852034Y58001667D01*
X-21852034Y58541417D01*
X-22381200Y58541417D01*
X-22381200Y58552000D01*
X-21841450Y58552000D01*
X-21312284Y58552000D01*
X-21312284Y58012250D01*
X-14930897Y58012250D01*
X-14928070Y58279480D01*
X-14925242Y58546709D01*
X-14658013Y58549536D01*
X-14390784Y58552364D01*
X-14390784Y66012887D01*
X-14658013Y66015715D01*
X-14925242Y66018542D01*
X-14928073Y66280480D01*
X-14930904Y66542417D01*
X-21312284Y66542417D01*
X-21312284Y66013250D01*
X-21841450Y66013250D01*
X-21841450Y58552000D01*
X-22381200Y58552000D01*
X-22381200Y66013250D01*
X-22381200Y66023834D01*
G36*
X-22381200Y66023834D02*
G01*
X-21852034Y66023834D01*
X-21852034Y66553000D01*
X-21323231Y66553000D01*
X-21320403Y66820230D01*
X-21317575Y67087459D01*
X-14909367Y67092785D01*
X-14909367Y66553000D01*
X-14380200Y66553000D01*
X-14380200Y66023834D01*
X-13851034Y66023834D01*
X-13851034Y58541417D01*
X-14380200Y58541417D01*
X-14380200Y58001667D01*
X-14909367Y58001667D01*
X-14909367Y57472500D01*
X-21322867Y57472500D01*
X-21322867Y58001667D01*
X-21852034Y58001667D01*
X-21852034Y58541417D01*
X-22381200Y58541417D01*
X-22381200Y58552000D01*
X-21841450Y58552000D01*
X-21312284Y58552000D01*
X-21312284Y58012250D01*
X-14930897Y58012250D01*
X-14928070Y58279480D01*
X-14925242Y58546709D01*
X-14658013Y58549536D01*
X-14390784Y58552364D01*
X-14390784Y66012887D01*
X-14658013Y66015715D01*
X-14925242Y66018542D01*
X-14928073Y66280480D01*
X-14930904Y66542417D01*
X-21312284Y66542417D01*
X-21312284Y66013250D01*
X-21841450Y66013250D01*
X-21841450Y58552000D01*
X-22381200Y58552000D01*
X-22381200Y66013250D01*
X-22381200Y66023834D01*
G37*
X-13321867Y66023834D02*
X-12792700Y66023834D01*
X-12792700Y66553000D01*
X-12252950Y66553000D01*
X-12252950Y67092785D01*
X-5844742Y67087459D01*
X-5841915Y66820230D01*
X-5839087Y66553000D01*
X-5320867Y66553000D01*
X-5320867Y66023834D01*
X-4791700Y66023834D01*
X-4791700Y58541417D01*
X-5320867Y58541417D01*
X-5320867Y58001667D01*
X-5839450Y58001667D01*
X-5839450Y57472500D01*
X-12252950Y57472500D01*
X-12252950Y58001667D01*
X-12792700Y58001667D01*
X-12792700Y58541417D01*
X-13321867Y58541417D01*
X-13321867Y58552000D01*
X-12782117Y58552000D01*
X-12252950Y58552000D01*
X-12252950Y58012250D01*
X-5860617Y58012250D01*
X-5860617Y58552000D01*
X-5331450Y58552000D01*
X-5331450Y66013250D01*
X-5860617Y66013250D01*
X-5860617Y66542417D01*
X-12252950Y66542417D01*
X-12252950Y66013250D01*
X-12782117Y66013250D01*
X-12782117Y58552000D01*
X-13321867Y58552000D01*
X-13321867Y66013250D01*
X-13321867Y66023834D01*
G36*
X-13321867Y66023834D02*
G01*
X-12792700Y66023834D01*
X-12792700Y66553000D01*
X-12252950Y66553000D01*
X-12252950Y67092785D01*
X-5844742Y67087459D01*
X-5841915Y66820230D01*
X-5839087Y66553000D01*
X-5320867Y66553000D01*
X-5320867Y66023834D01*
X-4791700Y66023834D01*
X-4791700Y58541417D01*
X-5320867Y58541417D01*
X-5320867Y58001667D01*
X-5839450Y58001667D01*
X-5839450Y57472500D01*
X-12252950Y57472500D01*
X-12252950Y58001667D01*
X-12792700Y58001667D01*
X-12792700Y58541417D01*
X-13321867Y58541417D01*
X-13321867Y58552000D01*
X-12782117Y58552000D01*
X-12252950Y58552000D01*
X-12252950Y58012250D01*
X-5860617Y58012250D01*
X-5860617Y58552000D01*
X-5331450Y58552000D01*
X-5331450Y66013250D01*
X-5860617Y66013250D01*
X-5860617Y66542417D01*
X-12252950Y66542417D01*
X-12252950Y66013250D01*
X-12782117Y66013250D01*
X-12782117Y58552000D01*
X-13321867Y58552000D01*
X-13321867Y66013250D01*
X-13321867Y66023834D01*
G37*
X-4262534Y66023834D02*
X-3733367Y66023834D01*
X-3733367Y66553000D01*
X-3193617Y66553000D01*
X-3193617Y67092785D01*
X3214591Y67087459D01*
X3217419Y66820230D01*
X3220246Y66553000D01*
X3738466Y66553000D01*
X3738466Y66024197D01*
X4005695Y66021370D01*
X4272925Y66018542D01*
X4275585Y62279980D01*
X4278246Y58541417D01*
X3738466Y58541417D01*
X3738466Y58001667D01*
X3219883Y58001667D01*
X3219883Y57472500D01*
X-3193617Y57472500D01*
X-3193617Y58001304D01*
X-3460846Y58004131D01*
X-3728075Y58006959D01*
X-3733731Y58541417D01*
X-4262534Y58541417D01*
X-4262534Y58552364D01*
X-3722784Y58552364D01*
X-3455555Y58549536D01*
X-3188325Y58546709D01*
X-3185498Y58279480D01*
X-3182670Y58012250D01*
X3198716Y58012250D01*
X3198716Y58552000D01*
X3727883Y58552000D01*
X3727883Y66013250D01*
X3198716Y66013250D01*
X3198716Y66542417D01*
X-3183034Y66542417D01*
X-3183034Y66013250D01*
X-3722784Y66013250D01*
X-3722784Y58552364D01*
X-4262534Y58552364D01*
X-4262534Y66013250D01*
X-4262534Y66023834D01*
G36*
X-4262534Y66023834D02*
G01*
X-3733367Y66023834D01*
X-3733367Y66553000D01*
X-3193617Y66553000D01*
X-3193617Y67092785D01*
X3214591Y67087459D01*
X3217419Y66820230D01*
X3220246Y66553000D01*
X3738466Y66553000D01*
X3738466Y66024197D01*
X4005695Y66021370D01*
X4272925Y66018542D01*
X4275585Y62279980D01*
X4278246Y58541417D01*
X3738466Y58541417D01*
X3738466Y58001667D01*
X3219883Y58001667D01*
X3219883Y57472500D01*
X-3193617Y57472500D01*
X-3193617Y58001304D01*
X-3460846Y58004131D01*
X-3728075Y58006959D01*
X-3733731Y58541417D01*
X-4262534Y58541417D01*
X-4262534Y58552364D01*
X-3722784Y58552364D01*
X-3455555Y58549536D01*
X-3188325Y58546709D01*
X-3185498Y58279480D01*
X-3182670Y58012250D01*
X3198716Y58012250D01*
X3198716Y58552000D01*
X3727883Y58552000D01*
X3727883Y66013250D01*
X3198716Y66013250D01*
X3198716Y66542417D01*
X-3183034Y66542417D01*
X-3183034Y66013250D01*
X-3722784Y66013250D01*
X-3722784Y58552364D01*
X-4262534Y58552364D01*
X-4262534Y66013250D01*
X-4262534Y66023834D01*
G37*
X4796800Y66023834D02*
X5336550Y66023834D01*
X5336550Y66553000D01*
X5865716Y66553000D01*
X5865716Y67092750D01*
X12279216Y67092750D01*
X12279216Y66553000D01*
X12797800Y66553000D01*
X12797800Y66023834D01*
X13337550Y66023834D01*
X13337550Y58541417D01*
X12797800Y58541417D01*
X12797800Y58001667D01*
X12279216Y58001667D01*
X12279216Y57472500D01*
X5865716Y57472500D01*
X5865716Y58001667D01*
X5336550Y58001667D01*
X5336550Y58541417D01*
X4796800Y58541417D01*
X4796800Y58552000D01*
X5336550Y58552000D01*
X5876300Y58552000D01*
X5876300Y58012250D01*
X12258050Y58012250D01*
X12258050Y58552000D01*
X12797800Y58552000D01*
X12797800Y66013250D01*
X12258050Y66013250D01*
X12258050Y66542417D01*
X5876300Y66542417D01*
X5876300Y66013250D01*
X5336550Y66013250D01*
X5336550Y58552000D01*
X4796800Y58552000D01*
X4796800Y66013250D01*
X4796800Y66023834D01*
G36*
X4796800Y66023834D02*
G01*
X5336550Y66023834D01*
X5336550Y66553000D01*
X5865716Y66553000D01*
X5865716Y67092750D01*
X12279216Y67092750D01*
X12279216Y66553000D01*
X12797800Y66553000D01*
X12797800Y66023834D01*
X13337550Y66023834D01*
X13337550Y58541417D01*
X12797800Y58541417D01*
X12797800Y58001667D01*
X12279216Y58001667D01*
X12279216Y57472500D01*
X5865716Y57472500D01*
X5865716Y58001667D01*
X5336550Y58001667D01*
X5336550Y58541417D01*
X4796800Y58541417D01*
X4796800Y58552000D01*
X5336550Y58552000D01*
X5876300Y58552000D01*
X5876300Y58012250D01*
X12258050Y58012250D01*
X12258050Y58552000D01*
X12797800Y58552000D01*
X12797800Y66013250D01*
X12258050Y66013250D01*
X12258050Y66542417D01*
X5876300Y66542417D01*
X5876300Y66013250D01*
X5336550Y66013250D01*
X5336550Y58552000D01*
X4796800Y58552000D01*
X4796800Y66013250D01*
X4796800Y66023834D01*
G37*
X13861425Y66018542D02*
X14128654Y66021370D01*
X14395883Y66024197D01*
X14395883Y66553000D01*
X14924686Y66553000D01*
X14927514Y66820230D01*
X14930341Y67087459D01*
X18134445Y67090122D01*
X21338550Y67092785D01*
X21338550Y66553000D01*
X21867716Y66553000D01*
X21867716Y66023834D01*
X22396883Y66023834D01*
X22396883Y58541417D01*
X21868080Y58541417D01*
X21865252Y58274188D01*
X21862425Y58006959D01*
X21600487Y58004128D01*
X21338550Y58001297D01*
X21338550Y57472500D01*
X14925050Y57472500D01*
X14925050Y58001667D01*
X14395883Y58001667D01*
X14395883Y58541417D01*
X13856103Y58541417D01*
X13856111Y58552000D01*
X14406466Y58552000D01*
X14935633Y58552000D01*
X14935633Y58012250D01*
X21317019Y58012250D01*
X21319847Y58279480D01*
X21322675Y58546709D01*
X21589904Y58549536D01*
X21857133Y58552364D01*
X21857133Y66013250D01*
X21317383Y66013250D01*
X21317383Y66542417D01*
X14935633Y66542417D01*
X14935633Y66013250D01*
X14406466Y66013250D01*
X14406466Y58552000D01*
X13856111Y58552000D01*
X13858764Y62279980D01*
X13861421Y66013250D01*
X13861425Y66018542D01*
G36*
X13861425Y66018542D02*
G01*
X14128654Y66021370D01*
X14395883Y66024197D01*
X14395883Y66553000D01*
X14924686Y66553000D01*
X14927514Y66820230D01*
X14930341Y67087459D01*
X18134445Y67090122D01*
X21338550Y67092785D01*
X21338550Y66553000D01*
X21867716Y66553000D01*
X21867716Y66023834D01*
X22396883Y66023834D01*
X22396883Y58541417D01*
X21868080Y58541417D01*
X21865252Y58274188D01*
X21862425Y58006959D01*
X21600487Y58004128D01*
X21338550Y58001297D01*
X21338550Y57472500D01*
X14925050Y57472500D01*
X14925050Y58001667D01*
X14395883Y58001667D01*
X14395883Y58541417D01*
X13856103Y58541417D01*
X13856111Y58552000D01*
X14406466Y58552000D01*
X14935633Y58552000D01*
X14935633Y58012250D01*
X21317019Y58012250D01*
X21319847Y58279480D01*
X21322675Y58546709D01*
X21589904Y58549536D01*
X21857133Y58552364D01*
X21857133Y66013250D01*
X21317383Y66013250D01*
X21317383Y66542417D01*
X14935633Y66542417D01*
X14935633Y66013250D01*
X14406466Y66013250D01*
X14406466Y58552000D01*
X13856111Y58552000D01*
X13858764Y62279980D01*
X13861421Y66013250D01*
X13861425Y66018542D01*
G37*
X22926050Y66023834D02*
X23455216Y66023834D01*
X23455216Y66553000D01*
X23984019Y66553000D01*
X23986847Y66820230D01*
X23989675Y67087459D01*
X30397883Y67092785D01*
X30397883Y66553000D01*
X30927050Y66553000D01*
X30927050Y66023834D01*
X31456216Y66023834D01*
X31456216Y58541417D01*
X30927050Y58541417D01*
X30927050Y58001667D01*
X30397883Y58001667D01*
X30397883Y57472500D01*
X23984383Y57472500D01*
X23984383Y58001667D01*
X23455216Y58001667D01*
X23455216Y58541417D01*
X22926050Y58541417D01*
X22926050Y58552000D01*
X23465800Y58552000D01*
X23994966Y58552000D01*
X23994966Y58012250D01*
X30387300Y58012250D01*
X30387300Y58552000D01*
X30916466Y58552000D01*
X30916466Y66013250D01*
X30387300Y66013250D01*
X30387300Y66542417D01*
X23994966Y66542417D01*
X23994966Y66013250D01*
X23465800Y66013250D01*
X23465800Y58552000D01*
X22926050Y58552000D01*
X22926050Y66013250D01*
X22926050Y66023834D01*
G36*
X22926050Y66023834D02*
G01*
X23455216Y66023834D01*
X23455216Y66553000D01*
X23984019Y66553000D01*
X23986847Y66820230D01*
X23989675Y67087459D01*
X30397883Y67092785D01*
X30397883Y66553000D01*
X30927050Y66553000D01*
X30927050Y66023834D01*
X31456216Y66023834D01*
X31456216Y58541417D01*
X30927050Y58541417D01*
X30927050Y58001667D01*
X30397883Y58001667D01*
X30397883Y57472500D01*
X23984383Y57472500D01*
X23984383Y58001667D01*
X23455216Y58001667D01*
X23455216Y58541417D01*
X22926050Y58541417D01*
X22926050Y58552000D01*
X23465800Y58552000D01*
X23994966Y58552000D01*
X23994966Y58012250D01*
X30387300Y58012250D01*
X30387300Y58552000D01*
X30916466Y58552000D01*
X30916466Y66013250D01*
X30387300Y66013250D01*
X30387300Y66542417D01*
X23994966Y66542417D01*
X23994966Y66013250D01*
X23465800Y66013250D01*
X23465800Y58552000D01*
X22926050Y58552000D01*
X22926050Y66013250D01*
X22926050Y66023834D01*
G37*
X31985383Y66023834D02*
X32514550Y66023834D01*
X32514550Y66553000D01*
X33054300Y66553000D01*
X33054300Y67092785D01*
X39462508Y67087459D01*
X39465335Y66820230D01*
X39468163Y66553000D01*
X39986383Y66553000D01*
X39986383Y66024197D01*
X40253612Y66021370D01*
X40520841Y66018542D01*
X40520841Y58546709D01*
X40253612Y58543881D01*
X39986383Y58541054D01*
X39986383Y58001667D01*
X39467800Y58001667D01*
X39467800Y57472500D01*
X33054300Y57472500D01*
X33054300Y58001667D01*
X32514550Y58001667D01*
X32514550Y58541417D01*
X31985383Y58541417D01*
X31985383Y58552364D01*
X32525133Y58552364D01*
X32792362Y58549536D01*
X33059591Y58546709D01*
X33062419Y58279480D01*
X33065246Y58012250D01*
X39446633Y58012250D01*
X39446633Y58552000D01*
X39975800Y58552000D01*
X39975800Y66013250D01*
X39446633Y66013250D01*
X39446633Y66542417D01*
X33064883Y66542417D01*
X33064883Y66013250D01*
X32525133Y66013250D01*
X32525133Y58552364D01*
X31985383Y58552364D01*
X31985383Y66013250D01*
X31985383Y66023834D01*
G36*
X31985383Y66023834D02*
G01*
X32514550Y66023834D01*
X32514550Y66553000D01*
X33054300Y66553000D01*
X33054300Y67092785D01*
X39462508Y67087459D01*
X39465335Y66820230D01*
X39468163Y66553000D01*
X39986383Y66553000D01*
X39986383Y66024197D01*
X40253612Y66021370D01*
X40520841Y66018542D01*
X40520841Y58546709D01*
X40253612Y58543881D01*
X39986383Y58541054D01*
X39986383Y58001667D01*
X39467800Y58001667D01*
X39467800Y57472500D01*
X33054300Y57472500D01*
X33054300Y58001667D01*
X32514550Y58001667D01*
X32514550Y58541417D01*
X31985383Y58541417D01*
X31985383Y58552364D01*
X32525133Y58552364D01*
X32792362Y58549536D01*
X33059591Y58546709D01*
X33062419Y58279480D01*
X33065246Y58012250D01*
X39446633Y58012250D01*
X39446633Y58552000D01*
X39975800Y58552000D01*
X39975800Y66013250D01*
X39446633Y66013250D01*
X39446633Y66542417D01*
X33064883Y66542417D01*
X33064883Y66013250D01*
X32525133Y66013250D01*
X32525133Y58552364D01*
X31985383Y58552364D01*
X31985383Y66013250D01*
X31985383Y66023834D01*
G37*
X-45040117Y76437834D02*
X-44510950Y76437834D01*
X-44510950Y76967000D01*
X-43971200Y76967000D01*
X-43971200Y77496167D01*
X-37557700Y77496167D01*
X-37557700Y76967000D01*
X-37039117Y76967000D01*
X-37039117Y76438197D01*
X-36771888Y76435370D01*
X-36504659Y76432542D01*
X-36501998Y72693980D01*
X-36499338Y68955417D01*
X-37039117Y68955417D01*
X-37039117Y68415667D01*
X-37557700Y68415667D01*
X-37557700Y67886500D01*
X-43971200Y67886500D01*
X-43971200Y68415304D01*
X-44238430Y68418131D01*
X-44505659Y68420959D01*
X-44508486Y68688188D01*
X-44511314Y68955417D01*
X-45040117Y68955417D01*
X-45040117Y68966364D01*
X-44500367Y68966364D01*
X-44233138Y68963536D01*
X-43965909Y68960709D01*
X-43963081Y68693480D01*
X-43960254Y68426250D01*
X-37578867Y68426250D01*
X-37578867Y68966000D01*
X-37049700Y68966000D01*
X-37049700Y76427250D01*
X-37578867Y76427250D01*
X-37578867Y76956417D01*
X-43960617Y76956417D01*
X-43960617Y76427250D01*
X-44500367Y76427250D01*
X-44500367Y68966364D01*
X-45040117Y68966364D01*
X-45040117Y76427250D01*
X-45040117Y76437834D01*
G36*
X-45040117Y76437834D02*
G01*
X-44510950Y76437834D01*
X-44510950Y76967000D01*
X-43971200Y76967000D01*
X-43971200Y77496167D01*
X-37557700Y77496167D01*
X-37557700Y76967000D01*
X-37039117Y76967000D01*
X-37039117Y76438197D01*
X-36771888Y76435370D01*
X-36504659Y76432542D01*
X-36501998Y72693980D01*
X-36499338Y68955417D01*
X-37039117Y68955417D01*
X-37039117Y68415667D01*
X-37557700Y68415667D01*
X-37557700Y67886500D01*
X-43971200Y67886500D01*
X-43971200Y68415304D01*
X-44238430Y68418131D01*
X-44505659Y68420959D01*
X-44508486Y68688188D01*
X-44511314Y68955417D01*
X-45040117Y68955417D01*
X-45040117Y68966364D01*
X-44500367Y68966364D01*
X-44233138Y68963536D01*
X-43965909Y68960709D01*
X-43963081Y68693480D01*
X-43960254Y68426250D01*
X-37578867Y68426250D01*
X-37578867Y68966000D01*
X-37049700Y68966000D01*
X-37049700Y76427250D01*
X-37578867Y76427250D01*
X-37578867Y76956417D01*
X-43960617Y76956417D01*
X-43960617Y76427250D01*
X-44500367Y76427250D01*
X-44500367Y68966364D01*
X-45040117Y68966364D01*
X-45040117Y76427250D01*
X-45040117Y76437834D01*
G37*
X-35980784Y76437834D02*
X-35441034Y76437834D01*
X-35441034Y76967000D01*
X-34911867Y76967000D01*
X-34911867Y77496167D01*
X-28498367Y77496167D01*
X-28498367Y76967370D01*
X-28236430Y76964540D01*
X-27974492Y76961709D01*
X-27971661Y76699771D01*
X-27968831Y76437834D01*
X-27440034Y76437834D01*
X-27440034Y68955417D01*
X-27968837Y68955417D01*
X-27971665Y68688188D01*
X-27974492Y68420959D01*
X-28236430Y68418128D01*
X-28498367Y68415297D01*
X-28498367Y67886500D01*
X-34911867Y67886500D01*
X-34911867Y68415667D01*
X-35441034Y68415667D01*
X-35441034Y68955417D01*
X-35980784Y68955417D01*
X-35980784Y68966000D01*
X-35430450Y68966000D01*
X-34911867Y68966000D01*
X-34911867Y69516334D01*
X-34636700Y69516334D01*
X-34636700Y69791500D01*
X-34108185Y69791500D01*
X-34105214Y69921146D01*
X-34102242Y70050792D01*
X-33967305Y70053754D01*
X-33832367Y70056716D01*
X-33832367Y70585250D01*
X-34361534Y70585250D01*
X-34361534Y70320667D01*
X-34911867Y70320667D01*
X-34911867Y70595834D01*
X-34636700Y70595834D01*
X-34636700Y70871000D01*
X-33557200Y70871000D01*
X-33557200Y70595834D01*
X-33282034Y70595834D01*
X-33282034Y70045500D01*
X-33557200Y70045500D01*
X-33557200Y69780917D01*
X-34096950Y69780917D01*
X-34096950Y69505750D01*
X-34361534Y69505750D01*
X-34361534Y69251750D01*
X-33282034Y69251750D01*
X-33282034Y68966000D01*
X-34901284Y68966000D01*
X-34901284Y68426250D01*
X-28519897Y68426250D01*
X-28517070Y68693480D01*
X-28514242Y68960709D01*
X-28247013Y68963536D01*
X-27979784Y68966364D01*
X-27979784Y76427250D01*
X-28519534Y76427250D01*
X-28519534Y76956417D01*
X-34901284Y76956417D01*
X-34901284Y76427250D01*
X-35430450Y76427250D01*
X-35430450Y68966000D01*
X-35980784Y68966000D01*
X-35980784Y76427250D01*
X-35980784Y76437834D01*
G36*
X-35980784Y76437834D02*
G01*
X-35441034Y76437834D01*
X-35441034Y76967000D01*
X-34911867Y76967000D01*
X-34911867Y77496167D01*
X-28498367Y77496167D01*
X-28498367Y76967370D01*
X-28236430Y76964540D01*
X-27974492Y76961709D01*
X-27971661Y76699771D01*
X-27968831Y76437834D01*
X-27440034Y76437834D01*
X-27440034Y68955417D01*
X-27968837Y68955417D01*
X-27971665Y68688188D01*
X-27974492Y68420959D01*
X-28236430Y68418128D01*
X-28498367Y68415297D01*
X-28498367Y67886500D01*
X-34911867Y67886500D01*
X-34911867Y68415667D01*
X-35441034Y68415667D01*
X-35441034Y68955417D01*
X-35980784Y68955417D01*
X-35980784Y68966000D01*
X-35430450Y68966000D01*
X-34911867Y68966000D01*
X-34911867Y69516334D01*
X-34636700Y69516334D01*
X-34636700Y69791500D01*
X-34108185Y69791500D01*
X-34105214Y69921146D01*
X-34102242Y70050792D01*
X-33967305Y70053754D01*
X-33832367Y70056716D01*
X-33832367Y70585250D01*
X-34361534Y70585250D01*
X-34361534Y70320667D01*
X-34911867Y70320667D01*
X-34911867Y70595834D01*
X-34636700Y70595834D01*
X-34636700Y70871000D01*
X-33557200Y70871000D01*
X-33557200Y70595834D01*
X-33282034Y70595834D01*
X-33282034Y70045500D01*
X-33557200Y70045500D01*
X-33557200Y69780917D01*
X-34096950Y69780917D01*
X-34096950Y69505750D01*
X-34361534Y69505750D01*
X-34361534Y69251750D01*
X-33282034Y69251750D01*
X-33282034Y68966000D01*
X-34901284Y68966000D01*
X-34901284Y68426250D01*
X-28519897Y68426250D01*
X-28517070Y68693480D01*
X-28514242Y68960709D01*
X-28247013Y68963536D01*
X-27979784Y68966364D01*
X-27979784Y76427250D01*
X-28519534Y76427250D01*
X-28519534Y76956417D01*
X-34901284Y76956417D01*
X-34901284Y76427250D01*
X-35430450Y76427250D01*
X-35430450Y68966000D01*
X-35980784Y68966000D01*
X-35980784Y76427250D01*
X-35980784Y76437834D01*
G37*
X-26916159Y76432542D02*
X-26648930Y76435370D01*
X-26381700Y76438197D01*
X-26381700Y76967000D01*
X-25852534Y76967000D01*
X-25852534Y77496167D01*
X-19439034Y77496167D01*
X-19439034Y76967000D01*
X-18909867Y76967000D01*
X-18909867Y76437834D01*
X-18380700Y76437834D01*
X-18380700Y68955417D01*
X-18909867Y68955417D01*
X-18909867Y68415667D01*
X-19439034Y68415667D01*
X-19439034Y67886500D01*
X-25852534Y67886500D01*
X-25852534Y68415667D01*
X-26381700Y68415667D01*
X-26381700Y68955417D01*
X-26921480Y68955417D01*
X-26921472Y68966000D01*
X-26371117Y68966000D01*
X-25841950Y68966000D01*
X-25841950Y68426250D01*
X-19460564Y68426250D01*
X-19457736Y68693480D01*
X-19454909Y68960709D01*
X-19187680Y68963536D01*
X-18920450Y68966364D01*
X-18920450Y76427250D01*
X-19449617Y76427250D01*
X-19449617Y75898084D01*
X-19174450Y75898084D01*
X-19174450Y75612334D01*
X-19449617Y75612334D01*
X-19449617Y75358334D01*
X-19174450Y75358334D01*
X-19174450Y75072584D01*
X-19449617Y75072584D01*
X-19449617Y74532476D01*
X-19722138Y74535301D01*
X-19994659Y74538125D01*
X-19997486Y74805355D01*
X-20000314Y75072584D01*
X-20529117Y75072584D01*
X-20529117Y74532476D01*
X-20801638Y74535301D01*
X-21074159Y74538125D01*
X-21076986Y74805355D01*
X-21079814Y75072584D01*
X-21344034Y75072584D01*
X-21344034Y75358334D01*
X-21079450Y75358334D01*
X-21079450Y75612334D01*
X-20529117Y75612334D01*
X-20529117Y75358334D01*
X-19999950Y75358334D01*
X-19999950Y75612334D01*
X-20529117Y75612334D01*
X-21079450Y75612334D01*
X-21344034Y75612334D01*
X-21344034Y75898084D01*
X-21079814Y75898084D01*
X-21076986Y76165313D01*
X-21074159Y76432542D01*
X-20801638Y76435367D01*
X-20529117Y76438191D01*
X-20529117Y75898084D01*
X-20000314Y75898084D01*
X-19997486Y76165313D01*
X-19994659Y76432542D01*
X-19727430Y76435370D01*
X-19460200Y76438197D01*
X-19460200Y76956417D01*
X-25841950Y76956417D01*
X-25841950Y76427250D01*
X-26371117Y76427250D01*
X-26371117Y68966000D01*
X-26921472Y68966000D01*
X-26918819Y72693980D01*
X-26916163Y76427250D01*
X-26916159Y76432542D01*
G36*
X-26916159Y76432542D02*
G01*
X-26648930Y76435370D01*
X-26381700Y76438197D01*
X-26381700Y76967000D01*
X-25852534Y76967000D01*
X-25852534Y77496167D01*
X-19439034Y77496167D01*
X-19439034Y76967000D01*
X-18909867Y76967000D01*
X-18909867Y76437834D01*
X-18380700Y76437834D01*
X-18380700Y68955417D01*
X-18909867Y68955417D01*
X-18909867Y68415667D01*
X-19439034Y68415667D01*
X-19439034Y67886500D01*
X-25852534Y67886500D01*
X-25852534Y68415667D01*
X-26381700Y68415667D01*
X-26381700Y68955417D01*
X-26921480Y68955417D01*
X-26921472Y68966000D01*
X-26371117Y68966000D01*
X-25841950Y68966000D01*
X-25841950Y68426250D01*
X-19460564Y68426250D01*
X-19457736Y68693480D01*
X-19454909Y68960709D01*
X-19187680Y68963536D01*
X-18920450Y68966364D01*
X-18920450Y76427250D01*
X-19449617Y76427250D01*
X-19449617Y75898084D01*
X-19174450Y75898084D01*
X-19174450Y75612334D01*
X-19449617Y75612334D01*
X-19449617Y75358334D01*
X-19174450Y75358334D01*
X-19174450Y75072584D01*
X-19449617Y75072584D01*
X-19449617Y74532476D01*
X-19722138Y74535301D01*
X-19994659Y74538125D01*
X-19997486Y74805355D01*
X-20000314Y75072584D01*
X-20529117Y75072584D01*
X-20529117Y74532476D01*
X-20801638Y74535301D01*
X-21074159Y74538125D01*
X-21076986Y74805355D01*
X-21079814Y75072584D01*
X-21344034Y75072584D01*
X-21344034Y75358334D01*
X-21079450Y75358334D01*
X-21079450Y75612334D01*
X-20529117Y75612334D01*
X-20529117Y75358334D01*
X-19999950Y75358334D01*
X-19999950Y75612334D01*
X-20529117Y75612334D01*
X-21079450Y75612334D01*
X-21344034Y75612334D01*
X-21344034Y75898084D01*
X-21079814Y75898084D01*
X-21076986Y76165313D01*
X-21074159Y76432542D01*
X-20801638Y76435367D01*
X-20529117Y76438191D01*
X-20529117Y75898084D01*
X-20000314Y75898084D01*
X-19997486Y76165313D01*
X-19994659Y76432542D01*
X-19727430Y76435370D01*
X-19460200Y76438197D01*
X-19460200Y76956417D01*
X-25841950Y76956417D01*
X-25841950Y76427250D01*
X-26371117Y76427250D01*
X-26371117Y68966000D01*
X-26921472Y68966000D01*
X-26918819Y72693980D01*
X-26916163Y76427250D01*
X-26916159Y76432542D01*
G37*
X-17851534Y76437834D02*
X-17322367Y76437834D01*
X-17322367Y76967000D01*
X-16793200Y76967000D01*
X-16793200Y77496167D01*
X-10369117Y77496167D01*
X-10369117Y76967000D01*
X-9850534Y76967000D01*
X-9850534Y76437834D01*
X-9321367Y76437834D01*
X-9321367Y68955417D01*
X-9850534Y68955417D01*
X-9850534Y68415667D01*
X-10369117Y68415667D01*
X-10369117Y67886500D01*
X-16793200Y67886500D01*
X-16793200Y68415667D01*
X-17322367Y68415667D01*
X-17322367Y68955417D01*
X-17851534Y68955417D01*
X-17851534Y68966000D01*
X-17311784Y68966000D01*
X-16782617Y68966000D01*
X-16782617Y68426250D01*
X-10390284Y68426250D01*
X-10390284Y68966000D01*
X-9861117Y68966000D01*
X-9861117Y76427250D01*
X-10390284Y76427250D01*
X-10390284Y76956417D01*
X-16782617Y76956417D01*
X-16782617Y76427250D01*
X-17311784Y76427250D01*
X-17311784Y68966000D01*
X-17851534Y68966000D01*
X-17851534Y76427250D01*
X-17851534Y76437834D01*
G36*
X-17851534Y76437834D02*
G01*
X-17322367Y76437834D01*
X-17322367Y76967000D01*
X-16793200Y76967000D01*
X-16793200Y77496167D01*
X-10369117Y77496167D01*
X-10369117Y76967000D01*
X-9850534Y76967000D01*
X-9850534Y76437834D01*
X-9321367Y76437834D01*
X-9321367Y68955417D01*
X-9850534Y68955417D01*
X-9850534Y68415667D01*
X-10369117Y68415667D01*
X-10369117Y67886500D01*
X-16793200Y67886500D01*
X-16793200Y68415667D01*
X-17322367Y68415667D01*
X-17322367Y68955417D01*
X-17851534Y68955417D01*
X-17851534Y68966000D01*
X-17311784Y68966000D01*
X-16782617Y68966000D01*
X-16782617Y68426250D01*
X-10390284Y68426250D01*
X-10390284Y68966000D01*
X-9861117Y68966000D01*
X-9861117Y76427250D01*
X-10390284Y76427250D01*
X-10390284Y76956417D01*
X-16782617Y76956417D01*
X-16782617Y76427250D01*
X-17311784Y76427250D01*
X-17311784Y68966000D01*
X-17851534Y68966000D01*
X-17851534Y76427250D01*
X-17851534Y76437834D01*
G37*
X-8792200Y76437834D02*
X-8263034Y76437834D01*
X-8263034Y76967000D01*
X-7723284Y76967000D01*
X-7723284Y77496167D01*
X-1309784Y77496167D01*
X-1309784Y76967000D01*
X-791200Y76967000D01*
X-791200Y76438197D01*
X-523971Y76435370D01*
X-256742Y76432542D01*
X-254082Y72693980D01*
X-251421Y68955417D01*
X-791200Y68955417D01*
X-791200Y68415667D01*
X-1309784Y68415667D01*
X-1309784Y67886500D01*
X-7723284Y67886500D01*
X-7723284Y68415667D01*
X-8263034Y68415667D01*
X-8263034Y68955417D01*
X-8792200Y68955417D01*
X-8792200Y68966364D01*
X-8252450Y68966364D01*
X-7985221Y68963536D01*
X-7717992Y68960709D01*
X-7715165Y68693480D01*
X-7712337Y68426250D01*
X-1330950Y68426250D01*
X-1330950Y68966000D01*
X-801784Y68966000D01*
X-801784Y76427250D01*
X-1320367Y76427250D01*
X-1320367Y75887500D01*
X-1595534Y75887500D01*
X-1595534Y75612334D01*
X-1860117Y75612334D01*
X-1860117Y75347750D01*
X-2135284Y75347750D01*
X-2135284Y75072584D01*
X-2399867Y75072584D01*
X-2399867Y74808000D01*
X-2675034Y74808000D01*
X-2675034Y74532834D01*
X-2950200Y74532834D01*
X-2950200Y75083167D01*
X-2686250Y75083167D01*
X-2683288Y75218105D01*
X-2680325Y75353042D01*
X-2545388Y75356004D01*
X-2410450Y75358966D01*
X-2410450Y75622917D01*
X-2146500Y75622917D01*
X-2143538Y75757855D01*
X-2140575Y75892792D01*
X-2005638Y75895754D01*
X-1870700Y75898716D01*
X-1870700Y76162667D01*
X-1606750Y76162667D01*
X-1603788Y76297605D01*
X-1600825Y76432542D01*
X-1465888Y76435504D01*
X-1330950Y76438466D01*
X-1330950Y76956417D01*
X-7712700Y76956417D01*
X-7712700Y76427250D01*
X-8252450Y76427250D01*
X-8252450Y68966364D01*
X-8792200Y68966364D01*
X-8792200Y76427250D01*
X-8792200Y76437834D01*
G36*
X-8792200Y76437834D02*
G01*
X-8263034Y76437834D01*
X-8263034Y76967000D01*
X-7723284Y76967000D01*
X-7723284Y77496167D01*
X-1309784Y77496167D01*
X-1309784Y76967000D01*
X-791200Y76967000D01*
X-791200Y76438197D01*
X-523971Y76435370D01*
X-256742Y76432542D01*
X-254082Y72693980D01*
X-251421Y68955417D01*
X-791200Y68955417D01*
X-791200Y68415667D01*
X-1309784Y68415667D01*
X-1309784Y67886500D01*
X-7723284Y67886500D01*
X-7723284Y68415667D01*
X-8263034Y68415667D01*
X-8263034Y68955417D01*
X-8792200Y68955417D01*
X-8792200Y68966364D01*
X-8252450Y68966364D01*
X-7985221Y68963536D01*
X-7717992Y68960709D01*
X-7715165Y68693480D01*
X-7712337Y68426250D01*
X-1330950Y68426250D01*
X-1330950Y68966000D01*
X-801784Y68966000D01*
X-801784Y76427250D01*
X-1320367Y76427250D01*
X-1320367Y75887500D01*
X-1595534Y75887500D01*
X-1595534Y75612334D01*
X-1860117Y75612334D01*
X-1860117Y75347750D01*
X-2135284Y75347750D01*
X-2135284Y75072584D01*
X-2399867Y75072584D01*
X-2399867Y74808000D01*
X-2675034Y74808000D01*
X-2675034Y74532834D01*
X-2950200Y74532834D01*
X-2950200Y75083167D01*
X-2686250Y75083167D01*
X-2683288Y75218105D01*
X-2680325Y75353042D01*
X-2545388Y75356004D01*
X-2410450Y75358966D01*
X-2410450Y75622917D01*
X-2146500Y75622917D01*
X-2143538Y75757855D01*
X-2140575Y75892792D01*
X-2005638Y75895754D01*
X-1870700Y75898716D01*
X-1870700Y76162667D01*
X-1606750Y76162667D01*
X-1603788Y76297605D01*
X-1600825Y76432542D01*
X-1465888Y76435504D01*
X-1330950Y76438466D01*
X-1330950Y76956417D01*
X-7712700Y76956417D01*
X-7712700Y76427250D01*
X-8252450Y76427250D01*
X-8252450Y68966364D01*
X-8792200Y68966364D01*
X-8792200Y76427250D01*
X-8792200Y76437834D01*
G37*
X267133Y76437834D02*
X796300Y76437834D01*
X796300Y76967000D01*
X1336050Y76967000D01*
X1336050Y77496167D01*
X7749550Y77496167D01*
X7749550Y76967000D01*
X8268133Y76967000D01*
X8268133Y76438197D01*
X8535362Y76435370D01*
X8802591Y76432542D01*
X8805252Y72693980D01*
X8807912Y68955417D01*
X8268133Y68955417D01*
X8268133Y68415667D01*
X7749550Y68415667D01*
X7749550Y67886500D01*
X1336050Y67886500D01*
X1336050Y68415304D01*
X1068820Y68418131D01*
X801591Y68420959D01*
X798764Y68688188D01*
X795936Y68955417D01*
X267133Y68955417D01*
X267133Y68966364D01*
X806883Y68966364D01*
X1074112Y68963536D01*
X1341341Y68960709D01*
X1344169Y68693480D01*
X1346996Y68426250D01*
X7728383Y68426250D01*
X7728383Y68966000D01*
X8257550Y68966000D01*
X8257550Y76427250D01*
X7728383Y76427250D01*
X7728383Y76956417D01*
X1346633Y76956417D01*
X1346633Y76427250D01*
X806883Y76427250D01*
X806883Y68966364D01*
X267133Y68966364D01*
X267133Y76427250D01*
X267133Y76437834D01*
G36*
X267133Y76437834D02*
G01*
X796300Y76437834D01*
X796300Y76967000D01*
X1336050Y76967000D01*
X1336050Y77496167D01*
X7749550Y77496167D01*
X7749550Y76967000D01*
X8268133Y76967000D01*
X8268133Y76438197D01*
X8535362Y76435370D01*
X8802591Y76432542D01*
X8805252Y72693980D01*
X8807912Y68955417D01*
X8268133Y68955417D01*
X8268133Y68415667D01*
X7749550Y68415667D01*
X7749550Y67886500D01*
X1336050Y67886500D01*
X1336050Y68415304D01*
X1068820Y68418131D01*
X801591Y68420959D01*
X798764Y68688188D01*
X795936Y68955417D01*
X267133Y68955417D01*
X267133Y68966364D01*
X806883Y68966364D01*
X1074112Y68963536D01*
X1341341Y68960709D01*
X1344169Y68693480D01*
X1346996Y68426250D01*
X7728383Y68426250D01*
X7728383Y68966000D01*
X8257550Y68966000D01*
X8257550Y76427250D01*
X7728383Y76427250D01*
X7728383Y76956417D01*
X1346633Y76956417D01*
X1346633Y76427250D01*
X806883Y76427250D01*
X806883Y68966364D01*
X267133Y68966364D01*
X267133Y76427250D01*
X267133Y76437834D01*
G37*
X9331758Y76432542D02*
X9598987Y76435370D01*
X9866216Y76438197D01*
X9866216Y76967000D01*
X10395383Y76967000D01*
X10395383Y77496167D01*
X16808883Y77496167D01*
X16808883Y76967000D01*
X17338050Y76967000D01*
X17338050Y76437834D01*
X17867216Y76437834D01*
X17867216Y68955417D01*
X17338413Y68955417D01*
X17335585Y68688188D01*
X17332758Y68420959D01*
X17070820Y68418128D01*
X16808883Y68415297D01*
X16808883Y67886500D01*
X10395383Y67886500D01*
X10395383Y68415667D01*
X9866216Y68415667D01*
X9866216Y68955417D01*
X9326437Y68955417D01*
X9326445Y68966000D01*
X9876800Y68966000D01*
X10405966Y68966000D01*
X10405966Y68426250D01*
X16787353Y68426250D01*
X16790180Y68693480D01*
X16793008Y68960709D01*
X17060237Y68963536D01*
X17327466Y68966364D01*
X17327466Y76427250D01*
X16787716Y76427250D01*
X16787716Y76956417D01*
X10405966Y76956417D01*
X10405966Y76427250D01*
X9876800Y76427250D01*
X9876800Y68966000D01*
X9326445Y68966000D01*
X9329097Y72693980D01*
X9331754Y76427250D01*
X9331758Y76432542D01*
G36*
X9331758Y76432542D02*
G01*
X9598987Y76435370D01*
X9866216Y76438197D01*
X9866216Y76967000D01*
X10395383Y76967000D01*
X10395383Y77496167D01*
X16808883Y77496167D01*
X16808883Y76967000D01*
X17338050Y76967000D01*
X17338050Y76437834D01*
X17867216Y76437834D01*
X17867216Y68955417D01*
X17338413Y68955417D01*
X17335585Y68688188D01*
X17332758Y68420959D01*
X17070820Y68418128D01*
X16808883Y68415297D01*
X16808883Y67886500D01*
X10395383Y67886500D01*
X10395383Y68415667D01*
X9866216Y68415667D01*
X9866216Y68955417D01*
X9326437Y68955417D01*
X9326445Y68966000D01*
X9876800Y68966000D01*
X10405966Y68966000D01*
X10405966Y68426250D01*
X16787353Y68426250D01*
X16790180Y68693480D01*
X16793008Y68960709D01*
X17060237Y68963536D01*
X17327466Y68966364D01*
X17327466Y76427250D01*
X16787716Y76427250D01*
X16787716Y76956417D01*
X10405966Y76956417D01*
X10405966Y76427250D01*
X9876800Y76427250D01*
X9876800Y68966000D01*
X9326445Y68966000D01*
X9329097Y72693980D01*
X9331754Y76427250D01*
X9331758Y76432542D01*
G37*
X18391091Y76432542D02*
X18658320Y76435370D01*
X18925550Y76438197D01*
X18925550Y76967000D01*
X19454716Y76967000D01*
X19454716Y77496167D01*
X25868216Y77496167D01*
X25868216Y76967000D01*
X26397383Y76967000D01*
X26397383Y76437834D01*
X26926550Y76437834D01*
X26926550Y68955417D01*
X26397383Y68955417D01*
X26397383Y68415667D01*
X25868216Y68415667D01*
X25868216Y67886500D01*
X19454716Y67886500D01*
X19454716Y68415667D01*
X18925550Y68415667D01*
X18925550Y68955417D01*
X18385770Y68955417D01*
X18385778Y68966000D01*
X18936133Y68966000D01*
X19465300Y68966000D01*
X19465300Y68426250D01*
X25846686Y68426250D01*
X25849514Y68693480D01*
X25852341Y68960709D01*
X26119570Y68963536D01*
X26386800Y68966364D01*
X26386800Y76427250D01*
X25847050Y76427250D01*
X25847050Y76956417D01*
X19465300Y76956417D01*
X19465300Y76427250D01*
X18936133Y76427250D01*
X18936133Y68966000D01*
X18385778Y68966000D01*
X18388431Y72693980D01*
X18391087Y76427250D01*
X18391091Y76432542D01*
G36*
X18391091Y76432542D02*
G01*
X18658320Y76435370D01*
X18925550Y76438197D01*
X18925550Y76967000D01*
X19454716Y76967000D01*
X19454716Y77496167D01*
X25868216Y77496167D01*
X25868216Y76967000D01*
X26397383Y76967000D01*
X26397383Y76437834D01*
X26926550Y76437834D01*
X26926550Y68955417D01*
X26397383Y68955417D01*
X26397383Y68415667D01*
X25868216Y68415667D01*
X25868216Y67886500D01*
X19454716Y67886500D01*
X19454716Y68415667D01*
X18925550Y68415667D01*
X18925550Y68955417D01*
X18385770Y68955417D01*
X18385778Y68966000D01*
X18936133Y68966000D01*
X19465300Y68966000D01*
X19465300Y68426250D01*
X25846686Y68426250D01*
X25849514Y68693480D01*
X25852341Y68960709D01*
X26119570Y68963536D01*
X26386800Y68966364D01*
X26386800Y76427250D01*
X25847050Y76427250D01*
X25847050Y76956417D01*
X19465300Y76956417D01*
X19465300Y76427250D01*
X18936133Y76427250D01*
X18936133Y68966000D01*
X18385778Y68966000D01*
X18388431Y72693980D01*
X18391087Y76427250D01*
X18391091Y76432542D01*
G37*
X27455716Y76437834D02*
X27984883Y76437834D01*
X27984883Y76967000D01*
X28524633Y76967000D01*
X28524633Y77496167D01*
X34938133Y77496167D01*
X34938133Y76967000D01*
X35456716Y76967000D01*
X35456716Y76437834D01*
X35985883Y76437834D01*
X35985883Y68955417D01*
X35456716Y68955417D01*
X35456716Y68415667D01*
X34938133Y68415667D01*
X34938133Y67886500D01*
X28524633Y67886500D01*
X28524633Y68415667D01*
X27984883Y68415667D01*
X27984883Y68955417D01*
X27455716Y68955417D01*
X27455716Y68966000D01*
X27995466Y68966000D01*
X28524633Y68966000D01*
X28524633Y68426250D01*
X34916966Y68426250D01*
X34916966Y68966000D01*
X35446133Y68966000D01*
X35446133Y76427250D01*
X34916966Y76427250D01*
X34916966Y76956417D01*
X28524633Y76956417D01*
X28524633Y76427250D01*
X27995466Y76427250D01*
X27995466Y68966000D01*
X27455716Y68966000D01*
X27455716Y76427250D01*
X27455716Y76437834D01*
G36*
X27455716Y76437834D02*
G01*
X27984883Y76437834D01*
X27984883Y76967000D01*
X28524633Y76967000D01*
X28524633Y77496167D01*
X34938133Y77496167D01*
X34938133Y76967000D01*
X35456716Y76967000D01*
X35456716Y76437834D01*
X35985883Y76437834D01*
X35985883Y68955417D01*
X35456716Y68955417D01*
X35456716Y68415667D01*
X34938133Y68415667D01*
X34938133Y67886500D01*
X28524633Y67886500D01*
X28524633Y68415667D01*
X27984883Y68415667D01*
X27984883Y68955417D01*
X27455716Y68955417D01*
X27455716Y68966000D01*
X27995466Y68966000D01*
X28524633Y68966000D01*
X28524633Y68426250D01*
X34916966Y68426250D01*
X34916966Y68966000D01*
X35446133Y68966000D01*
X35446133Y76427250D01*
X34916966Y76427250D01*
X34916966Y76956417D01*
X28524633Y76956417D01*
X28524633Y76427250D01*
X27995466Y76427250D01*
X27995466Y68966000D01*
X27455716Y68966000D01*
X27455716Y76427250D01*
X27455716Y76437834D01*
G37*
X36515050Y76437834D02*
X37044216Y76437834D01*
X37044216Y76967000D01*
X37583966Y76967000D01*
X37583966Y77496167D01*
X43997466Y77496167D01*
X43997466Y76967000D01*
X44516050Y76967000D01*
X44516050Y76438197D01*
X44783279Y76435370D01*
X45050508Y76432542D01*
X45053168Y72693980D01*
X45055829Y68955417D01*
X44516050Y68955417D01*
X44516050Y68415667D01*
X43997466Y68415667D01*
X43997466Y67886500D01*
X37583966Y67886500D01*
X37583966Y68415667D01*
X37044216Y68415667D01*
X37044216Y68955417D01*
X36515050Y68955417D01*
X36515050Y68966364D01*
X37054800Y68966364D01*
X37322029Y68963536D01*
X37589258Y68960709D01*
X37592085Y68693480D01*
X37594913Y68426250D01*
X43976300Y68426250D01*
X43976300Y68966000D01*
X44505466Y68966000D01*
X44505466Y76427250D01*
X43976300Y76427250D01*
X43976300Y76956417D01*
X37594550Y76956417D01*
X37594550Y76427250D01*
X37054800Y76427250D01*
X37054800Y68966364D01*
X36515050Y68966364D01*
X36515050Y76427250D01*
X36515050Y76437834D01*
G36*
X36515050Y76437834D02*
G01*
X37044216Y76437834D01*
X37044216Y76967000D01*
X37583966Y76967000D01*
X37583966Y77496167D01*
X43997466Y77496167D01*
X43997466Y76967000D01*
X44516050Y76967000D01*
X44516050Y76438197D01*
X44783279Y76435370D01*
X45050508Y76432542D01*
X45053168Y72693980D01*
X45055829Y68955417D01*
X44516050Y68955417D01*
X44516050Y68415667D01*
X43997466Y68415667D01*
X43997466Y67886500D01*
X37583966Y67886500D01*
X37583966Y68415667D01*
X37044216Y68415667D01*
X37044216Y68955417D01*
X36515050Y68955417D01*
X36515050Y68966364D01*
X37054800Y68966364D01*
X37322029Y68963536D01*
X37589258Y68960709D01*
X37592085Y68693480D01*
X37594913Y68426250D01*
X43976300Y68426250D01*
X43976300Y68966000D01*
X44505466Y68966000D01*
X44505466Y76427250D01*
X43976300Y76427250D01*
X43976300Y76956417D01*
X37594550Y76956417D01*
X37594550Y76427250D01*
X37054800Y76427250D01*
X37054800Y68966364D01*
X36515050Y68966364D01*
X36515050Y76427250D01*
X36515050Y76437834D01*
G37*
X-44204034Y87814917D02*
X-43664284Y87814917D01*
X-43664284Y87285750D01*
X-43135117Y87285750D01*
X-43135117Y86756584D01*
X-42605950Y86756584D01*
X-42605950Y87285750D01*
X-42076784Y87285750D01*
X-42076784Y87814917D01*
X-41547617Y87814917D01*
X-41547617Y88354667D01*
X-40997284Y88354667D01*
X-40997284Y87275167D01*
X-41537034Y87275167D01*
X-41537034Y86746000D01*
X-42066200Y86746000D01*
X-42066200Y86206250D01*
X-42605950Y86206250D01*
X-42605950Y85677084D01*
X-43145700Y85677084D01*
X-43145700Y86206250D01*
X-43674867Y86206250D01*
X-43674867Y86746000D01*
X-44214617Y86746000D01*
X-44214617Y87275167D01*
X-44743784Y87275167D01*
X-44743784Y88354667D01*
X-44204034Y88354667D01*
X-44204034Y87814917D01*
G36*
X-44204034Y87814917D02*
G01*
X-43664284Y87814917D01*
X-43664284Y87285750D01*
X-43135117Y87285750D01*
X-43135117Y86756584D01*
X-42605950Y86756584D01*
X-42605950Y87285750D01*
X-42076784Y87285750D01*
X-42076784Y87814917D01*
X-41547617Y87814917D01*
X-41547617Y88354667D01*
X-40997284Y88354667D01*
X-40997284Y87275167D01*
X-41537034Y87275167D01*
X-41537034Y86746000D01*
X-42066200Y86746000D01*
X-42066200Y86206250D01*
X-42605950Y86206250D01*
X-42605950Y85677084D01*
X-43145700Y85677084D01*
X-43145700Y86206250D01*
X-43674867Y86206250D01*
X-43674867Y86746000D01*
X-44214617Y86746000D01*
X-44214617Y87275167D01*
X-44743784Y87275167D01*
X-44743784Y88354667D01*
X-44204034Y88354667D01*
X-44204034Y87814917D01*
G37*
X-47685950Y94493000D02*
X-48225700Y94493000D01*
X-48225700Y93963834D01*
X-48754867Y93963834D01*
X-48754867Y93434667D01*
X-49284034Y93434667D01*
X-49284034Y92905500D01*
X-48754867Y92905500D01*
X-48754867Y92376334D01*
X-48225700Y92376334D01*
X-48225700Y91836584D01*
X-47685950Y91836584D01*
X-47685950Y91296834D01*
X-48765450Y91296834D01*
X-48765450Y91826000D01*
X-49294617Y91826000D01*
X-49294617Y92365750D01*
X-49834367Y92365750D01*
X-49834367Y92894917D01*
X-50363534Y92894917D01*
X-50363534Y93434667D01*
X-49834367Y93434667D01*
X-49834367Y93974417D01*
X-49294617Y93974417D01*
X-49294617Y94503584D01*
X-48765450Y94503584D01*
X-48765450Y95043334D01*
X-47685950Y95043334D01*
X-47685950Y94493000D01*
G36*
X-47685950Y94493000D02*
G01*
X-48225700Y94493000D01*
X-48225700Y93963834D01*
X-48754867Y93963834D01*
X-48754867Y93434667D01*
X-49284034Y93434667D01*
X-49284034Y92905500D01*
X-48754867Y92905500D01*
X-48754867Y92376334D01*
X-48225700Y92376334D01*
X-48225700Y91836584D01*
X-47685950Y91836584D01*
X-47685950Y91296834D01*
X-48765450Y91296834D01*
X-48765450Y91826000D01*
X-49294617Y91826000D01*
X-49294617Y92365750D01*
X-49834367Y92365750D01*
X-49834367Y92894917D01*
X-50363534Y92894917D01*
X-50363534Y93434667D01*
X-49834367Y93434667D01*
X-49834367Y93974417D01*
X-49294617Y93974417D01*
X-49294617Y94503584D01*
X-48765450Y94503584D01*
X-48765450Y95043334D01*
X-47685950Y95043334D01*
X-47685950Y94493000D01*
G37*
X-36986200Y94503584D02*
X-36446450Y94503584D01*
X-36446450Y93974417D01*
X-35917284Y93974417D01*
X-35917284Y93434667D01*
X-35377534Y93434667D01*
X-35377534Y92894917D01*
X-35917284Y92894917D01*
X-35917284Y92365750D01*
X-36446450Y92365750D01*
X-36446450Y91826000D01*
X-36986200Y91826000D01*
X-36986200Y91296834D01*
X-38055117Y91296834D01*
X-38055117Y91836584D01*
X-37525950Y91836584D01*
X-37525950Y92376334D01*
X-36986200Y92376334D01*
X-36986200Y92905500D01*
X-36457034Y92905500D01*
X-36457034Y93434667D01*
X-36986200Y93434667D01*
X-36986200Y93963834D01*
X-37525950Y93963834D01*
X-37525950Y94493000D01*
X-38055117Y94493000D01*
X-38055117Y95043334D01*
X-36986200Y95043334D01*
X-36986200Y94503584D01*
G36*
X-36986200Y94503584D02*
G01*
X-36446450Y94503584D01*
X-36446450Y93974417D01*
X-35917284Y93974417D01*
X-35917284Y93434667D01*
X-35377534Y93434667D01*
X-35377534Y92894917D01*
X-35917284Y92894917D01*
X-35917284Y92365750D01*
X-36446450Y92365750D01*
X-36446450Y91826000D01*
X-36986200Y91826000D01*
X-36986200Y91296834D01*
X-38055117Y91296834D01*
X-38055117Y91836584D01*
X-37525950Y91836584D01*
X-37525950Y92376334D01*
X-36986200Y92376334D01*
X-36986200Y92905500D01*
X-36457034Y92905500D01*
X-36457034Y93434667D01*
X-36986200Y93434667D01*
X-36986200Y93963834D01*
X-37525950Y93963834D01*
X-37525950Y94493000D01*
X-38055117Y94493000D01*
X-38055117Y95043334D01*
X-36986200Y95043334D01*
X-36986200Y94503584D01*
G37*
X43711716Y100165667D02*
X44124466Y100165667D01*
X44124466Y99329584D01*
X43711716Y99329584D01*
X43711716Y98927417D01*
X44124466Y98927417D01*
X44124466Y98091334D01*
X43711716Y98091334D01*
X43711716Y97678584D01*
X41637383Y97678584D01*
X41637383Y98916834D01*
X42473466Y98916834D01*
X42473466Y98101917D01*
X43288383Y98101917D01*
X43288383Y98916834D01*
X42473466Y98916834D01*
X41637383Y98916834D01*
X41637383Y100165667D01*
X42473466Y100165667D01*
X42473466Y99340167D01*
X43288383Y99340167D01*
X43288383Y100165667D01*
X42473466Y100165667D01*
X41637383Y100165667D01*
X41637383Y100578417D01*
X43711716Y100578417D01*
X43711716Y100165667D01*
G36*
X43711716Y100165667D02*
G01*
X44124466Y100165667D01*
X44124466Y99329584D01*
X43711716Y99329584D01*
X43711716Y98927417D01*
X44124466Y98927417D01*
X44124466Y98091334D01*
X43711716Y98091334D01*
X43711716Y97678584D01*
X41637383Y97678584D01*
X41637383Y98916834D01*
X42473466Y98916834D01*
X42473466Y98101917D01*
X43288383Y98101917D01*
X43288383Y98916834D01*
X42473466Y98916834D01*
X41637383Y98916834D01*
X41637383Y100165667D01*
X42473466Y100165667D01*
X42473466Y99340167D01*
X43288383Y99340167D01*
X43288383Y100165667D01*
X42473466Y100165667D01*
X41637383Y100165667D01*
X41637383Y100578417D01*
X43711716Y100578417D01*
X43711716Y100165667D01*
G37*
X-42605950Y100123334D02*
X-42066200Y100123334D01*
X-42066200Y99594167D01*
X-41537034Y99594167D01*
X-41537034Y99054417D01*
X-40997284Y99054417D01*
X-40997284Y97985500D01*
X-41547617Y97985500D01*
X-41547617Y98514667D01*
X-42076784Y98514667D01*
X-42076784Y99043834D01*
X-42605950Y99043834D01*
X-42605950Y99583584D01*
X-43134754Y99583584D01*
X-43137581Y99316355D01*
X-43140409Y99049125D01*
X-43402346Y99046295D01*
X-43664284Y99043464D01*
X-43664284Y98514667D01*
X-44204034Y98514667D01*
X-44204034Y97985500D01*
X-44743784Y97985500D01*
X-44743784Y99054417D01*
X-44214617Y99054417D01*
X-44214617Y99594167D01*
X-43674867Y99594167D01*
X-43674867Y100123334D01*
X-43145700Y100123334D01*
X-43145700Y100663084D01*
X-42605950Y100663084D01*
X-42605950Y100123334D01*
G36*
X-42605950Y100123334D02*
G01*
X-42066200Y100123334D01*
X-42066200Y99594167D01*
X-41537034Y99594167D01*
X-41537034Y99054417D01*
X-40997284Y99054417D01*
X-40997284Y97985500D01*
X-41547617Y97985500D01*
X-41547617Y98514667D01*
X-42076784Y98514667D01*
X-42076784Y99043834D01*
X-42605950Y99043834D01*
X-42605950Y99583584D01*
X-43134754Y99583584D01*
X-43137581Y99316355D01*
X-43140409Y99049125D01*
X-43402346Y99046295D01*
X-43664284Y99043464D01*
X-43664284Y98514667D01*
X-44204034Y98514667D01*
X-44204034Y97985500D01*
X-44743784Y97985500D01*
X-44743784Y99054417D01*
X-44214617Y99054417D01*
X-44214617Y99594167D01*
X-43674867Y99594167D01*
X-43674867Y100123334D01*
X-43145700Y100123334D01*
X-43145700Y100663084D01*
X-42605950Y100663084D01*
X-42605950Y100123334D01*
G37*
X-47865867Y113659417D02*
X-47453117Y113659417D01*
X-47453117Y113236084D01*
X-48289200Y113236084D01*
X-48289200Y113648834D01*
X-49104117Y113648834D01*
X-49104117Y112823334D01*
X-47865867Y112823334D01*
X-47865867Y112410584D01*
X-47453117Y112410584D01*
X-47453117Y111574500D01*
X-47865867Y111574500D01*
X-47865867Y111161750D01*
X-49527450Y111161750D01*
X-49527450Y111574500D01*
X-49940200Y111574500D01*
X-49940200Y111997834D01*
X-49104117Y111997834D01*
X-49104117Y111585084D01*
X-48289200Y111585084D01*
X-48289200Y112399830D01*
X-48905680Y112402561D01*
X-49522159Y112405292D01*
X-49525028Y112614313D01*
X-49527898Y112823334D01*
X-49940446Y112823334D01*
X-49937678Y113238730D01*
X-49934909Y113654125D01*
X-49731180Y113657000D01*
X-49527450Y113659874D01*
X-49527450Y114072167D01*
X-47865867Y114072167D01*
X-47865867Y113659417D01*
G36*
X-47865867Y113659417D02*
G01*
X-47453117Y113659417D01*
X-47453117Y113236084D01*
X-48289200Y113236084D01*
X-48289200Y113648834D01*
X-49104117Y113648834D01*
X-49104117Y112823334D01*
X-47865867Y112823334D01*
X-47865867Y112410584D01*
X-47453117Y112410584D01*
X-47453117Y111574500D01*
X-47865867Y111574500D01*
X-47865867Y111161750D01*
X-49527450Y111161750D01*
X-49527450Y111574500D01*
X-49940200Y111574500D01*
X-49940200Y111997834D01*
X-49104117Y111997834D01*
X-49104117Y111585084D01*
X-48289200Y111585084D01*
X-48289200Y112399830D01*
X-48905680Y112402561D01*
X-49522159Y112405292D01*
X-49525028Y112614313D01*
X-49527898Y112823334D01*
X-49940446Y112823334D01*
X-49937678Y113238730D01*
X-49934909Y113654125D01*
X-49731180Y113657000D01*
X-49527450Y113659874D01*
X-49527450Y114072167D01*
X-47865867Y114072167D01*
X-47865867Y113659417D01*
G37*
X-45368200Y113236084D02*
X-44542700Y113236084D01*
X-44542700Y112823334D01*
X-45368200Y112823334D01*
X-45368200Y111585084D01*
X-44542700Y111585084D01*
X-44542700Y111161750D01*
X-45791534Y111161750D01*
X-45791534Y111574500D01*
X-46204284Y111574500D01*
X-46204284Y112823334D01*
X-47029784Y112823334D01*
X-47029784Y113236084D01*
X-46204731Y113236084D01*
X-46201862Y113445105D01*
X-46198992Y113654125D01*
X-45368200Y113659663D01*
X-45368200Y113236084D01*
G36*
X-45368200Y113236084D02*
G01*
X-44542700Y113236084D01*
X-44542700Y112823334D01*
X-45368200Y112823334D01*
X-45368200Y111585084D01*
X-44542700Y111585084D01*
X-44542700Y111161750D01*
X-45791534Y111161750D01*
X-45791534Y111574500D01*
X-46204284Y111574500D01*
X-46204284Y112823334D01*
X-47029784Y112823334D01*
X-47029784Y113236084D01*
X-46204731Y113236084D01*
X-46201862Y113445105D01*
X-46198992Y113654125D01*
X-45368200Y113659663D01*
X-45368200Y113236084D01*
G37*
X-42045034Y112823334D02*
X-41632284Y112823334D01*
X-41632284Y111161750D01*
X-43706617Y111161750D01*
X-43706617Y111574500D01*
X-44119367Y111574500D01*
X-44119367Y111987250D01*
X-43283284Y111987250D01*
X-43283284Y111585084D01*
X-42468367Y111585084D01*
X-42468367Y111987250D01*
X-43283284Y111987250D01*
X-44119367Y111987250D01*
X-44119367Y111997834D01*
X-43706617Y111997834D01*
X-43706617Y112410584D01*
X-42468367Y112410584D01*
X-42468367Y112823334D01*
X-43706617Y112823334D01*
X-43706617Y113236084D01*
X-42045034Y113236084D01*
X-42045034Y112823334D01*
G36*
X-42045034Y112823334D02*
G01*
X-41632284Y112823334D01*
X-41632284Y111161750D01*
X-43706617Y111161750D01*
X-43706617Y111574500D01*
X-44119367Y111574500D01*
X-44119367Y111987250D01*
X-43283284Y111987250D01*
X-43283284Y111585084D01*
X-42468367Y111585084D01*
X-42468367Y111987250D01*
X-43283284Y111987250D01*
X-44119367Y111987250D01*
X-44119367Y111997834D01*
X-43706617Y111997834D01*
X-43706617Y112410584D01*
X-42468367Y112410584D01*
X-42468367Y112823334D01*
X-43706617Y112823334D01*
X-43706617Y113236084D01*
X-42045034Y113236084D01*
X-42045034Y112823334D01*
G37*
X-39134617Y112823334D02*
X-38721867Y112823334D01*
X-38721867Y112399755D01*
X-39137263Y112402523D01*
X-39552659Y112405292D01*
X-39555528Y112614313D01*
X-39558398Y112823334D01*
X-40372867Y112823334D01*
X-40372867Y111161750D01*
X-41208950Y111161750D01*
X-41208950Y113236084D01*
X-39134617Y113236084D01*
X-39134617Y112823334D01*
G36*
X-39134617Y112823334D02*
G01*
X-38721867Y112823334D01*
X-38721867Y112399755D01*
X-39137263Y112402523D01*
X-39552659Y112405292D01*
X-39555528Y112614313D01*
X-39558398Y112823334D01*
X-40372867Y112823334D01*
X-40372867Y111161750D01*
X-41208950Y111161750D01*
X-41208950Y113236084D01*
X-39134617Y113236084D01*
X-39134617Y112823334D01*
G37*
X-36636950Y113236084D02*
X-35811450Y113236084D01*
X-35811450Y112823334D01*
X-36636950Y112823334D01*
X-36636950Y111585084D01*
X-35811450Y111585084D01*
X-35811450Y111161750D01*
X-37060284Y111161750D01*
X-37060284Y111574500D01*
X-37473034Y111574500D01*
X-37473034Y112823334D01*
X-38298534Y112823334D01*
X-38298534Y113236084D01*
X-37473481Y113236084D01*
X-37470612Y113445105D01*
X-37467742Y113654125D01*
X-36636950Y113659663D01*
X-36636950Y113236084D01*
G36*
X-36636950Y113236084D02*
G01*
X-35811450Y113236084D01*
X-35811450Y112823334D01*
X-36636950Y112823334D01*
X-36636950Y111585084D01*
X-35811450Y111585084D01*
X-35811450Y111161750D01*
X-37060284Y111161750D01*
X-37060284Y111574500D01*
X-37473034Y111574500D01*
X-37473034Y112823334D01*
X-38298534Y112823334D01*
X-38298534Y113236084D01*
X-37473481Y113236084D01*
X-37470612Y113445105D01*
X-37467742Y113654125D01*
X-36636950Y113659663D01*
X-36636950Y113236084D01*
G37*
X43298966Y113659417D02*
X43711716Y113659417D01*
X43711716Y113236084D01*
X44124466Y113236084D01*
X44124466Y111161750D01*
X43288383Y111161750D01*
X43288383Y112400000D01*
X42473466Y112400000D01*
X42473466Y111161750D01*
X41637383Y111161750D01*
X41637383Y113236084D01*
X42050133Y113236084D01*
X42473466Y113236084D01*
X42473466Y112823334D01*
X43288383Y112823334D01*
X43288383Y113236084D01*
X42473466Y113236084D01*
X42050133Y113236084D01*
X42050133Y113659417D01*
X42462883Y113659417D01*
X42462883Y114072167D01*
X43298966Y114072167D01*
X43298966Y113659417D01*
G36*
X43298966Y113659417D02*
G01*
X43711716Y113659417D01*
X43711716Y113236084D01*
X44124466Y113236084D01*
X44124466Y111161750D01*
X43288383Y111161750D01*
X43288383Y112400000D01*
X42473466Y112400000D01*
X42473466Y111161750D01*
X41637383Y111161750D01*
X41637383Y113236084D01*
X42050133Y113236084D01*
X42473466Y113236084D01*
X42473466Y112823334D01*
X43288383Y112823334D01*
X43288383Y113236084D01*
X42473466Y113236084D01*
X42050133Y113236084D01*
X42050133Y113659417D01*
X42462883Y113659417D01*
X42462883Y114072167D01*
X43298966Y114072167D01*
X43298966Y113659417D01*
G37*
X-6379200Y21891697D02*
X-6111971Y21888870D01*
X-5844742Y21886042D01*
X-5842030Y21084355D01*
X-5839317Y20282667D01*
X-6379200Y20282667D01*
X-6379200Y19742917D01*
X-7987867Y19742917D01*
X-7987867Y20282667D01*
X-8527617Y20282667D01*
X-8527617Y20811834D01*
X-10125700Y20811834D01*
X-10125700Y21351584D01*
X-8527981Y21351584D01*
X-8522325Y21886042D01*
X-8255096Y21888870D01*
X-7987867Y21891697D01*
X-7987867Y22420500D01*
X-6379200Y22420500D01*
X-6379200Y21891697D01*
G36*
X-6379200Y21891697D02*
G01*
X-6111971Y21888870D01*
X-5844742Y21886042D01*
X-5842030Y21084355D01*
X-5839317Y20282667D01*
X-6379200Y20282667D01*
X-6379200Y19742917D01*
X-7987867Y19742917D01*
X-7987867Y20282667D01*
X-8527617Y20282667D01*
X-8527617Y20811834D01*
X-10125700Y20811834D01*
X-10125700Y21351584D01*
X-8527981Y21351584D01*
X-8522325Y21886042D01*
X-8255096Y21888870D01*
X-7987867Y21891697D01*
X-7987867Y22420500D01*
X-6379200Y22420500D01*
X-6379200Y21891697D01*
G37*
X-29323867Y38253167D02*
X-28794700Y38253167D01*
X-28794700Y37713417D01*
X-29874394Y37713417D01*
X-29871652Y38250521D01*
X-29868909Y38787625D01*
X-29323867Y38793275D01*
X-29323867Y38253167D01*
G36*
X-29323867Y38253167D02*
G01*
X-28794700Y38253167D01*
X-28794700Y37713417D01*
X-29874394Y37713417D01*
X-29871652Y38250521D01*
X-29868909Y38787625D01*
X-29323867Y38793275D01*
X-29323867Y38253167D01*
G37*
X-29154534Y44793667D02*
X-27556450Y44793667D01*
X-27556450Y45322834D01*
X-27006117Y45322834D01*
X-27006117Y44793667D01*
X-25408034Y44793667D01*
X-25408034Y43185000D01*
X-25937200Y43185000D01*
X-25937200Y42116084D01*
X-26476950Y42116084D01*
X-26476950Y41576334D01*
X-27006117Y41576334D01*
X-27006117Y41047167D01*
X-27556450Y41047167D01*
X-27556450Y41576334D01*
X-28085617Y41576334D01*
X-28085617Y42116084D01*
X-28614784Y42116084D01*
X-28614784Y43185000D01*
X-28075034Y43185000D01*
X-28075034Y42126667D01*
X-27545867Y42126667D01*
X-27545867Y41586917D01*
X-27016700Y41586917D01*
X-27016700Y42126667D01*
X-26487534Y42126667D01*
X-26487534Y43185000D01*
X-25947784Y43185000D01*
X-25947784Y44243334D01*
X-27016700Y44243334D01*
X-27016700Y44783084D01*
X-27545867Y44783084D01*
X-27545867Y44243334D01*
X-28614784Y44243334D01*
X-28614784Y43185000D01*
X-29154534Y43185000D01*
X-29154534Y44243334D01*
X-29154534Y44793667D01*
G36*
X-29154534Y44793667D02*
G01*
X-27556450Y44793667D01*
X-27556450Y45322834D01*
X-27006117Y45322834D01*
X-27006117Y44793667D01*
X-25408034Y44793667D01*
X-25408034Y43185000D01*
X-25937200Y43185000D01*
X-25937200Y42116084D01*
X-26476950Y42116084D01*
X-26476950Y41576334D01*
X-27006117Y41576334D01*
X-27006117Y41047167D01*
X-27556450Y41047167D01*
X-27556450Y41576334D01*
X-28085617Y41576334D01*
X-28085617Y42116084D01*
X-28614784Y42116084D01*
X-28614784Y43185000D01*
X-28075034Y43185000D01*
X-28075034Y42126667D01*
X-27545867Y42126667D01*
X-27545867Y41586917D01*
X-27016700Y41586917D01*
X-27016700Y42126667D01*
X-26487534Y42126667D01*
X-26487534Y43185000D01*
X-25947784Y43185000D01*
X-25947784Y44243334D01*
X-27016700Y44243334D01*
X-27016700Y44783084D01*
X-27545867Y44783084D01*
X-27545867Y44243334D01*
X-28614784Y44243334D01*
X-28614784Y43185000D01*
X-29154534Y43185000D01*
X-29154534Y44243334D01*
X-29154534Y44793667D01*
G37*
X-18560617Y43830584D02*
X-19640117Y43830584D01*
X-19640117Y43301417D01*
X-18560617Y43301417D01*
X-18560617Y42751084D01*
X-19640117Y42751084D01*
X-19640117Y41131834D01*
X-20730200Y41131834D01*
X-20730200Y42751084D01*
X-21269950Y42751084D01*
X-21269950Y43301417D01*
X-20730200Y43301417D01*
X-20730200Y43841167D01*
X-20190450Y43841167D01*
X-20190450Y44380917D01*
X-18560617Y44380917D01*
X-18560617Y43830584D01*
G36*
X-18560617Y43830584D02*
G01*
X-19640117Y43830584D01*
X-19640117Y43301417D01*
X-18560617Y43301417D01*
X-18560617Y42751084D01*
X-19640117Y42751084D01*
X-19640117Y41131834D01*
X-20730200Y41131834D01*
X-20730200Y42751084D01*
X-21269950Y42751084D01*
X-21269950Y43301417D01*
X-20730200Y43301417D01*
X-20730200Y43841167D01*
X-20190450Y43841167D01*
X-20190450Y44380917D01*
X-18560617Y44380917D01*
X-18560617Y43830584D01*
G37*
X-15406784Y43301417D02*
X-14867034Y43301417D01*
X-14867034Y41131834D01*
X-15957117Y41131834D01*
X-15957117Y43290834D01*
X-17026034Y43290834D01*
X-17026034Y41131834D01*
X-18116117Y41131834D01*
X-18116117Y43841167D01*
X-15406784Y43841167D01*
X-15406784Y43301417D01*
G36*
X-15406784Y43301417D02*
G01*
X-14867034Y43301417D01*
X-14867034Y41131834D01*
X-15957117Y41131834D01*
X-15957117Y43290834D01*
X-17026034Y43290834D01*
X-17026034Y41131834D01*
X-18116117Y41131834D01*
X-18116117Y43841167D01*
X-15406784Y43841167D01*
X-15406784Y43301417D01*
G37*
X-15459700Y44116334D02*
X-15999450Y44116334D01*
X-15999450Y44656084D01*
X-16528617Y44656084D01*
X-16528617Y45195834D01*
X-15459700Y45195834D01*
X-15459700Y44116334D01*
G36*
X-15459700Y44116334D02*
G01*
X-15999450Y44116334D01*
X-15999450Y44656084D01*
X-16528617Y44656084D01*
X-16528617Y45195834D01*
X-15459700Y45195834D01*
X-15459700Y44116334D01*
G37*
X27466300Y44656084D02*
X27995466Y44656084D01*
X27995466Y44126917D01*
X28535216Y44126917D01*
X28535216Y43597750D01*
X29064383Y43597750D01*
X29064383Y43047417D01*
X27963716Y43047417D01*
X27963716Y41449334D01*
X26386800Y41449334D01*
X26386800Y43047417D01*
X25328466Y43047417D01*
X25328466Y43597750D01*
X25857633Y43597750D01*
X25857633Y44126917D01*
X26386800Y44126917D01*
X26386800Y44656084D01*
X26926550Y44656084D01*
X26926550Y45195834D01*
X27466300Y45195834D01*
X27466300Y44656084D01*
G36*
X27466300Y44656084D02*
G01*
X27995466Y44656084D01*
X27995466Y44126917D01*
X28535216Y44126917D01*
X28535216Y43597750D01*
X29064383Y43597750D01*
X29064383Y43047417D01*
X27963716Y43047417D01*
X27963716Y41449334D01*
X26386800Y41449334D01*
X26386800Y43047417D01*
X25328466Y43047417D01*
X25328466Y43597750D01*
X25857633Y43597750D01*
X25857633Y44126917D01*
X26386800Y44126917D01*
X26386800Y44656084D01*
X26926550Y44656084D01*
X26926550Y45195834D01*
X27466300Y45195834D01*
X27466300Y44656084D01*
G37*
X-30678534Y54244584D02*
X-31218284Y54244584D01*
X-31218284Y53704834D01*
X-31747087Y53704834D01*
X-31749915Y53437605D01*
X-31752742Y53170375D01*
X-32019971Y53167548D01*
X-32287200Y53164720D01*
X-32287200Y52625334D01*
X-32826950Y52625334D01*
X-32826950Y52096167D01*
X-30678534Y52096167D01*
X-30678534Y51545834D01*
X-33917034Y51545834D01*
X-33917034Y52635917D01*
X-33377284Y52635917D01*
X-33377284Y53175667D01*
X-32837534Y53175667D01*
X-32837534Y53715417D01*
X-32297784Y53715417D01*
X-32297784Y54255167D01*
X-31758034Y54255167D01*
X-31758034Y54784334D01*
X-33917034Y54784334D01*
X-33917034Y55334667D01*
X-30678534Y55334667D01*
X-30678534Y54244584D01*
G36*
X-30678534Y54244584D02*
G01*
X-31218284Y54244584D01*
X-31218284Y53704834D01*
X-31747087Y53704834D01*
X-31749915Y53437605D01*
X-31752742Y53170375D01*
X-32019971Y53167548D01*
X-32287200Y53164720D01*
X-32287200Y52625334D01*
X-32826950Y52625334D01*
X-32826950Y52096167D01*
X-30678534Y52096167D01*
X-30678534Y51545834D01*
X-33917034Y51545834D01*
X-33917034Y52635917D01*
X-33377284Y52635917D01*
X-33377284Y53175667D01*
X-32837534Y53175667D01*
X-32837534Y53715417D01*
X-32297784Y53715417D01*
X-32297784Y54255167D01*
X-31758034Y54255167D01*
X-31758034Y54784334D01*
X-33917034Y54784334D01*
X-33917034Y55334667D01*
X-30678534Y55334667D01*
X-30678534Y54244584D01*
G37*
X-23767617Y54255167D02*
X-22698700Y54255167D01*
X-22698700Y55334667D01*
X-21608617Y55334667D01*
X-21608617Y54244584D01*
X-22148367Y54244584D01*
X-22148367Y53704834D01*
X-22688117Y53704834D01*
X-22688117Y53175667D01*
X-22148367Y53175667D01*
X-22148367Y52635917D01*
X-21608617Y52635917D01*
X-21608617Y51545834D01*
X-22698700Y51545834D01*
X-22698700Y52625334D01*
X-23767617Y52625334D01*
X-23767617Y51545834D01*
X-24857700Y51545834D01*
X-24857700Y52635917D01*
X-24317950Y52635917D01*
X-24317950Y53175667D01*
X-23778200Y53175667D01*
X-23778200Y53704834D01*
X-24317950Y53704834D01*
X-24317950Y54244584D01*
X-24857700Y54244584D01*
X-24857700Y55334667D01*
X-23767617Y55334667D01*
X-23767617Y54255167D01*
G36*
X-23767617Y54255167D02*
G01*
X-22698700Y54255167D01*
X-22698700Y55334667D01*
X-21608617Y55334667D01*
X-21608617Y54244584D01*
X-22148367Y54244584D01*
X-22148367Y53704834D01*
X-22688117Y53704834D01*
X-22688117Y53175667D01*
X-22148367Y53175667D01*
X-22148367Y52635917D01*
X-21608617Y52635917D01*
X-21608617Y51545834D01*
X-22698700Y51545834D01*
X-22698700Y52625334D01*
X-23767617Y52625334D01*
X-23767617Y51545834D01*
X-24857700Y51545834D01*
X-24857700Y52635917D01*
X-24317950Y52635917D01*
X-24317950Y53175667D01*
X-23778200Y53175667D01*
X-23778200Y53704834D01*
X-24317950Y53704834D01*
X-24317950Y54244584D01*
X-24857700Y54244584D01*
X-24857700Y55334667D01*
X-23767617Y55334667D01*
X-23767617Y54255167D01*
G37*
X-15163367Y48952917D02*
X-15971228Y48952917D01*
X-16100128Y48953007D01*
X-16222860Y48953269D01*
X-16337782Y48953687D01*
X-16443255Y48954247D01*
X-16537638Y48954936D01*
X-16619289Y48955740D01*
X-16686569Y48956643D01*
X-16737837Y48957632D01*
X-16771451Y48958693D01*
X-16785771Y48959811D01*
X-16786145Y48959973D01*
X-16788849Y48972704D01*
X-16791075Y49002270D01*
X-16792598Y49044341D01*
X-16793199Y49094588D01*
X-16793200Y49097556D01*
X-16793200Y49228084D01*
X-15163367Y49228084D01*
X-15163367Y48952917D01*
G36*
X-15163367Y48952917D02*
G01*
X-15971228Y48952917D01*
X-16100128Y48953007D01*
X-16222860Y48953269D01*
X-16337782Y48953687D01*
X-16443255Y48954247D01*
X-16537638Y48954936D01*
X-16619289Y48955740D01*
X-16686569Y48956643D01*
X-16737837Y48957632D01*
X-16771451Y48958693D01*
X-16785771Y48959811D01*
X-16786145Y48959973D01*
X-16788849Y48972704D01*
X-16791075Y49002270D01*
X-16792598Y49044341D01*
X-16793199Y49094588D01*
X-16793200Y49097556D01*
X-16793200Y49228084D01*
X-15163367Y49228084D01*
X-15163367Y48952917D01*
G37*
X-13089034Y54794917D02*
X-12549284Y54794917D01*
X-12549284Y54244584D01*
X-13639367Y54244584D01*
X-13639367Y54784334D01*
X-14708284Y54784334D01*
X-14708284Y52096167D01*
X-13639367Y52096167D01*
X-13639367Y52635917D01*
X-12549284Y52635917D01*
X-12549284Y52085584D01*
X-13089034Y52085584D01*
X-13089034Y51545834D01*
X-15258617Y51545834D01*
X-15258617Y52085584D01*
X-15798367Y52085584D01*
X-15798367Y54794917D01*
X-15258617Y54794917D01*
X-15258617Y55334667D01*
X-13089034Y55334667D01*
X-13089034Y54794917D01*
G36*
X-13089034Y54794917D02*
G01*
X-12549284Y54794917D01*
X-12549284Y54244584D01*
X-13639367Y54244584D01*
X-13639367Y54784334D01*
X-14708284Y54784334D01*
X-14708284Y52096167D01*
X-13639367Y52096167D01*
X-13639367Y52635917D01*
X-12549284Y52635917D01*
X-12549284Y52085584D01*
X-13089034Y52085584D01*
X-13089034Y51545834D01*
X-15258617Y51545834D01*
X-15258617Y52085584D01*
X-15798367Y52085584D01*
X-15798367Y54794917D01*
X-15258617Y54794917D01*
X-15258617Y55334667D01*
X-13089034Y55334667D01*
X-13089034Y54794917D01*
G37*
X-10117456Y53850355D02*
X-10120409Y53710125D01*
X-11195449Y53707430D01*
X-11344513Y53707125D01*
X-11487589Y53706966D01*
X-11623257Y53706947D01*
X-11750100Y53707063D01*
X-11866700Y53707308D01*
X-11971638Y53707676D01*
X-12063495Y53708161D01*
X-12140855Y53708757D01*
X-12202298Y53709459D01*
X-12246407Y53710261D01*
X-12271762Y53711158D01*
X-12277595Y53711840D01*
X-12280269Y53724549D01*
X-12282483Y53754189D01*
X-12284027Y53796523D01*
X-12284690Y53847316D01*
X-12284700Y53854764D01*
X-12284700Y53990584D01*
X-10114503Y53990584D01*
X-10117456Y53850355D01*
G36*
X-10117456Y53850355D02*
G01*
X-10120409Y53710125D01*
X-11195449Y53707430D01*
X-11344513Y53707125D01*
X-11487589Y53706966D01*
X-11623257Y53706947D01*
X-11750100Y53707063D01*
X-11866700Y53707308D01*
X-11971638Y53707676D01*
X-12063495Y53708161D01*
X-12140855Y53708757D01*
X-12202298Y53709459D01*
X-12246407Y53710261D01*
X-12271762Y53711158D01*
X-12277595Y53711840D01*
X-12280269Y53724549D01*
X-12282483Y53754189D01*
X-12284027Y53796523D01*
X-12284690Y53847316D01*
X-12284700Y53854764D01*
X-12284700Y53990584D01*
X-10114503Y53990584D01*
X-10117456Y53850355D01*
G37*
X-6104034Y48677750D02*
X-7723284Y48677750D01*
X-7723284Y48963500D01*
X-6104034Y48963500D01*
X-6104034Y48677750D01*
G36*
X-6104034Y48677750D02*
G01*
X-7723284Y48677750D01*
X-7723284Y48963500D01*
X-6104034Y48963500D01*
X-6104034Y48677750D01*
G37*
X-6104034Y49217500D02*
X-7723284Y49217500D01*
X-7723284Y49503250D01*
X-6104034Y49503250D01*
X-6104034Y49217500D01*
G36*
X-6104034Y49217500D02*
G01*
X-7723284Y49217500D01*
X-7723284Y49503250D01*
X-6104034Y49503250D01*
X-6104034Y49217500D01*
G37*
X-5648950Y52635917D02*
X-4580034Y52635917D01*
X-4580034Y55334667D01*
X-3489950Y55334667D01*
X-3489950Y52625334D01*
X-4029700Y52625334D01*
X-4029700Y52085584D01*
X-4569450Y52085584D01*
X-4569450Y51545834D01*
X-5659534Y51545834D01*
X-5659534Y52085584D01*
X-6199284Y52085584D01*
X-6199284Y52625334D01*
X-6739114Y52625334D01*
X-6736428Y53977355D01*
X-6733742Y55329375D01*
X-5648950Y55334859D01*
X-5648950Y52635917D01*
G36*
X-5648950Y52635917D02*
G01*
X-4580034Y52635917D01*
X-4580034Y55334667D01*
X-3489950Y55334667D01*
X-3489950Y52625334D01*
X-4029700Y52625334D01*
X-4029700Y52085584D01*
X-4569450Y52085584D01*
X-4569450Y51545834D01*
X-5659534Y51545834D01*
X-5659534Y52085584D01*
X-6199284Y52085584D01*
X-6199284Y52625334D01*
X-6739114Y52625334D01*
X-6736428Y53977355D01*
X-6733742Y55329375D01*
X-5648950Y55334859D01*
X-5648950Y52635917D01*
G37*
X-1860117Y54794917D02*
X-1320367Y54794917D01*
X-1320367Y54519750D01*
X-1860117Y54519750D01*
X-1860117Y53980000D01*
X-2410450Y53980000D01*
X-2410450Y54519750D01*
X-2950200Y54519750D01*
X-2950200Y54794917D01*
X-2410450Y54794917D01*
X-2410450Y55334667D01*
X-1860117Y55334667D01*
X-1860117Y54794917D01*
G36*
X-1860117Y54794917D02*
G01*
X-1320367Y54794917D01*
X-1320367Y54519750D01*
X-1860117Y54519750D01*
X-1860117Y53980000D01*
X-2410450Y53980000D01*
X-2410450Y54519750D01*
X-2950200Y54519750D01*
X-2950200Y54794917D01*
X-2410450Y54794917D01*
X-2410450Y55334667D01*
X-1860117Y55334667D01*
X-1860117Y54794917D01*
G37*
X2426133Y48413167D02*
X2150966Y48413167D01*
X2150966Y48148584D01*
X1600633Y48148584D01*
X1600633Y48423750D01*
X1875800Y48423750D01*
X1875800Y48963500D01*
X2426133Y48963500D01*
X2426133Y48413167D01*
G36*
X2426133Y48413167D02*
G01*
X2150966Y48413167D01*
X2150966Y48148584D01*
X1600633Y48148584D01*
X1600633Y48423750D01*
X1875800Y48423750D01*
X1875800Y48963500D01*
X2426133Y48963500D01*
X2426133Y48413167D01*
G37*
X5029633Y54794917D02*
X5569383Y54794917D01*
X5569383Y53704834D01*
X5029633Y53704834D01*
X5029633Y53175667D01*
X5569383Y53175667D01*
X5569383Y52085584D01*
X5029633Y52085584D01*
X5029633Y51545834D01*
X2330883Y51545834D01*
X2330883Y53165084D01*
X3410383Y53165084D01*
X3410383Y52096167D01*
X4479300Y52096167D01*
X4479300Y53165084D01*
X3410383Y53165084D01*
X2330883Y53165084D01*
X2330883Y54784334D01*
X3410383Y54784334D01*
X3410383Y53715417D01*
X4479300Y53715417D01*
X4479300Y54784334D01*
X3410383Y54784334D01*
X2330883Y54784334D01*
X2330883Y55334667D01*
X5029633Y55334667D01*
X5029633Y54794917D01*
G36*
X5029633Y54794917D02*
G01*
X5569383Y54794917D01*
X5569383Y53704834D01*
X5029633Y53704834D01*
X5029633Y53175667D01*
X5569383Y53175667D01*
X5569383Y52085584D01*
X5029633Y52085584D01*
X5029633Y51545834D01*
X2330883Y51545834D01*
X2330883Y53165084D01*
X3410383Y53165084D01*
X3410383Y52096167D01*
X4479300Y52096167D01*
X4479300Y53165084D01*
X3410383Y53165084D01*
X2330883Y53165084D01*
X2330883Y54784334D01*
X3410383Y54784334D01*
X3410383Y53715417D01*
X4479300Y53715417D01*
X4479300Y54784334D01*
X3410383Y54784334D01*
X2330883Y54784334D01*
X2330883Y55334667D01*
X5029633Y55334667D01*
X5029633Y54794917D01*
G37*
X7463800Y55324084D02*
X6924050Y55324084D01*
X6924050Y55059500D01*
X6659466Y55059500D01*
X6659466Y54784334D01*
X6384300Y54784334D01*
X6384300Y54530334D01*
X6659466Y54530334D01*
X6659466Y54255167D01*
X6924050Y54255167D01*
X6924050Y53990584D01*
X7463800Y53990584D01*
X7463800Y53704834D01*
X7063397Y53704834D01*
X6973339Y53705014D01*
X6889987Y53705528D01*
X6815698Y53706335D01*
X6752831Y53707394D01*
X6703744Y53708664D01*
X6670794Y53710104D01*
X6656340Y53711674D01*
X6655938Y53711889D01*
X6653234Y53724620D01*
X6651009Y53754187D01*
X6649485Y53796258D01*
X6648885Y53846504D01*
X6648883Y53849473D01*
X6648883Y53980000D01*
X6384300Y53980000D01*
X6384300Y54243951D01*
X6249362Y54246913D01*
X6114425Y54249875D01*
X6111462Y54384813D01*
X6108500Y54519750D01*
X5844550Y54519750D01*
X5844550Y54794917D01*
X6109133Y54794917D01*
X6109133Y55070084D01*
X6384300Y55070084D01*
X6384300Y55334667D01*
X6648883Y55334667D01*
X6648883Y55609834D01*
X7463800Y55609834D01*
X7463800Y55324084D01*
G36*
X7463800Y55324084D02*
G01*
X6924050Y55324084D01*
X6924050Y55059500D01*
X6659466Y55059500D01*
X6659466Y54784334D01*
X6384300Y54784334D01*
X6384300Y54530334D01*
X6659466Y54530334D01*
X6659466Y54255167D01*
X6924050Y54255167D01*
X6924050Y53990584D01*
X7463800Y53990584D01*
X7463800Y53704834D01*
X7063397Y53704834D01*
X6973339Y53705014D01*
X6889987Y53705528D01*
X6815698Y53706335D01*
X6752831Y53707394D01*
X6703744Y53708664D01*
X6670794Y53710104D01*
X6656340Y53711674D01*
X6655938Y53711889D01*
X6653234Y53724620D01*
X6651009Y53754187D01*
X6649485Y53796258D01*
X6648885Y53846504D01*
X6648883Y53849473D01*
X6648883Y53980000D01*
X6384300Y53980000D01*
X6384300Y54243951D01*
X6249362Y54246913D01*
X6114425Y54249875D01*
X6111462Y54384813D01*
X6108500Y54519750D01*
X5844550Y54519750D01*
X5844550Y54794917D01*
X6109133Y54794917D01*
X6109133Y55070084D01*
X6384300Y55070084D01*
X6384300Y55334667D01*
X6648883Y55334667D01*
X6648883Y55609834D01*
X7463800Y55609834D01*
X7463800Y55324084D01*
G37*
X11485466Y48148584D02*
X10935133Y48148584D01*
X10935133Y48688334D01*
X11485466Y48688334D01*
X11485466Y48148584D01*
G36*
X11485466Y48148584D02*
G01*
X10935133Y48148584D01*
X10935133Y48688334D01*
X11485466Y48688334D01*
X11485466Y48148584D01*
G37*
X12480300Y54795281D02*
X13014758Y54789625D01*
X13017585Y54522396D01*
X13020413Y54255167D01*
X13549216Y54255167D01*
X13549216Y55334667D01*
X14628716Y55334667D01*
X14628716Y51545834D01*
X13549216Y51545834D01*
X13549216Y52625334D01*
X13009466Y52625334D01*
X13009466Y53165084D01*
X12480300Y53165084D01*
X12480300Y51545834D01*
X11390216Y51545834D01*
X11390216Y55334667D01*
X12480300Y55334667D01*
X12480300Y54795281D01*
G36*
X12480300Y54795281D02*
G01*
X13014758Y54789625D01*
X13017585Y54522396D01*
X13020413Y54255167D01*
X13549216Y54255167D01*
X13549216Y55334667D01*
X14628716Y55334667D01*
X14628716Y51545834D01*
X13549216Y51545834D01*
X13549216Y52625334D01*
X13009466Y52625334D01*
X13009466Y53165084D01*
X12480300Y53165084D01*
X12480300Y51545834D01*
X11390216Y51545834D01*
X11390216Y55334667D01*
X12480300Y55334667D01*
X12480300Y54795281D01*
G37*
X15993966Y55334667D02*
X16258550Y55334667D01*
X16258550Y55070084D01*
X16533716Y55070084D01*
X16533716Y54794917D01*
X16798300Y54794917D01*
X16798300Y54519750D01*
X16534349Y54519750D01*
X16531387Y54384813D01*
X16528425Y54249875D01*
X16393487Y54246913D01*
X16258550Y54243951D01*
X16258550Y53980000D01*
X15994599Y53980000D01*
X15991637Y53845063D01*
X15988675Y53710125D01*
X15585750Y53707356D01*
X15495398Y53706918D01*
X15411740Y53706867D01*
X15337128Y53707176D01*
X15273913Y53707820D01*
X15224445Y53708774D01*
X15191076Y53710013D01*
X15176156Y53711511D01*
X15175646Y53711765D01*
X15172944Y53724504D01*
X15170707Y53754170D01*
X15169147Y53796525D01*
X15168477Y53847329D01*
X15168466Y53854764D01*
X15168466Y53990584D01*
X15708216Y53990584D01*
X15708216Y54255167D01*
X15983383Y54255167D01*
X15983383Y54530334D01*
X16247966Y54530334D01*
X16247966Y54784334D01*
X15983383Y54784334D01*
X15983383Y55059500D01*
X15708216Y55059500D01*
X15708216Y55323720D01*
X15440987Y55326548D01*
X15173758Y55329375D01*
X15170805Y55469605D01*
X15167852Y55609834D01*
X15993966Y55609834D01*
X15993966Y55334667D01*
G36*
X15993966Y55334667D02*
G01*
X16258550Y55334667D01*
X16258550Y55070084D01*
X16533716Y55070084D01*
X16533716Y54794917D01*
X16798300Y54794917D01*
X16798300Y54519750D01*
X16534349Y54519750D01*
X16531387Y54384813D01*
X16528425Y54249875D01*
X16393487Y54246913D01*
X16258550Y54243951D01*
X16258550Y53980000D01*
X15994599Y53980000D01*
X15991637Y53845063D01*
X15988675Y53710125D01*
X15585750Y53707356D01*
X15495398Y53706918D01*
X15411740Y53706867D01*
X15337128Y53707176D01*
X15273913Y53707820D01*
X15224445Y53708774D01*
X15191076Y53710013D01*
X15176156Y53711511D01*
X15175646Y53711765D01*
X15172944Y53724504D01*
X15170707Y53754170D01*
X15169147Y53796525D01*
X15168477Y53847329D01*
X15168466Y53854764D01*
X15168466Y53990584D01*
X15708216Y53990584D01*
X15708216Y54255167D01*
X15983383Y54255167D01*
X15983383Y54530334D01*
X16247966Y54530334D01*
X16247966Y54784334D01*
X15983383Y54784334D01*
X15983383Y55059500D01*
X15708216Y55059500D01*
X15708216Y55323720D01*
X15440987Y55326548D01*
X15173758Y55329375D01*
X15170805Y55469605D01*
X15167852Y55609834D01*
X15993966Y55609834D01*
X15993966Y55334667D01*
G37*
X21359716Y49492667D02*
X21084550Y49492667D01*
X21084550Y49217500D01*
X20819966Y49217500D01*
X20819966Y48952917D01*
X20544800Y48952917D01*
X20544800Y48677750D01*
X20280216Y48677750D01*
X20280216Y48413167D01*
X20005050Y48413167D01*
X20005050Y48148584D01*
X19454716Y48148584D01*
X19454716Y48423750D01*
X19729883Y48423750D01*
X19729883Y48688334D01*
X19994466Y48688334D01*
X19994466Y48963500D01*
X20269633Y48963500D01*
X20269633Y49228084D01*
X20534216Y49228084D01*
X20534216Y49503250D01*
X20809383Y49503250D01*
X20809383Y49767834D01*
X21359716Y49767834D01*
X21359716Y49492667D01*
G36*
X21359716Y49492667D02*
G01*
X21084550Y49492667D01*
X21084550Y49217500D01*
X20819966Y49217500D01*
X20819966Y48952917D01*
X20544800Y48952917D01*
X20544800Y48677750D01*
X20280216Y48677750D01*
X20280216Y48413167D01*
X20005050Y48413167D01*
X20005050Y48148584D01*
X19454716Y48148584D01*
X19454716Y48423750D01*
X19729883Y48423750D01*
X19729883Y48688334D01*
X19994466Y48688334D01*
X19994466Y48963500D01*
X20269633Y48963500D01*
X20269633Y49228084D01*
X20534216Y49228084D01*
X20534216Y49503250D01*
X20809383Y49503250D01*
X20809383Y49767834D01*
X21359716Y49767834D01*
X21359716Y49492667D01*
G37*
X21275050Y54794917D02*
X21814800Y54794917D01*
X21814800Y54255167D01*
X22343966Y54255167D01*
X22343966Y54794917D01*
X22883716Y54794917D01*
X22883716Y55334667D01*
X23973800Y55334667D01*
X23973800Y51545834D01*
X22883716Y51545834D01*
X22883716Y53704834D01*
X22354550Y53704834D01*
X22354550Y53165084D01*
X21804216Y53165084D01*
X21804216Y53704834D01*
X21275050Y53704834D01*
X21275050Y51545834D01*
X20184966Y51545834D01*
X20184966Y55334667D01*
X21275050Y55334667D01*
X21275050Y54794917D01*
G36*
X21275050Y54794917D02*
G01*
X21814800Y54794917D01*
X21814800Y54255167D01*
X22343966Y54255167D01*
X22343966Y54794917D01*
X22883716Y54794917D01*
X22883716Y55334667D01*
X23973800Y55334667D01*
X23973800Y51545834D01*
X22883716Y51545834D01*
X22883716Y53704834D01*
X22354550Y53704834D01*
X22354550Y53165084D01*
X21804216Y53165084D01*
X21804216Y53704834D01*
X21275050Y53704834D01*
X21275050Y51545834D01*
X20184966Y51545834D01*
X20184966Y55334667D01*
X21275050Y55334667D01*
X21275050Y54794917D01*
G37*
X25315545Y53850534D02*
X25312591Y53710125D01*
X25045100Y53707297D01*
X24959894Y53706600D01*
X24893685Y53706585D01*
X24844311Y53707340D01*
X24809612Y53708955D01*
X24787425Y53711519D01*
X24775589Y53715119D01*
X24772226Y53718497D01*
X24770360Y53734122D01*
X24769294Y53766176D01*
X24769109Y53809935D01*
X24769842Y53858908D01*
X24772841Y53985292D01*
X25045670Y53988117D01*
X25318500Y53990942D01*
X25315545Y53850534D01*
G36*
X25315545Y53850534D02*
G01*
X25312591Y53710125D01*
X25045100Y53707297D01*
X24959894Y53706600D01*
X24893685Y53706585D01*
X24844311Y53707340D01*
X24809612Y53708955D01*
X24787425Y53711519D01*
X24775589Y53715119D01*
X24772226Y53718497D01*
X24770360Y53734122D01*
X24769294Y53766176D01*
X24769109Y53809935D01*
X24769842Y53858908D01*
X24772841Y53985292D01*
X25045670Y53988117D01*
X25318500Y53990942D01*
X25315545Y53850534D01*
G37*
X25593050Y55334667D02*
X25857633Y55334667D01*
X25857633Y54784334D01*
X25593050Y54784334D01*
X25593050Y54519750D01*
X25317883Y54519750D01*
X25317883Y54244584D01*
X25047676Y54244584D01*
X24961382Y54244803D01*
X24894179Y54245529D01*
X24843992Y54246868D01*
X24808750Y54248922D01*
X24786379Y54251796D01*
X24774806Y54255594D01*
X24772156Y54258429D01*
X24770317Y54273979D01*
X24769274Y54305966D01*
X24769103Y54349675D01*
X24769842Y54398658D01*
X24772841Y54525042D01*
X24907779Y54528004D01*
X25042716Y54530966D01*
X25042716Y54794917D01*
X25307300Y54794917D01*
X25307300Y55324084D01*
X24778133Y55324084D01*
X24778133Y55059500D01*
X24238383Y55059500D01*
X24238383Y55334667D01*
X24502966Y55334667D01*
X24502966Y55609834D01*
X25593050Y55609834D01*
X25593050Y55334667D01*
G36*
X25593050Y55334667D02*
G01*
X25857633Y55334667D01*
X25857633Y54784334D01*
X25593050Y54784334D01*
X25593050Y54519750D01*
X25317883Y54519750D01*
X25317883Y54244584D01*
X25047676Y54244584D01*
X24961382Y54244803D01*
X24894179Y54245529D01*
X24843992Y54246868D01*
X24808750Y54248922D01*
X24786379Y54251796D01*
X24774806Y54255594D01*
X24772156Y54258429D01*
X24770317Y54273979D01*
X24769274Y54305966D01*
X24769103Y54349675D01*
X24769842Y54398658D01*
X24772841Y54525042D01*
X24907779Y54528004D01*
X25042716Y54530966D01*
X25042716Y54794917D01*
X25307300Y54794917D01*
X25307300Y55324084D01*
X24778133Y55324084D01*
X24778133Y55059500D01*
X24238383Y55059500D01*
X24238383Y55334667D01*
X24502966Y55334667D01*
X24502966Y55609834D01*
X25593050Y55609834D01*
X25593050Y55334667D01*
G37*
X30662466Y53472000D02*
X32789716Y53472000D01*
X32789716Y54540917D01*
X33869216Y54540917D01*
X33869216Y52392500D01*
X30662466Y52392500D01*
X30662466Y51323584D01*
X30122716Y51323584D01*
X30122716Y51863334D01*
X29582966Y51863334D01*
X29582966Y52392500D01*
X29053800Y52392500D01*
X29053800Y53472000D01*
X29582966Y53472000D01*
X29582966Y54001167D01*
X30122716Y54001167D01*
X30122716Y54540917D01*
X30662466Y54540917D01*
X30662466Y53472000D01*
G36*
X30662466Y53472000D02*
G01*
X32789716Y53472000D01*
X32789716Y54540917D01*
X33869216Y54540917D01*
X33869216Y52392500D01*
X30662466Y52392500D01*
X30662466Y51323584D01*
X30122716Y51323584D01*
X30122716Y51863334D01*
X29582966Y51863334D01*
X29582966Y52392500D01*
X29053800Y52392500D01*
X29053800Y53472000D01*
X29582966Y53472000D01*
X29582966Y54001167D01*
X30122716Y54001167D01*
X30122716Y54540917D01*
X30662466Y54540917D01*
X30662466Y53472000D01*
G37*
X-36287700Y65208917D02*
X-35747950Y65208917D01*
X-35747950Y64669167D01*
X-35208200Y64669167D01*
X-35208200Y61959834D01*
X-36287700Y61959834D01*
X-36287700Y63579084D01*
X-37367200Y63579084D01*
X-37367200Y61959834D01*
X-38446700Y61959834D01*
X-38446700Y64658584D01*
X-37367200Y64658584D01*
X-37367200Y64129417D01*
X-36287700Y64129417D01*
X-36287700Y64658584D01*
X-37367200Y64658584D01*
X-38446700Y64658584D01*
X-38446700Y64669167D01*
X-37906950Y64669167D01*
X-37906950Y65208917D01*
X-37367200Y65208917D01*
X-37367200Y65748667D01*
X-36287700Y65748667D01*
X-36287700Y65208917D01*
G36*
X-36287700Y65208917D02*
G01*
X-35747950Y65208917D01*
X-35747950Y64669167D01*
X-35208200Y64669167D01*
X-35208200Y61959834D01*
X-36287700Y61959834D01*
X-36287700Y63579084D01*
X-37367200Y63579084D01*
X-37367200Y61959834D01*
X-38446700Y61959834D01*
X-38446700Y64658584D01*
X-37367200Y64658584D01*
X-37367200Y64129417D01*
X-36287700Y64129417D01*
X-36287700Y64658584D01*
X-37367200Y64658584D01*
X-38446700Y64658584D01*
X-38446700Y64669167D01*
X-37906950Y64669167D01*
X-37906950Y65208917D01*
X-37367200Y65208917D01*
X-37367200Y65748667D01*
X-36287700Y65748667D01*
X-36287700Y65208917D01*
G37*
X-26683325Y65743375D02*
X-26680498Y65476328D01*
X-26677671Y65209280D01*
X-26410623Y65206453D01*
X-26143575Y65203625D01*
X-26140751Y64931105D01*
X-26137926Y64658584D01*
X-27228367Y64658584D01*
X-27228367Y65198334D01*
X-28297284Y65198334D01*
X-28297284Y64129549D01*
X-27490305Y64126837D01*
X-26683325Y64124125D01*
X-26680498Y63857078D01*
X-26677671Y63590030D01*
X-26410623Y63587203D01*
X-26143575Y63584375D01*
X-26140834Y63041980D01*
X-26138092Y62499584D01*
X-26678034Y62499584D01*
X-26678034Y61959834D01*
X-28847617Y61959834D01*
X-28847617Y62499584D01*
X-29387367Y62499584D01*
X-29387367Y63049917D01*
X-28297284Y63049917D01*
X-28297284Y62510167D01*
X-27228367Y62510167D01*
X-27228367Y63579084D01*
X-28847617Y63579084D01*
X-28847617Y64118834D01*
X-29387367Y64118834D01*
X-29387367Y65208917D01*
X-28847617Y65208917D01*
X-28847617Y65748767D01*
X-26683325Y65743375D01*
G36*
X-26683325Y65743375D02*
G01*
X-26680498Y65476328D01*
X-26677671Y65209280D01*
X-26410623Y65206453D01*
X-26143575Y65203625D01*
X-26140751Y64931105D01*
X-26137926Y64658584D01*
X-27228367Y64658584D01*
X-27228367Y65198334D01*
X-28297284Y65198334D01*
X-28297284Y64129549D01*
X-27490305Y64126837D01*
X-26683325Y64124125D01*
X-26680498Y63857078D01*
X-26677671Y63590030D01*
X-26410623Y63587203D01*
X-26143575Y63584375D01*
X-26140834Y63041980D01*
X-26138092Y62499584D01*
X-26678034Y62499584D01*
X-26678034Y61959834D01*
X-28847617Y61959834D01*
X-28847617Y62499584D01*
X-29387367Y62499584D01*
X-29387367Y63049917D01*
X-28297284Y63049917D01*
X-28297284Y62510167D01*
X-27228367Y62510167D01*
X-27228367Y63579084D01*
X-28847617Y63579084D01*
X-28847617Y64118834D01*
X-29387367Y64118834D01*
X-29387367Y65208917D01*
X-28847617Y65208917D01*
X-28847617Y65748767D01*
X-26683325Y65743375D01*
G37*
X-18158450Y65208917D02*
X-17618700Y65208917D01*
X-17618700Y64669167D01*
X-17078950Y64669167D01*
X-17078950Y63039334D01*
X-17618700Y63039334D01*
X-17618700Y62499584D01*
X-18158450Y62499584D01*
X-18158450Y61959834D01*
X-20328034Y61959834D01*
X-20328034Y65198334D01*
X-19237950Y65198334D01*
X-19237950Y62510167D01*
X-18708784Y62510167D01*
X-18708784Y63049917D01*
X-18169034Y63049917D01*
X-18169034Y64658584D01*
X-18708784Y64658584D01*
X-18708784Y65198334D01*
X-19237950Y65198334D01*
X-20328034Y65198334D01*
X-20328034Y65748667D01*
X-18158450Y65748667D01*
X-18158450Y65208917D01*
G36*
X-18158450Y65208917D02*
G01*
X-17618700Y65208917D01*
X-17618700Y64669167D01*
X-17078950Y64669167D01*
X-17078950Y63039334D01*
X-17618700Y63039334D01*
X-17618700Y62499584D01*
X-18158450Y62499584D01*
X-18158450Y61959834D01*
X-20328034Y61959834D01*
X-20328034Y65198334D01*
X-19237950Y65198334D01*
X-19237950Y62510167D01*
X-18708784Y62510167D01*
X-18708784Y63049917D01*
X-18169034Y63049917D01*
X-18169034Y64658584D01*
X-18708784Y64658584D01*
X-18708784Y65198334D01*
X-19237950Y65198334D01*
X-20328034Y65198334D01*
X-20328034Y65748667D01*
X-18158450Y65748667D01*
X-18158450Y65208917D01*
G37*
X-8019617Y65198334D02*
X-10178617Y65198334D01*
X-10178617Y64129417D01*
X-9099117Y64129417D01*
X-9099117Y63579084D01*
X-10178617Y63579084D01*
X-10178617Y61959834D01*
X-11268758Y61959834D01*
X-11266084Y63851605D01*
X-11263409Y65743375D01*
X-8019617Y65748735D01*
X-8019617Y65198334D01*
G36*
X-8019617Y65198334D02*
G01*
X-10178617Y65198334D01*
X-10178617Y64129417D01*
X-9099117Y64129417D01*
X-9099117Y63579084D01*
X-10178617Y63579084D01*
X-10178617Y61959834D01*
X-11268758Y61959834D01*
X-11266084Y63851605D01*
X-11263409Y65743375D01*
X-8019617Y65748735D01*
X-8019617Y65198334D01*
G37*
X-2106001Y58829813D02*
X-2108825Y58557292D01*
X-2243763Y58554330D01*
X-2378700Y58551368D01*
X-2378700Y58287417D01*
X-2929034Y58287417D01*
X-2929034Y58562584D01*
X-2653867Y58562584D01*
X-2653867Y59102334D01*
X-2103176Y59102334D01*
X-2106001Y58829813D01*
G36*
X-2106001Y58829813D02*
G01*
X-2108825Y58557292D01*
X-2243763Y58554330D01*
X-2378700Y58551368D01*
X-2378700Y58287417D01*
X-2929034Y58287417D01*
X-2929034Y58562584D01*
X-2653867Y58562584D01*
X-2653867Y59102334D01*
X-2103176Y59102334D01*
X-2106001Y58829813D01*
G37*
X-2381346Y60454533D02*
X-2108825Y60451709D01*
X-2106001Y60179188D01*
X-2103176Y59906667D01*
X-2653867Y59906667D01*
X-2653867Y60457358D01*
X-2381346Y60454533D01*
G36*
X-2381346Y60454533D02*
G01*
X-2108825Y60451709D01*
X-2106001Y60179188D01*
X-2103176Y59906667D01*
X-2653867Y59906667D01*
X-2653867Y60457358D01*
X-2381346Y60454533D01*
G37*
X499966Y65208917D02*
X1039716Y65208917D01*
X1039716Y64658584D01*
X-50367Y64658584D01*
X-50367Y65198334D01*
X-1119284Y65198334D01*
X-1119284Y62510167D01*
X-50367Y62510167D01*
X-50367Y63579084D01*
X-590475Y63579084D01*
X-587650Y63851605D01*
X-584825Y64124125D01*
X227445Y64126837D01*
X1039716Y64129549D01*
X1039716Y62499584D01*
X499966Y62499584D01*
X499966Y61959834D01*
X-577770Y61959834D01*
X-727023Y61959902D01*
X-870288Y61960099D01*
X-1006148Y61960417D01*
X-1133188Y61960846D01*
X-1249990Y61961377D01*
X-1355139Y61962000D01*
X-1447217Y61962707D01*
X-1524810Y61963488D01*
X-1586499Y61964335D01*
X-1630869Y61965237D01*
X-1656504Y61966186D01*
X-1662562Y61966889D01*
X-1664503Y61978999D01*
X-1666239Y62009327D01*
X-1667695Y62054928D01*
X-1668792Y62112855D01*
X-1669453Y62180159D01*
X-1669617Y62236583D01*
X-1669617Y62499220D01*
X-1936846Y62502048D01*
X-2204075Y62504875D01*
X-2204075Y65203625D01*
X-1937028Y65206453D01*
X-1669980Y65209280D01*
X-1667153Y65476328D01*
X-1664325Y65743375D01*
X-582180Y65746071D01*
X499966Y65748767D01*
X499966Y65208917D01*
G36*
X499966Y65208917D02*
G01*
X1039716Y65208917D01*
X1039716Y64658584D01*
X-50367Y64658584D01*
X-50367Y65198334D01*
X-1119284Y65198334D01*
X-1119284Y62510167D01*
X-50367Y62510167D01*
X-50367Y63579084D01*
X-590475Y63579084D01*
X-587650Y63851605D01*
X-584825Y64124125D01*
X227445Y64126837D01*
X1039716Y64129549D01*
X1039716Y62499584D01*
X499966Y62499584D01*
X499966Y61959834D01*
X-577770Y61959834D01*
X-727023Y61959902D01*
X-870288Y61960099D01*
X-1006148Y61960417D01*
X-1133188Y61960846D01*
X-1249990Y61961377D01*
X-1355139Y61962000D01*
X-1447217Y61962707D01*
X-1524810Y61963488D01*
X-1586499Y61964335D01*
X-1630869Y61965237D01*
X-1656504Y61966186D01*
X-1662562Y61966889D01*
X-1664503Y61978999D01*
X-1666239Y62009327D01*
X-1667695Y62054928D01*
X-1668792Y62112855D01*
X-1669453Y62180159D01*
X-1669617Y62236583D01*
X-1669617Y62499220D01*
X-1936846Y62502048D01*
X-2204075Y62504875D01*
X-2204075Y65203625D01*
X-1937028Y65206453D01*
X-1669980Y65209280D01*
X-1667153Y65476328D01*
X-1664325Y65743375D01*
X-582180Y65746071D01*
X499966Y65748767D01*
X499966Y65208917D01*
G37*
X2669550Y64118834D02*
X2119216Y64118834D01*
X2119216Y64669167D01*
X2669550Y64669167D01*
X2669550Y64118834D01*
G36*
X2669550Y64118834D02*
G01*
X2119216Y64118834D01*
X2119216Y64669167D01*
X2669550Y64669167D01*
X2669550Y64118834D01*
G37*
X2669550Y65473500D02*
X2119216Y65473500D01*
X2119216Y66023834D01*
X2669550Y66023834D01*
X2669550Y65473500D01*
G36*
X2669550Y65473500D02*
G01*
X2119216Y65473500D01*
X2119216Y66023834D01*
X2669550Y66023834D01*
X2669550Y65473500D01*
G37*
X7495550Y60171250D02*
X7220383Y60171250D01*
X7220383Y59906667D01*
X6955800Y59906667D01*
X6955800Y59631500D01*
X6405466Y59631500D01*
X6405466Y59917250D01*
X6670050Y59917250D01*
X6670050Y60181834D01*
X6945216Y60181834D01*
X6945216Y60457000D01*
X7495550Y60457000D01*
X7495550Y60171250D01*
G36*
X7495550Y60171250D02*
G01*
X7220383Y60171250D01*
X7220383Y59906667D01*
X6955800Y59906667D01*
X6955800Y59631500D01*
X6405466Y59631500D01*
X6405466Y59917250D01*
X6670050Y59917250D01*
X6670050Y60181834D01*
X6945216Y60181834D01*
X6945216Y60457000D01*
X7495550Y60457000D01*
X7495550Y60171250D01*
G37*
X10051425Y65743375D02*
X10054099Y63851605D01*
X10056774Y61959834D01*
X8966633Y61959834D01*
X8966633Y63579084D01*
X7897716Y63579084D01*
X7897716Y61959834D01*
X6807633Y61959834D01*
X6807633Y65748667D01*
X7897716Y65748667D01*
X7897716Y64129417D01*
X8966633Y64129417D01*
X8966633Y65748859D01*
X10051425Y65743375D01*
G36*
X10051425Y65743375D02*
G01*
X10054099Y63851605D01*
X10056774Y61959834D01*
X8966633Y61959834D01*
X8966633Y63579084D01*
X7897716Y63579084D01*
X7897716Y61959834D01*
X6807633Y61959834D01*
X6807633Y65748667D01*
X7897716Y65748667D01*
X7897716Y64129417D01*
X8966633Y64129417D01*
X8966633Y65748859D01*
X10051425Y65743375D01*
G37*
X11400800Y65473500D02*
X11136216Y65473500D01*
X11136216Y65198334D01*
X10861050Y65198334D01*
X10861050Y64933750D01*
X10310716Y64933750D01*
X10310716Y65208917D01*
X10585883Y65208917D01*
X10585883Y65484084D01*
X10850466Y65484084D01*
X10850466Y65748667D01*
X11400800Y65748667D01*
X11400800Y65473500D01*
G36*
X11400800Y65473500D02*
G01*
X11136216Y65473500D01*
X11136216Y65198334D01*
X10861050Y65198334D01*
X10861050Y64933750D01*
X10310716Y64933750D01*
X10310716Y65208917D01*
X10585883Y65208917D01*
X10585883Y65484084D01*
X10850466Y65484084D01*
X10850466Y65748667D01*
X11400800Y65748667D01*
X11400800Y65473500D01*
G37*
X12533216Y65473500D02*
X12258050Y65473500D01*
X12258050Y65198334D01*
X11993466Y65198334D01*
X11993466Y64933750D01*
X11443133Y64933750D01*
X11443133Y65208917D01*
X11718300Y65208917D01*
X11718300Y65484084D01*
X11982883Y65484084D01*
X11982883Y65748667D01*
X12533216Y65748667D01*
X12533216Y65473500D01*
G36*
X12533216Y65473500D02*
G01*
X12258050Y65473500D01*
X12258050Y65198334D01*
X11993466Y65198334D01*
X11993466Y64933750D01*
X11443133Y64933750D01*
X11443133Y65208917D01*
X11718300Y65208917D01*
X11718300Y65484084D01*
X11982883Y65484084D01*
X11982883Y65748667D01*
X12533216Y65748667D01*
X12533216Y65473500D01*
G37*
X16285008Y60451709D02*
X16285008Y60176542D01*
X16017779Y60173715D01*
X15750550Y60170887D01*
X15750550Y58838114D01*
X16017779Y58835286D01*
X16285008Y58832459D01*
X16285008Y58557292D01*
X15200216Y58551808D01*
X15200216Y60457193D01*
X16285008Y60451709D01*
G36*
X16285008Y60451709D02*
G01*
X16285008Y60176542D01*
X16017779Y60173715D01*
X15750550Y60170887D01*
X15750550Y58838114D01*
X16017779Y58835286D01*
X16285008Y58832459D01*
X16285008Y58557292D01*
X15200216Y58551808D01*
X15200216Y60457193D01*
X16285008Y60451709D01*
G37*
X19163675Y65743375D02*
X19166499Y65470855D01*
X19169324Y65198334D01*
X18629216Y65198334D01*
X18629216Y62499584D01*
X18089466Y62499584D01*
X18089466Y61959834D01*
X16456806Y61959834D01*
X16466582Y62520750D01*
X15919883Y62520750D01*
X15919883Y63049917D01*
X17009966Y63049917D01*
X17009966Y62510167D01*
X17539133Y62510167D01*
X17539133Y65198334D01*
X16999383Y65198334D01*
X16999383Y65748767D01*
X19163675Y65743375D01*
G36*
X19163675Y65743375D02*
G01*
X19166499Y65470855D01*
X19169324Y65198334D01*
X18629216Y65198334D01*
X18629216Y62499584D01*
X18089466Y62499584D01*
X18089466Y61959834D01*
X16456806Y61959834D01*
X16466582Y62520750D01*
X15919883Y62520750D01*
X15919883Y63049917D01*
X17009966Y63049917D01*
X17009966Y62510167D01*
X17539133Y62510167D01*
X17539133Y65198334D01*
X16999383Y65198334D01*
X16999383Y65748767D01*
X19163675Y65743375D01*
G37*
X21063383Y65738084D02*
X20523633Y65738084D01*
X20523633Y65198334D01*
X20248466Y65198334D01*
X20248466Y64944334D01*
X20523633Y64944334D01*
X20523633Y64404584D01*
X21063997Y64404584D01*
X21061044Y64264355D01*
X21058091Y64124125D01*
X20655167Y64121356D01*
X20564814Y64120918D01*
X20481157Y64120867D01*
X20406545Y64121176D01*
X20343329Y64121820D01*
X20293861Y64122774D01*
X20260492Y64124013D01*
X20245573Y64125511D01*
X20245062Y64125765D01*
X20242310Y64138546D01*
X20240046Y64168157D01*
X20238495Y64210262D01*
X20237885Y64260527D01*
X20237883Y64263473D01*
X20237883Y64394000D01*
X19973300Y64394000D01*
X19973300Y64933750D01*
X19433550Y64933750D01*
X19433550Y65208917D01*
X19973300Y65208917D01*
X19973300Y65748667D01*
X20237250Y65748667D01*
X20240212Y65883605D01*
X20243175Y66018542D01*
X21063383Y66024082D01*
X21063383Y65738084D01*
G36*
X21063383Y65738084D02*
G01*
X20523633Y65738084D01*
X20523633Y65198334D01*
X20248466Y65198334D01*
X20248466Y64944334D01*
X20523633Y64944334D01*
X20523633Y64404584D01*
X21063997Y64404584D01*
X21061044Y64264355D01*
X21058091Y64124125D01*
X20655167Y64121356D01*
X20564814Y64120918D01*
X20481157Y64120867D01*
X20406545Y64121176D01*
X20343329Y64121820D01*
X20293861Y64122774D01*
X20260492Y64124013D01*
X20245573Y64125511D01*
X20245062Y64125765D01*
X20242310Y64138546D01*
X20240046Y64168157D01*
X20238495Y64210262D01*
X20237885Y64260527D01*
X20237883Y64263473D01*
X20237883Y64394000D01*
X19973300Y64394000D01*
X19973300Y64933750D01*
X19433550Y64933750D01*
X19433550Y65208917D01*
X19973300Y65208917D01*
X19973300Y65748667D01*
X20237250Y65748667D01*
X20240212Y65883605D01*
X20243175Y66018542D01*
X21063383Y66024082D01*
X21063383Y65738084D01*
G37*
X25347044Y59507146D02*
X25344341Y58557292D01*
X24801945Y58554550D01*
X24259550Y58551808D01*
X24259550Y58837750D01*
X24799300Y58837750D01*
X24799300Y60171250D01*
X24259550Y60171250D01*
X24259550Y60457000D01*
X25349746Y60457000D01*
X25347044Y59507146D01*
G36*
X25347044Y59507146D02*
G01*
X25344341Y58557292D01*
X24801945Y58554550D01*
X24259550Y58551808D01*
X24259550Y58837750D01*
X24799300Y58837750D01*
X24799300Y60171250D01*
X24259550Y60171250D01*
X24259550Y60457000D01*
X25349746Y60457000D01*
X25347044Y59507146D01*
G37*
X26069300Y64669167D02*
X26598466Y64669167D01*
X26598466Y65208917D01*
X27138216Y65208917D01*
X27138216Y65748667D01*
X28228300Y65748667D01*
X28228300Y65198334D01*
X27688550Y65198334D01*
X27688550Y64658584D01*
X27148800Y64658584D01*
X27148800Y64118834D01*
X26609050Y64118834D01*
X26609050Y63589667D01*
X27148800Y63589667D01*
X27148800Y63049917D01*
X27688550Y63049917D01*
X27688550Y62510167D01*
X28228300Y62510167D01*
X28228300Y61959834D01*
X27138216Y61959834D01*
X27138216Y62499584D01*
X26598466Y62499584D01*
X26598466Y63039334D01*
X26069300Y63039334D01*
X26069300Y61959834D01*
X24979216Y61959834D01*
X24979216Y65748667D01*
X26069300Y65748667D01*
X26069300Y64669167D01*
G36*
X26069300Y64669167D02*
G01*
X26598466Y64669167D01*
X26598466Y65208917D01*
X27138216Y65208917D01*
X27138216Y65748667D01*
X28228300Y65748667D01*
X28228300Y65198334D01*
X27688550Y65198334D01*
X27688550Y64658584D01*
X27148800Y64658584D01*
X27148800Y64118834D01*
X26609050Y64118834D01*
X26609050Y63589667D01*
X27148800Y63589667D01*
X27148800Y63049917D01*
X27688550Y63049917D01*
X27688550Y62510167D01*
X28228300Y62510167D01*
X28228300Y61959834D01*
X27138216Y61959834D01*
X27138216Y62499584D01*
X26598466Y62499584D01*
X26598466Y63039334D01*
X26069300Y63039334D01*
X26069300Y61959834D01*
X24979216Y61959834D01*
X24979216Y65748667D01*
X26069300Y65748667D01*
X26069300Y64669167D01*
G37*
X29582966Y65748667D02*
X29847550Y65748667D01*
X29847550Y65208917D01*
X30387300Y65208917D01*
X30387300Y64933750D01*
X29847550Y64933750D01*
X29847550Y64394000D01*
X29582966Y64394000D01*
X29582966Y64118834D01*
X28768050Y64118834D01*
X28768050Y64404584D01*
X29307800Y64404584D01*
X29307800Y64944334D01*
X29572383Y64944334D01*
X29572383Y65198334D01*
X29307800Y65198334D01*
X29307800Y65738084D01*
X28768050Y65738084D01*
X28768050Y66023834D01*
X29582966Y66023834D01*
X29582966Y65748667D01*
G36*
X29582966Y65748667D02*
G01*
X29847550Y65748667D01*
X29847550Y65208917D01*
X30387300Y65208917D01*
X30387300Y64933750D01*
X29847550Y64933750D01*
X29847550Y64394000D01*
X29582966Y64394000D01*
X29582966Y64118834D01*
X28768050Y64118834D01*
X28768050Y64404584D01*
X29307800Y64404584D01*
X29307800Y64944334D01*
X29572383Y64944334D01*
X29572383Y65198334D01*
X29307800Y65198334D01*
X29307800Y65738084D01*
X28768050Y65738084D01*
X28768050Y66023834D01*
X29582966Y66023834D01*
X29582966Y65748667D01*
G37*
X33594050Y59917250D02*
X33869216Y59917250D01*
X33869216Y59642084D01*
X34133800Y59642084D01*
X34133800Y59377500D01*
X34408966Y59377500D01*
X34408966Y59102334D01*
X34673550Y59102334D01*
X34673550Y58837750D01*
X34948716Y58837750D01*
X34948716Y58552000D01*
X34398383Y58552000D01*
X34398383Y58827167D01*
X34133800Y58827167D01*
X34133800Y59091750D01*
X33858633Y59091750D01*
X33858633Y59366917D01*
X33594050Y59366917D01*
X33594050Y59631500D01*
X33318883Y59631500D01*
X33318883Y59906667D01*
X33054300Y59906667D01*
X33054300Y60181834D01*
X33594050Y60181834D01*
X33594050Y59917250D01*
G36*
X33594050Y59917250D02*
G01*
X33869216Y59917250D01*
X33869216Y59642084D01*
X34133800Y59642084D01*
X34133800Y59377500D01*
X34408966Y59377500D01*
X34408966Y59102334D01*
X34673550Y59102334D01*
X34673550Y58837750D01*
X34948716Y58837750D01*
X34948716Y58552000D01*
X34398383Y58552000D01*
X34398383Y58827167D01*
X34133800Y58827167D01*
X34133800Y59091750D01*
X33858633Y59091750D01*
X33858633Y59366917D01*
X33594050Y59366917D01*
X33594050Y59631500D01*
X33318883Y59631500D01*
X33318883Y59906667D01*
X33054300Y59906667D01*
X33054300Y60181834D01*
X33594050Y60181834D01*
X33594050Y59917250D01*
G37*
X35128633Y62510167D02*
X37287633Y62510167D01*
X37287633Y61959834D01*
X34038492Y61959834D01*
X34041166Y63851605D01*
X34043841Y65743375D01*
X35128633Y65748859D01*
X35128633Y62510167D01*
G36*
X35128633Y62510167D02*
G01*
X37287633Y62510167D01*
X37287633Y61959834D01*
X34038492Y61959834D01*
X34041166Y63851605D01*
X34043841Y65743375D01*
X35128633Y65748859D01*
X35128633Y62510167D01*
G37*
X38914877Y65073980D02*
X38912175Y64124125D01*
X38639654Y64121301D01*
X38367133Y64118476D01*
X38367133Y66023834D01*
X38917579Y66023834D01*
X38914877Y65073980D01*
G36*
X38914877Y65073980D02*
G01*
X38912175Y64124125D01*
X38639654Y64121301D01*
X38367133Y64118476D01*
X38367133Y66023834D01*
X38917579Y66023834D01*
X38914877Y65073980D01*
G37*
X-43158930Y70868533D02*
X-42886409Y70865709D01*
X-42883697Y70058911D01*
X-42880985Y69252114D01*
X-42613822Y69249286D01*
X-42346659Y69246459D01*
X-42346659Y68971292D01*
X-43158930Y68968581D01*
X-43971200Y68965869D01*
X-43971200Y69251750D01*
X-43431450Y69251750D01*
X-43431450Y70045500D01*
X-43707232Y70045500D01*
X-43704279Y70185730D01*
X-43701325Y70325959D01*
X-43566388Y70328921D01*
X-43431450Y70331883D01*
X-43431450Y70871358D01*
X-43158930Y70868533D01*
G36*
X-43158930Y70868533D02*
G01*
X-42886409Y70865709D01*
X-42883697Y70058911D01*
X-42880985Y69252114D01*
X-42613822Y69249286D01*
X-42346659Y69246459D01*
X-42346659Y68971292D01*
X-43158930Y68968581D01*
X-43971200Y68965869D01*
X-43971200Y69251750D01*
X-43431450Y69251750D01*
X-43431450Y70045500D01*
X-43707232Y70045500D01*
X-43704279Y70185730D01*
X-43701325Y70325959D01*
X-43566388Y70328921D01*
X-43431450Y70331883D01*
X-43431450Y70871358D01*
X-43158930Y70868533D01*
G37*
X-40277617Y75622917D02*
X-39737867Y75622917D01*
X-39737867Y73453334D01*
X-40277617Y73453334D01*
X-40277617Y72924167D01*
X-39737867Y72924167D01*
X-39737867Y72373834D01*
X-41367700Y72373834D01*
X-41367700Y72913584D01*
X-42436617Y72913584D01*
X-42436617Y73453334D01*
X-42976367Y73453334D01*
X-42976367Y75612334D01*
X-41896867Y75612334D01*
X-41896867Y73463917D01*
X-40827950Y73463917D01*
X-40827950Y75612334D01*
X-41896867Y75612334D01*
X-42976367Y75612334D01*
X-42976367Y75622917D01*
X-42436617Y75622917D01*
X-42436617Y76162667D01*
X-40277617Y76162667D01*
X-40277617Y75622917D01*
G36*
X-40277617Y75622917D02*
G01*
X-39737867Y75622917D01*
X-39737867Y73453334D01*
X-40277617Y73453334D01*
X-40277617Y72924167D01*
X-39737867Y72924167D01*
X-39737867Y72373834D01*
X-41367700Y72373834D01*
X-41367700Y72913584D01*
X-42436617Y72913584D01*
X-42436617Y73453334D01*
X-42976367Y73453334D01*
X-42976367Y75612334D01*
X-41896867Y75612334D01*
X-41896867Y73463917D01*
X-40827950Y73463917D01*
X-40827950Y75612334D01*
X-41896867Y75612334D01*
X-42976367Y75612334D01*
X-42976367Y75622917D01*
X-42436617Y75622917D01*
X-42436617Y76162667D01*
X-40277617Y76162667D01*
X-40277617Y75622917D01*
G37*
X-38108034Y74532834D02*
X-38658367Y74532834D01*
X-38658367Y74818584D01*
X-38108034Y74818584D01*
X-38108034Y74532834D01*
G36*
X-38108034Y74532834D02*
G01*
X-38658367Y74532834D01*
X-38658367Y74818584D01*
X-38108034Y74818584D01*
X-38108034Y74532834D01*
G37*
X-38108034Y75072584D02*
X-38658367Y75072584D01*
X-38658367Y76437834D01*
X-38108034Y76437834D01*
X-38108034Y75072584D01*
G36*
X-38108034Y75072584D02*
G01*
X-38658367Y75072584D01*
X-38658367Y76437834D01*
X-38108034Y76437834D01*
X-38108034Y75072584D01*
G37*
X-33102117Y74003667D02*
X-32572950Y74003667D01*
X-32572950Y74543417D01*
X-32022617Y74543417D01*
X-32022617Y74003667D01*
X-31493551Y74003667D01*
X-31488159Y76157375D01*
X-30408659Y76157375D01*
X-30405984Y74265605D01*
X-30403309Y72373834D01*
X-31493450Y72373834D01*
X-31493450Y72913584D01*
X-32033200Y72913584D01*
X-32033200Y73453334D01*
X-32562367Y73453334D01*
X-32562367Y72913584D01*
X-33102117Y72913584D01*
X-33102117Y72373834D01*
X-34192258Y72373834D01*
X-34189584Y74265605D01*
X-34186909Y76157375D01*
X-33102117Y76162859D01*
X-33102117Y74003667D01*
G36*
X-33102117Y74003667D02*
G01*
X-32572950Y74003667D01*
X-32572950Y74543417D01*
X-32022617Y74543417D01*
X-32022617Y74003667D01*
X-31493551Y74003667D01*
X-31488159Y76157375D01*
X-30408659Y76157375D01*
X-30405984Y74265605D01*
X-30403309Y72373834D01*
X-31493450Y72373834D01*
X-31493450Y72913584D01*
X-32033200Y72913584D01*
X-32033200Y73453334D01*
X-32562367Y73453334D01*
X-32562367Y72913584D01*
X-33102117Y72913584D01*
X-33102117Y72373834D01*
X-34192258Y72373834D01*
X-34189584Y74265605D01*
X-34186909Y76157375D01*
X-33102117Y76162859D01*
X-33102117Y74003667D01*
G37*
X-28778825Y76432542D02*
X-28775863Y76297605D01*
X-28772901Y76162667D01*
X-28508950Y76162667D01*
X-28508950Y75347750D01*
X-29323867Y75347750D01*
X-29323867Y75898084D01*
X-29059284Y75898084D01*
X-29059284Y76152084D01*
X-29588450Y76152084D01*
X-29588450Y74818584D01*
X-28784117Y74818584D01*
X-28784117Y75083167D01*
X-28508950Y75083167D01*
X-28508950Y74808000D01*
X-28772901Y74808000D01*
X-28775863Y74673063D01*
X-28778825Y74538125D01*
X-29321221Y74535384D01*
X-29863617Y74532642D01*
X-29863617Y74808000D01*
X-30138784Y74808000D01*
X-30138784Y76162667D01*
X-29863617Y76162667D01*
X-29863617Y76438026D01*
X-28778825Y76432542D01*
G36*
X-28778825Y76432542D02*
G01*
X-28775863Y76297605D01*
X-28772901Y76162667D01*
X-28508950Y76162667D01*
X-28508950Y75347750D01*
X-29323867Y75347750D01*
X-29323867Y75898084D01*
X-29059284Y75898084D01*
X-29059284Y76152084D01*
X-29588450Y76152084D01*
X-29588450Y74818584D01*
X-28784117Y74818584D01*
X-28784117Y75083167D01*
X-28508950Y75083167D01*
X-28508950Y74808000D01*
X-28772901Y74808000D01*
X-28775863Y74673063D01*
X-28778825Y74538125D01*
X-29321221Y74535384D01*
X-29863617Y74532642D01*
X-29863617Y74808000D01*
X-30138784Y74808000D01*
X-30138784Y76162667D01*
X-29863617Y76162667D01*
X-29863617Y76438026D01*
X-28778825Y76432542D01*
G37*
X-24492575Y70865709D02*
X-24489613Y70730771D01*
X-24486651Y70595834D01*
X-24222700Y70595834D01*
X-24222700Y70045500D01*
X-24487284Y70045500D01*
X-24487284Y69791500D01*
X-24222700Y69791500D01*
X-24222700Y69241167D01*
X-24486651Y69241167D01*
X-24489613Y69106230D01*
X-24492575Y68971292D01*
X-25577367Y68965808D01*
X-25577367Y69241167D01*
X-25852534Y69241167D01*
X-25852534Y69516334D01*
X-25302200Y69516334D01*
X-25302200Y69251750D01*
X-24773034Y69251750D01*
X-24773034Y69780917D01*
X-25312784Y69780917D01*
X-25312784Y70056084D01*
X-24773034Y70056084D01*
X-24773034Y70585250D01*
X-25302200Y70585250D01*
X-25302200Y70320667D01*
X-25852534Y70320667D01*
X-25852534Y70595834D01*
X-25577367Y70595834D01*
X-25577367Y70871193D01*
X-24492575Y70865709D01*
G36*
X-24492575Y70865709D02*
G01*
X-24489613Y70730771D01*
X-24486651Y70595834D01*
X-24222700Y70595834D01*
X-24222700Y70045500D01*
X-24487284Y70045500D01*
X-24487284Y69791500D01*
X-24222700Y69791500D01*
X-24222700Y69241167D01*
X-24486651Y69241167D01*
X-24489613Y69106230D01*
X-24492575Y68971292D01*
X-25577367Y68965808D01*
X-25577367Y69241167D01*
X-25852534Y69241167D01*
X-25852534Y69516334D01*
X-25302200Y69516334D01*
X-25302200Y69251750D01*
X-24773034Y69251750D01*
X-24773034Y69780917D01*
X-25312784Y69780917D01*
X-25312784Y70056084D01*
X-24773034Y70056084D01*
X-24773034Y70585250D01*
X-25302200Y70585250D01*
X-25302200Y70320667D01*
X-25852534Y70320667D01*
X-25852534Y70595834D01*
X-25577367Y70595834D01*
X-25577367Y70871193D01*
X-24492575Y70865709D01*
G37*
X-23235805Y76160055D02*
X-21613909Y76157375D01*
X-21611084Y75884855D01*
X-21608260Y75612334D01*
X-23767617Y75612334D01*
X-23767617Y74543417D01*
X-22688117Y74543417D01*
X-22688117Y73993084D01*
X-23767617Y73993084D01*
X-23767617Y72924167D01*
X-21608617Y72924167D01*
X-21608617Y72373834D01*
X-24857700Y72373834D01*
X-24857700Y76162735D01*
X-23235805Y76160055D01*
G36*
X-23235805Y76160055D02*
G01*
X-21613909Y76157375D01*
X-21611084Y75884855D01*
X-21608260Y75612334D01*
X-23767617Y75612334D01*
X-23767617Y74543417D01*
X-22688117Y74543417D01*
X-22688117Y73993084D01*
X-23767617Y73993084D01*
X-23767617Y72924167D01*
X-21608617Y72924167D01*
X-21608617Y72373834D01*
X-24857700Y72373834D01*
X-24857700Y76162735D01*
X-23235805Y76160055D01*
G37*
X-15163367Y69791500D02*
X-14888200Y69791500D01*
X-14888200Y69505750D01*
X-15163367Y69505750D01*
X-15163367Y68966000D01*
X-15431478Y68966000D01*
X-15504774Y68966268D01*
X-15570985Y68967021D01*
X-15627195Y68968185D01*
X-15670491Y68969686D01*
X-15697956Y68971447D01*
X-15706645Y68973056D01*
X-15708586Y68985165D01*
X-15710322Y69015494D01*
X-15711777Y69061096D01*
X-15712874Y69119025D01*
X-15713536Y69186335D01*
X-15713700Y69242834D01*
X-15713700Y69505557D01*
X-16250805Y69508299D01*
X-16787909Y69511042D01*
X-16790733Y69783563D01*
X-16793448Y70045500D01*
X-16242867Y70045500D01*
X-16242867Y69791500D01*
X-15713700Y69791500D01*
X-15713700Y70045500D01*
X-16242867Y70045500D01*
X-16793448Y70045500D01*
X-16793558Y70056084D01*
X-16254083Y70056084D01*
X-16251121Y70191021D01*
X-16248159Y70325959D01*
X-16113221Y70328921D01*
X-15978284Y70331883D01*
X-15978284Y70595834D01*
X-15714333Y70595834D01*
X-15711371Y70730771D01*
X-15708409Y70865709D01*
X-15435888Y70868533D01*
X-15163367Y70871358D01*
X-15163367Y69791500D01*
G36*
X-15163367Y69791500D02*
G01*
X-14888200Y69791500D01*
X-14888200Y69505750D01*
X-15163367Y69505750D01*
X-15163367Y68966000D01*
X-15431478Y68966000D01*
X-15504774Y68966268D01*
X-15570985Y68967021D01*
X-15627195Y68968185D01*
X-15670491Y68969686D01*
X-15697956Y68971447D01*
X-15706645Y68973056D01*
X-15708586Y68985165D01*
X-15710322Y69015494D01*
X-15711777Y69061096D01*
X-15712874Y69119025D01*
X-15713536Y69186335D01*
X-15713700Y69242834D01*
X-15713700Y69505557D01*
X-16250805Y69508299D01*
X-16787909Y69511042D01*
X-16790733Y69783563D01*
X-16793448Y70045500D01*
X-16242867Y70045500D01*
X-16242867Y69791500D01*
X-15713700Y69791500D01*
X-15713700Y70045500D01*
X-16242867Y70045500D01*
X-16793448Y70045500D01*
X-16793558Y70056084D01*
X-16254083Y70056084D01*
X-16251121Y70191021D01*
X-16248159Y70325959D01*
X-16113221Y70328921D01*
X-15978284Y70331883D01*
X-15978284Y70595834D01*
X-15714333Y70595834D01*
X-15711371Y70730771D01*
X-15708409Y70865709D01*
X-15435888Y70868533D01*
X-15163367Y70871358D01*
X-15163367Y69791500D01*
G37*
X-13091498Y75890146D02*
X-13088670Y75622917D01*
X-12549284Y75622917D01*
X-12549284Y74532834D01*
X-13089034Y74532834D01*
X-13089034Y73993084D01*
X-13628784Y73993084D01*
X-13628784Y73463917D01*
X-13089034Y73463917D01*
X-13089034Y72924167D01*
X-12549284Y72924167D01*
X-12549284Y72373834D01*
X-13639367Y72373834D01*
X-13639367Y72913584D01*
X-14179117Y72913584D01*
X-14179117Y73453334D01*
X-14708284Y73453334D01*
X-14708284Y72373834D01*
X-15798425Y72373834D01*
X-15795750Y74265605D01*
X-15793846Y75612334D01*
X-14708284Y75612334D01*
X-14708284Y74543417D01*
X-13639367Y74543417D01*
X-13639367Y75612334D01*
X-14708284Y75612334D01*
X-15793846Y75612334D01*
X-15793075Y76157375D01*
X-13094325Y76157375D01*
X-13091498Y75890146D01*
G36*
X-13091498Y75890146D02*
G01*
X-13088670Y75622917D01*
X-12549284Y75622917D01*
X-12549284Y74532834D01*
X-13089034Y74532834D01*
X-13089034Y73993084D01*
X-13628784Y73993084D01*
X-13628784Y73463917D01*
X-13089034Y73463917D01*
X-13089034Y72924167D01*
X-12549284Y72924167D01*
X-12549284Y72373834D01*
X-13639367Y72373834D01*
X-13639367Y72913584D01*
X-14179117Y72913584D01*
X-14179117Y73453334D01*
X-14708284Y73453334D01*
X-14708284Y72373834D01*
X-15798425Y72373834D01*
X-15795750Y74265605D01*
X-15793846Y75612334D01*
X-14708284Y75612334D01*
X-14708284Y74543417D01*
X-13639367Y74543417D01*
X-13639367Y75612334D01*
X-14708284Y75612334D01*
X-15793846Y75612334D01*
X-15793075Y76157375D01*
X-13094325Y76157375D01*
X-13091498Y75890146D01*
G37*
X-11197263Y76435367D02*
X-10924742Y76432542D01*
X-10921780Y76297605D01*
X-10918818Y76162667D01*
X-10390284Y76162667D01*
X-10390284Y75887500D01*
X-11459200Y75887500D01*
X-11459200Y75622917D01*
X-10654867Y75622917D01*
X-10654867Y75358334D01*
X-10390284Y75358334D01*
X-10390284Y75072584D01*
X-10654867Y75072584D01*
X-10654867Y74808000D01*
X-10918818Y74808000D01*
X-10921780Y74673063D01*
X-10924742Y74538125D01*
X-11197263Y74535301D01*
X-11469784Y74532476D01*
X-11469784Y74797417D01*
X-12009534Y74797417D01*
X-12009534Y75083167D01*
X-10930034Y75083167D01*
X-10930034Y75347750D01*
X-11744950Y75347750D01*
X-11744950Y75612334D01*
X-12009534Y75612334D01*
X-12009534Y75898084D01*
X-11744950Y75898084D01*
X-11744950Y76162667D01*
X-11469784Y76162667D01*
X-11469784Y76438191D01*
X-11197263Y76435367D01*
G36*
X-11197263Y76435367D02*
G01*
X-10924742Y76432542D01*
X-10921780Y76297605D01*
X-10918818Y76162667D01*
X-10390284Y76162667D01*
X-10390284Y75887500D01*
X-11459200Y75887500D01*
X-11459200Y75622917D01*
X-10654867Y75622917D01*
X-10654867Y75358334D01*
X-10390284Y75358334D01*
X-10390284Y75072584D01*
X-10654867Y75072584D01*
X-10654867Y74808000D01*
X-10918818Y74808000D01*
X-10921780Y74673063D01*
X-10924742Y74538125D01*
X-11197263Y74535301D01*
X-11469784Y74532476D01*
X-11469784Y74797417D01*
X-12009534Y74797417D01*
X-12009534Y75083167D01*
X-10930034Y75083167D01*
X-10930034Y75347750D01*
X-11744950Y75347750D01*
X-11744950Y75612334D01*
X-12009534Y75612334D01*
X-12009534Y75898084D01*
X-11744950Y75898084D01*
X-11744950Y76162667D01*
X-11469784Y76162667D01*
X-11469784Y76438191D01*
X-11197263Y76435367D01*
G37*
X-6104034Y70585250D02*
X-7172950Y70585250D01*
X-7172950Y70331250D01*
X-6368617Y70331250D01*
X-6368617Y70056084D01*
X-6104034Y70056084D01*
X-6104034Y69241167D01*
X-6368617Y69241167D01*
X-6368617Y68966000D01*
X-7458700Y68966000D01*
X-7458700Y69241167D01*
X-7723284Y69241167D01*
X-7723284Y69516334D01*
X-7172950Y69516334D01*
X-7172950Y69251750D01*
X-6643784Y69251750D01*
X-6643784Y70045500D01*
X-7723284Y70045500D01*
X-7723284Y70871000D01*
X-6104034Y70871000D01*
X-6104034Y70585250D01*
G36*
X-6104034Y70585250D02*
G01*
X-7172950Y70585250D01*
X-7172950Y70331250D01*
X-6368617Y70331250D01*
X-6368617Y70056084D01*
X-6104034Y70056084D01*
X-6104034Y69241167D01*
X-6368617Y69241167D01*
X-6368617Y68966000D01*
X-7458700Y68966000D01*
X-7458700Y69241167D01*
X-7723284Y69241167D01*
X-7723284Y69516334D01*
X-7172950Y69516334D01*
X-7172950Y69251750D01*
X-6643784Y69251750D01*
X-6643784Y70045500D01*
X-7723284Y70045500D01*
X-7723284Y70871000D01*
X-6104034Y70871000D01*
X-6104034Y70585250D01*
G37*
X-3489950Y75612334D02*
X-4569450Y75612334D01*
X-4569450Y72373834D01*
X-5659534Y72373834D01*
X-5659534Y75612334D01*
X-6739391Y75612334D01*
X-6736567Y75884855D01*
X-6733742Y76157375D01*
X-3489950Y76162735D01*
X-3489950Y75612334D01*
G36*
X-3489950Y75612334D02*
G01*
X-4569450Y75612334D01*
X-4569450Y72373834D01*
X-5659534Y72373834D01*
X-5659534Y75612334D01*
X-6739391Y75612334D01*
X-6736567Y75884855D01*
X-6733742Y76157375D01*
X-3489950Y76162735D01*
X-3489950Y75612334D01*
G37*
X-1320367Y74532834D02*
X-1870700Y74532834D01*
X-1870700Y75083167D01*
X-1320367Y75083167D01*
X-1320367Y74532834D01*
G36*
X-1320367Y74532834D02*
G01*
X-1870700Y74532834D01*
X-1870700Y75083167D01*
X-1320367Y75083167D01*
X-1320367Y74532834D01*
G37*
X-2677680Y76435367D02*
X-2405159Y76432542D01*
X-2402334Y76160021D01*
X-2399510Y75887500D01*
X-2950200Y75887500D01*
X-2950200Y76438191D01*
X-2677680Y76435367D01*
G36*
X-2677680Y76435367D02*
G01*
X-2405159Y76432542D01*
X-2402334Y76160021D01*
X-2399510Y75887500D01*
X-2950200Y75887500D01*
X-2950200Y76438191D01*
X-2677680Y76435367D01*
G37*
X2690716Y70595834D02*
X2965883Y70595834D01*
X2965883Y70320667D01*
X2415550Y70320667D01*
X2415550Y70585250D01*
X1886383Y70585250D01*
X1886383Y70056084D01*
X2690716Y70056084D01*
X2690716Y69791500D01*
X2965883Y69791500D01*
X2965883Y69241167D01*
X2690716Y69241167D01*
X2690716Y68966000D01*
X2152730Y68966000D01*
X2047975Y68966135D01*
X1949681Y68966522D01*
X1859871Y68967136D01*
X1780566Y68967949D01*
X1713789Y68968935D01*
X1661562Y68970069D01*
X1625907Y68971325D01*
X1608847Y68972676D01*
X1607688Y68973056D01*
X1604984Y68985787D01*
X1602759Y69015353D01*
X1601235Y69057425D01*
X1600635Y69107671D01*
X1600633Y69110639D01*
X1600633Y69241167D01*
X1336050Y69241167D01*
X1336050Y69780917D01*
X1886383Y69780917D01*
X1886383Y69251750D01*
X2415550Y69251750D01*
X2415550Y69780917D01*
X1886383Y69780917D01*
X1336050Y69780917D01*
X1336050Y70595834D01*
X1600000Y70595834D01*
X1602962Y70730771D01*
X1605925Y70865709D01*
X2148320Y70868451D01*
X2690716Y70871193D01*
X2690716Y70595834D01*
G36*
X2690716Y70595834D02*
G01*
X2965883Y70595834D01*
X2965883Y70320667D01*
X2415550Y70320667D01*
X2415550Y70585250D01*
X1886383Y70585250D01*
X1886383Y70056084D01*
X2690716Y70056084D01*
X2690716Y69791500D01*
X2965883Y69791500D01*
X2965883Y69241167D01*
X2690716Y69241167D01*
X2690716Y68966000D01*
X2152730Y68966000D01*
X2047975Y68966135D01*
X1949681Y68966522D01*
X1859871Y68967136D01*
X1780566Y68967949D01*
X1713789Y68968935D01*
X1661562Y68970069D01*
X1625907Y68971325D01*
X1608847Y68972676D01*
X1607688Y68973056D01*
X1604984Y68985787D01*
X1602759Y69015353D01*
X1601235Y69057425D01*
X1600635Y69107671D01*
X1600633Y69110639D01*
X1600633Y69241167D01*
X1336050Y69241167D01*
X1336050Y69780917D01*
X1886383Y69780917D01*
X1886383Y69251750D01*
X2415550Y69251750D01*
X2415550Y69780917D01*
X1886383Y69780917D01*
X1336050Y69780917D01*
X1336050Y70595834D01*
X1600000Y70595834D01*
X1602962Y70730771D01*
X1605925Y70865709D01*
X2148320Y70868451D01*
X2690716Y70871193D01*
X2690716Y70595834D01*
G37*
X5569383Y74532834D02*
X5029633Y74532834D01*
X5029633Y73993084D01*
X4489883Y73993084D01*
X4489883Y72373834D01*
X3410383Y72373834D01*
X3410383Y73993084D01*
X2870633Y73993084D01*
X2870633Y74532834D01*
X2330883Y74532834D01*
X2330883Y76162667D01*
X3410383Y76162667D01*
X3410383Y74543417D01*
X4479167Y74543417D01*
X4484591Y76157375D01*
X5569383Y76162859D01*
X5569383Y74532834D01*
G36*
X5569383Y74532834D02*
G01*
X5029633Y74532834D01*
X5029633Y73993084D01*
X4489883Y73993084D01*
X4489883Y72373834D01*
X3410383Y72373834D01*
X3410383Y73993084D01*
X2870633Y73993084D01*
X2870633Y74532834D01*
X2330883Y74532834D01*
X2330883Y76162667D01*
X3410383Y76162667D01*
X3410383Y74543417D01*
X4479167Y74543417D01*
X4484591Y76157375D01*
X5569383Y76162859D01*
X5569383Y74532834D01*
G37*
X7199216Y76162667D02*
X7463800Y76162667D01*
X7463800Y75898084D01*
X7738966Y75898084D01*
X7738966Y75612334D01*
X7199216Y75612334D01*
X7199216Y74532834D01*
X6648883Y74532834D01*
X6648883Y75612334D01*
X6109133Y75612334D01*
X6109133Y75898084D01*
X6384300Y75898084D01*
X6384300Y76162667D01*
X6648883Y76162667D01*
X6648883Y76437834D01*
X7199216Y76437834D01*
X7199216Y76162667D01*
G36*
X7199216Y76162667D02*
G01*
X7463800Y76162667D01*
X7463800Y75898084D01*
X7738966Y75898084D01*
X7738966Y75612334D01*
X7199216Y75612334D01*
X7199216Y74532834D01*
X6648883Y74532834D01*
X6648883Y75612334D01*
X6109133Y75612334D01*
X6109133Y75898084D01*
X6384300Y75898084D01*
X6384300Y76162667D01*
X6648883Y76162667D01*
X6648883Y76437834D01*
X7199216Y76437834D01*
X7199216Y76162667D01*
G37*
X12025216Y70320667D02*
X11750050Y70320667D01*
X11750050Y70045500D01*
X11485466Y70045500D01*
X11485466Y68966000D01*
X10935133Y68966000D01*
X10935133Y70056084D01*
X11210300Y70056084D01*
X11210300Y70331250D01*
X11474883Y70331250D01*
X11474883Y70585250D01*
X10945716Y70585250D01*
X10945716Y70320667D01*
X10395383Y70320667D01*
X10395383Y70871000D01*
X12025216Y70871000D01*
X12025216Y70320667D01*
G36*
X12025216Y70320667D02*
G01*
X11750050Y70320667D01*
X11750050Y70045500D01*
X11485466Y70045500D01*
X11485466Y68966000D01*
X10935133Y68966000D01*
X10935133Y70056084D01*
X11210300Y70056084D01*
X11210300Y70331250D01*
X11474883Y70331250D01*
X11474883Y70585250D01*
X10945716Y70585250D01*
X10945716Y70320667D01*
X10395383Y70320667D01*
X10395383Y70871000D01*
X12025216Y70871000D01*
X12025216Y70320667D01*
G37*
X14634008Y76157375D02*
X14634008Y72918875D01*
X14366779Y72916048D01*
X14099550Y72913220D01*
X14099550Y72373834D01*
X11929966Y72373834D01*
X11929966Y72913584D01*
X11390216Y72913584D01*
X11390216Y76162859D01*
X12475008Y76157375D01*
X12477687Y74540771D01*
X12480367Y72924167D01*
X13549216Y72924167D01*
X13549216Y76162859D01*
X14634008Y76157375D01*
G36*
X14634008Y76157375D02*
G01*
X14634008Y72918875D01*
X14366779Y72916048D01*
X14099550Y72913220D01*
X14099550Y72373834D01*
X11929966Y72373834D01*
X11929966Y72913584D01*
X11390216Y72913584D01*
X11390216Y76162859D01*
X12475008Y76157375D01*
X12477687Y74540771D01*
X12480367Y72924167D01*
X13549216Y72924167D01*
X13549216Y76162859D01*
X14634008Y76157375D01*
G37*
X16528425Y76432542D02*
X16531387Y76297605D01*
X16534349Y76162667D01*
X16798300Y76162667D01*
X16798300Y75887500D01*
X16533716Y75887500D01*
X16533716Y75612334D01*
X16258550Y75612334D01*
X16258550Y75358585D01*
X16663362Y75355814D01*
X17068175Y75353042D01*
X17068175Y75077875D01*
X16933237Y75074913D01*
X16798300Y75071951D01*
X16798300Y74819216D01*
X16933237Y74816254D01*
X17068175Y74813292D01*
X17068175Y74538125D01*
X16255904Y74535414D01*
X15443633Y74532702D01*
X15443633Y74808000D01*
X15168109Y74808000D01*
X15170933Y75080521D01*
X15173703Y75347750D01*
X15718800Y75347750D01*
X15718800Y74818584D01*
X16247966Y74818584D01*
X16247966Y75347750D01*
X15718800Y75347750D01*
X15173703Y75347750D01*
X15173758Y75353042D01*
X15308695Y75356004D01*
X15443633Y75358966D01*
X15443633Y75887500D01*
X15168466Y75887500D01*
X15168466Y76152084D01*
X15718800Y76152084D01*
X15718800Y75898084D01*
X16247966Y75898084D01*
X16247966Y76152084D01*
X15718800Y76152084D01*
X15168466Y76152084D01*
X15168466Y76162667D01*
X15443633Y76162667D01*
X15443633Y76438026D01*
X16528425Y76432542D01*
G36*
X16528425Y76432542D02*
G01*
X16531387Y76297605D01*
X16534349Y76162667D01*
X16798300Y76162667D01*
X16798300Y75887500D01*
X16533716Y75887500D01*
X16533716Y75612334D01*
X16258550Y75612334D01*
X16258550Y75358585D01*
X16663362Y75355814D01*
X17068175Y75353042D01*
X17068175Y75077875D01*
X16933237Y75074913D01*
X16798300Y75071951D01*
X16798300Y74819216D01*
X16933237Y74816254D01*
X17068175Y74813292D01*
X17068175Y74538125D01*
X16255904Y74535414D01*
X15443633Y74532702D01*
X15443633Y74808000D01*
X15168109Y74808000D01*
X15170933Y75080521D01*
X15173703Y75347750D01*
X15718800Y75347750D01*
X15718800Y74818584D01*
X16247966Y74818584D01*
X16247966Y75347750D01*
X15718800Y75347750D01*
X15173703Y75347750D01*
X15173758Y75353042D01*
X15308695Y75356004D01*
X15443633Y75358966D01*
X15443633Y75887500D01*
X15168466Y75887500D01*
X15168466Y76152084D01*
X15718800Y76152084D01*
X15718800Y75898084D01*
X16247966Y75898084D01*
X16247966Y76152084D01*
X15718800Y76152084D01*
X15168466Y76152084D01*
X15168466Y76162667D01*
X15443633Y76162667D01*
X15443633Y76438026D01*
X16528425Y76432542D01*
G37*
X20814675Y70865709D02*
X20817637Y70730771D01*
X20820599Y70595834D01*
X21084550Y70595834D01*
X21084550Y70045500D01*
X20819966Y70045500D01*
X20819966Y69791500D01*
X21084550Y69791500D01*
X21084550Y69241167D01*
X20820599Y69241167D01*
X20817637Y69106230D01*
X20814675Y68971292D01*
X19729883Y68965808D01*
X19729883Y69241167D01*
X19454716Y69241167D01*
X19454716Y69780917D01*
X20005050Y69780917D01*
X20005050Y69251750D01*
X20534216Y69251750D01*
X20534216Y69780917D01*
X20005050Y69780917D01*
X19454716Y69780917D01*
X19454716Y69791500D01*
X19729883Y69791500D01*
X19729883Y70045500D01*
X19454716Y70045500D01*
X19454716Y70585250D01*
X20005050Y70585250D01*
X20005050Y70056084D01*
X20534216Y70056084D01*
X20534216Y70585250D01*
X20005050Y70585250D01*
X19454716Y70585250D01*
X19454716Y70595834D01*
X19729883Y70595834D01*
X19729883Y70871193D01*
X20814675Y70865709D01*
G36*
X20814675Y70865709D02*
G01*
X20817637Y70730771D01*
X20820599Y70595834D01*
X21084550Y70595834D01*
X21084550Y70045500D01*
X20819966Y70045500D01*
X20819966Y69791500D01*
X21084550Y69791500D01*
X21084550Y69241167D01*
X20820599Y69241167D01*
X20817637Y69106230D01*
X20814675Y68971292D01*
X19729883Y68965808D01*
X19729883Y69241167D01*
X19454716Y69241167D01*
X19454716Y69780917D01*
X20005050Y69780917D01*
X20005050Y69251750D01*
X20534216Y69251750D01*
X20534216Y69780917D01*
X20005050Y69780917D01*
X19454716Y69780917D01*
X19454716Y69791500D01*
X19729883Y69791500D01*
X19729883Y70045500D01*
X19454716Y70045500D01*
X19454716Y70585250D01*
X20005050Y70585250D01*
X20005050Y70056084D01*
X20534216Y70056084D01*
X20534216Y70585250D01*
X20005050Y70585250D01*
X19454716Y70585250D01*
X19454716Y70595834D01*
X19729883Y70595834D01*
X19729883Y70871193D01*
X20814675Y70865709D01*
G37*
X22071445Y76160071D02*
X23153591Y76157375D01*
X23156416Y75884855D01*
X23159240Y75612334D01*
X22619133Y75612334D01*
X22619133Y72924167D01*
X23158883Y72924167D01*
X23158883Y72373834D01*
X20989300Y72373834D01*
X20989300Y72924167D01*
X21529050Y72924167D01*
X21529050Y75612334D01*
X20989300Y75612334D01*
X20989300Y76162767D01*
X22071445Y76160071D01*
G36*
X22071445Y76160071D02*
G01*
X23153591Y76157375D01*
X23156416Y75884855D01*
X23159240Y75612334D01*
X22619133Y75612334D01*
X22619133Y72924167D01*
X23158883Y72924167D01*
X23158883Y72373834D01*
X20989300Y72373834D01*
X20989300Y72924167D01*
X21529050Y72924167D01*
X21529050Y75612334D01*
X20989300Y75612334D01*
X20989300Y76162767D01*
X22071445Y76160071D01*
G37*
X24778133Y75898084D02*
X25307300Y75898084D01*
X25307300Y76162667D01*
X25857633Y76162667D01*
X25857633Y75887500D01*
X25593050Y75887500D01*
X25593050Y75622917D01*
X26132800Y75622917D01*
X26132800Y75347750D01*
X25593050Y75347750D01*
X25593050Y75083167D01*
X25857633Y75083167D01*
X25857633Y74808000D01*
X25307300Y74808000D01*
X25307300Y75072584D01*
X24778133Y75072584D01*
X24778133Y74808000D01*
X24238383Y74808000D01*
X24238383Y75083167D01*
X24502966Y75083167D01*
X24502966Y75347750D01*
X23963216Y75347750D01*
X23963216Y75622917D01*
X24502966Y75622917D01*
X24502966Y75887500D01*
X24238383Y75887500D01*
X24238383Y76162667D01*
X24778133Y76162667D01*
X24778133Y75898084D01*
G36*
X24778133Y75898084D02*
G01*
X25307300Y75898084D01*
X25307300Y76162667D01*
X25857633Y76162667D01*
X25857633Y75887500D01*
X25593050Y75887500D01*
X25593050Y75622917D01*
X26132800Y75622917D01*
X26132800Y75347750D01*
X25593050Y75347750D01*
X25593050Y75083167D01*
X25857633Y75083167D01*
X25857633Y74808000D01*
X25307300Y74808000D01*
X25307300Y75072584D01*
X24778133Y75072584D01*
X24778133Y74808000D01*
X24238383Y74808000D01*
X24238383Y75083167D01*
X24502966Y75083167D01*
X24502966Y75347750D01*
X23963216Y75347750D01*
X23963216Y75622917D01*
X24502966Y75622917D01*
X24502966Y75887500D01*
X24238383Y75887500D01*
X24238383Y76162667D01*
X24778133Y76162667D01*
X24778133Y75898084D01*
G37*
X29879300Y70595834D02*
X30143883Y70595834D01*
X30143883Y69241167D01*
X29879300Y69241167D01*
X29879300Y68966000D01*
X28789216Y68966000D01*
X28789216Y69241167D01*
X28524633Y69241167D01*
X28524633Y69516334D01*
X29064383Y69516334D01*
X29064383Y69251750D01*
X29593550Y69251750D01*
X29593550Y69780917D01*
X28789216Y69780917D01*
X28789216Y70045500D01*
X28524633Y70045500D01*
X28524633Y70585250D01*
X29064383Y70585250D01*
X29064383Y70056084D01*
X29593550Y70056084D01*
X29593550Y70585250D01*
X29064383Y70585250D01*
X28524633Y70585250D01*
X28524633Y70595834D01*
X28789216Y70595834D01*
X28789216Y70871000D01*
X29879300Y70871000D01*
X29879300Y70595834D01*
G36*
X29879300Y70595834D02*
G01*
X30143883Y70595834D01*
X30143883Y69241167D01*
X29879300Y69241167D01*
X29879300Y68966000D01*
X28789216Y68966000D01*
X28789216Y69241167D01*
X28524633Y69241167D01*
X28524633Y69516334D01*
X29064383Y69516334D01*
X29064383Y69251750D01*
X29593550Y69251750D01*
X29593550Y69780917D01*
X28789216Y69780917D01*
X28789216Y70045500D01*
X28524633Y70045500D01*
X28524633Y70585250D01*
X29064383Y70585250D01*
X29064383Y70056084D01*
X29593550Y70056084D01*
X29593550Y70585250D01*
X29064383Y70585250D01*
X28524633Y70585250D01*
X28524633Y70595834D01*
X28789216Y70595834D01*
X28789216Y70871000D01*
X29879300Y70871000D01*
X29879300Y70595834D01*
G37*
X32218216Y75622917D02*
X32757966Y75622917D01*
X32757966Y72913584D01*
X32218216Y72913584D01*
X32218216Y72373834D01*
X30048633Y72373834D01*
X30048633Y72913584D01*
X29508802Y72913584D01*
X29511488Y74265605D01*
X29514164Y75612334D01*
X30598966Y75612334D01*
X30598966Y72924167D01*
X31667883Y72924167D01*
X31667883Y75612334D01*
X30598966Y75612334D01*
X29514164Y75612334D01*
X29514175Y75617625D01*
X29781222Y75620453D01*
X30048270Y75623280D01*
X30051097Y75890328D01*
X30053925Y76157375D01*
X31136070Y76160071D01*
X32218216Y76162767D01*
X32218216Y75622917D01*
G36*
X32218216Y75622917D02*
G01*
X32757966Y75622917D01*
X32757966Y72913584D01*
X32218216Y72913584D01*
X32218216Y72373834D01*
X30048633Y72373834D01*
X30048633Y72913584D01*
X29508802Y72913584D01*
X29511488Y74265605D01*
X29514164Y75612334D01*
X30598966Y75612334D01*
X30598966Y72924167D01*
X31667883Y72924167D01*
X31667883Y75612334D01*
X30598966Y75612334D01*
X29514164Y75612334D01*
X29514175Y75617625D01*
X29781222Y75620453D01*
X30048270Y75623280D01*
X30051097Y75890328D01*
X30053925Y76157375D01*
X31136070Y76160071D01*
X32218216Y76162767D01*
X32218216Y75622917D01*
G37*
X34652383Y76152084D02*
X34387800Y76152084D01*
X34387800Y75887500D01*
X34112633Y75887500D01*
X34112633Y75083167D01*
X34387800Y75083167D01*
X34387800Y74818584D01*
X34652383Y74818584D01*
X34652383Y74532834D01*
X34102050Y74532834D01*
X34102050Y74808000D01*
X33837466Y74808000D01*
X33837466Y75072584D01*
X33562300Y75072584D01*
X33562300Y75898084D01*
X33837466Y75898084D01*
X33837466Y76162667D01*
X34102050Y76162667D01*
X34102050Y76437834D01*
X34652383Y76437834D01*
X34652383Y76152084D01*
G36*
X34652383Y76152084D02*
G01*
X34387800Y76152084D01*
X34387800Y75887500D01*
X34112633Y75887500D01*
X34112633Y75083167D01*
X34387800Y75083167D01*
X34387800Y74818584D01*
X34652383Y74818584D01*
X34652383Y74532834D01*
X34102050Y74532834D01*
X34102050Y74808000D01*
X33837466Y74808000D01*
X33837466Y75072584D01*
X33562300Y75072584D01*
X33562300Y75898084D01*
X33837466Y75898084D01*
X33837466Y76162667D01*
X34102050Y76162667D01*
X34102050Y76437834D01*
X34652383Y76437834D01*
X34652383Y76152084D01*
G37*
X37583966Y70585250D02*
X38134300Y70585250D01*
X38134300Y70056084D01*
X38388300Y70056084D01*
X38388300Y70331250D01*
X38663466Y70331250D01*
X38663466Y70585250D01*
X38134300Y70585250D01*
X37583966Y70585250D01*
X37583966Y70595834D01*
X37848550Y70595834D01*
X37848550Y70871000D01*
X38938633Y70871000D01*
X38938633Y70596466D01*
X39073570Y70593504D01*
X39208508Y70590542D01*
X39211232Y69915855D01*
X39213956Y69241167D01*
X38938633Y69241167D01*
X38938633Y68966000D01*
X37848550Y68966000D01*
X37848550Y69241167D01*
X37583966Y69241167D01*
X37583966Y69251750D01*
X38134300Y69251750D01*
X38663466Y69251750D01*
X38663466Y70045500D01*
X38398883Y70045500D01*
X38398883Y69780917D01*
X38134300Y69780917D01*
X38134300Y69251750D01*
X37583966Y69251750D01*
X37583966Y69780917D01*
X37583966Y70585250D01*
G36*
X37583966Y70585250D02*
G01*
X38134300Y70585250D01*
X38134300Y70056084D01*
X38388300Y70056084D01*
X38388300Y70331250D01*
X38663466Y70331250D01*
X38663466Y70585250D01*
X38134300Y70585250D01*
X37583966Y70585250D01*
X37583966Y70595834D01*
X37848550Y70595834D01*
X37848550Y70871000D01*
X38938633Y70871000D01*
X38938633Y70596466D01*
X39073570Y70593504D01*
X39208508Y70590542D01*
X39211232Y69915855D01*
X39213956Y69241167D01*
X38938633Y69241167D01*
X38938633Y68966000D01*
X37848550Y68966000D01*
X37848550Y69241167D01*
X37583966Y69241167D01*
X37583966Y69251750D01*
X38134300Y69251750D01*
X38663466Y69251750D01*
X38663466Y70045500D01*
X38398883Y70045500D01*
X38398883Y69780917D01*
X38134300Y69780917D01*
X38134300Y69251750D01*
X37583966Y69251750D01*
X37583966Y69780917D01*
X37583966Y70585250D01*
G37*
X41277550Y75622917D02*
X41817300Y75622917D01*
X41817300Y74532834D01*
X41277550Y74532834D01*
X41277550Y73993084D01*
X39658300Y73993084D01*
X39658300Y72373834D01*
X38568158Y72373834D01*
X38570833Y74265605D01*
X38572737Y75612334D01*
X39658300Y75612334D01*
X39658300Y74543417D01*
X40727216Y74543417D01*
X40727216Y75612334D01*
X39658300Y75612334D01*
X38572737Y75612334D01*
X38573508Y76157375D01*
X39925529Y76160062D01*
X41277550Y76162748D01*
X41277550Y75622917D01*
G36*
X41277550Y75622917D02*
G01*
X41817300Y75622917D01*
X41817300Y74532834D01*
X41277550Y74532834D01*
X41277550Y73993084D01*
X39658300Y73993084D01*
X39658300Y72373834D01*
X38568158Y72373834D01*
X38570833Y74265605D01*
X38572737Y75612334D01*
X39658300Y75612334D01*
X39658300Y74543417D01*
X40727216Y74543417D01*
X40727216Y75612334D01*
X39658300Y75612334D01*
X38572737Y75612334D01*
X38573508Y76157375D01*
X39925529Y76160062D01*
X41277550Y76162748D01*
X41277550Y75622917D01*
G37*
X43171966Y76162667D02*
X43447133Y76162667D01*
X43447133Y75898084D01*
X43711716Y75898084D01*
X43711716Y75072584D01*
X43447133Y75072584D01*
X43447133Y74808000D01*
X43171966Y74808000D01*
X43171966Y74532834D01*
X42901759Y74532834D01*
X42815466Y74533053D01*
X42748262Y74533779D01*
X42698076Y74535118D01*
X42662833Y74537172D01*
X42640462Y74540046D01*
X42628889Y74543844D01*
X42626239Y74546679D01*
X42624401Y74562229D01*
X42623357Y74594216D01*
X42623187Y74637925D01*
X42623925Y74686908D01*
X42626925Y74813292D01*
X42761862Y74816254D01*
X42896800Y74819216D01*
X42896800Y75083167D01*
X43161383Y75083167D01*
X43161383Y75887500D01*
X42896800Y75887500D01*
X42896800Y76151451D01*
X42761862Y76154413D01*
X42626925Y76157375D01*
X42626925Y76432542D01*
X42899445Y76435367D01*
X43171966Y76438191D01*
X43171966Y76162667D01*
G36*
X43171966Y76162667D02*
G01*
X43447133Y76162667D01*
X43447133Y75898084D01*
X43711716Y75898084D01*
X43711716Y75072584D01*
X43447133Y75072584D01*
X43447133Y74808000D01*
X43171966Y74808000D01*
X43171966Y74532834D01*
X42901759Y74532834D01*
X42815466Y74533053D01*
X42748262Y74533779D01*
X42698076Y74535118D01*
X42662833Y74537172D01*
X42640462Y74540046D01*
X42628889Y74543844D01*
X42626239Y74546679D01*
X42624401Y74562229D01*
X42623357Y74594216D01*
X42623187Y74637925D01*
X42623925Y74686908D01*
X42626925Y74813292D01*
X42761862Y74816254D01*
X42896800Y74819216D01*
X42896800Y75083167D01*
X43161383Y75083167D01*
X43161383Y75887500D01*
X42896800Y75887500D01*
X42896800Y76151451D01*
X42761862Y76154413D01*
X42626925Y76157375D01*
X42626925Y76432542D01*
X42899445Y76435367D01*
X43171966Y76438191D01*
X43171966Y76162667D01*
G37*
G04 #@! TD*
M02*
