M48
; DRILL file {KiCad 7.99.0-1.20230226git51d46c0.fc37} date Wed 29 Mar 2023 21:25:55 BST
; FORMAT={-:-/ absolute / metric / decimal}
; #@! TF.CreationDate,2023-03-29T21:25:55+01:00
; #@! TF.GenerationSoftware,Kicad,Pcbnew,7.99.0-1.20230226git51d46c0.fc37
; #@! TF.FileFunction,NonPlated,1,4,NPTH
FMAT,2
METRIC
; #@! TA.AperFunction,NonPlated,NPTH,ComponentDrill
T1C0.500
; #@! TA.AperFunction,NonPlated,NPTH,ComponentDrill
T2C0.800
; #@! TA.AperFunction,NonPlated,NPTH,ComponentDrill
T3C0.900
; #@! TA.AperFunction,NonPlated,NPTH,ComponentDrill
T4C1.000
; #@! TA.AperFunction,NonPlated,NPTH,ComponentDrill
T5C1.100
; #@! TA.AperFunction,NonPlated,NPTH,ComponentDrill
T6C1.500
; #@! TA.AperFunction,NonPlated,NPTH,ComponentDrill
T7C3.700
%
G90
G05
T1
X25.41Y126.8
X31.19Y126.8
T2
X-44.217Y91.821
T3
X27.4Y29.87
X30.4Y29.87
X48.8Y98.35
X48.8Y90.35
X52.15Y109.7
X52.15Y106.7
T4
X-30.8Y124.55
X-25.8Y124.55
X-2.533Y30.552
X-2.533Y28.012
X0.007Y30.552
X0.007Y28.012
X2.547Y30.552
X2.547Y28.012
T5
X-41.529Y94.509
X-34.122Y127.835
X-34.122Y78.795
X34.127Y127.835
X34.127Y78.795
T6
X42.75Y125.25
X42.75Y118.25
T7
X-40.203Y70.405
X-35.673Y59.985
X-31.143Y49.575
X-31.141Y70.405
X-26.611Y59.985
X-26.543Y39.165
X-22.081Y49.575
X-22.079Y70.405
X-17.549Y59.985
X-17.481Y39.165
X-13.019Y49.575
X-13.017Y70.405
X-8.487Y59.985
X-8.419Y39.165
X-3.957Y49.575
X-3.955Y70.405
X0.575Y59.985
X0.643Y39.165
X5.105Y49.575
X5.107Y70.405
X9.637Y59.985
X9.705Y39.165
X14.167Y49.575
X14.169Y70.405
X18.699Y59.985
X18.767Y39.165
X23.229Y49.575
X23.231Y70.405
X27.761Y59.985
X27.829Y39.165
X32.291Y49.575
X32.293Y70.405
X36.823Y59.985
X41.355Y70.405
T0
M30
