G04 #@! TF.GenerationSoftware,KiCad,Pcbnew,7.99.0-1.20230226git51d46c0.fc37*
G04 #@! TF.CreationDate,2023-03-29T22:07:47+01:00*
G04 #@! TF.ProjectId,tr23-badge-r1,74723233-2d62-4616-9467-652d72312e6b,rev?*
G04 #@! TF.SameCoordinates,Original*
G04 #@! TF.FileFunction,Profile,NP*
%FSLAX46Y46*%
G04 Gerber Fmt 4.6, Leading zero omitted, Abs format (unit mm)*
G04 Created by KiCad (PCBNEW 7.99.0-1.20230226git51d46c0.fc37) date 2023-03-29 22:07:47*
%MOMM*%
%LPD*%
G01*
G04 APERTURE LIST*
G04 #@! TA.AperFunction,Profile*
%ADD10C,0.100000*%
G04 #@! TD*
G04 APERTURE END LIST*
D10*
G04 #@! TO.C,GRAPHIC1*
X-1724500Y142309832D02*
X-1818500Y142301047D01*
X-1818500Y142301047D02*
X-1906400Y142275209D01*
X-1906400Y142275209D02*
X-1987500Y142234901D01*
X-1987500Y142234901D02*
X-2058800Y142181675D01*
X-2058800Y142181675D02*
X-2119300Y142116046D01*
X-2119300Y142116046D02*
X-2167900Y142040598D01*
X-2167900Y142040598D02*
X-2202000Y141956882D01*
X-2202000Y141956882D02*
X-2221100Y141866449D01*
X-2221100Y141866449D02*
X-2221100Y138348830D01*
X-2221100Y138348830D02*
X-2233100Y138251860D01*
X-2233100Y138251860D02*
X-2262800Y138161540D01*
X-2262800Y138161540D02*
X-2308200Y138079720D01*
X-2308200Y138079720D02*
X-2367600Y138008220D01*
X-2367600Y138008220D02*
X-2439200Y137948870D01*
X-2439200Y137948870D02*
X-2521100Y137903500D01*
X-2521100Y137903500D02*
X-2611400Y137873950D01*
X-2611400Y137873950D02*
X-2708400Y137862040D01*
X-2708400Y137862040D02*
X-15067900Y137862040D01*
X-15067900Y137862040D02*
X-15168600Y137851710D01*
X-15168600Y137851710D02*
X-15262200Y137822770D01*
X-15262200Y137822770D02*
X-15347400Y137776780D01*
X-15347400Y137776780D02*
X-15421300Y137715280D01*
X-15421300Y137715280D02*
X-15482300Y137641380D01*
X-15482300Y137641380D02*
X-15528300Y137556630D01*
X-15528300Y137556630D02*
X-15557200Y137463100D01*
X-15557200Y137463100D02*
X-15567600Y137362330D01*
X-15567600Y137362330D02*
X-15567600Y133901040D01*
X-15567600Y133901040D02*
X-15579600Y133804070D01*
X-15579600Y133804070D02*
X-15609300Y133713750D01*
X-15609300Y133713750D02*
X-15654700Y133631930D01*
X-15654700Y133631930D02*
X-15714100Y133560430D01*
X-15714100Y133560430D02*
X-15785700Y133501080D01*
X-15785700Y133501080D02*
X-15867600Y133455720D01*
X-15867600Y133455720D02*
X-15957900Y133426160D01*
X-15957900Y133426160D02*
X-16054900Y133414250D01*
X-16054900Y133414250D02*
X-37307300Y133414250D01*
X-37307300Y133414250D02*
X-37408100Y133403920D01*
X-37408100Y133403920D02*
X-37501600Y133374980D01*
X-37501600Y133374980D02*
X-37586400Y133328990D01*
X-37586400Y133328990D02*
X-37660800Y133267490D01*
X-37660800Y133267490D02*
X-37721800Y133193590D01*
X-37721800Y133193590D02*
X-37767800Y133108850D01*
X-37767800Y133108850D02*
X-37796700Y133015310D01*
X-37796700Y133015310D02*
X-37807100Y132914540D01*
X-37807100Y132914540D02*
X-37807100Y129442900D01*
X-37807100Y129442900D02*
X-37819100Y129345900D01*
X-37819100Y129345900D02*
X-37848700Y129255600D01*
X-37848700Y129255600D02*
X-37894200Y129173800D01*
X-37894200Y129173800D02*
X-37953600Y129102300D01*
X-37953600Y129102300D02*
X-38025200Y129043000D01*
X-38025200Y129043000D02*
X-38107000Y128997600D01*
X-38107000Y128997600D02*
X-38197400Y128968000D01*
X-38197400Y128968000D02*
X-38294400Y128956100D01*
X-38294400Y128956100D02*
X-50751470Y128956100D01*
X-50751470Y128956100D02*
X-50845000Y128927200D01*
X-50845000Y128927200D02*
X-50929750Y128881200D01*
X-50929750Y128881200D02*
X-51004160Y128819700D01*
X-51004160Y128819700D02*
X-51065140Y128745800D01*
X-51065140Y128745800D02*
X-51111130Y128661000D01*
X-51111130Y128661000D02*
X-51140070Y128567500D01*
X-51140070Y128567500D02*
X-51140070Y116119700D01*
X-51140070Y116119700D02*
X-51152090Y116022700D01*
X-51152090Y116022700D02*
X-51181730Y115932400D01*
X-51181730Y115932400D02*
X-51227190Y115850600D01*
X-51227190Y115850600D02*
X-51286610Y115779100D01*
X-51286610Y115779100D02*
X-51358170Y115719700D01*
X-51358170Y115719700D02*
X-51440040Y115674400D01*
X-51440040Y115674400D02*
X-51530390Y115644800D01*
X-51530390Y115644800D02*
X-51627380Y115632900D01*
X-51627380Y115632900D02*
X-55098488Y115632900D01*
X-55098488Y115632900D02*
X-55199257Y115622600D01*
X-55199257Y115622600D02*
X-55292791Y115593600D01*
X-55292791Y115593600D02*
X-55377541Y115547100D01*
X-55377541Y115547100D02*
X-55451955Y115486100D01*
X-55451955Y115486100D02*
X-55512933Y115412200D01*
X-55512933Y115412200D02*
X-55558925Y115327500D01*
X-55558925Y115327500D02*
X-55587864Y115234000D01*
X-55587864Y115234000D02*
X-55598200Y115133200D01*
X-55598200Y115133200D02*
X-55598200Y84995500D01*
X-55598200Y84995500D02*
X-55586288Y84898500D01*
X-55586288Y84898500D02*
X-55556734Y84808200D01*
X-55556734Y84808200D02*
X-55511366Y84726300D01*
X-55511366Y84726300D02*
X-55452017Y84654700D01*
X-55452017Y84654700D02*
X-55380516Y84595300D01*
X-55380516Y84595300D02*
X-55298694Y84549900D01*
X-55298694Y84549900D02*
X-55208381Y84520200D01*
X-55208381Y84520200D02*
X-55111408Y84508200D01*
X-55111408Y84508200D02*
X-51637200Y84508200D01*
X-51637200Y84508200D02*
X-51540230Y84496200D01*
X-51540230Y84496200D02*
X-51449910Y84466500D01*
X-51449910Y84466500D02*
X-51368090Y84421100D01*
X-51368090Y84421100D02*
X-51296590Y84361700D01*
X-51296590Y84361700D02*
X-51237240Y84290100D01*
X-51237240Y84290100D02*
X-51191870Y84208200D01*
X-51191870Y84208200D02*
X-51162320Y84117900D01*
X-51162320Y84117900D02*
X-51150410Y84020900D01*
X-51150410Y84020900D02*
X-51150410Y67204300D01*
X-51150410Y67204300D02*
X-51138610Y67107800D01*
X-51138610Y67107800D02*
X-51109340Y67017900D01*
X-51109340Y67017900D02*
X-51064400Y66936300D01*
X-51064400Y66936300D02*
X-51005590Y66864900D01*
X-51005590Y66864900D02*
X-50934720Y66805400D01*
X-50934720Y66805400D02*
X-50853590Y66759800D01*
X-50853590Y66759800D02*
X-50764000Y66729700D01*
X-50764000Y66729700D02*
X-50667750Y66717000D01*
X-50667750Y66717000D02*
X-50663620Y66717000D01*
X-50663620Y66717000D02*
X-47189420Y66718600D01*
X-47189420Y66718600D02*
X-47184770Y66718600D01*
X-47184770Y66718600D02*
X-47088600Y66705900D01*
X-47088600Y66705900D02*
X-46999100Y66675800D01*
X-46999100Y66675800D02*
X-46918060Y66630100D01*
X-46918060Y66630100D02*
X-46847270Y66570600D01*
X-46847270Y66570600D02*
X-46788530Y66499200D01*
X-46788530Y66499200D02*
X-46743650Y66417700D01*
X-46743650Y66417700D02*
X-46714410Y66327800D01*
X-46714410Y66327800D02*
X-46702620Y66231300D01*
X-46702620Y66231300D02*
X-46702620Y53860500D01*
X-46702620Y53860500D02*
X-46690710Y53763500D01*
X-46690710Y53763500D02*
X-46661160Y53673200D01*
X-46661160Y53673200D02*
X-46615790Y53591300D01*
X-46615790Y53591300D02*
X-46556440Y53519700D01*
X-46556440Y53519700D02*
X-46484940Y53460300D01*
X-46484940Y53460300D02*
X-46403120Y53414900D01*
X-46403120Y53414900D02*
X-46312800Y53385200D01*
X-46312800Y53385200D02*
X-46215830Y53373200D01*
X-46215830Y53373200D02*
X-42741600Y53373200D01*
X-42741600Y53373200D02*
X-42644700Y53361200D01*
X-42644700Y53361200D02*
X-42554300Y53331500D01*
X-42554300Y53331500D02*
X-42472500Y53286100D01*
X-42472500Y53286100D02*
X-42401000Y53226700D01*
X-42401000Y53226700D02*
X-42341700Y53155100D01*
X-42341700Y53155100D02*
X-42296300Y53073200D01*
X-42296300Y53073200D02*
X-42266700Y52982900D01*
X-42266700Y52982900D02*
X-42254800Y52885900D01*
X-42254800Y52885900D02*
X-42254800Y44964400D01*
X-42254800Y44964400D02*
X-42242900Y44867400D01*
X-42242900Y44867400D02*
X-42213400Y44777100D01*
X-42213400Y44777100D02*
X-42168000Y44695200D01*
X-42168000Y44695200D02*
X-42108700Y44623600D01*
X-42108700Y44623600D02*
X-42037200Y44564200D01*
X-42037200Y44564200D02*
X-41955300Y44518800D01*
X-41955300Y44518800D02*
X-41865000Y44489100D01*
X-41865000Y44489100D02*
X-41768000Y44477100D01*
X-41768000Y44477100D02*
X-38293800Y44477100D01*
X-38293800Y44477100D02*
X-38196900Y44465100D01*
X-38196900Y44465100D02*
X-38106500Y44435400D01*
X-38106500Y44435400D02*
X-38024700Y44390000D01*
X-38024700Y44390000D02*
X-37953200Y44330500D01*
X-37953200Y44330500D02*
X-37893900Y44259000D01*
X-37893900Y44259000D02*
X-37848500Y44177100D01*
X-37848500Y44177100D02*
X-37819000Y44086800D01*
X-37819000Y44086800D02*
X-37807000Y43989800D01*
X-37807000Y43989800D02*
X-37807000Y36069000D01*
X-37807000Y36069000D02*
X-37795100Y35972000D01*
X-37795100Y35972000D02*
X-37765600Y35882000D01*
X-37765600Y35882000D02*
X-37720200Y35800000D01*
X-37720200Y35800000D02*
X-37660900Y35729000D01*
X-37660900Y35729000D02*
X-37589400Y35669000D01*
X-37589400Y35669000D02*
X-37507500Y35624000D01*
X-37507500Y35624000D02*
X-37417200Y35594000D01*
X-37417200Y35594000D02*
X-37320300Y35582000D01*
X-37320300Y35582000D02*
X-33846000Y35582000D01*
X-33846000Y35582000D02*
X-33749100Y35570000D01*
X-33749100Y35570000D02*
X-33658800Y35540000D01*
X-33658800Y35540000D02*
X-33576900Y35495000D01*
X-33576900Y35495000D02*
X-33505400Y35435000D01*
X-33505400Y35435000D02*
X-33446100Y35364000D01*
X-33446100Y35364000D02*
X-33400700Y35282000D01*
X-33400700Y35282000D02*
X-33371200Y35192000D01*
X-33371200Y35192000D02*
X-33359300Y35095000D01*
X-33359300Y35095000D02*
X-33359300Y27174000D01*
X-33359300Y27174000D02*
X-33347300Y27077000D01*
X-33347300Y27077000D02*
X-33317800Y26986000D01*
X-33317800Y26986000D02*
X-33272400Y26905000D01*
X-33272400Y26905000D02*
X-33213100Y26833000D01*
X-33213100Y26833000D02*
X-33141600Y26774000D01*
X-33141600Y26774000D02*
X-33059800Y26728000D01*
X-33059800Y26728000D02*
X-32969400Y26698000D01*
X-32969400Y26698000D02*
X-32872500Y26686000D01*
X-32872500Y26686000D02*
X-29398300Y26686000D01*
X-29398300Y26686000D02*
X-29301300Y26674000D01*
X-29301300Y26674000D02*
X-29211000Y26645000D01*
X-29211000Y26645000D02*
X-29129100Y26599000D01*
X-29129100Y26599000D02*
X-29057600Y26540000D01*
X-29057600Y26540000D02*
X-28998300Y26468000D01*
X-28998300Y26468000D02*
X-28952900Y26386000D01*
X-28952900Y26386000D02*
X-28923400Y26296000D01*
X-28923400Y26296000D02*
X-28911500Y26199000D01*
X-28911500Y26199000D02*
X-28911500Y22725000D01*
X-28911500Y22725000D02*
X-28899600Y22628000D01*
X-28899600Y22628000D02*
X-28870000Y22538000D01*
X-28870000Y22538000D02*
X-28824600Y22456000D01*
X-28824600Y22456000D02*
X-28765300Y22385000D01*
X-28765300Y22385000D02*
X-28693800Y22325000D01*
X-28693800Y22325000D02*
X-28612000Y22280000D01*
X-28612000Y22280000D02*
X-28521600Y22250000D01*
X-28521600Y22250000D02*
X-28424700Y22238000D01*
X-28424700Y22238000D02*
X-24950500Y22238000D01*
X-24950500Y22238000D02*
X-24853500Y22226000D01*
X-24853500Y22226000D02*
X-24763200Y22196000D01*
X-24763200Y22196000D02*
X-24681400Y22151000D01*
X-24681400Y22151000D02*
X-24609900Y22092000D01*
X-24609900Y22092000D02*
X-24550500Y22020000D01*
X-24550500Y22020000D02*
X-24505100Y21938000D01*
X-24505100Y21938000D02*
X-24475600Y21848000D01*
X-24475600Y21848000D02*
X-24463700Y21751000D01*
X-24463700Y21751000D02*
X-24463700Y18278000D01*
X-24463700Y18278000D02*
X-24451800Y18181000D01*
X-24451800Y18181000D02*
X-24422200Y18091000D01*
X-24422200Y18091000D02*
X-24376800Y18009000D01*
X-24376800Y18009000D02*
X-24317500Y17937000D01*
X-24317500Y17937000D02*
X-24246000Y17878000D01*
X-24246000Y17878000D02*
X-24164200Y17833000D01*
X-24164200Y17833000D02*
X-24073900Y17803000D01*
X-24073900Y17803000D02*
X-23976900Y17791000D01*
X-23976900Y17791000D02*
X-20502200Y17791000D01*
X-20502200Y17791000D02*
X-20405200Y17779000D01*
X-20405200Y17779000D02*
X-20314900Y17749000D01*
X-20314900Y17749000D02*
X-20233000Y17704000D01*
X-20233000Y17704000D02*
X-20161500Y17644000D01*
X-20161500Y17644000D02*
X-20102200Y17573000D01*
X-20102200Y17573000D02*
X-20056800Y17491000D01*
X-20056800Y17491000D02*
X-20027300Y17401000D01*
X-20027300Y17401000D02*
X-20015400Y17304000D01*
X-20015400Y17304000D02*
X-20015400Y13830000D01*
X-20015400Y13830000D02*
X-20003500Y13733000D01*
X-20003500Y13733000D02*
X-19973900Y13643000D01*
X-19973900Y13643000D02*
X-19928500Y13561000D01*
X-19928500Y13561000D02*
X-19869200Y13489000D01*
X-19869200Y13489000D02*
X-19797700Y13430000D01*
X-19797700Y13430000D02*
X-19715900Y13384000D01*
X-19715900Y13384000D02*
X-19625500Y13355000D01*
X-19625500Y13355000D02*
X-19528600Y13343000D01*
X-19528600Y13343000D02*
X-16054400Y13343000D01*
X-16054400Y13343000D02*
X-15957400Y13331000D01*
X-15957400Y13331000D02*
X-15867100Y13301000D01*
X-15867100Y13301000D02*
X-15785300Y13255000D01*
X-15785300Y13255000D02*
X-15713800Y13196000D01*
X-15713800Y13196000D02*
X-15654400Y13124000D01*
X-15654400Y13124000D02*
X-15609000Y13043000D01*
X-15609000Y13043000D02*
X-15579500Y12952000D01*
X-15579500Y12952000D02*
X-15567600Y12855000D01*
X-15567600Y12855000D02*
X-15567600Y9382000D01*
X-15567600Y9382000D02*
X-15555700Y9285000D01*
X-15555700Y9285000D02*
X-15526100Y9195000D01*
X-15526100Y9195000D02*
X-15480700Y9113000D01*
X-15480700Y9113000D02*
X-15421400Y9041000D01*
X-15421400Y9041000D02*
X-15349900Y8982000D01*
X-15349900Y8982000D02*
X-15268100Y8936000D01*
X-15268100Y8936000D02*
X-15177800Y8907000D01*
X-15177800Y8907000D02*
X-15080800Y8895000D01*
X-15080800Y8895000D02*
X-11606600Y8895000D01*
X-11606600Y8895000D02*
X-11509600Y8883000D01*
X-11509600Y8883000D02*
X-11419300Y8853000D01*
X-11419300Y8853000D02*
X-11337500Y8808000D01*
X-11337500Y8808000D02*
X-11266000Y8748000D01*
X-11266000Y8748000D02*
X-11206600Y8677000D01*
X-11206600Y8677000D02*
X-11161200Y8595000D01*
X-11161200Y8595000D02*
X-11131700Y8504000D01*
X-11131700Y8504000D02*
X-11119800Y8407000D01*
X-11119800Y8407000D02*
X-11119800Y4935000D01*
X-11119800Y4935000D02*
X-11107900Y4838000D01*
X-11107900Y4838000D02*
X-11078300Y4747000D01*
X-11078300Y4747000D02*
X-11033000Y4666000D01*
X-11033000Y4666000D02*
X-10973600Y4594000D01*
X-10973600Y4594000D02*
X-10902100Y4535000D01*
X-10902100Y4535000D02*
X-10820300Y4489000D01*
X-10820300Y4489000D02*
X-10730000Y4460000D01*
X-10730000Y4460000D02*
X-10633000Y4447000D01*
X-10633000Y4447000D02*
X-7158800Y4447000D01*
X-7158800Y4447000D02*
X-7061800Y4435000D01*
X-7061800Y4435000D02*
X-6971500Y4406000D01*
X-6971500Y4406000D02*
X-6889700Y4360000D01*
X-6889700Y4360000D02*
X-6818200Y4301000D01*
X-6818200Y4301000D02*
X-6758800Y4229000D01*
X-6758800Y4229000D02*
X-6713500Y4148000D01*
X-6713500Y4148000D02*
X-6683900Y4057000D01*
X-6683900Y4057000D02*
X-6672000Y3960000D01*
X-6672000Y3960000D02*
X-6672000Y487000D01*
X-6672000Y487000D02*
X-6660100Y390000D01*
X-6660100Y390000D02*
X-6630500Y300000D01*
X-6630500Y300000D02*
X-6585200Y218000D01*
X-6585200Y218000D02*
X-6525800Y146000D01*
X-6525800Y146000D02*
X-6454300Y87000D01*
X-6454300Y87000D02*
X-6372500Y41000D01*
X-6372500Y41000D02*
X-6282200Y12000D01*
X-6282200Y12000D02*
X-6185200Y0D01*
X-6185200Y0D02*
X6184100Y0D01*
X6184100Y0D02*
X6281100Y12000D01*
X6281100Y12000D02*
X6371400Y41000D01*
X6371400Y41000D02*
X6453300Y87000D01*
X6453300Y87000D02*
X6524800Y146000D01*
X6524800Y146000D02*
X6584300Y217000D01*
X6584300Y217000D02*
X6629700Y299000D01*
X6629700Y299000D02*
X6659400Y390000D01*
X6659400Y390000D02*
X6671400Y486000D01*
X6671400Y486000D02*
X6671400Y3961000D01*
X6671400Y3961000D02*
X6683400Y4058000D01*
X6683400Y4058000D02*
X6713000Y4148000D01*
X6713000Y4148000D02*
X6758500Y4230000D01*
X6758500Y4230000D02*
X6817900Y4301000D01*
X6817900Y4301000D02*
X6889500Y4361000D01*
X6889500Y4361000D02*
X6971400Y4406000D01*
X6971400Y4406000D02*
X7061700Y4436000D01*
X7061700Y4436000D02*
X7158700Y4447000D01*
X7158700Y4447000D02*
X10631300Y4447000D01*
X10631300Y4447000D02*
X10728300Y4460000D01*
X10728300Y4460000D02*
X10818700Y4489000D01*
X10818700Y4489000D02*
X10900600Y4534000D01*
X10900600Y4534000D02*
X10972100Y4594000D01*
X10972100Y4594000D02*
X11031500Y4665000D01*
X11031500Y4665000D02*
X11077000Y4747000D01*
X11077000Y4747000D02*
X11106600Y4837000D01*
X11106600Y4837000D02*
X11118700Y4934000D01*
X11118700Y4934000D02*
X11118700Y8408000D01*
X11118700Y8408000D02*
X11130700Y8505000D01*
X11130700Y8505000D02*
X11160300Y8595000D01*
X11160300Y8595000D02*
X11205800Y8677000D01*
X11205800Y8677000D02*
X11265200Y8749000D01*
X11265200Y8749000D02*
X11336800Y8808000D01*
X11336800Y8808000D02*
X11418600Y8853000D01*
X11418600Y8853000D02*
X11509000Y8883000D01*
X11509000Y8883000D02*
X11606000Y8895000D01*
X11606000Y8895000D02*
X15080200Y8895000D01*
X15080200Y8895000D02*
X15177200Y8907000D01*
X15177200Y8907000D02*
X15267500Y8936000D01*
X15267500Y8936000D02*
X15349400Y8982000D01*
X15349400Y8982000D02*
X15420900Y9041000D01*
X15420900Y9041000D02*
X15480400Y9113000D01*
X15480400Y9113000D02*
X15525800Y9194000D01*
X15525800Y9194000D02*
X15555500Y9285000D01*
X15555500Y9285000D02*
X15567500Y9382000D01*
X15567500Y9382000D02*
X15579400Y12856000D01*
X15579400Y12856000D02*
X15591400Y12953000D01*
X15591400Y12953000D02*
X15621000Y13043000D01*
X15621000Y13043000D02*
X15666500Y13125000D01*
X15666500Y13125000D02*
X15725900Y13196000D01*
X15725900Y13196000D02*
X15797500Y13256000D01*
X15797500Y13256000D02*
X15879300Y13301000D01*
X15879300Y13301000D02*
X15969700Y13331000D01*
X15969700Y13331000D02*
X16066700Y13343000D01*
X16066700Y13343000D02*
X19528500Y13343000D01*
X19528500Y13343000D02*
X19625500Y13355000D01*
X19625500Y13355000D02*
X19715800Y13384000D01*
X19715800Y13384000D02*
X19797700Y13430000D01*
X19797700Y13430000D02*
X19869200Y13489000D01*
X19869200Y13489000D02*
X19928700Y13560000D01*
X19928700Y13560000D02*
X19974100Y13642000D01*
X19974100Y13642000D02*
X20003800Y13732000D01*
X20003800Y13732000D02*
X20015800Y13829000D01*
X20015800Y13829000D02*
X20015800Y17305000D01*
X20015800Y17305000D02*
X20027800Y17402000D01*
X20027800Y17402000D02*
X20057500Y17492000D01*
X20057500Y17492000D02*
X20102900Y17574000D01*
X20102900Y17574000D02*
X20162300Y17646000D01*
X20162300Y17646000D02*
X20233900Y17705000D01*
X20233900Y17705000D02*
X20315800Y17750000D01*
X20315800Y17750000D02*
X20406100Y17780000D01*
X20406100Y17780000D02*
X20503100Y17792000D01*
X20503100Y17792000D02*
X23975200Y17792000D01*
X23975200Y17792000D02*
X24072200Y17804000D01*
X24072200Y17804000D02*
X24162600Y17834000D01*
X24162600Y17834000D02*
X24244400Y17879000D01*
X24244400Y17879000D02*
X24316000Y17938000D01*
X24316000Y17938000D02*
X24375400Y18010000D01*
X24375400Y18010000D02*
X24420900Y18091000D01*
X24420900Y18091000D02*
X24450500Y18182000D01*
X24450500Y18182000D02*
X24462500Y18279000D01*
X24462500Y18279000D02*
X24462500Y21752000D01*
X24462500Y21752000D02*
X24474600Y21849000D01*
X24474600Y21849000D02*
X24504200Y21940000D01*
X24504200Y21940000D02*
X24549700Y22021000D01*
X24549700Y22021000D02*
X24609100Y22093000D01*
X24609100Y22093000D02*
X24680600Y22152000D01*
X24680600Y22152000D02*
X24762500Y22198000D01*
X24762500Y22198000D02*
X24852900Y22227000D01*
X24852900Y22227000D02*
X24949900Y22239000D01*
X24949900Y22239000D02*
X28410600Y22239000D01*
X28410600Y22239000D02*
X28511900Y22250000D01*
X28511900Y22250000D02*
X28605500Y22279000D01*
X28605500Y22279000D02*
X28690700Y22325000D01*
X28690700Y22325000D02*
X28764600Y22386000D01*
X28764600Y22386000D02*
X28825600Y22460000D01*
X28825600Y22460000D02*
X28871600Y22545000D01*
X28871600Y22545000D02*
X28900500Y22638000D01*
X28900500Y22638000D02*
X28910900Y22739000D01*
X28910900Y22739000D02*
X28910900Y26200000D01*
X28910900Y26200000D02*
X28922900Y26297000D01*
X28922900Y26297000D02*
X28952500Y26387000D01*
X28952500Y26387000D02*
X28998000Y26469000D01*
X28998000Y26469000D02*
X29057400Y26541000D01*
X29057400Y26541000D02*
X29129000Y26600000D01*
X29129000Y26600000D02*
X29210800Y26645000D01*
X29210800Y26645000D02*
X29301200Y26675000D01*
X29301200Y26675000D02*
X29398200Y26687000D01*
X29398200Y26687000D02*
X32858900Y26687000D01*
X32858900Y26687000D02*
X32959700Y26697000D01*
X32959700Y26697000D02*
X33053800Y26726000D01*
X33053800Y26726000D02*
X33138500Y26773000D01*
X33138500Y26773000D02*
X33211900Y26834000D01*
X33211900Y26834000D02*
X33273900Y26908000D01*
X33273900Y26908000D02*
X33319900Y26992000D01*
X33319900Y26992000D02*
X33348800Y27086000D01*
X33348800Y27086000D02*
X33358600Y27187000D01*
X33358600Y27187000D02*
X33358600Y35096000D01*
X33358600Y35096000D02*
X33370700Y35193000D01*
X33370700Y35193000D02*
X33400300Y35284000D01*
X33400300Y35284000D02*
X33445800Y35365000D01*
X33445800Y35365000D02*
X33505200Y35437000D01*
X33505200Y35437000D02*
X33576700Y35496000D01*
X33576700Y35496000D02*
X33658600Y35542000D01*
X33658600Y35542000D02*
X33749000Y35571000D01*
X33749000Y35571000D02*
X33845900Y35583000D01*
X33845900Y35583000D02*
X37306700Y35583000D01*
X37306700Y35583000D02*
X37407500Y35593000D01*
X37407500Y35593000D02*
X37500500Y35622000D01*
X37500500Y35622000D02*
X37585800Y35668000D01*
X37585800Y35668000D02*
X37659700Y35729000D01*
X37659700Y35729000D02*
X37720700Y35803000D01*
X37720700Y35803000D02*
X37766600Y35888000D01*
X37766600Y35888000D02*
X37796600Y35982000D01*
X37796600Y35982000D02*
X37806900Y36082000D01*
X37806900Y36082000D02*
X37806900Y43991500D01*
X37806900Y43991500D02*
X37819000Y44088500D01*
X37819000Y44088500D02*
X37848600Y44178800D01*
X37848600Y44178800D02*
X37894100Y44260600D01*
X37894100Y44260600D02*
X37953500Y44332100D01*
X37953500Y44332100D02*
X38025000Y44391400D01*
X38025000Y44391400D02*
X38106900Y44436800D01*
X38106900Y44436800D02*
X38197300Y44466400D01*
X38197300Y44466400D02*
X38294300Y44478300D01*
X38294300Y44478300D02*
X41754500Y44478300D01*
X41754500Y44478300D02*
X41854800Y44489100D01*
X41854800Y44489100D02*
X41948800Y44518100D01*
X41948800Y44518100D02*
X42033600Y44564000D01*
X42033600Y44564000D02*
X42107500Y44625000D01*
X42107500Y44625000D02*
X42168400Y44698900D01*
X42168400Y44698900D02*
X42215000Y44784200D01*
X42215000Y44784200D02*
X42243900Y44877200D01*
X42243900Y44877200D02*
X42254700Y44978000D01*
X42254700Y44978000D02*
X42254700Y52887600D01*
X42254700Y52887600D02*
X42266700Y52984400D01*
X42266700Y52984400D02*
X42296300Y53074500D01*
X42296300Y53074500D02*
X42341600Y53156300D01*
X42341600Y53156300D02*
X42400800Y53227700D01*
X42400800Y53227700D02*
X42472100Y53287100D01*
X42472100Y53287100D02*
X42553700Y53332500D01*
X42553700Y53332500D02*
X42643800Y53362200D01*
X42643800Y53362200D02*
X42740500Y53374400D01*
X42740500Y53374400D02*
X42742100Y53374400D01*
X42742100Y53374400D02*
X46216800Y53373900D01*
X46216800Y53373900D02*
X46313800Y53386000D01*
X46313800Y53386000D02*
X46403800Y53415700D01*
X46403800Y53415700D02*
X46484800Y53461200D01*
X46484800Y53461200D02*
X46556800Y53520500D01*
X46556800Y53520500D02*
X46615800Y53592000D01*
X46615800Y53592000D02*
X46660800Y53673700D01*
X46660800Y53673700D02*
X46690800Y53763800D01*
X46690800Y53763800D02*
X46702800Y53860600D01*
X46702800Y53860600D02*
X46702800Y66231300D01*
X46702800Y66231300D02*
X46714800Y66328200D01*
X46714800Y66328200D02*
X46743800Y66418600D01*
X46743800Y66418600D02*
X46789800Y66500400D01*
X46789800Y66500400D02*
X46848800Y66571900D01*
X46848800Y66571900D02*
X46920800Y66631200D01*
X46920800Y66631200D02*
X47002800Y66676600D01*
X47002800Y66676600D02*
X47092800Y66706200D01*
X47092800Y66706200D02*
X47189800Y66718100D01*
X47189800Y66718100D02*
X50663800Y66718100D01*
X50663800Y66718100D02*
X50760800Y66730000D01*
X50760800Y66730000D02*
X50850800Y66759500D01*
X50850800Y66759500D02*
X50932800Y66804900D01*
X50932800Y66804900D02*
X51004800Y66864200D01*
X51004800Y66864200D02*
X51063800Y66935700D01*
X51063800Y66935700D02*
X51108800Y67017600D01*
X51108800Y67017600D02*
X51138800Y67107900D01*
X51138800Y67107900D02*
X51150800Y67204900D01*
X51150800Y67204900D02*
X51150800Y84021900D01*
X51150800Y84021900D02*
X51162800Y84118900D01*
X51162800Y84118900D02*
X51192800Y84209200D01*
X51192800Y84209200D02*
X51237800Y84291000D01*
X51237800Y84291000D02*
X51297800Y84362500D01*
X51297800Y84362500D02*
X51368800Y84421900D01*
X51368800Y84421900D02*
X51450800Y84467200D01*
X51450800Y84467200D02*
X51540800Y84496800D01*
X51540800Y84496800D02*
X51637800Y84508700D01*
X51637800Y84508700D02*
X55110800Y84508700D01*
X55110800Y84508700D02*
X55207800Y84520600D01*
X55207800Y84520600D02*
X55297800Y84550200D01*
X55297800Y84550200D02*
X55379800Y84595500D01*
X55379800Y84595500D02*
X55451800Y84654900D01*
X55451800Y84654900D02*
X55510800Y84726400D01*
X55510800Y84726400D02*
X55556800Y84808200D01*
X55556800Y84808200D02*
X55585800Y84898500D01*
X55585800Y84898500D02*
X55597800Y84995500D01*
X55597800Y84995500D02*
X55597800Y115146100D01*
X55597800Y115146100D02*
X55585800Y115243100D01*
X55585800Y115243100D02*
X55556800Y115333400D01*
X55556800Y115333400D02*
X55510800Y115415300D01*
X55510800Y115415300D02*
X55451800Y115486900D01*
X55451800Y115486900D02*
X55380800Y115546300D01*
X55380800Y115546300D02*
X55298800Y115591800D01*
X55298800Y115591800D02*
X55208800Y115621400D01*
X55208800Y115621400D02*
X55111800Y115633400D01*
X55111800Y115633400D02*
X51661800Y115633400D01*
X51661800Y115633400D02*
X51564800Y115645400D01*
X51564800Y115645400D02*
X51474800Y115675100D01*
X51474800Y115675100D02*
X51392800Y115720500D01*
X51392800Y115720500D02*
X51321800Y115780000D01*
X51321800Y115780000D02*
X51261800Y115851500D01*
X51261800Y115851500D02*
X51216800Y115933400D01*
X51216800Y115933400D02*
X51186800Y116023700D01*
X51186800Y116023700D02*
X51174800Y116120700D01*
X51174800Y116120700D02*
X51174800Y128479200D01*
X51174800Y128479200D02*
X51162800Y128576100D01*
X51162800Y128576100D02*
X51133800Y128666500D01*
X51133800Y128666500D02*
X51087800Y128748400D01*
X51087800Y128748400D02*
X51028800Y128819900D01*
X51028800Y128819900D02*
X50957800Y128879300D01*
X50957800Y128879300D02*
X50875800Y128924800D01*
X50875800Y128924800D02*
X50785800Y128954400D01*
X50785800Y128954400D02*
X50688800Y128966500D01*
X50688800Y128966500D02*
X38324700Y128966500D01*
X38324700Y128966500D02*
X38227800Y128978500D01*
X38227800Y128978500D02*
X38137500Y129008100D01*
X38137500Y129008100D02*
X38055600Y129053600D01*
X38055600Y129053600D02*
X37984100Y129113000D01*
X37984100Y129113000D02*
X37924800Y129184600D01*
X37924800Y129184600D02*
X37879400Y129266400D01*
X37879400Y129266400D02*
X37849900Y129356800D01*
X37849900Y129356800D02*
X37838000Y129453800D01*
X37838000Y129453800D02*
X37838000Y132926940D01*
X37838000Y132926940D02*
X37826000Y133023930D01*
X37826000Y133023930D02*
X37796500Y133114280D01*
X37796500Y133114280D02*
X37751100Y133196150D01*
X37751100Y133196150D02*
X37691800Y133267710D01*
X37691800Y133267710D02*
X37620300Y133327140D01*
X37620300Y133327140D02*
X37538500Y133372590D01*
X37538500Y133372590D02*
X37448100Y133402240D01*
X37448100Y133402240D02*
X37351200Y133414250D01*
X37351200Y133414250D02*
X16052200Y133414250D01*
X16052200Y133414250D02*
X15955200Y133426260D01*
X15955200Y133426260D02*
X15864900Y133455910D01*
X15864900Y133455910D02*
X15783100Y133501360D01*
X15783100Y133501360D02*
X15711600Y133560790D01*
X15711600Y133560790D02*
X15652200Y133632350D01*
X15652200Y133632350D02*
X15606900Y133714220D01*
X15606900Y133714220D02*
X15577300Y133804570D01*
X15577300Y133804570D02*
X15565400Y133901560D01*
X15565400Y133901560D02*
X15565400Y137374730D01*
X15565400Y137374730D02*
X15553500Y137471720D01*
X15553500Y137471720D02*
X15524000Y137562070D01*
X15524000Y137562070D02*
X15478600Y137643940D01*
X15478600Y137643940D02*
X15419200Y137715500D01*
X15419200Y137715500D02*
X15347700Y137774930D01*
X15347700Y137774930D02*
X15265900Y137820380D01*
X15265900Y137820380D02*
X15175600Y137850030D01*
X15175600Y137850030D02*
X15078600Y137862040D01*
X15078600Y137862040D02*
X2685600Y137862040D01*
X2685600Y137862040D02*
X2588600Y137874050D01*
X2588600Y137874050D02*
X2498300Y137903700D01*
X2498300Y137903700D02*
X2416500Y137949150D01*
X2416500Y137949150D02*
X2345000Y138008580D01*
X2345000Y138008580D02*
X2285600Y138080140D01*
X2285600Y138080140D02*
X2240300Y138162010D01*
X2240300Y138162010D02*
X2210700Y138252360D01*
X2210700Y138252360D02*
X2198800Y138349350D01*
X2198800Y138349350D02*
X2198800Y141822524D01*
X2198800Y141822524D02*
X2186900Y141919512D01*
X2186900Y141919512D02*
X2157300Y142009858D01*
X2157300Y142009858D02*
X2112000Y142091729D01*
X2112000Y142091729D02*
X2052600Y142163293D01*
X2052600Y142163293D02*
X1981100Y142222718D01*
X1981100Y142222718D02*
X1899300Y142268171D01*
X1899300Y142268171D02*
X1809000Y142297820D01*
X1809000Y142297820D02*
X1712000Y142309832D01*
X1712000Y142309832D02*
X-1724500Y142309832D01*
X-1724500Y142309832D02*
X-1724500Y142309832D01*
G04 #@! TO.C,DISP1*
X35602500Y124990000D02*
G75*
G03*
X34102500Y124990000I-750000J0D01*
G01*
X34102500Y83990000D02*
G75*
G03*
X35602500Y83990000I750000J0D01*
G01*
X35602500Y124990000D02*
X35602500Y83990000D01*
X34102500Y83990000D02*
X34102500Y124990000D01*
G04 #@! TD*
M02*
